<svg width="930" height="820" viewBox="0 0 930 820" fill="none" xmlns="http://www.w3.org/2000/svg">
<path d="M644.409 83.8916C641.48 85.5871 638.551 88.0534 637.935 91.5987C637.704 92.7548 637.318 93.8338 637.087 94.9898C636.856 96.6083 636.779 98.1498 637.087 99.6912C637.318 101.078 637.935 102.466 638.937 103.468C639.399 103.93 640.016 104.315 640.555 104.701C641.249 105.086 641.557 105.394 642.405 106.011C645.102 107.938 648.571 108.863 651.885 108.631C655.199 108.4 657.973 107.321 660.902 105.934C663.445 104.778 665.912 103.236 667.453 100.77C670.69 95.6835 668.147 88.2846 663.754 84.7394C661.21 82.6584 657.973 81.6565 654.659 81.6565C652.733 81.6565 650.652 82.3501 648.956 82.5043C648.108 82.5814 647.261 82.5043 646.336 82.6584C645.18 82.8896 644.255 83.4291 643.33 84.1999C642.02 85.2789 642.251 87.4369 643.33 88.5929C644.64 89.9031 646.413 89.6719 647.723 88.5929C647.492 88.8241 647.723 88.67 648.108 88.67C648.648 88.67 649.264 88.67 649.804 88.5929C651.114 88.4388 652.424 88.0534 653.812 87.8993C654.428 87.8993 655.045 87.8993 655.661 87.8993C656.201 87.8993 656.201 87.8993 656.586 87.9763C657.049 88.0534 657.434 88.1305 657.819 88.2846C658.513 88.5158 658.205 88.3617 658.821 88.7471C659.746 89.2866 659.823 89.2866 660.517 90.0573C661.133 90.6738 661.519 91.2904 662.058 92.2923C662.752 93.6026 663.06 95.8376 662.444 97.302C662.598 96.9166 661.981 97.9956 662.058 97.9185C662.058 97.9185 661.519 98.458 661.288 98.6122C660.825 98.9975 661.827 98.2268 660.979 98.8434C660.825 98.9975 660.594 99.0746 660.44 99.2287C659.977 99.537 659.515 99.7682 658.975 100.077C657.28 101.001 655.507 101.772 653.58 102.157C651.422 102.697 649.419 102.697 647.415 101.695C646.49 101.233 645.873 100.924 645.18 100.385C644.64 99.9224 644.178 99.6912 643.561 99.3058C643.099 99.0746 643.792 99.537 643.407 99.3058C643.253 99.1517 643.253 99.1517 643.407 99.3058L643.253 99.0746C643.407 99.6141 643.253 98.9975 643.176 98.8434C643.176 98.6122 643.022 98.3039 643.022 98.0727C643.022 98.5351 643.022 97.9956 643.022 97.9185C643.022 97.6103 643.022 97.2249 643.022 96.9166C643.022 96.6854 643.022 96.4542 643.022 96.3001C643.022 96.8396 643.099 95.9147 643.099 95.9147C643.176 95.4522 643.33 95.0669 643.484 94.6045C643.869 93.4484 643.792 92.4465 644.563 91.4446C645.334 90.4426 646.259 89.9802 647.338 89.3636C650.806 87.3598 647.646 82.0419 644.255 84.0457L644.409 83.8916Z" fill="#231815"/>
<path d="M650.42 112.099C650.42 114.18 650.42 116.261 650.651 118.342C650.651 118.804 650.805 119.267 650.882 119.729V119.96C650.882 119.96 650.959 120.269 650.882 119.806C650.882 119.96 650.882 120.346 650.882 120.5C650.882 120.731 650.882 121.039 650.882 121.271C650.882 122.272 650.882 123.274 650.882 124.276C650.882 125.895 652.27 127.436 653.965 127.359C655.661 127.282 657.048 125.972 657.048 124.276C657.048 123.274 657.048 122.35 657.048 121.348C657.048 120.808 657.048 120.346 657.048 119.806C657.048 119.421 656.971 118.958 656.894 118.573C656.894 118.496 656.74 117.571 656.817 118.034C656.894 118.496 656.817 117.571 656.817 117.494C656.817 117.263 656.817 117.032 656.817 116.8C656.817 116.261 656.817 115.798 656.817 115.259C656.817 114.18 656.817 113.101 656.817 112.099C656.817 110.481 655.43 108.939 653.734 109.016C652.038 109.093 650.651 110.403 650.651 112.099H650.42Z" fill="#231815"/>
<path d="M638.475 129.826C639.863 129.903 641.25 130.212 642.637 130.366C643.87 130.443 645.026 130.674 646.259 130.751C648.957 130.751 651.577 130.751 654.275 131.06C655.585 131.214 656.972 131.06 658.283 131.214C659.593 131.368 660.903 131.522 662.29 131.522C664.757 131.522 666.915 130.905 669.381 131.522L667.223 129.364V129.749C667.531 131.368 669.612 132.293 671.076 131.907C672.849 131.445 673.466 129.749 673.234 128.131V127.745C673.08 126.744 672.001 125.819 670.999 125.588C669.843 125.279 668.302 125.048 667.069 124.971C665.836 124.894 664.602 125.356 663.369 125.433C662.059 125.433 660.672 125.433 659.362 125.202C657.82 124.894 656.356 125.125 654.814 124.971C652.04 124.74 649.265 124.663 646.491 124.586C643.716 124.509 641.096 123.892 638.398 123.738C634.468 123.507 634.468 129.672 638.398 129.904L638.475 129.826Z" fill="#231815"/>
<path d="M684.485 88.8241C682.79 90.7509 682.713 93.3713 682.867 95.8376C683.021 98.6893 683.098 101.618 683.175 104.47C683.329 108.092 683.406 111.714 683.175 115.337C682.944 118.959 682.481 122.89 682.404 126.666H688.57V126.281C688.57 122.35 682.404 122.273 682.404 126.281V126.666C682.404 130.597 688.57 130.674 688.57 126.666C688.57 119.884 689.572 113.256 689.341 106.473C689.264 103.622 689.264 100.693 689.11 97.8415C689.11 96.8395 688.955 95.9147 688.955 94.9128C688.955 94.3733 689.109 93.6796 688.955 93.1401C688.955 92.9089 689.187 92.6777 688.801 93.1401C691.422 90.1344 687.029 85.7413 684.408 88.7471L684.485 88.8241Z" fill="#231815"/>
<path d="M690.495 113.871C690.495 113.871 690.572 113.794 690.649 113.717L690.033 114.18C690.033 114.18 690.341 113.948 690.572 113.871L689.802 114.18C689.802 114.18 690.572 113.948 690.958 113.871H690.11C691.112 113.871 692.037 113.871 693.039 114.025H692.191C692.962 114.025 693.655 114.334 694.426 114.488C695.736 114.796 697.046 114.642 698.279 114.642C699.898 114.642 701.439 113.255 701.362 111.559C701.285 109.864 699.975 108.476 698.279 108.476C697.355 108.476 696.353 108.553 695.428 108.476H696.276C695.505 108.476 694.888 108.091 694.118 108.014C693.27 107.86 692.422 107.783 691.497 107.783C689.57 107.783 687.489 108.091 686.025 109.478C684.869 110.557 684.792 112.715 686.025 113.871C687.258 115.027 689.108 115.027 690.418 113.871H690.495Z" fill="#231815"/>
<path d="M718.319 98.9974C716.7 98.9974 715.159 99.2286 713.772 100.076C712.153 101.078 710.766 102.543 709.687 104.084C708.839 105.394 708.222 106.936 707.606 108.477C706.835 110.327 706.296 112.177 706.064 114.18C705.756 117.34 705.833 120.963 707.76 123.66C708.685 124.97 709.918 126.435 711.305 127.36C712.538 128.207 714.388 128.747 715.775 129.209C717.471 129.749 719.089 129.903 720.862 129.672C722.481 129.363 724.253 128.901 725.795 128.362C728.877 127.283 731.421 125.356 733.348 122.735C735.274 120.115 735.737 116.955 735.66 113.795C735.66 112.1 735.197 110.481 734.812 108.863C734.427 107.09 734.041 105.626 732.731 104.238C732.269 103.699 731.96 103.468 731.575 102.928C731.19 102.311 730.727 101.695 730.188 101.155C728.877 99.9993 726.874 98.8433 725.178 98.3808C723.405 97.9184 721.402 97.9955 719.552 98.1496C718.781 98.2267 717.856 98.535 717.317 98.535C716.007 98.612 715.005 98.8433 714.08 99.8452C711.228 102.62 715.621 107.013 718.473 104.238H718.396C717.856 104.469 717.394 104.624 716.854 104.778C717.24 104.778 717.625 104.778 718.01 104.778C718.781 104.778 719.398 104.469 720.091 104.315C721.093 104.161 722.481 104.084 723.483 104.315C724.253 104.469 725.101 105.009 725.795 105.471C726.257 105.78 725.641 105.394 726.026 105.626C726.411 105.857 725.795 105.317 726.026 105.626C726.411 106.088 726.72 106.705 727.105 107.167C727.49 107.629 727.876 107.938 728.261 108.4C728.492 108.631 728.492 108.785 728.492 108.863C728.8 109.942 729.032 111.175 729.263 112.254C729.648 114.026 729.571 116.338 729.032 117.803C728.261 119.73 726.874 120.963 725.178 121.81C724.253 122.273 723.482 122.504 722.481 122.812C721.402 123.044 720.246 123.66 719.167 123.66C718.242 123.66 717.394 123.275 716.546 122.967C715.544 122.581 714.851 122.427 714.157 121.733C712.538 120.038 712.153 119.421 712.153 117.109C712.153 115.645 712.153 114.258 712.615 112.87C713.001 111.637 713.463 110.404 714.003 109.248C714.542 108.015 715.159 107.013 716.238 106.088C716.315 106.011 716.469 105.857 716.546 105.78C716.546 105.78 717.471 105.163 717.086 105.394C717.086 105.394 717.702 105.24 717.24 105.317C717.625 105.317 718.01 105.317 718.396 105.317C722.326 105.317 722.403 99.1515 718.396 99.1515L718.319 98.9974Z" fill="#231815"/>
<path d="M740.979 91.8306C741.133 98.9982 742.443 106.243 743.214 113.411C743.599 116.879 743.599 120.116 743.214 123.507C743.059 124.817 743.059 126.127 742.828 127.438C742.52 129.21 742.828 130.675 744.061 132.062C746.682 135.068 750.998 130.675 748.454 127.669L748.146 127.283L748.917 128.671C748.763 128.208 749.302 126.204 749.302 125.511C749.302 123.892 749.61 122.351 749.765 120.732C749.996 117.65 749.61 114.644 749.225 111.561C748.454 105.01 747.375 98.3817 747.221 91.7536C747.144 87.8229 740.979 87.7459 741.056 91.7536L740.979 91.8306Z" fill="#231815"/>
<path d="M749.226 116.648H749.303C749.303 116.648 748.918 116.879 748.687 117.033C748.764 116.956 748.918 116.879 748.995 116.802L748.224 117.11C748.224 117.11 748.455 117.11 748.609 117.033H747.762C748.532 117.033 749.303 117.11 750.074 117.033C750.613 116.956 751.076 116.725 751.615 116.725H750.767C751.615 116.725 752.54 116.879 753.388 116.879C754.852 116.879 756.471 116.571 757.473 115.415C758.012 114.798 758.398 114.104 758.398 113.257C758.398 112.486 758.089 111.561 757.473 111.099C756.317 110.02 754.236 109.789 753.08 111.099C753.08 111.099 753.003 111.176 752.925 111.253L753.542 110.79C753.542 110.79 753.388 110.945 753.234 110.945L754.004 110.636C754.004 110.636 753.619 110.79 753.388 110.79H754.236C753.388 110.79 752.617 110.636 751.769 110.636C750.536 110.636 749.457 110.945 748.301 111.176H749.149C748.687 111.176 748.301 111.099 747.839 111.176C746.606 111.253 745.758 111.638 744.756 112.486C744.216 112.948 743.831 113.95 743.831 114.644C743.831 115.338 744.139 116.34 744.756 116.802C745.373 117.264 746.143 117.727 746.914 117.727C747.685 117.727 748.455 117.342 749.072 116.802L749.226 116.648Z" fill="#231815"/>
</svg>
