<svg width="930" height="820" viewBox="0 0 930 820" fill="none" xmlns="http://www.w3.org/2000/svg">
<path d="M303.756 495.605C300.828 492.985 297.591 492.522 293.968 491.289C290.346 490.056 286.569 488.437 282.793 488.283C274.777 487.975 267.687 490.981 259.98 492.907C253.506 494.526 247.263 498.071 241.328 501.077C238.246 502.696 235.471 504.468 232.157 505.547C227.61 507.089 228.92 510.249 230.77 513.871C234.238 520.576 238.091 526.665 242.253 532.908C243.101 534.218 244.411 535.297 245.182 536.607C246.03 537.994 246.184 539.69 247.186 541.077C249.421 544.237 252.504 546.78 254.585 550.171C257.591 555.104 262.215 559.035 266.3 563.119C268.997 565.817 272.311 567.898 275.163 570.441C278.631 573.447 282.485 576.992 286.492 579.15C288.111 580.075 289.96 580.46 291.656 581.308C293.506 582.31 294.816 584.006 296.434 585.393C299.517 588.013 303.371 590.017 306.762 592.329C309.614 594.256 311.849 596.645 314.777 598.495C317.167 600.037 319.633 601.347 322.099 602.811C324.874 604.43 327.725 606.973 330.577 608.283C333.429 609.593 336.512 610.21 339.363 611.443C344.681 613.755 350.153 616.915 355.24 619.69C356.319 620.306 358.092 621.077 358.246 622.541C358.4 624.16 355.548 626.703 354.546 627.705C351.309 631.019 348.381 635.181 348.381 639.96C348.381 643.659 349.922 647.204 350.924 650.75C352.003 654.68 354.007 657.223 356.858 660.075C367.494 670.865 383.756 677.57 398.862 673.794C404.951 672.252 411.117 672.098 416.974 669.94C418.592 669.401 420.211 668.707 421.675 667.859C422.523 667.397 424.758 665.085 425.683 665.393C428.149 666.164 424.681 673.563 424.065 675.335C422.523 679.651 420.673 682.349 420.596 687.05C420.596 690.056 421.213 692.907 421.984 695.836C423.756 702.85 432.465 705.316 439.093 704.622C441.868 704.314 444.565 703.235 447.263 702.541C450.577 701.694 453.737 700.538 456.666 698.688C459.826 696.684 462.986 694.603 466.223 692.753C469.074 691.135 473.159 688.36 474.7 685.432C476.242 682.503 477.013 679.574 478.554 676.8C479.864 674.487 479.479 673.331 479.864 671.019C480.249 668.707 481.328 667.474 483.641 667.089C485.953 666.703 488.496 667.397 490.885 667.243C494.045 666.934 496.974 665.547 500.134 664.931C514.777 661.848 529.883 657.301 543.371 650.75C546.531 649.208 549.768 647.975 552.928 646.588C554.7 645.817 556.011 644.43 557.783 643.659C559.787 642.811 561.714 641.809 563.718 640.884C567.34 639.266 569.96 636.568 573.275 634.333C576.743 631.944 580.519 629.863 584.064 627.474C591.772 622.31 598.862 616.607 606.646 611.52C610.962 608.669 614.739 605.2 618.978 602.349C622.754 599.882 625.837 597.108 628.997 593.871C632.157 590.634 635.625 588.168 638.785 585.008C642.947 580.923 646.646 576.222 650.192 571.674C653.275 567.744 655.51 563.119 658.438 559.035C660.905 555.721 663.602 552.561 666.223 549.324C671.386 543.004 675.24 535.528 679.479 528.437C683.486 521.809 686.646 514.642 689.806 507.551C692.504 501.539 694.276 494.911 696.357 488.592C697.513 485.2 697.822 481.501 698.67 477.956C699.826 472.792 696.743 471.944 692.735 469.863C689.036 468.013 685.259 466.472 681.56 464.622C679.17 463.389 675.702 460.615 673.082 461.077C669.537 461.694 666.916 465.085 664.296 467.089C662.6 468.399 660.596 469.478 658.824 470.711C656.743 472.098 655.124 474.025 652.889 475.104C649.575 476.723 646.261 478.495 643.024 480.345C639.787 482.195 636.011 483.505 632.619 485.354C628.535 487.512 624.142 488.669 619.749 490.133C615.355 491.597 611.425 494.064 607.032 495.451C603.872 496.453 600.635 497.609 597.475 498.611C595.009 499.381 591.309 501.154 588.689 500.846" fill="#C8E7EA"/>
<path d="M306.762 492.6C301.675 488.669 294.893 486.742 288.804 485.047C282.33 483.274 275.779 484.199 269.382 485.894C262.523 487.667 255.587 489.44 249.113 492.445C242.639 495.451 236.396 498.919 229.999 501.925C218.13 507.474 231.001 523.197 235.317 529.979C237.244 532.985 239.787 535.682 241.56 538.688C243.024 541.154 243.718 543.467 245.567 545.779C249.575 550.634 253.197 556.029 257.668 560.499C262.6 565.586 268.149 569.748 273.467 574.372C278.4 578.611 283.024 581.694 288.804 584.546C291.81 586.01 294.045 588.862 296.82 590.865C299.594 592.869 302.831 594.488 305.606 596.646C311.232 600.885 317.012 604.353 322.87 608.284C328.959 612.445 335.587 614.064 342.138 617.378C345.375 618.996 348.535 620.769 351.695 622.542C352.003 622.696 353.313 623.698 353.698 623.621C354.546 623.467 353.698 622.465 354.161 622.31C353.39 622.465 351.232 625.393 350.693 625.933C346.685 630.48 343.833 635.952 344.527 642.118C345.143 647.975 347.379 654.757 350.924 659.459C359.016 670.095 372.581 677.339 385.76 678.727C393.005 679.497 399.71 677.648 406.8 676.492C410.962 675.798 415.124 675.104 419.055 673.64C420.673 673.023 422.446 672.407 423.987 671.482C424.912 670.942 425.837 669.632 426.993 669.401L423.756 669.016C420.75 667.089 423.294 667.012 422.292 668.399C421.906 668.939 421.752 670.172 421.444 670.865C421.059 672.021 420.596 673.1 420.134 674.179C418.438 678.418 416.589 682.426 416.511 687.05C416.357 695.066 419.132 703.158 426.762 706.704C434.392 710.249 441.714 708.476 449.344 706.241C453.891 704.931 457.668 702.927 461.598 700.461C465.529 697.994 469.922 695.759 473.621 692.831C476.858 690.287 478.554 687.359 480.095 683.659C480.943 681.655 482.022 679.651 482.87 677.648C483.564 675.952 483.255 673.871 483.949 672.253C484.874 670.172 483.718 671.713 485.105 671.174C485.953 670.788 487.802 671.328 488.727 671.405C490.885 671.482 492.966 671.174 495.124 670.711C499.98 669.555 504.835 668.245 509.691 667.012C519.71 664.546 529.575 661.309 539.055 657.224C547.918 653.447 556.319 648.977 565.028 644.892C568.881 643.043 571.887 640.345 575.278 637.956C579.748 634.873 584.45 632.253 588.92 629.17C597.167 623.389 605.722 617.686 613.66 611.52C629.459 599.343 645.644 586.858 656.589 569.748C659.132 565.663 661.521 561.655 664.527 557.879C667.764 553.794 671.155 549.941 674.007 545.547C679.479 537.301 684.488 528.515 688.727 519.574C692.966 510.634 696.511 501.077 699.671 491.443C701.752 484.969 705.914 474.102 699.209 469.016C695.587 466.241 690.731 464.623 686.646 462.696C682.562 460.769 678.477 457.301 674.007 457.07C669.537 456.838 666.222 459.921 663.063 462.619C659.286 465.856 654.739 469.17 650.5 471.713C640.712 477.571 630.076 482.426 619.209 486.048C613.737 487.898 608.727 490.596 603.255 492.445C598.862 493.91 593.159 496.993 588.458 496.915C583.063 496.915 583.063 505.239 588.458 505.316C594.777 505.316 601.945 501.848 607.88 499.69C611.348 498.457 614.585 496.838 617.899 495.374C621.906 493.679 626.222 492.677 630.307 490.981C637.321 488.129 643.872 484.43 650.5 480.962C656.743 477.725 663.063 473.563 668.458 468.939C671.617 466.164 673.005 464.854 676.935 467.089C680.558 469.093 684.257 470.711 688.034 472.484C689.267 473.1 693.891 474.565 694.508 475.798C695.047 476.954 693.737 480.345 693.583 481.424C693.197 483.505 692.735 485.586 692.118 487.59C687.263 503.389 680.635 517.802 672.311 532.06C668.226 539.151 663.679 545.47 658.515 551.867C653.66 557.879 650.115 564.661 645.413 570.75C635.625 583.312 623.448 593.178 610.962 602.888C598.477 612.599 584.296 621.386 570.962 630.634C568.419 632.407 566.107 634.565 563.409 636.183C560.095 638.187 556.396 639.42 553.082 641.424C546.608 645.355 538.824 648.361 531.733 651.135C524.103 654.141 516.242 656.607 508.226 658.611C500.75 660.538 493.352 662.85 485.722 662.773C480.172 662.696 476.396 665.393 475.625 670.942C474.623 677.725 471.155 684.738 465.221 688.361C458.438 692.522 452.195 696.607 444.488 698.842C439.247 700.384 431.078 702.156 426.993 696.838C422.215 690.673 425.683 682.349 428.149 676.106C429.614 672.484 432.08 667.474 429.922 663.698C426.454 657.763 420.905 663.698 416.974 665.316C410.192 668.014 402.022 669.093 394.854 670.172C381.367 672.176 364.565 664.931 356.935 653.524C355.086 650.75 354.238 647.282 353.39 644.122C352.003 639.189 353.236 635.413 356.55 631.636C359.71 628.091 364.874 624.006 361.251 618.842C359.479 616.376 356.011 615.143 353.544 613.756C349.845 611.752 346.222 609.671 342.369 607.975C339.286 606.588 335.895 605.817 332.812 604.43C329.036 602.734 325.721 599.806 322.099 597.725C315.625 594.025 309.999 589.17 303.679 585.162C300.519 583.158 298.13 580.461 295.201 578.38C292.35 576.376 288.959 575.605 286.107 573.679C279.941 569.517 273.698 564.045 268.226 558.881C265.76 556.492 263.14 554.102 260.905 551.482C258.438 548.553 256.511 545.316 253.968 542.388C251.81 539.921 250.654 537.686 249.113 534.835C247.34 531.598 244.643 528.746 242.562 525.586C240.404 522.272 238.323 518.881 236.396 515.336C235.625 513.948 234.777 512.484 234.084 511.02C233.853 510.557 233.467 509.941 233.39 509.401C233.159 508.245 232.465 509.709 233.93 509.093C241.251 506.164 247.879 501.617 255.201 498.688C261.984 495.914 269.999 493.678 277.244 492.6C281.714 491.906 285.49 492.6 289.806 494.064C293.429 495.297 297.822 496.068 300.905 498.457C305.143 501.771 311.078 495.836 306.839 492.522L306.762 492.6Z" fill="#231815"/>
<path d="M279.171 503.776C276.165 506.859 273.776 508.169 269.846 509.48C265.915 510.79 262.447 512.871 258.593 514.181C251.503 516.57 244.181 518.882 237.013 520.886C234.007 521.734 231.079 522.274 228.073 522.736C225.067 523.198 223.68 521.657 221.214 520.27C217.36 518.035 215.356 515.337 213.044 511.561C211.117 508.478 209.036 504.393 208.266 500.848C206.57 493.526 206.108 485.125 210.347 478.574C211.348 477.11 211.58 475.183 212.813 473.873C214.046 472.485 215.51 471.021 216.821 469.634C219.826 466.551 224.142 466.089 227.919 464.547C231.156 463.237 234.084 462.774 237.476 462.004C240.867 461.233 244.181 459.923 247.726 459.923C254.2 459.923 263.14 461.079 268.304 465.395C273.853 470.019 280.173 476.262 281.715 483.43C283.025 489.364 284.412 498.15 279.171 502.852" fill="#C8E7EA"/>
<path d="M276.163 500.847C271.847 505.086 265.759 506.628 260.364 509.017C253.427 512.1 245.797 514.027 238.552 516.108C235.238 517.11 231.693 518.189 228.148 518.497C225.527 518.728 222.753 516.647 220.749 514.874C216.51 511.098 213.273 504.624 212.04 499.152C210.576 492.678 210.653 486.589 213.813 480.655C214.506 479.422 214.892 477.957 215.662 476.801C216.433 475.568 217.82 474.412 218.822 473.41C221.134 471.098 223.755 470.327 226.761 469.325C238.167 465.472 252.194 461.002 263.601 467.399C268.919 470.404 274.776 476.724 276.934 482.427C278.784 487.36 280.248 495.761 276.086 499.846C272.233 503.699 278.167 509.557 282.021 505.78C287.339 500.462 287.493 492.909 286.337 485.896C285.026 477.957 281.019 471.715 275.315 466.165C269.612 460.616 263.601 457.456 255.739 456.377C252.04 455.838 248.186 455.453 244.41 456.069C240.094 456.686 235.624 457.996 231.385 458.998C227.531 459.923 223.446 461.387 219.747 462.851C216.048 464.316 213.196 466.936 210.421 470.019C207.955 472.716 206.183 476.57 204.718 479.961C203.177 483.661 202.56 487.668 202.637 491.676C202.791 500.154 205.489 507.938 210.036 515.029C213.581 520.424 220.287 527.206 227.223 526.975C232.156 526.821 237.242 525.125 241.944 523.738C247.339 522.119 252.734 520.424 258.129 518.651C262.753 517.032 267.146 514.874 271.77 513.179C275.701 511.715 278.938 509.711 281.944 506.782C285.797 503.006 279.863 497.071 276.009 500.847H276.163Z" fill="#231815"/>
<path d="M711.771 488.285C708.765 489.981 707.07 491.06 703.602 491.06C700.519 491.06 697.513 491.06 694.43 491.06C688.496 491.06 682.869 489.441 677.089 488.208C673.775 487.514 670.615 485.896 668.149 483.584C665.374 480.963 661.521 478.035 659.671 474.644C657.898 471.484 657.359 467.168 656.511 463.699C655.586 459.769 655.817 455.53 656.974 451.753C658.9 445.434 662.214 439.268 667.532 434.952C671.078 432.023 676.318 430.944 680.789 430.173C685.259 429.403 689.189 430.019 693.505 429.942C696.819 429.942 699.132 430.096 702.214 431.33C705.297 432.563 708.457 434.027 711.309 435.8C716.935 439.345 720.943 445.665 723.178 451.83C725.644 458.536 725.644 464.624 724.103 471.484C723.332 474.721 722.484 478.266 720.943 481.272C719.71 483.815 718.168 485.125 715.856 486.744C714.238 487.9 712.08 490.289 709.922 490.212" fill="#C8E7EA"/>
<path d="M709.613 484.662C707.069 486.126 705.22 486.82 702.214 486.82C698.591 486.82 694.892 486.974 691.27 486.666C687.879 486.358 684.565 485.51 681.25 484.816C678.245 484.122 675.239 483.66 672.618 481.81C668.534 478.959 663.601 474.566 662.137 469.633C660.287 463.467 659.362 457.456 661.52 451.29C663.293 446.049 666.453 440.346 671.308 437.34C676.164 434.334 682.869 433.718 688.418 433.872C691.501 433.949 694.892 433.641 697.898 434.257C700.904 434.874 704.064 436.338 706.761 437.88C712.156 440.808 715.855 445.356 718.322 450.905C721.25 457.533 721.405 464.392 719.786 471.406C719.015 474.643 718.245 478.496 716.087 481.117C715.239 482.119 714.16 482.812 713.158 483.583C712.387 484.122 710.923 485.895 709.921 485.972C704.603 486.358 704.526 494.758 709.921 494.373C713.697 494.142 715.933 491.984 718.784 489.749C721.867 487.359 723.948 484.97 725.412 481.348C728.495 474.026 730.037 465.548 728.88 457.61C726.645 441.964 714.083 427.86 697.898 425.934C689.96 425.009 681.328 425.163 673.62 427.398C665.913 429.633 660.287 434.874 656.511 441.887C652.734 448.901 650.807 456.762 652.426 464.855C653.119 468.477 653.813 472.099 655.354 475.413C656.973 478.959 659.748 481.656 662.522 484.2C665.682 487.051 668.534 489.672 672.541 491.29C676.857 492.986 681.867 493.833 686.414 494.527C691.501 495.375 696.433 495.298 701.597 495.298C706.376 495.298 709.69 494.373 713.852 491.984C718.553 489.286 714.314 482.042 709.613 484.739V484.662Z" fill="#231815"/>
<path d="M374.811 483.583C364.33 498.381 352.769 513.333 345.524 530.057C339.281 544.623 333.655 558.805 328.414 573.756C320.707 595.722 317.316 620.076 315.775 643.429C315.466 648.361 313.771 655.298 318.164 659.151C320.553 661.232 325.64 661.695 328.877 662.697C333.809 664.238 339.127 663.236 344.137 664.392C352.229 666.242 360.476 668.246 368.569 670.404C393 676.801 418.357 677.417 443.482 678.959L475.775 680.963C487.335 681.656 498.048 680.577 509.609 681.271C528.029 682.427 546.449 683.583 564.869 684.662C573.039 685.124 580.515 684.2 588.607 684.431C592.306 684.508 595.543 683.275 599.166 683.275C602.557 683.275 606.179 684.354 609.57 684.045C621.054 683.198 620.438 669.325 619.975 660.462C619.667 654.527 617.586 648.747 617.432 642.735C617.2 634.489 615.967 626.627 614.811 618.381C614.041 613.217 614.041 608.053 613.039 602.966C612.037 597.88 609.879 593.024 609.031 587.938C607.567 579.46 604.715 573.602 601.17 565.972C598.858 560.963 597.856 555.182 595.235 550.327C592.384 544.932 587.759 540.462 584.599 535.221C581.362 529.903 579.204 523.891 576.044 518.496C572.345 512.099 571.806 505.086 567.104 499.383C563.328 494.758 560.938 489.055 556.777 484.739C551.998 479.807 544.291 477.957 538.511 474.566" fill="#C8E7EA"/>
<path d="M371.191 481.425C363.869 491.753 356.239 501.849 349.842 512.716C343.445 523.583 338.589 535.529 333.888 547.321C328.956 559.73 324.023 572.292 320.478 585.24C316.932 598.188 314.929 610.366 313.464 623.082C312.694 629.248 312.231 635.414 311.769 641.657C311.383 646.512 310.304 651.753 311.769 656.531C314.697 665.934 328.108 667.475 336.431 667.861C349.919 668.4 363.175 673.795 376.354 676.493C389.534 679.19 402.559 680.5 415.815 681.502C442.79 683.429 469.996 685.51 497.048 685.279C524.1 685.048 552 689.826 579.514 688.824C584.986 688.593 590.381 688.67 595.776 687.899C601.788 686.974 607.954 689.518 613.888 687.514C621.518 684.971 623.83 676.955 624.293 669.711C624.986 658.766 622.212 647.976 621.364 637.109C620.902 631.098 620.054 625.163 619.206 619.229C618.204 612.292 618.127 605.279 616.354 598.497C614.582 591.714 613.272 585.395 611.268 579.075C609.264 572.755 605.95 567.129 603.792 560.963C601.634 554.797 599.707 548.632 595.622 543.005C591.769 537.764 587.992 532.909 585.14 527.052C582.058 520.809 578.744 514.72 576.354 508.246C574.119 502.158 570.882 497.687 567.414 492.292C564.331 487.514 561.557 482.581 556.932 479.19C552 475.491 545.988 473.795 540.67 470.79C535.969 468.169 531.73 475.337 536.431 478.034C540.516 480.346 545.063 481.888 549.148 484.123C554.081 486.82 556.778 491.213 559.784 495.838C562.405 500 565.642 503.699 567.491 508.323C569.572 513.564 571.576 518.497 574.119 523.583C576.663 528.67 578.589 533.371 581.441 537.996C584.293 542.62 588.146 546.474 590.921 551.098C593.695 555.722 594.774 561.502 596.932 566.589C599.09 571.676 601.48 576.223 603.098 581.31C606.798 592.87 609.033 604.739 610.42 616.763C611.114 622.62 612.115 628.477 612.732 634.335C613.349 640.578 613.503 646.666 614.659 652.832C615.892 659.537 617.819 669.942 614.505 676.493C612.424 680.578 608.416 680.192 604.408 679.73C598.628 679.036 593.464 680.423 587.761 680.423C574.967 680.423 562.482 680.5 549.688 679.73C536.894 678.959 524.254 678.111 511.537 677.341C499.591 676.647 487.645 677.495 475.776 676.878C462.828 676.185 449.958 675.26 437.01 674.489C424.062 673.718 411.807 673.179 399.322 671.714C386.836 670.25 374.89 667.707 362.713 664.624C356.932 663.159 351.075 661.541 345.218 660.385C339.746 659.306 334.273 659.768 328.878 658.381C324.1 657.148 319.553 656.994 319.399 651.059C319.245 645.664 320.169 640.038 320.632 634.643C321.788 621.387 323.638 608.208 326.643 595.183C329.649 582.158 334.428 568.978 339.36 556.185C344.293 543.391 349.225 530.289 356.162 518.343C363.098 506.396 370.805 496.377 378.435 485.587C381.595 481.194 374.273 476.955 371.191 481.348V481.425Z" fill="#231815"/>
<path d="M288.572 290.596C276.472 289.825 260.75 291.598 250.345 284.816C233.62 273.872 223.062 250.982 218.977 232.33C217.358 224.7 214.815 216.762 214.661 208.978C214.353 198.342 218.283 188.477 221.443 178.457C223.678 171.29 225.22 165.972 229.998 160.037C235.856 152.793 241.328 144.854 248.572 138.997C268.534 123.043 294.121 118.265 319.17 120.577C326.954 121.348 336.434 122.427 343.678 125.509C347.994 127.282 350.846 130.904 354.931 133.139C357.012 133.602 359.015 134.296 360.865 135.375C362.175 136.685 363.486 137.995 364.719 139.305C368.341 142.542 372.195 144.546 375.046 148.631C380.056 155.798 384.218 165.201 385.759 173.833C387.686 184.854 389.227 197.186 388.457 208.284C388.148 212.831 388.534 218.457 387.224 222.85C386.145 225.24 385.066 227.706 383.909 230.018C383.524 232.176 383.139 234.411 382.753 236.569C380.672 242.812 375.817 245.201 372.195 250.057C376.048 250.442 380.364 248.284 384.141 247.822C387.917 247.359 391.771 247.899 395.624 248.207C404.256 248.824 412.349 247.436 421.058 248.053C431.694 248.746 449.805 246.434 457.667 254.912C453.813 252.061 452.426 246.28 449.035 242.812C443.871 237.494 439.94 231.637 436.472 225.008C426.53 206.357 419.825 186.087 417.744 164.97C416.896 156.261 415.509 146.087 417.59 137.301C419.131 131.059 423.293 125.124 426.222 119.421C433.004 106.396 448.495 97.4555 461.597 91.7522C487.339 80.4998 516.318 82.2724 543.293 87.4362C548.919 88.5152 552.464 91.4439 556.935 94.6039C564.41 99.8447 572.041 104.238 578.515 110.789C583.216 115.567 587.763 120.885 591.925 126.049C599.17 135.066 606.491 144.161 611.347 154.642C617.127 167.128 624.526 182.08 624.141 196.184C623.832 209.594 621.443 221.54 615.123 233.332C610.037 242.812 603.563 251.521 595.162 258.457C591.231 261.694 587.84 263.159 592.387 267.475C594.468 269.402 597.397 270.635 599.555 272.716C601.713 274.797 604.333 276.569 606.568 278.727C615.355 287.205 623.293 297.301 631.231 306.55C636.626 312.87 638.322 320.654 642.638 327.667C645.952 333.062 648.033 337.224 649.96 343.236C653.042 353.332 656.202 362.812 658.283 373.217C660.364 383.621 664.295 393.64 663.909 403.891C663.524 413.217 663.909 424.084 661.674 433.101C658.977 443.891 652.58 457.07 646.029 465.933C639.863 474.257 632.156 481.425 623.37 486.82C618.437 489.825 612.58 491.906 607.416 494.604C600.403 498.226 593.158 500.538 585.374 502.08C570.653 505.008 555.624 505.471 540.75 507.089C534.507 507.783 528.572 509.093 522.252 508.631C516.472 508.168 510.769 507.86 504.989 507.552C493.813 506.858 482.946 503.39 471.848 504.623C460.75 505.856 449.497 503.621 438.322 503.39C434.083 503.313 430.229 504.469 426.145 504.469C421.52 504.469 416.742 503.852 412.041 503.544C401.173 502.85 390.306 502.234 379.439 501.54C374.044 501.155 369.266 502.542 363.948 502.465C357.705 502.465 351.385 501.54 345.22 501.232C338.437 500.847 332.041 499.999 325.412 498.612C318.476 497.224 311.925 497.378 305.066 495.22C301.983 494.218 298.9 493.371 295.74 492.446C291.039 491.059 286.491 491.059 281.79 489.825C273.158 487.59 264.68 484.43 256.048 482.041C252.426 481.039 248.804 479.575 245.104 479.112C241.096 478.573 237.166 479.112 233.158 478.033C223.447 475.49 214.815 475.336 206.029 469.787C201.636 467.012 196.857 463.929 193.466 459.922C188.38 453.987 185.528 446.203 181.906 439.344C178.052 432.022 178.283 424.084 176.819 416.068C175.894 411.213 174.353 406.588 174.584 401.579C175.2 389.17 184.295 378.689 195.47 374.373C207.416 369.748 220.75 363.968 233.698 364.43C239.786 364.662 245.027 365.509 250.73 367.282C252.888 367.899 254.892 368.053 256.973 368.901C259.054 369.748 261.212 372.06 263.216 372.523C269.69 374.064 265.605 368.515 264.911 364.585C263.987 359.344 265.682 355.028 266.838 350.095C267.84 345.702 267.147 341.078 268.226 336.685C269.382 331.752 270.846 326.974 272.079 322.041C273.312 317.109 274.237 312.33 276.78 307.86C278.168 305.394 280.326 303.313 281.79 300.77C283.64 297.533 284.179 293.217 286.723 290.519" fill="#C8E7EA"/>
<path d="M288.572 286.358C276.009 285.664 261.597 287.822 250.807 280.038C240.711 272.716 233.774 261.386 228.996 250.134C226.53 244.431 224.68 238.419 223.293 232.408C221.52 224.7 219.054 216.839 218.823 208.901C218.591 200.963 220.903 193.564 223.293 186.165C225.451 179.614 227.069 172.446 230.537 166.435C234.006 160.423 239.169 154.566 243.871 149.325C248.572 144.084 254.352 139.383 260.672 135.683C273.081 128.516 287.339 124.893 301.597 124.2C308.456 123.891 315.316 124.2 322.175 124.893C329.034 125.587 336.819 126.358 342.984 129.595C345.913 131.136 348.225 133.525 350.923 135.298C352.156 136.146 353.235 136.608 354.622 137.148C357.397 138.149 359.092 139.306 361.173 141.386C363.408 143.544 366.029 145.317 368.418 147.321C371.347 149.941 373.35 153.178 375.2 156.57C383.216 171.213 385.065 189.864 384.295 206.28C384.14 210.057 384.217 213.833 383.832 217.533C383.447 221.695 380.98 224.701 379.824 228.631C378.668 232.562 379.054 235.876 376.356 239.19C374.198 241.887 371.347 244.122 369.189 246.82C367.031 249.517 368.264 253.833 372.117 253.988C375.971 254.142 379.285 252.832 382.984 252.061C387.146 251.136 391.308 251.907 395.547 252.138C404.025 252.677 412.503 251.598 420.98 251.984C431.231 252.446 446.645 249.672 454.661 257.61L460.595 251.675C457.127 248.67 455.74 244.045 452.888 240.577C449.189 236.03 445.412 231.868 442.406 226.781C436.241 216.454 431.462 205.201 427.917 193.718C424.372 182.234 422.445 170.365 421.289 158.342C420.749 152.87 420.287 147.244 420.98 141.772C421.828 135.221 425.142 129.826 428.302 124.123C433.62 114.566 440.402 107.86 449.805 102.157C459.208 96.4539 469.15 92.3691 479.632 89.9028C491.115 87.2824 502.984 86.82 514.699 87.5136C520.557 87.8219 526.414 88.5156 532.194 89.3633C537.975 90.2111 543.986 90.7506 548.996 93.7564C558.63 99.5367 568.88 106.473 576.742 114.566C585.219 123.275 593.081 132.909 599.94 142.928C606.799 152.947 612.04 164.2 616.048 175.529C620.056 186.859 620.826 198.111 618.745 209.98C616.664 221.849 611.963 231.714 605.258 241.117C602.021 245.664 598.322 249.826 594.16 253.525C591.154 256.146 586.607 258.535 586.144 263.005C585.682 267.475 589.535 270.327 592.618 272.485C597.397 275.799 602.021 279.652 606.106 283.814C610.19 287.976 614.198 292.523 617.975 296.993C622.137 301.926 626.992 306.781 630.46 312.331C633.312 316.878 634.93 321.964 637.397 326.666C640.171 331.907 643.408 336.762 645.335 342.465C649.42 354.489 652.271 366.743 655.354 379.074C656.819 384.932 658.591 390.712 659.362 396.724C660.133 402.735 659.516 408.361 659.362 414.142C659.054 425.934 656.973 436.415 651.963 447.128C646.953 457.841 640.634 467.09 632.079 474.874C623.524 482.658 612.811 487.437 602.175 492.292C590.537 497.61 577.512 499.383 564.873 500.539C558.63 501.155 552.464 501.618 546.221 502.157C539.439 502.774 532.657 504.238 525.875 504.315C513.004 504.546 500.133 502.543 487.416 500.847C481.481 500.076 475.855 499.999 469.921 500.385C463.37 500.847 456.896 500.307 450.345 499.768C444.333 499.228 438.399 498.612 432.387 499.46C425.99 500.307 420.056 499.768 413.659 499.306C407.262 498.843 401.019 498.535 394.699 498.149C387.917 497.764 380.903 496.762 374.121 497.225C361.404 498.149 348.765 497.61 336.048 495.991C323.331 494.373 311.616 492.6 299.824 489.132C294.198 487.514 288.418 486.974 282.792 485.664C276.395 484.122 270.152 481.887 263.909 479.884C258.591 478.265 253.119 476.261 247.647 475.182C245.027 474.72 242.483 474.566 239.786 474.489C236.164 474.334 232.849 473.487 229.381 472.793C218.052 470.404 207.878 467.706 199.015 459.691C194.93 455.991 192.31 451.213 189.844 446.358C187.223 441.117 184.217 435.799 182.984 430.095C181.751 424.392 181.52 418.843 180.364 413.294C179.131 407.359 177.744 401.964 179.593 396.03C182.753 385.625 191.616 380.23 201.173 376.531C212.734 371.984 224.526 367.668 237.165 368.824C242.715 369.363 248.957 370.519 254.275 372.446C258.514 373.988 262.137 378.381 267.146 376.685C270.306 375.606 271.308 372.523 270.769 369.517C270.537 368.053 269.767 366.666 269.381 365.279C268.533 362.119 268.919 359.19 269.612 356.03C270.846 350.558 271.154 345.625 271.848 340.076C272.541 334.142 274.853 328.207 276.241 322.427C277.628 316.647 278.938 311.791 282.406 307.09C283.871 305.163 285.181 303.39 286.183 301.232C287.339 298.689 287.878 295.76 289.651 293.602C293.042 289.44 287.108 283.506 283.717 287.668C280.325 291.83 279.555 296.916 276.472 301.155C272.618 306.473 270.306 311.329 268.765 317.726C267.377 323.429 265.682 329.132 264.372 334.835C262.907 341.078 263.061 347.475 261.597 353.795C260.441 358.805 260.056 363.429 261.597 368.361C261.751 368.901 261.982 370.134 262.368 370.519L262.522 370.905C262.83 372.292 263.447 371.444 264.295 368.438C264.295 368.13 260.672 366.126 260.287 365.895C258.822 365.047 257.358 364.508 255.74 364.122C243.408 360.808 231.539 358.959 218.9 361.81C212.657 363.198 206.568 365.51 200.557 367.822C195.624 369.749 190.537 371.444 186.144 374.527C177.898 380.23 171.809 388.862 170.499 398.882C169.805 404.045 170.807 408.901 171.963 413.988C173.428 420.616 173.582 427.475 175.354 434.026C176.819 439.652 179.824 444.816 182.368 449.98C184.911 455.144 187.609 459.999 191.462 464.084C199.709 472.793 211.038 477.726 222.599 480.038C227.763 481.04 232.927 482.581 238.167 482.889C245.258 483.352 251.501 485.047 258.283 487.051C264.603 488.901 270.846 491.059 277.165 492.909C283.485 494.758 289.882 495.144 296.125 496.916C308.688 500.462 321.327 502.543 334.275 504.315C347.223 506.088 360.788 506.781 374.121 505.779C380.903 505.317 387.917 506.242 394.699 506.704C401.944 507.167 409.112 507.475 416.356 508.092C422.676 508.631 428.456 508.4 434.699 507.706C442.021 506.936 449.574 508.4 456.896 508.862C463.678 509.325 470.229 508.554 477.011 508.554C483.794 508.554 490.191 509.941 496.742 510.866C510.769 512.793 524.718 513.332 538.745 511.56C552.772 509.787 565.643 509.402 578.977 507.398C591.539 505.471 602.252 501.386 613.736 496.146C625.219 490.905 635.239 484.662 643.717 475.182C651.424 466.627 657.204 456.608 661.597 445.972C666.221 434.797 667.454 423.776 667.763 411.83C667.917 405.895 668.225 400.038 667.3 394.103C666.221 387.167 664.14 380.462 662.599 373.679C659.747 361.04 656.742 348.015 651.732 336.069C649.574 330.828 646.337 326.28 643.871 321.194C641.173 315.799 639.169 310.096 635.47 305.24C627.686 294.99 618.9 284.431 609.497 275.645C605.489 271.945 601.096 268.785 596.78 265.471C596.472 265.24 594.93 264.392 594.93 263.853C594.93 263.39 597.782 261.618 598.09 261.309C600.634 259.228 602.946 256.993 605.181 254.604C613.273 245.818 619.824 235.182 623.755 223.93C627.454 213.294 629.304 200.731 627.994 189.479C626.53 177.456 621.366 166.203 616.279 155.336C610.73 143.39 603.1 133.14 594.853 122.966C587.069 113.333 578.977 104.546 568.803 97.4558C564.025 94.1418 559.246 90.6736 554.314 87.5136C549.381 84.3537 544.217 83.1206 538.514 82.1957C526.183 80.1148 513.62 78.7275 501.058 79.1129C477.859 79.8065 454.506 86.9741 436.164 101.541C427.377 108.477 421.828 117.494 416.896 127.359C411.347 138.304 411.963 149.71 413.119 161.656C415.585 186.473 422.676 211.059 435.855 232.408C438.784 237.186 442.406 241.194 445.952 245.587C449.111 249.44 450.653 254.373 454.584 257.687C458.514 261.001 464.372 255.606 460.518 251.753C451.115 242.427 436.164 244.122 424.063 243.814C415.123 243.583 406.183 244.354 397.32 243.968C392.849 243.814 388.456 243.043 384.063 243.506C379.979 243.968 376.202 245.818 372.117 245.741L375.046 252.909C379.285 247.591 385.142 243.66 386.838 236.724C387.84 232.716 388.842 229.325 390.383 225.548C391.848 222.08 392.156 218.458 392.31 214.681C392.927 198.188 392.927 180.693 387.686 164.816C385.296 157.649 381.905 150.018 376.973 144.238C374.429 141.309 371.115 139.306 368.264 136.762C364.796 133.679 362.715 131.367 358.322 129.672C354.699 128.284 352.233 125.818 349.073 123.737C345.913 121.656 341.982 120.269 338.206 119.344C330.499 117.34 322.329 116.492 314.314 116.03C298.668 115.105 282.638 117.109 267.994 122.966C260.595 125.972 253.582 129.826 247.262 134.681C240.942 139.537 235.624 146.011 230.537 152.485C225.759 158.573 221.674 164.2 219.131 171.598C216.433 179.46 213.582 187.552 211.809 195.722C208.341 211.753 212.811 229.017 217.821 244.354C222.83 259.691 230.46 273.949 242.406 284.122C255.894 295.529 271.925 293.833 288.418 294.758C293.813 295.067 293.813 286.666 288.418 286.358H288.572Z" fill="#231815"/>
<path d="M182.138 338.381C174.508 341.001 170.192 344.778 167.263 352.331C165.722 356.184 163.101 360.115 163.256 364.354C163.41 368.516 165.259 374.065 166.955 377.841C169.344 383.159 175.125 387.629 179.903 390.866C185.221 394.489 195.548 394.181 201.329 391.791C216.126 385.703 223.911 371.136 219.826 355.645C218.901 352.023 218.284 349.633 215.818 346.628C213.121 343.236 210.654 338.535 206.878 336.223C201.868 333.14 186.839 331.753 182.138 336.685" fill="#231815"/>
<path d="M181.058 334.296C174.815 336.531 169.42 339.845 165.875 345.625C163.948 348.708 162.638 352.253 161.25 355.645C159.555 359.575 158.861 363.198 159.478 367.436C160.634 374.989 163.794 382.388 169.343 387.706C174.892 393.024 180.441 396.724 187.84 397.571C201.559 399.036 215.431 391.252 221.597 378.997C224.68 372.831 225.836 365.972 224.911 359.113C224.449 355.49 223.524 351.791 221.982 348.4C220.441 345.009 218.129 342.388 216.048 339.614C213.813 336.531 211.27 333.448 207.724 331.83C204.641 330.442 201.404 329.826 198.09 329.44C191.848 328.747 184.14 329.055 179.362 333.679C175.508 337.456 181.443 343.39 185.297 339.614C187.84 337.147 193.312 337.456 196.703 337.687C200.788 337.995 204.487 338.843 207.262 341.926C211.115 346.165 214.507 351.174 215.894 356.724C217.204 361.81 217.127 366.974 215.508 371.984C212.426 381.309 203.1 388.708 193.312 389.325C191 389.479 188.534 389.479 186.221 388.939C183.524 388.323 181.443 386.936 179.285 385.24C174.275 381.463 170.961 377.379 169.034 371.444C168.033 368.438 167.031 365.047 167.801 361.887C168.572 358.727 170.345 355.568 171.732 352.562C174.121 347.321 177.975 344.315 183.293 342.388C188.379 340.616 186.144 332.523 181.058 334.296Z" fill="#231815"/>
<path d="M384.064 310.635C386.068 306.781 388.226 303.082 390.77 299.536C391.078 299.151 390.307 300.076 390.77 299.536C391.001 299.305 391.155 298.997 391.386 298.766C391.772 298.303 392.157 297.918 392.542 297.456C392.928 296.993 393.313 296.685 393.775 296.299C394.007 296.068 394.238 295.914 394.469 295.76C394.084 296.068 394.007 296.068 394.469 295.76C394.931 295.452 395.317 295.22 395.779 294.989L396.01 294.835C396.396 294.681 396.319 294.681 395.779 294.912C395.779 294.835 396.319 294.758 396.396 294.681C396.627 294.681 396.781 294.604 397.012 294.527C397.783 294.296 396.087 294.527 396.935 294.527C397.166 294.527 397.475 294.527 397.706 294.527C398.477 294.527 396.781 294.373 397.706 294.527L395.24 292.6C394.623 291.136 395.24 292.754 395.548 293.294C395.856 293.987 396.087 294.681 396.396 295.375C397.166 297.301 398.014 299.228 398.939 301.078C400.404 304.084 402.484 308.014 405.953 308.939C408.111 309.479 410.577 308.246 411.116 306.01C411.656 303.775 410.5 301.463 408.188 300.847C407.802 300.77 409.19 301.463 408.496 301.001C408.496 301.001 409.267 301.772 408.881 301.309C408.804 301.232 408.65 301.155 408.573 301.001C408.265 300.693 407.648 300.307 408.573 301.001C408.342 300.847 408.111 300.384 407.956 300.153C407.109 298.766 406.338 297.301 405.644 295.837C405.259 295.066 404.951 294.296 404.642 293.525C404.565 293.371 404.488 293.14 404.411 292.985C404.411 293.062 404.797 293.833 404.411 293.14C404.257 292.831 404.103 292.446 403.949 292.138C403.255 290.519 402.716 288.284 401.328 287.205C399.556 285.818 396.55 285.972 394.469 286.511C392.773 286.974 391.232 287.745 389.845 288.746C386.685 291.059 384.219 294.141 381.983 297.378C380.057 300.23 378.438 303.313 376.82 306.319C375.818 308.246 376.28 310.943 378.284 312.022C380.211 313.024 382.908 312.561 383.987 310.558L384.064 310.635Z" fill="#231815"/>
<path d="M440.249 308.862C442.716 304.469 445.413 301.232 448.958 297.609C449.729 296.838 450.423 296.068 451.271 295.374C450.654 295.914 451.733 295.143 451.887 294.989C451.425 295.143 451.348 295.22 451.656 295.143C451.964 295.143 451.887 295.143 451.348 295.143C451.81 295.143 451.81 295.143 451.271 295.143C451.502 295.143 451.81 295.297 452.041 295.374C451.425 295.143 452.658 295.759 452.735 295.759C453.428 295.991 452.272 295.22 452.735 295.759C452.966 296.068 453.351 296.299 453.583 296.607C453.737 296.761 454.585 297.84 453.968 296.993C454.199 297.301 454.353 297.532 454.585 297.84C455.124 298.611 455.586 299.459 456.049 300.307C456.434 301.077 456.82 301.925 457.205 302.696C457.436 303.158 457.436 303.158 457.205 302.696C457.282 302.927 457.436 303.158 457.513 303.39C457.667 303.775 457.822 304.083 457.899 304.469C459.055 307.628 460.057 311.02 460.519 314.334C460.673 315.721 462.215 316.877 463.448 317.262L464.835 317.648C470.076 319.112 472.234 311.02 467.07 309.555L465.683 309.17L468.612 312.099C467.764 305.779 465.375 298.996 461.906 293.679C459.902 290.596 457.282 287.821 453.583 286.896C448.727 285.663 445.336 289.054 442.253 292.214C438.631 295.914 435.471 299.921 432.928 304.391C431.849 306.395 432.465 308.939 434.392 310.095C436.319 311.251 439.016 310.557 440.095 308.63L440.249 308.862Z" fill="#231815"/>
<path d="M386.684 439.422C384.141 441.657 381.212 443.661 379.439 446.666C377.513 450.057 377.281 454.142 377.975 457.919C379.362 465.626 385.836 470.25 393.235 471.175C406.491 472.793 422.291 464.547 426.53 451.599L418.283 450.52C418.283 458.766 425.759 464.701 432.85 467.476C437.474 469.248 447.108 471.714 448.495 464.47C449.497 459.229 441.405 456.917 440.403 462.235C440.403 461.926 441.713 461.156 441.636 461.079C441.559 461.002 441.328 461.156 441.173 461.079C440.711 460.847 439.632 460.847 439.17 460.693C437.782 460.308 436.318 459.923 434.931 459.306C431.54 457.842 426.684 454.682 426.684 450.52C426.684 445.664 419.902 444.971 418.437 449.441C415.663 457.996 404.796 463.16 396.318 463.082C392.079 463.082 387.378 461.541 386.299 456.994C384.834 451.136 388.688 448.824 392.619 445.433C396.549 442.042 390.692 435.953 386.684 439.499V439.422Z" fill="#231815"/>
<path d="M436.161 541.695C427.684 535.529 418.435 528.67 409.187 523.737C396.701 517.032 393.156 532.678 392.231 542.389C391.845 546.396 391.768 550.404 391.537 554.412C391.383 557.495 390.227 561.888 390.766 564.97C392.077 571.984 398.628 568.285 403.175 565.972C409.109 563.044 414.89 559.653 420.824 556.57C426.913 553.41 431.46 548.169 437.703 545.317" fill="#231815"/>
<path d="M438.243 538.15C433.003 534.374 427.839 530.52 422.444 526.975C417.742 523.892 412.502 519.884 407.03 518.42C398.089 516.185 392.463 523.352 390.074 530.982C388.918 534.682 388.378 538.535 387.993 542.389C387.685 545.472 387.608 548.555 387.453 551.638C387.299 554.72 386.837 557.726 386.529 560.809C386.066 565.587 387.299 571.599 392.694 572.986C396.856 574.065 401.018 571.753 404.563 569.981C410.96 566.744 417.357 563.352 423.6 559.884C429.303 556.724 433.85 551.869 439.785 549.017C441.789 548.015 442.328 545.164 441.249 543.314C440.016 541.233 437.55 540.848 435.546 541.849C431.076 544.007 427.376 547.322 423.369 550.173C418.898 553.333 413.889 555.722 409.033 558.266C405.257 560.27 401.403 562.582 397.473 564.2C396.779 564.508 396.008 564.74 395.315 564.894C394.852 564.971 394.775 564.971 394.698 564.894C394.467 564.508 395.083 565.048 395.083 565.125C395.006 564.123 394.775 563.352 394.775 562.35C394.852 560.115 395.315 557.957 395.546 555.799C395.854 552.948 395.854 550.019 396.008 547.09C396.24 543.083 396.471 540 397.319 536.3C398.012 533.295 398.706 530.597 400.556 528.208C400.941 527.668 401.48 527.129 402.405 526.666C401.789 526.975 403.022 526.512 403.33 526.435C402.945 526.435 404.486 526.589 404.486 526.589C406.721 527.052 408.802 528.516 410.729 529.595C413.426 531.137 415.97 532.832 418.59 534.528C423.831 537.996 428.918 541.772 434.005 545.472C435.854 546.782 438.706 545.78 439.708 544.007C440.941 541.927 440.016 539.614 438.243 538.304V538.15Z" fill="#231815"/>
<path d="M446.644 542.387C451.73 538.379 457.973 536.067 463.522 532.907C467.376 530.672 474.775 526.125 479.322 526.742C483.33 527.281 484.023 530.441 484.871 534.295C486.567 542.079 486.335 551.019 487.491 558.958C488.031 562.734 489.495 567.667 483.792 567.281C482.019 567.204 477.318 565.663 475.391 565.354C472.617 564.815 470.767 563.813 468.224 562.657C456.74 557.493 444.332 553.177 436.008 543.543" fill="#231815"/>
<path d="M448.725 546.01C452.655 543.081 456.971 540.923 461.364 538.765C464.833 536.992 468.147 534.911 471.615 533.139C473.311 532.291 477.704 529.671 479.476 531.135C480.247 531.752 480.401 533.678 480.632 534.68C481.095 536.915 481.48 539.15 481.711 541.385C482.251 546.472 482.405 551.559 482.944 556.646C483.176 558.495 483.484 560.268 483.715 562.118C483.715 562.426 483.715 563.197 483.792 563.659C484.255 564.969 483.561 563.967 483.792 563.967C483.869 563.967 484.64 562.734 484.563 563.12C484.563 563.12 483.561 563.042 483.792 563.12C483.022 562.965 482.174 562.734 481.403 562.58C479.785 562.195 478.166 561.732 476.548 561.347C472.309 560.345 468.301 558.187 464.293 556.414C455.122 552.407 445.796 548.322 439.014 540.615C435.469 536.53 429.534 542.541 433.079 546.549C440.324 554.719 450.189 559.343 460.054 563.659C465.064 565.817 469.919 568.36 475.237 569.594C479.245 570.518 483.869 572.599 487.877 570.827C492.424 568.9 492.501 564.199 491.885 559.96C491.114 554.565 490.806 549.17 490.343 543.698C489.881 538.225 489.573 532.676 487.26 527.898C484.948 523.12 480.016 521.886 475.314 522.811C470.613 523.736 465.912 526.665 461.596 529.131C455.892 532.368 449.727 534.757 444.486 538.765C442.713 540.152 441.711 542.387 443.022 544.468C444.023 546.241 446.952 547.32 448.725 545.933V546.01Z" fill="#231815"/>
<path d="M348.768 503.313C345.762 506.858 341.677 509.17 337.901 511.714C336.128 512.87 334.818 513.794 333.277 515.259C331.658 516.877 330.194 517.802 328.113 518.65C326.032 519.498 324.49 520.345 322.564 521.347C320.791 522.272 318.171 522.272 319.404 524.739C320.329 526.511 322.255 528.284 323.72 529.671C325.646 531.521 327.188 533.679 329.038 535.606C332.198 538.92 334.124 543.159 337.438 546.396C339.288 548.245 341.138 550.095 342.988 551.945C345.377 554.334 347.92 556.184 350.463 558.419C354.24 561.656 358.248 564.661 362.409 567.359C364.799 568.9 366.725 570.75 369.192 572.137C370.348 572.831 371.119 573.833 372.12 574.681C373.662 575.914 375.357 577.07 376.899 578.303C378.98 579.845 381.215 581.155 383.219 582.773C385.454 584.623 387.689 586.55 390.078 588.168C392.698 589.941 395.781 591.097 398.479 592.947C401.947 595.259 405.646 597.186 409.269 599.189C415.357 602.581 420.675 607.513 426.995 610.365C434.086 613.525 440.329 618.611 447.034 622.465C449.808 624.083 452.814 625.625 455.666 626.935C459.596 628.708 463.758 629.941 467.612 631.868C472.313 634.18 477.246 636.107 482.178 638.033C487.65 640.191 493.277 642.041 498.749 644.353C502.448 645.895 506.147 647.282 509.77 648.823C514.471 650.904 519.558 652.06 524.49 653.448C528.344 654.527 531.889 656.299 535.897 656.916C540.29 657.609 544.683 658.226 548.999 658.997C557.323 660.384 565.724 661.463 574.124 661.848C577.824 662.002 581.6 662.927 585.3 663.082C588.614 663.236 591.774 663.698 595.165 663.698C598.556 663.698 601.87 663.698 605.261 663.698C608.652 663.698 611.581 663.313 614.818 663.082C617.438 662.927 620.29 662.234 622.833 661.694C624.529 661.386 627.535 661.232 628.922 660.153C629.384 658.457 624.914 655.374 623.527 654.218C622.525 653.293 621.215 652.754 619.982 651.983C618.672 651.135 617.593 650.134 616.282 649.209C613.585 647.359 610.81 645.895 608.19 643.891C606.417 642.503 604.105 641.039 602.795 639.189C605.107 638.496 607.265 639.729 609.5 639.729C610.656 639.729 611.658 639.189 612.737 639.035C614.664 638.881 616.514 638.65 618.44 638.419C621.908 637.956 625.068 637.031 628.305 635.875C631.697 634.642 635.088 633.794 638.556 632.792C640.791 632.176 643.488 631.713 645.492 630.557C648.806 628.708 643.643 625.702 642.101 624.16C638.941 621.078 634.471 619.922 631.234 616.916C629.153 614.912 626.379 614.064 624.067 612.446C621.754 610.827 619.288 610.596 616.899 609.44C612.198 607.128 606.957 605.432 602.024 603.582C600.637 603.043 599.095 602.966 597.631 602.503C595.858 601.887 594.24 600.885 592.39 600.345C590.772 599.883 589.153 599.498 587.612 599.035C585.685 598.419 583.45 598.033 581.6 597.263C576.205 594.95 570.887 592.947 565.338 591.097C562.795 590.249 560.251 589.401 557.631 588.631C556.167 588.168 554.857 587.706 553.392 587.089C551.311 586.087 549.076 586.087 546.918 585.317C545.608 584.854 544.529 584.083 543.296 583.621C542.063 583.159 540.598 582.85 539.288 582.311C536.822 581.309 534.51 580.307 531.966 579.613C526.263 578.072 520.56 576.53 515.242 573.91C511.774 572.214 508.074 571.213 504.606 569.671C503.065 568.977 501.369 568.592 499.828 567.898C499.134 567.59 498.749 567.128 497.901 566.819C497.053 566.511 496.205 566.511 495.435 566.126C492.891 564.893 490.271 563.891 487.65 562.735C486.263 562.118 484.953 561.656 483.488 561.193C481.716 560.577 480.174 559.344 478.402 558.65C475.473 557.648 472.236 556.8 469.462 555.336C468.074 554.642 466.687 553.871 465.3 553.178C463.758 552.484 462.063 552.176 460.521 551.405C454.047 548.399 447.804 545.394 441.253 542.696C438.171 541.463 434.934 540.307 431.697 539.228C429.847 538.611 427.997 538.303 426.147 537.764C423.835 537.07 422.988 535.606 421.061 534.527C420.136 533.987 418.98 533.756 417.978 533.139C416.051 531.983 413.585 531.058 411.735 529.748C408.113 527.205 405.492 523.197 401.793 520.731C400.02 519.575 398.171 518.727 396.629 517.186C395.011 515.567 393.546 513.949 391.851 512.33C388.845 509.555 387.535 505.779 385.3 502.465C380.598 505.085 374.972 503.621 369.962 502.465C368.729 502.157 367.265 502.465 365.955 502.465C364.645 502.465 363.951 501.771 362.795 501.694C362.178 501.694 361.408 502.388 360.791 502.465C360.174 502.542 359.404 502.465 358.787 502.465C355.704 502.465 354.24 502.311 351.234 500.846" fill="#FFF15E"/>
<path d="M345.375 499.921C342.986 502.619 341.059 503.852 338.053 505.856C335.047 507.86 332.196 509.709 329.575 512.176C329.267 512.484 328.882 512.792 328.573 513.101C329.267 512.638 328.728 512.946 328.573 513.101C327.957 513.486 327.34 513.794 326.724 514.102C327.494 513.794 326.647 514.102 326.493 514.102C325.799 514.411 325.028 514.719 324.335 515.027C323.487 515.413 322.716 515.798 321.868 516.26C321.406 516.492 320.866 516.723 320.404 517.031C319.787 517.417 320.712 516.877 320.635 516.954C320.558 517.031 317.938 518.033 318.323 517.879C316.627 518.727 315.317 520.037 314.778 521.81C313.467 525.817 317.167 529.671 319.71 532.137C322.177 534.526 324.489 537.147 326.647 539.767C326.724 539.844 327.417 540.692 327.032 540.153C327.263 540.384 327.417 540.692 327.649 541C328.111 541.694 328.651 542.388 329.113 543.081C330.269 544.7 331.425 546.395 332.735 547.937C335.047 550.711 337.822 553.255 340.442 555.721C343.063 558.187 345.992 560.499 348.843 562.812C351.849 565.278 355.009 567.667 358.246 569.902C361.098 571.829 363.872 574.064 366.878 575.914C367.649 576.376 366.184 575.22 367.263 576.145C367.494 576.376 367.726 576.607 367.957 576.838C368.573 577.455 369.19 577.995 369.884 578.534C371.579 579.844 373.275 581.077 375.047 582.388C378.13 584.623 380.597 586.395 383.525 588.707C386.531 591.174 389.614 593.178 393.082 594.95C396.55 596.723 399.402 598.804 402.639 600.654C405.876 602.503 408.882 604.122 411.888 606.126C414.893 608.129 417.437 610.133 420.365 611.906C423.294 613.679 426.531 614.989 429.537 616.761C435.78 620.384 441.483 624.7 447.88 628.168C451.425 630.095 455.124 631.713 458.901 633.178C462.446 634.565 465.144 635.798 468.612 637.339C475.703 640.499 483.024 643.197 490.346 645.894C497.591 648.515 504.527 651.752 511.464 654.295C514.932 655.605 518.477 656.453 522.022 657.455C525.568 658.457 528.882 659.844 532.35 660.769C535.818 661.694 539.826 662.079 543.602 662.696C547.379 663.312 551.309 663.929 555.163 664.546C559.248 665.162 563.41 665.625 567.571 666.01C569.498 666.164 571.502 666.318 573.429 666.395C575.124 666.472 577.205 666.627 578.361 666.781C586.223 667.937 594.161 668.245 602.177 668.245C606.03 668.245 609.729 668.014 613.583 667.783C617.437 667.551 621.136 666.781 624.913 666.087C628.304 665.47 633.082 665.162 634.084 661.077C634.932 657.609 632.388 654.758 629.999 652.754C627.764 650.904 625.452 649.285 622.986 647.744C622.986 647.744 621.676 646.819 622.292 647.282C622.061 647.05 621.753 646.819 621.521 646.665C620.674 645.971 619.826 645.278 618.901 644.661C617.437 643.659 615.895 642.734 614.354 641.81C612.812 640.885 611.502 639.806 610.115 638.804C609.884 638.65 609.575 638.418 609.344 638.264C610.038 638.804 608.728 637.802 608.805 637.802C608.573 637.571 608.342 637.339 608.111 637.185C608.111 637.185 607.109 636.029 607.649 636.723C606.724 639.035 605.722 641.424 604.797 643.736C604.026 643.891 606.107 643.736 605.182 643.736C605.799 643.813 606.415 643.968 607.109 644.122C609.036 644.507 610.808 644.661 612.735 644.122C613.044 644.122 613.352 643.968 613.66 643.89C614.431 643.659 612.889 643.891 613.814 643.813C614.585 643.736 615.356 643.659 616.126 643.582C617.976 643.351 619.826 643.12 621.598 642.889C624.45 642.426 627.148 641.578 629.845 640.654C632.774 639.652 635.703 638.804 638.708 637.956C643.718 636.569 653.891 635.104 651.965 627.551C651.425 625.316 649.729 623.621 647.957 622.233C646.184 620.846 644.566 619.305 642.716 618.072C640.558 616.684 638.169 615.682 636.088 614.141C635.471 613.679 636.55 614.526 635.934 614.064C635.703 613.833 635.471 613.601 635.24 613.447C634.623 612.908 634.007 612.368 633.313 611.906C632.08 611.058 630.77 610.365 629.46 609.671C628.304 609.054 627.302 608.284 626.146 607.744C624.604 606.973 622.986 606.434 621.367 605.894C620.288 605.509 619.518 605.124 618.13 604.507C616.512 603.736 614.816 603.043 613.198 602.426C610.346 601.347 607.494 600.268 604.566 599.266C603.178 598.727 601.714 598.573 600.25 598.187C599.479 597.956 599.402 597.956 598.939 597.725C598.323 597.417 597.706 597.185 597.09 596.877C594.161 595.644 591.001 594.873 587.918 594.025C584.835 593.178 582.6 592.253 579.518 591.02C573.737 588.707 567.88 586.704 561.945 584.854C560.635 584.469 559.325 584.083 558.092 583.621C557.783 583.544 557.475 583.39 557.167 583.313C556.396 583.004 557.706 583.544 556.936 583.235C556.011 582.85 555.086 582.388 554.084 582.079C552.774 581.694 551.387 581.54 550.076 581.154C549.768 581.077 549.383 581 549.074 580.846C549.306 580.923 549.691 581.154 548.843 580.692C548.072 580.307 547.302 579.921 546.454 579.536C545.067 578.919 543.602 578.611 542.138 578.072C540.674 577.532 539.209 576.916 537.745 576.299C534.97 575.22 532.042 574.526 529.19 573.756C526.338 572.985 523.333 571.983 520.558 570.827C520.327 570.75 519.787 570.519 519.171 570.21C518.477 569.902 517.861 569.594 517.167 569.285C515.548 568.592 513.853 567.898 512.234 567.282C509.229 566.203 507.071 565.278 504.219 564.276C504.065 564.276 502.446 563.582 502.986 563.891C502.446 563.659 502.061 563.274 501.521 562.966C500.057 562.195 498.439 561.964 497.36 561.424C494.354 560.037 491.271 558.727 488.188 557.571C487.494 557.339 486.801 557.031 486.107 556.8C486.03 556.8 485.105 556.492 485.876 556.8C485.568 556.646 485.336 556.492 485.028 556.338C483.641 555.567 482.254 554.796 480.712 554.18C479.479 553.717 478.246 553.332 476.936 552.946C475.394 552.407 474.238 552.022 473.082 551.482C470.385 550.172 467.764 548.707 464.913 547.783C463.525 547.32 463.14 547.166 461.598 546.395C460.057 545.625 458.67 545.008 457.205 544.314C454.354 543.004 451.502 541.694 448.65 540.461C442.87 537.917 436.859 535.374 430.693 533.91C429.922 533.756 429.229 533.601 428.458 533.37C428.381 533.37 427.379 532.908 427.841 533.216C428.304 533.447 427.533 532.985 427.456 532.908C427.302 532.908 426.685 532.291 427.148 532.677C427.61 533.062 426.916 532.522 426.839 532.445C426.146 531.906 425.452 531.289 424.681 530.827C423.911 530.364 423.14 529.979 422.292 529.671C421.984 529.517 421.676 529.44 421.367 529.286C421.598 529.363 421.984 529.594 421.213 529.131C420.057 528.438 418.824 527.898 417.591 527.282C414.893 525.894 413.891 524.892 411.656 522.657C409.652 520.654 407.726 518.65 405.413 517.031C404.334 516.26 403.256 515.721 402.177 515.027C401.945 514.873 401.637 514.719 401.406 514.488C401.56 514.642 401.945 514.95 401.252 514.334C400.635 513.794 400.096 513.178 399.479 512.561C398.477 511.559 397.552 510.557 396.473 509.555C396.011 509.093 395.471 508.63 395.009 508.091C394.392 507.397 394.701 507.783 394.855 507.937C394.546 507.551 394.315 507.166 394.084 506.781C392.697 504.623 391.618 502.311 390.23 500.23C388.766 497.995 386.069 497.224 383.679 498.534C383.525 498.534 382.986 498.919 383.448 498.688C383.063 498.842 382.677 498.997 382.292 499.074C381.984 499.151 381.676 499.228 381.29 499.305C380.519 499.459 381.907 499.305 381.059 499.305C380.288 499.305 379.518 499.305 378.824 499.305C378.516 499.305 378.13 499.305 377.822 499.228C376.203 499.074 378.207 499.305 377.282 499.228C374.045 498.688 371.04 497.763 367.726 497.84C367.417 497.84 367.032 497.84 366.724 497.84C367.186 497.84 367.109 497.84 366.724 497.763C366.03 497.455 365.336 497.301 364.643 497.224C363.641 497.07 362.639 497.07 361.637 497.455C361.175 497.609 360.558 497.84 360.173 498.149C359.171 498.765 361.098 497.917 361.098 497.995C360.943 498.226 357.244 497.84 356.782 497.84C357.321 497.917 357.244 497.84 356.782 497.84C356.473 497.84 356.242 497.686 355.934 497.609C355.548 497.532 355.24 497.378 354.855 497.224C354.007 496.916 355.934 497.763 354.315 496.993C352.08 495.914 349.074 496.299 347.764 498.688C346.608 500.846 347.071 504.083 349.46 505.239C351.078 506.01 352.774 506.781 354.624 507.089C356.473 507.397 358.015 507.397 359.71 507.474C360.712 507.474 361.714 507.551 362.716 507.32C363.256 507.166 364.026 506.935 364.489 506.549C365.336 505.933 363.718 506.549 363.41 506.704C362.639 506.858 363.024 506.704 363.41 506.858C363.718 507.012 364.026 507.089 364.335 507.166C365.336 507.474 366.415 507.474 367.494 507.474C367.803 507.474 368.188 507.474 368.496 507.474C368.496 507.474 369.807 507.474 369.344 507.474C368.882 507.474 370.038 507.628 370.192 507.706C370.577 507.783 371.04 507.86 371.425 508.014C373.275 508.399 375.124 508.785 376.974 508.939C380.905 509.401 384.681 508.862 388.227 507.012L381.676 505.316C383.063 507.397 384.142 509.709 385.529 511.867C387.148 514.411 389.306 516.415 391.387 518.573C393.467 520.731 395.625 522.734 398.246 524.276C400.558 525.663 401.56 526.511 403.564 528.669C405.568 530.827 407.494 532.677 409.807 534.295C411.965 535.76 414.508 536.993 416.897 538.072C417.437 538.303 417.976 538.534 418.516 538.765C419.441 539.151 418.901 538.919 418.67 538.765C418.824 538.842 420.288 539.844 419.518 539.228C420.597 540.076 421.598 541 422.832 541.694C425.683 543.235 429.151 543.621 432.157 544.623C437.938 546.549 442.947 548.63 448.419 551.097C451.194 552.33 453.968 553.64 456.743 554.95C458.207 555.644 459.595 556.338 461.136 556.877C462.677 557.417 463.371 557.571 464.527 558.187C467.302 559.575 469.922 560.962 472.851 561.964C474.084 562.426 475.394 562.812 476.627 563.197C476.936 563.274 477.321 563.428 477.629 563.505C476.936 563.197 477.629 563.505 477.783 563.582C478.4 563.968 479.017 564.276 479.633 564.661C482.331 566.126 485.336 566.973 488.188 568.129C489.498 568.669 490.423 569.054 491.502 569.517C493.121 570.21 494.662 571.135 496.435 571.444C497.205 571.598 496.049 571.135 496.666 571.444C496.897 571.598 497.128 571.752 497.36 571.906C498.053 572.368 498.824 572.6 499.518 572.908C500.674 573.37 502.369 573.91 503.294 574.218C505.837 575.22 508.997 576.376 511.772 577.455C512.311 577.686 513.853 578.457 514.855 578.842C516.473 579.536 518.169 580.23 519.864 580.846C522.639 581.848 525.491 582.696 528.342 583.467C531.194 584.237 534.046 585.085 536.82 586.241C538.13 586.781 539.518 587.32 540.905 587.783C541.521 587.937 542.138 588.091 542.678 588.322C542.061 588.091 542.832 588.399 542.909 588.476C543.294 588.707 543.679 588.862 543.988 589.093C545.452 589.786 546.916 590.326 548.535 590.634C549.151 590.788 549.691 590.865 550.308 591.02C551.155 591.251 551.618 591.328 552.08 591.559C554.932 592.792 557.861 593.64 560.789 594.642C566.493 596.492 572.196 598.418 577.745 600.731C580.288 601.81 582.986 602.734 585.837 603.505C587.148 603.891 588.458 604.276 589.768 604.584C590.462 604.738 591.155 604.97 591.849 605.201C592.08 605.278 592.311 605.355 592.543 605.432C591.926 605.201 593.313 605.817 593.313 605.74C594.701 606.357 596.165 607.05 597.629 607.436C599.094 607.821 600.712 608.129 602.177 608.669C604.951 609.671 607.803 610.673 610.5 611.752C612.889 612.677 615.587 614.141 618.439 615.143C619.055 615.374 619.749 615.605 620.365 615.837C620.365 615.837 621.136 616.145 620.751 615.991C620.365 615.76 621.29 616.299 621.367 616.299C622.6 616.993 623.834 617.763 625.067 618.457C627.764 619.921 628.766 621.155 631.387 622.927C633.467 624.314 635.78 625.316 637.861 626.704C638.092 626.858 638.4 627.012 638.631 627.243C638.477 627.089 638.092 626.781 638.708 627.397C638.94 627.628 639.248 627.86 639.479 628.091C640.173 628.63 640.866 629.17 641.483 629.709C641.791 630.018 642.099 630.326 642.408 630.634C642.639 630.788 643.024 631.405 642.254 630.326C642.331 630.48 642.485 630.634 642.562 630.788C641.945 629.478 642.099 627.937 643.101 626.935C644.257 625.779 643.564 626.549 643.101 626.627C642.639 626.781 643.487 626.549 642.716 626.781C637.321 628.63 631.618 629.786 626.223 631.636C623.525 632.561 620.751 633.332 617.899 633.794C618.439 633.794 617.514 633.794 617.514 633.794C617.128 633.794 616.743 633.871 616.358 633.948C615.587 634.025 614.816 634.102 614.123 634.18C613.429 634.257 612.581 634.334 611.887 634.411C611.04 634.488 610.269 634.873 609.421 634.95C610.192 634.873 609.421 634.95 609.267 634.95C609.961 635.181 609.267 634.95 609.113 634.95C608.496 634.796 607.88 634.642 607.186 634.565C605.259 634.257 603.641 634.18 601.714 634.565C598.94 635.181 597.013 639.189 598.862 641.578C601.02 644.43 603.795 646.434 606.647 648.515C608.034 649.517 609.498 650.442 610.886 651.366C611.579 651.829 612.273 652.214 612.889 652.677C613.275 652.908 613.66 653.139 614.045 653.447L614.431 653.756C615.818 654.835 617.205 655.914 618.747 656.838C619.132 657.07 619.518 657.301 619.903 657.532C619.98 657.532 620.597 657.995 620.211 657.686C620.519 657.917 620.828 658.226 621.213 658.457C621.984 659.074 622.832 659.767 623.602 660.461C623.679 660.538 624.835 661.617 624.758 661.694C624.758 661.694 624.142 660.769 624.527 661.463C624.681 661.771 624.681 661.771 624.527 661.309C624.142 660.615 624.142 659.844 624.373 658.997L626.608 656.145C626.608 656.145 626.223 656.376 625.992 656.53C626.839 656.068 626.146 656.453 625.837 656.53C625.298 656.684 624.681 656.761 624.142 656.838C622.832 657.07 621.598 657.224 620.288 657.532C619.518 657.686 618.67 657.84 617.899 658.072C617.514 658.072 617.205 658.226 616.82 658.303C616.82 658.303 615.895 658.457 616.435 658.303C614.816 658.534 613.121 658.534 611.502 658.688C604.797 659.228 597.861 659.382 591.155 658.842C589.614 658.765 588.072 658.611 586.531 658.534C585.683 658.534 584.835 658.534 583.988 658.38C583.602 658.38 583.217 658.38 582.832 658.303C582.292 658.303 582.138 658.226 581.907 658.149C578.361 657.686 574.816 657.301 571.271 657.07C564.412 656.684 558.092 655.837 551.464 654.758C548.227 654.218 544.99 653.679 541.753 653.216C538.516 652.754 535.356 652.214 532.196 651.212C529.036 650.21 526.184 649.131 523.101 648.284C520.019 647.436 516.859 646.588 513.853 645.509C508.15 643.428 501.753 640.499 495.741 638.187C489.729 635.875 483.256 633.563 477.09 631.097C474.315 629.941 471.464 628.553 468.458 627.243C465.452 625.933 462.138 624.7 458.978 623.467C456.512 622.465 453.275 620.769 450.654 619.305C448.034 617.84 445.259 616.068 442.639 614.372C440.019 612.677 437.475 610.904 434.778 609.285C432.08 607.667 429.306 606.588 426.685 605.047C421.444 602.118 416.897 598.187 411.656 595.181C406.107 592.022 400.635 588.707 395.009 585.702C392.157 584.16 390.308 582.542 387.918 580.538C385.221 578.303 382.369 576.453 379.595 574.449C378.361 573.524 377.051 572.677 375.895 571.675C376.049 571.829 376.358 572.06 375.587 571.444C375.356 571.212 375.125 570.981 374.893 570.75C374.277 570.21 373.737 569.594 373.121 569.131C371.887 568.129 370.423 567.359 369.19 566.357C367.957 565.355 366.57 564.353 365.259 563.428C359.941 559.883 355.625 556.338 350.693 552.253C348.15 550.095 345.76 547.783 343.448 545.47C342.446 544.469 341.367 543.467 340.365 542.388C340.288 542.311 339.132 540.923 339.518 541.386C338.978 540.692 338.516 539.998 338.053 539.305C334.508 534.218 330.5 529.517 326.107 525.124C325.645 524.661 325.182 524.199 324.72 523.736C324.103 523.043 324.412 523.428 324.566 523.582C324.335 523.274 324.18 522.966 323.949 522.657V522.503C324.18 523.043 324.257 523.659 323.949 524.276C323.795 525.586 323.487 526.126 322.639 526.742C323.41 526.203 322.562 527.05 322.408 526.742C322.408 526.742 323.101 526.511 323.178 526.511C326.184 525.355 329.036 523.813 331.733 522.58C334.431 521.347 336.281 519.266 338.516 517.494C337.899 517.956 338.67 517.339 338.824 517.262C339.055 517.108 339.363 516.877 339.595 516.723C340.211 516.26 340.828 515.875 341.521 515.49C342.832 514.642 344.065 513.794 345.375 512.946C347.918 511.174 350.462 509.247 352.543 506.935C354.161 505.085 354.546 502.002 352.543 500.153C350.693 498.457 347.533 498.149 345.76 500.153L345.375 499.921Z" fill="#231815"/>
</svg>
