<svg width="930" height="820" viewBox="0 0 930 820" fill="none" xmlns="http://www.w3.org/2000/svg">
<path d="M586.03 186.088C566.685 147.861 547.34 113.41 520.442 80.3461C502.33 58.0725 476.203 32.7931 463.409 8.05322C449.768 52.9858 453.236 104.701 436.434 149.941C413.005 143.39 396.126 131.753 376.627 118.342C348.034 98.6891 312.658 96.5311 282.061 81.2709C247.456 64.007 210.076 46.6659 170.616 45.7411C195.51 95.9145 210.847 154.335 219.325 209.595C194.122 218.612 144.565 216.993 118.207 220.539C101.174 222.851 84.1416 226.627 67.5712 231.56C47.9181 237.417 30.2687 244.585 11.4633 252.678C62.7928 306.396 122.061 353.949 187.109 388.477C171.155 419.768 134.7 444.816 109.729 469.017C96.55 481.81 83.6791 495.452 69.6522 507.321C48.8429 524.893 25.6445 541.541 6.06836 558.959C37.2052 561.04 73.0433 559.267 101.945 559.267C138.554 559.267 181.02 554.026 216.935 560.192C202.446 617.918 190.192 673.255 169.228 728.978C163.217 745.009 161.984 765.51 151.656 779.152C188.881 743.93 247.61 729.595 294.7 713.487C326.3 702.697 358.207 690.674 388.804 677.186C406.993 669.248 438.053 647.36 457.629 649.363C475.124 651.213 487.918 686.358 497.552 702.62C507.109 718.805 516.897 732.138 530.616 745.317C549.344 717.186 576.858 695.452 596.743 667.629C605.76 654.99 616.319 642.658 625.105 629.171C668.496 644.662 720.519 657.533 766.454 662.697C795.355 665.934 828.496 670.712 857.629 667.475C829.729 637.032 807.224 604.739 776.627 575.76C747.032 547.783 715.664 519.036 689.691 488.361C705.953 481.887 718.824 472.099 730.77 459.306C762.446 425.471 795.432 393.333 827.879 359.961C853.775 333.371 885.375 308.477 908.727 279.807C877.976 271.791 843.371 271.714 812.388 269.171C774.854 266.088 735.009 265.548 697.244 267.938C720.982 247.051 736.396 214.219 752.041 187.167C767.224 160.963 791.81 133.756 802.754 105.78C807.841 92.8316 808.92 78.4964 815.548 65.163C755.895 86.9742 706.955 124.431 651.386 152.562C627.648 164.585 603.91 178.535 581.328 191.098C580.943 189.402 581.406 187.783 586.184 186.165L586.03 186.088Z" fill="#F9DADB"/>
</svg>
