<svg width="930" height="820" viewBox="0 0 930 820" fill="none" xmlns="http://www.w3.org/2000/svg">
<path d="M720.288 275.26C720.288 276.724 718.823 277.264 718.13 278.266C717.744 278.805 717.898 279.036 717.667 279.576C717.436 280.115 716.897 280.115 716.511 280.501C715.74 281.194 714.97 282.196 714.276 283.044C712.735 285.048 710.885 286.512 708.65 287.745C707.879 288.131 707.109 288.516 706.415 288.979C705.644 289.518 704.95 290.366 704.026 290.674C702.638 291.137 701.02 291.214 699.556 291.676C698.708 291.984 698.477 292.447 697.783 292.909C697.166 293.295 696.473 293.372 695.779 293.603C695.317 293.834 694.854 294.065 694.315 294.219C693.236 294.605 692.157 294.451 691.001 294.605C688.92 294.913 686.993 296.146 684.912 296.223C682.831 296.3 680.981 296.609 678.823 296.609C677.128 296.609 675.432 296.609 673.737 296.609C672.426 296.609 670.114 297.071 671.116 295.221C671.81 293.834 673.274 293.063 674.199 291.907C674.584 291.368 674.97 290.751 675.355 290.212C676.126 289.056 676.511 288.439 677.513 287.591C678.515 286.743 678.977 285.819 679.671 284.663C680.442 283.275 681.444 282.196 682.369 281.04C683.448 279.653 684.141 277.957 684.989 276.416C685.529 275.414 688.149 271.638 687.147 270.79C686.145 269.942 683.602 270.404 682.446 270.404C680.904 270.404 679.594 270.096 678.13 269.942C675.355 269.634 672.349 269.942 669.575 269.942C667.186 269.942 664.951 269.788 662.638 269.402C659.864 268.94 657.166 268.246 654.392 267.784C652.465 267.476 650.384 267.09 648.457 266.936C647.07 266.859 645.991 266.474 644.604 266.474C642.754 266.474 641.213 266.011 639.44 265.703C630.037 264.085 621.02 259.691 614.006 253.217C606.376 246.204 605.22 238.651 601.906 229.325C600.134 224.239 598.977 217.225 598.9 211.907C598.9 205.125 601.058 197.957 603.602 191.792C604.681 189.248 605.991 187.013 607.532 184.701C612.542 177.148 617.089 172.986 625.182 169.595C626.723 168.979 628.265 168.054 629.883 167.514C631.733 166.898 633.582 166.512 635.355 165.819C636.819 165.279 638.361 165.125 639.825 164.74C641.675 164.277 643.602 164.046 645.451 163.661C649.767 162.813 654.161 161.811 658.554 161.811C660.249 161.811 661.791 161.426 663.486 161.349C664.334 161.349 664.873 161.194 665.644 161.04C666.492 160.886 667.263 161.04 668.11 161.04C668.958 160.963 669.806 160.578 670.731 160.578C671.502 160.578 672.349 160.655 673.12 160.578C674.199 160.578 675.201 160.192 676.28 160.115C677.359 160.038 678.592 160.115 679.671 160.115C680.673 160.115 681.675 160.115 682.677 160.115C683.679 160.115 684.681 159.73 685.683 159.653C687.995 159.499 690.307 159.653 692.619 159.653C697.089 159.653 701.945 160.115 706.415 159.345C708.573 158.959 711.039 159.268 713.197 159.268C715.355 159.268 717.744 159.268 720.056 159.268C722.369 159.268 724.604 158.805 726.993 158.805C729.999 158.805 732.85 158.805 735.779 158.497C738.399 158.189 741.097 158.42 743.717 158.42C745.952 158.42 748.188 157.957 750.5 157.957C752.812 157.957 755.047 157.572 757.359 157.495C759.671 157.418 761.906 157.11 764.218 157.11C766.53 157.11 768.766 156.801 771.155 156.647C773.313 156.57 775.471 156.647 777.552 156.647H785.413C788.342 156.647 791.347 156.416 794.276 156.955C796.203 157.341 798.361 157.033 800.288 157.033C802.523 157.033 804.681 157.495 806.839 157.495C808.766 157.495 810.769 157.264 812.696 157.572C815.702 158.034 818.631 157.803 821.636 158.266C823.871 158.574 826.261 158.343 828.496 158.343C829.729 158.343 830.731 158.497 831.964 158.651C833.197 158.805 834.353 158.651 835.586 158.651C836.819 158.651 838.053 159.036 839.363 159.113C840.519 159.113 841.675 158.959 842.831 159.113C843.833 159.345 844.604 159.499 845.683 159.422C847.224 159.422 848.611 159.807 850.153 159.884C853.852 160.038 857.629 160.732 861.328 161.117C865.028 161.503 868.496 162.196 872.041 162.967C875.124 163.584 878.13 164.663 881.213 165.433C884.758 166.281 888.072 167.437 891.386 168.901C893.39 169.749 895.471 170.52 897.397 171.522C898.862 172.216 899.864 173.372 901.251 174.065C902.947 174.99 904.334 176.454 905.644 177.842C906.261 178.535 907.109 178.921 907.725 179.691C908.419 180.539 908.958 181.387 909.729 182.158C911.81 184.239 913.891 186.474 915.432 189.017C916.203 190.327 916.511 191.715 917.051 193.102C917.667 194.797 918.284 196.339 918.746 198.112C919.517 200.732 920.288 203.584 920.134 206.281C920.134 207.514 919.671 208.67 919.671 209.903C919.671 211.522 919.363 212.986 919.132 214.528C918.669 217.533 918.13 220.539 917.59 223.545C916.974 226.782 916.742 230.173 915.201 233.179C913.66 236.185 912.426 239.653 910.577 242.582C909.96 243.584 909.035 244.354 908.496 245.433C907.648 247.129 906.569 248.67 905.336 250.212C903.717 252.293 901.791 253.834 899.478 254.913C896.935 256.069 894.315 257.225 891.694 258.073C888.457 259.152 885.451 260.693 882.214 261.772C878.977 262.851 875.663 263.93 872.272 264.778C870.577 265.164 868.958 265.549 867.34 266.165C865.182 266.936 862.793 267.013 860.557 267.553C857.32 268.323 854.083 269.094 850.769 269.711C847.455 270.327 844.141 270.79 840.75 271.406C838.9 271.715 836.974 271.946 835.124 272.254C834.276 272.408 833.428 272.794 832.581 272.948C831.039 273.256 829.421 273.256 827.879 273.564C826.029 273.95 824.257 273.873 822.407 274.181C820.943 274.412 819.401 274.258 817.937 274.258C816.241 274.258 814.854 274.258 813.236 274.566C811.309 274.952 809.151 274.643 807.224 274.643C805.528 274.643 803.756 274.643 802.06 274.643C800.365 274.643 798.746 274.181 796.974 274.181C794.122 274.181 791.27 274.181 788.419 274.181C786.954 274.181 785.721 273.796 784.334 273.718C783.178 273.718 782.022 273.718 780.866 273.718C779.478 273.718 778.322 273.333 777.012 273.256C775.317 273.256 773.775 273.256 772.08 272.948C769.305 272.408 766.53 272.562 763.756 272.1C760.75 271.56 757.282 272.023 754.276 272.023H739.633C736.396 272.023 733.39 272.485 730.153 272.408C728.534 272.408 727.07 272.871 725.451 272.871C723.987 272.871 722.6 272.871 721.135 272.871" fill="white"/>
<path d="M717.05 274.412C716.896 275.106 715.355 276.724 714.892 277.418C714.121 278.497 715.123 277.187 714.507 277.957C713.967 278.651 713.197 279.191 712.657 279.884C709.343 283.738 705.104 286.744 700.172 288.131C698.245 288.67 696.78 289.749 694.931 290.443C692.696 291.368 690.229 291.445 687.917 292.139C685.22 292.986 682.522 293.295 679.671 293.372C678.283 293.372 676.896 293.372 675.509 293.372C674.738 293.372 672.58 292.909 673.351 293.834L674.199 297.071C674.584 295.607 677.358 293.295 678.283 291.984C679.439 290.443 680.904 289.133 681.983 287.514C684.68 283.507 687.378 279.653 689.536 275.26C690.923 272.408 691.385 269.094 688.071 267.476C686.222 266.551 684.295 267.09 682.368 267.013C679.208 267.013 676.125 266.397 672.965 266.474C666.26 266.628 660.326 265.318 653.852 264.316C648.303 263.391 642.676 263.16 637.127 261.85C624.95 258.921 613.389 251.368 608.765 239.422C604.526 228.401 600.518 216.146 603.139 204.354C605.759 192.562 611.617 181.002 622.021 174.99C631.732 169.364 644.295 166.435 655.393 165.433C666.491 164.431 678.052 163.198 689.382 163.121C715.509 162.89 741.713 162.119 767.84 160.424C780.326 159.576 792.888 160.424 805.374 160.963C817.859 161.503 830.884 161.734 843.601 162.967C867.725 165.279 897.243 167.746 912.118 189.865C919.671 201.117 916.819 215.684 913.967 227.938C912.58 233.873 909.343 239.036 906.106 244.123C904.256 247.052 902.715 249.826 899.632 251.676C896.549 253.526 893.004 254.528 889.69 255.838C875.817 261.156 861.79 265.009 847.146 267.476C833.428 269.788 820.094 271.869 806.145 271.869C792.195 271.869 777.859 270.636 763.755 269.325C749.651 268.015 735.701 270.173 721.752 270.173C717.436 270.173 717.436 276.878 721.752 276.878C736.78 276.878 751.809 275.029 766.838 276.416C781.867 277.803 796.202 278.805 810.846 278.728C825.489 278.651 840.364 275.877 854.699 272.948C869.805 269.865 884.449 265.703 898.63 259.615C905.258 256.763 908.495 252.832 912.349 246.898C916.202 240.963 919.671 234.489 920.904 227.322C922.137 220.154 923.601 213.603 923.909 206.667C924.218 200.347 921.366 191.715 917.898 186.474C900.942 160.963 867.493 158.189 839.594 156.031C825.027 154.952 810.461 154.798 795.894 153.95C780.48 153.025 765.297 153.95 749.883 154.798C734.468 155.645 718.746 155.414 703.254 156.57C699.247 156.878 695.162 156.57 691.154 156.493C687.378 156.493 683.678 156.956 679.902 156.956C673.582 156.956 667.416 157.957 661.173 158.497C647.301 159.73 633.582 161.811 621.019 168.054C609.613 173.68 602.214 184.932 598.36 196.724C593.736 210.905 596.511 223.622 600.981 237.418C605.451 251.214 613.543 259.769 626.26 265.395C632.041 267.938 638.283 269.48 644.603 270.019C651.848 270.713 658.861 272.794 666.106 273.333C669.805 273.641 673.582 273.102 677.281 273.333C678.9 273.41 680.827 274.027 682.445 273.873C682.676 273.873 683.678 273.873 683.832 273.796C684.295 273.333 684.295 272.1 683.524 272.408C682.291 272.871 680.981 277.418 680.287 278.42C678.437 281.271 676.202 283.969 674.044 286.589C671.886 289.21 666.106 294.065 668.11 297.996C669.035 299.769 670.73 300.154 672.503 300.231C676.125 300.385 679.902 300.231 683.447 299.846C689.767 299.306 695.316 297.225 701.019 294.99C702.561 294.374 704.179 294.374 705.644 293.68C706.877 293.063 707.956 292.061 709.112 291.368C712.195 289.518 714.584 287.9 716.896 285.125C719.208 282.351 722.522 279.73 723.37 276.262C724.449 272.1 717.975 270.25 716.896 274.489L717.05 274.412Z" fill="#231815"/>
<path d="M634.891 188.17H646.298C650.537 188.17 652.618 191.098 652.618 197.033C649.92 212.216 646.298 219.846 641.905 219.846C641.288 219.846 640.209 218.536 638.745 215.992C643.369 207.823 645.681 200.655 645.681 194.489V193.873C645.681 193.873 643.6 194.104 640.595 194.489C635.97 194.489 633.658 192.794 633.658 189.48C633.812 188.632 634.198 188.17 634.891 188.17ZM672.271 225.549C674.814 225.549 676.047 231.021 676.047 241.965C676.895 241.965 677.281 243.661 677.281 247.052L676.047 247.669H673.504C670.729 247.669 664.641 248.516 655.161 250.212C651.076 250.212 648.764 246.204 648.225 238.189C647.839 237.418 647.608 234.027 647.608 228.015L648.841 227.399L653.311 228.015L672.271 225.549ZM653.928 233.719C655.007 240.501 655.855 243.892 656.471 243.892C665.103 243.892 669.959 242.582 670.961 240.039C670.421 234.104 669.805 231.175 669.111 231.175C667.57 231.175 662.483 232.023 653.928 233.719ZM665.951 184.393C668.34 184.393 670.036 189.249 670.961 198.96H678.591C681.519 198.96 682.984 200.424 682.984 203.353L679.207 205.279L677.974 204.663L672.271 205.896V208.439C672.271 210.212 672.502 212.524 672.888 215.376C672.271 217.457 670.807 218.536 668.494 218.536C666.799 216.994 665.566 210.828 664.641 200.193C663.793 195.106 663.408 191.098 663.408 188.17V185.01C663.408 185.01 664.487 184.778 665.951 184.393Z" fill="black"/>
<path d="M694.929 197.649H695.546C696.162 197.649 697.01 198.496 698.089 200.192C698.089 201.271 697.627 204.431 696.779 209.672C699.939 209.672 702.405 211.598 704.409 215.375C706.49 215.375 707.569 216.839 707.569 219.845L706.952 223.005C704.717 223.005 700.941 220.23 695.546 214.758C694.004 221.541 692.463 224.855 691.076 224.855H689.843C688.455 223.622 687.376 223.005 686.683 223.005V219.845C690.074 207.976 691.769 201.888 691.769 201.502L691.076 200.192C691.538 198.496 692.771 197.649 694.929 197.649ZM713.889 195.105H714.505C717.126 195.876 718.821 201.194 719.592 210.982V211.598C720.671 211.598 723.831 211.213 729.072 210.365C730.767 212.755 731.615 214.219 731.615 214.758C731.23 216.454 729.92 217.302 727.839 217.302H720.209V219.151L720.825 222.388H720.209L720.825 223.622V224.238C720.825 224.624 720.594 224.855 720.209 224.855L720.825 226.165L720.209 229.325H718.359C714.968 229.325 713.272 225.703 713.272 218.535C713.272 210.674 712.193 203.275 710.112 196.415C711.5 195.568 712.733 195.105 713.889 195.105Z" fill="black"/>
<path d="M745.566 194.488H750.036C751.886 194.488 752.965 197.879 753.196 204.661H758.899C760.595 205.355 761.365 206.819 761.365 209.055C761.365 210.442 755.893 211.675 744.949 212.831V212.214L743.716 212.831H741.789C739.477 212.831 737.55 211.598 736.086 209.055V207.821C736.086 207.205 736.703 206.588 738.013 205.895H738.629C739.554 205.895 740.402 206.126 741.173 206.511C741.943 206.126 742.791 205.895 743.716 205.895H746.259V203.351L745.643 200.191H746.259L745.643 198.958V194.488H745.566ZM746.182 213.525H748.109C751.731 213.525 754.66 217.301 756.972 224.854C756.972 228.245 754.66 229.941 750.036 229.941C743.254 228.245 739.862 225.317 739.862 221.078V219.844C743.254 215.606 745.334 213.525 746.182 213.525ZM765.835 200.808C769.612 200.808 771.539 204.584 771.539 212.214H773.388C774.313 212.214 775.161 211.983 775.932 211.598C779.323 212.677 781.019 213.756 781.019 214.758V216.685C780.402 218.38 778.552 219.151 775.315 219.151V218.534C772.772 219.074 771.539 219.69 771.539 220.461L772.155 228.014C771.539 228.014 770.922 228.631 770.229 229.941V230.557C772.309 230.557 773.388 232.022 773.388 235.028V243.197C773.388 243.66 773.157 243.891 772.772 243.891C772.772 244.276 773.003 244.507 773.388 244.507C773.388 249.594 772.309 252.06 770.229 252.06C767.531 252.06 762.444 252.908 755.045 254.604C751.269 254.604 749.342 251.212 749.342 244.507C749.342 240.962 749.111 239.112 748.726 238.804C748.726 238.419 748.957 238.187 749.342 238.187L748.726 235.028V233.101L751.886 232.484H752.502C755.045 233.949 756.356 235.028 756.356 235.644V238.804H756.972C762.907 238.804 765.835 237.956 765.835 236.261C765.835 232.022 766.683 229.941 768.379 229.941H769.612V229.324C765.835 229.324 763.909 226.164 763.909 219.844V210.365C763.523 206.819 763.292 203.891 763.292 201.502C764.063 201.039 764.911 200.808 765.835 200.808ZM760.749 245.124H756.972V247.051L763.292 246.357H765.219V244.507L760.749 245.124Z" fill="black"/>
<path d="M787.491 203.352H788.185C791.961 203.352 793.888 205.279 793.888 209.056V219.846L793.194 224.239C793.657 224.239 793.888 224.47 793.888 224.855C798.666 224.008 803.136 223.622 807.144 223.622C810.073 223.93 811.537 224.547 811.537 225.549V226.782C809.456 229.711 801.826 231.175 788.801 231.175C787.106 229.017 786.258 227.784 786.258 227.399C787.106 220.154 787.491 214.219 787.491 209.672V203.352ZM817.24 199.576C821.479 199.576 823.56 204.431 823.56 214.142C824.408 214.142 824.87 217.688 824.87 224.855V229.325C824.87 231.869 824.023 233.102 822.327 233.102C819.398 233.102 817.934 231.406 817.934 228.015C817.934 220.848 817.086 211.522 815.391 200.192H816.007L817.24 199.576Z" fill="black"/>
<path d="M844.911 204.663C848.688 205.202 850.614 206.667 850.614 209.056C848.919 210.906 844.911 212.447 838.591 213.526V215.376C838.823 223.776 839.67 228.015 841.135 228.015C843.447 228.015 846.607 227.63 850.614 226.782C853.158 227.63 854.391 228.478 854.391 229.326V231.175C853.158 233.333 848.302 234.412 839.902 234.412H837.358C834.584 234.412 832.888 229.557 832.271 219.846H832.888L832.271 218.536V215.992C832.271 210.058 834.352 207.129 838.591 207.129C838.668 206.821 840.826 205.973 844.911 204.663ZM858.245 203.353C862.021 203.353 863.948 205.279 863.948 209.056C863.948 214.528 864.796 217.302 866.491 217.302H872.194C874.275 218.381 875.354 219.229 875.354 219.846V221.079C875.354 221.773 874.507 222.62 872.811 223.622H865.258V224.855C865.258 226.628 865.489 228.94 865.875 231.869C865.181 233.95 864.102 235.029 862.715 235.029C860.788 233.719 859.478 233.102 858.938 233.102C858.938 231.175 858.09 221.464 856.395 203.969C857.243 203.584 857.859 203.353 858.322 203.353H858.245Z" fill="black"/>
<path d="M882.211 241.965C888.531 242.658 891.768 244.739 891.768 248.285V249.595C891.768 250.365 889.841 251.444 886.065 252.755H884.138C880.361 250.365 878.435 248.053 878.435 245.818C880.67 244.739 881.903 243.429 882.211 241.965ZM886.604 181.849V182.466L887.837 181.849C890.072 182.928 891.305 184.238 891.691 185.626C890.843 215.221 889.764 229.941 888.531 229.941H887.221C885.91 229.941 884.677 228.708 883.444 226.165C883.444 225.24 883.675 222.928 884.061 219.152C884.061 218.766 883.83 218.535 883.444 218.535C883.984 213.217 884.369 210.057 884.677 209.055C884.677 208.593 884.446 208.362 884.061 208.362L884.677 203.969L885.294 182.389L886.604 181.772V181.849Z" fill="black"/>
</svg>
