<svg width="930" height="820" viewBox="0 0 930 820" fill="none" xmlns="http://www.w3.org/2000/svg">
<path d="M379.939 508.94C369.458 523.738 357.897 538.69 350.652 555.414C344.409 569.98 338.783 584.162 333.542 599.113C325.835 621.079 322.444 645.433 320.903 668.786C320.594 673.718 318.899 680.655 323.292 684.508C325.681 686.589 330.768 687.052 334.005 688.054C338.937 689.595 344.255 688.593 349.265 689.749C357.357 691.599 365.604 693.603 373.696 695.761C398.128 702.158 423.484 702.774 448.61 704.316L480.903 706.32C492.463 707.013 503.176 705.934 514.737 706.628C533.157 707.784 551.577 708.94 569.997 710.019C578.167 710.481 585.642 709.557 593.735 709.788C597.434 709.865 600.671 708.632 604.294 708.632C607.685 708.632 611.307 709.711 614.698 709.402C626.182 708.555 625.565 694.682 625.103 685.819C624.795 679.884 622.714 674.104 622.56 668.092C622.328 659.846 621.095 651.984 619.939 643.738C619.169 638.574 619.168 633.41 618.167 628.323C617.165 623.237 615.007 618.381 614.159 613.295C612.695 604.817 609.843 598.959 606.298 591.329C603.985 586.32 602.984 580.539 600.363 575.684C597.511 570.289 592.887 565.819 589.727 560.578C586.49 555.26 584.332 549.248 581.172 543.853C577.473 537.456 576.933 530.443 572.232 524.74C568.456 520.115 566.066 514.412 561.905 510.096C557.126 505.164 549.419 503.314 543.639 499.923" fill="#F4B3B1"/>
<path d="M376.625 507.013C369.303 517.341 361.673 527.437 355.277 538.304C348.88 549.171 344.101 561.04 339.4 572.832C334.467 585.241 329.535 597.803 325.989 610.751C322.444 623.699 320.44 635.799 318.976 648.516C318.205 654.682 317.743 660.848 317.28 667.09C316.895 671.946 315.816 677.11 317.28 681.888C320.209 691.137 333.465 692.601 341.635 692.986C355.199 693.526 368.456 698.921 381.635 701.618C394.814 704.316 407.762 705.626 420.941 706.551C447.916 708.478 475.122 710.559 502.174 710.327C529.226 710.096 557.126 714.875 584.641 713.873C590.113 713.642 595.431 713.873 600.826 712.948C606.837 711.946 613.003 714.566 618.937 712.562C626.413 710.019 628.648 702.158 629.111 695.067C629.804 684.123 627.03 673.333 626.182 662.466C625.72 656.532 624.872 650.597 624.024 644.663C623.022 637.726 622.945 630.713 621.172 623.93C619.4 617.148 618.09 610.828 616.086 604.509C614.082 598.189 610.768 592.562 608.61 586.397C606.452 580.231 604.602 574.065 600.517 568.516C596.664 563.275 592.887 558.42 590.036 552.562C586.953 546.32 583.639 540.154 581.249 533.603C579.014 527.591 575.777 523.121 572.309 517.726C569.303 513.025 566.529 508.092 561.905 504.701C556.972 501.002 550.961 499.306 545.643 496.3C541.327 493.834 537.396 500.539 541.789 502.929C546.182 505.318 550.421 506.782 554.506 509.017C559.515 511.792 562.213 516.185 565.219 520.886C567.839 525.125 571.153 528.747 573.003 533.449C575.084 538.69 577.088 543.622 579.631 548.555C582.174 553.487 584.101 558.343 586.953 562.967C589.804 567.591 593.658 571.445 596.433 576.069C599.207 580.694 600.286 586.474 602.444 591.561C604.602 596.647 607.068 601.272 608.687 606.435C612.386 617.996 614.621 629.942 616.009 641.965C616.702 647.823 617.704 653.68 618.321 659.537C618.937 665.703 619.092 671.792 620.248 677.88C621.558 684.663 623.407 695.144 620.093 701.772C617.935 706.011 613.851 705.626 609.689 705.164C603.908 704.47 598.745 705.857 593.041 705.857C580.248 705.857 567.762 705.934 554.968 705.164C542.174 704.393 529.535 703.545 516.818 702.774C504.872 702.081 492.926 702.929 481.057 702.312C468.109 701.618 455.238 700.693 442.29 699.923C429.342 699.152 417.088 698.613 404.602 697.148C392.117 695.684 380.093 693.14 367.916 690.058C362.136 688.593 356.278 686.975 350.421 685.819C344.949 684.74 339.477 685.202 334.082 683.815C329.149 682.582 324.525 682.351 324.371 676.185C324.217 670.79 325.142 665.164 325.604 659.769C326.76 646.512 328.61 633.256 331.616 620.231C334.621 607.206 339.4 594.027 344.332 581.233C349.265 568.439 354.198 555.26 361.211 543.314C368.224 531.368 375.855 521.349 383.485 510.559C386.336 506.474 379.708 502.62 376.856 506.705L376.625 507.013Z" fill="#231815"/>
<path d="M280.519 282.968C278.053 277.034 275.818 271.176 273.352 265.242C270.192 257.535 269.267 249.365 267.109 241.273C264.951 233.18 262.716 225.627 262.562 217.612C262.408 208.594 261.02 200.039 259.633 191.176C257.398 176.687 254.392 162.506 254.238 147.862C254.238 141.619 255.471 134.837 257.244 128.825C259.479 121.273 265.182 114.028 270.346 108.093C275.047 102.698 280.057 97.5346 285.221 92.5249C288.689 89.2109 295.24 84.6637 300.25 84.1242C302.716 83.8929 304.566 83.8159 306.955 83.2764C309.575 82.6598 313.275 81.9662 315.895 81.735C318.516 81.5037 321.213 82.4286 323.679 83.0452C327.764 84.0471 331.309 84.2783 334.932 86.5904C340.789 90.2899 345.953 94.6829 350.423 99.9238C355.587 105.935 358.901 112.949 362.6 119.885C364.065 122.66 365.452 125.28 366.454 128.209C367.841 132.217 370.539 135.3 372.157 139.23C375.78 148.016 378.785 156.725 381.406 165.82C383.872 174.375 385.568 183.315 387.649 191.947C389.421 199.346 391.271 207.901 391.194 215.454C391.194 218.305 391.04 221.311 391.194 224.163C391.348 227.554 392.427 230.405 392.427 233.874C392.427 239.346 391.733 245.126 391.887 250.521C394.431 251.369 400.828 247.053 403.988 246.359C406.608 245.82 409.229 246.359 411.849 245.82C414.469 245.28 417.244 244.278 420.018 243.816C424.72 243.045 429.961 243.739 434.739 243.739C438.824 243.739 444.835 244.278 448.381 242.12C448.535 239.5 446.685 236.648 445.76 234.259C444.835 232.024 444.296 229.635 443.371 227.4C442.061 224.24 440.982 221.773 440.057 218.459C439.132 215.145 437.591 212.525 436.743 209.288C432.889 194.721 429.498 180.001 426.955 165.203C425.722 157.881 423.641 150.637 421.868 143.469C420.327 137.38 418.554 130.752 418.631 124.432C418.708 113.026 415.471 100.849 417.706 89.365C420.019 77.1877 424.72 64.0856 432.966 54.6059C441.213 45.1261 450.77 33.4883 464.797 33.0259C470.963 32.7947 477.437 32.7176 483.525 33.6425C487.302 34.182 490.924 34.6444 494.546 35.7234C498.169 36.8024 500.789 38.4209 504.103 40.2706C515.972 46.8987 523.294 57.2263 530.616 68.4787C534.469 74.4903 535.857 81.5037 538.862 87.9007C542.793 96.0702 544.72 104.702 548.419 112.872C551.117 118.883 552.812 126.667 554.045 133.219C555.356 140.078 556.897 146.706 558.747 153.411C562.369 166.513 562.677 180.772 564.758 194.182C565.837 201.118 566.3 208.132 567.687 215.068C568.766 220.386 570.308 225.627 571.541 230.868C572.543 235.261 573.699 235.955 578.092 235.569C581.175 235.338 584.103 233.797 587.186 234.413C592.812 235.492 598.901 235.8 604.296 237.881C607.995 239.346 612.003 240.194 615.702 241.581C622.331 244.047 628.959 247.515 635.047 251.061C639.363 253.527 643.371 255.993 647.07 259.307C649.845 261.773 652.697 263.238 655.78 265.319C658.862 267.4 661.175 269.866 663.718 272.409C668.419 277.111 673.968 281.658 678.053 286.976C682.446 292.756 685.914 299.461 689.999 305.473C693.699 310.945 697.938 316.34 700.712 322.352C704.257 329.982 709.729 337.303 711.194 345.627C712.427 352.795 714.431 359.808 714.97 367.053C715.202 370.29 716.203 373.296 716.203 376.533C716.203 381.465 715.047 386.012 714.97 390.868C714.816 398.036 713.968 404.972 712.889 411.985C711.887 418.228 711.271 423.623 708.573 429.558C705.799 435.723 704.18 441.041 699.479 446.205C697.09 448.825 695.317 451.985 692.697 454.298C689.768 456.841 687.61 459.076 684.99 462.005C674.739 473.257 662.87 482.66 650.924 492.448C646.223 496.301 640.442 501.311 634.893 503.777C629.344 506.244 622.87 508.093 617.09 510.791C613.776 512.332 611.309 514.259 607.764 515.261C604.219 516.263 600.751 517.881 597.128 519.114C593.968 520.193 591.425 522.043 588.188 523.045C584.489 524.124 581.483 526.359 577.783 527.515C565.529 531.369 553.352 535.916 540.866 539.076C530.23 541.773 519.44 542.698 508.419 542.621C502.022 542.621 495.934 544.009 489.691 545.01C487.148 545.473 484.527 545.55 481.984 546.166C478.361 547.091 475.047 546.86 471.502 547.477C465.799 548.479 460.173 549.172 454.392 550.328C447.995 551.639 441.598 553.257 435.202 554.259C432.119 554.721 429.113 554.413 426.03 554.49C423.333 554.567 420.943 555.415 418.323 555.8C414.161 556.34 409.922 555.261 405.76 556.032C401.984 556.725 398.361 557.419 394.508 557.034C390.886 556.648 388.111 555.723 384.412 555.8C381.868 555.8 379.402 555.8 376.859 555.8C374.315 555.8 371.926 555.955 369.46 555.8C366.993 555.646 364.913 554.721 362.446 554.567C357.051 554.259 351.425 554.567 345.953 554.567C343.487 554.567 340.558 555.03 338.169 554.567C335.78 554.105 334.161 553.488 331.695 553.334C329.768 553.257 328.227 552.332 326.3 552.101C324.527 551.87 322.523 552.332 320.751 552.178C317.745 551.947 315.124 551.022 312.042 550.945C308.342 550.868 304.489 550.02 300.712 549.789C295.163 549.481 289.691 548.016 284.296 547.091C278.901 546.166 273.968 545.55 269.036 543.777C266.878 543.007 264.72 542.236 262.562 541.388C259.633 540.232 258.015 538.845 255.471 537.149C252.774 535.299 249.537 534.76 246.762 533.064C243.525 531.061 239.826 529.75 236.897 527.669C227.803 521.118 217.938 515.492 211.309 505.935C207.687 500.694 204.065 495.299 202.061 489.211C200.057 483.122 198.053 477.265 196.126 471.33C194.354 466.012 192.504 460.772 191.348 455.222C190.731 452.062 189.498 449.057 188.882 445.974C188.265 442.891 188.342 439.885 187.726 436.802C187.109 433.72 187.726 430.328 187.494 427.014C187.34 424.086 186.261 421.542 186.261 418.614C186.184 412.987 185.953 407.207 186.261 401.581C186.492 396.957 187.726 392.178 188.728 387.708C189.344 385.01 189.344 381.928 189.961 379.153C190.654 375.916 193.044 371.369 194.585 368.286C197.36 362.968 199.286 356.494 202.986 351.87C204.527 349.943 205.375 348.016 206.762 346.012C208.92 342.852 212.388 339.538 214.932 336.61C218.4 332.525 222.562 328.903 226.338 325.126C232.581 318.883 238.824 312.718 245.837 307.477C250.847 303.7 255.24 298.845 260.866 296.147C264.103 294.606 266.724 292.371 270.038 290.984C273.737 289.442 276.974 287.284 280.519 285.357" fill="white"/>
<path d="M284.218 281.966C281.521 275.569 278.824 269.095 276.434 262.621C274.045 256.147 272.966 248.902 271.271 242.043C269.421 234.567 267.032 227.245 266.492 219.538C266.03 212.679 265.644 205.896 264.719 199.037C262.639 184.47 259.479 169.904 258.477 155.183C257.475 140.463 260.326 126.513 270.037 114.49C274.045 109.557 278.438 104.856 282.908 100.232C287.378 95.6072 292.465 90.1352 298.939 88.2855C301.328 87.5918 303.872 87.6689 306.338 87.2065C309.498 86.667 312.735 85.588 315.972 85.4339C321.675 85.2797 329.691 87.5148 334.469 90.5976C346.338 98.3047 353.043 109.48 359.44 121.657C362.292 127.129 364.681 132.756 367.61 138.151C370.924 144.393 373.082 151.484 375.24 158.189C380.095 173.141 383.949 188.941 386.492 204.509C387.725 211.908 386.723 219.307 387.725 226.705C388.804 234.721 388.034 242.351 388.188 250.366C388.188 251.908 389.344 253.835 391.039 254.066C394.816 254.682 398.053 252.987 401.444 251.445C406.376 249.133 411.849 249.75 417.089 248.363C427.879 245.511 440.365 250.443 450.538 245.28C451.694 244.663 452.542 243.199 452.465 241.966C452.157 237.033 449.459 232.178 447.841 227.553C445.683 221.542 443.217 215.684 441.213 209.673C436.743 196.185 434.122 181.619 431.579 167.669C430.423 161.503 429.19 155.492 427.648 149.403C425.875 142.312 423.486 134.991 422.87 127.669C422.33 121.272 422.253 114.875 421.637 108.478C420.943 101.311 420.712 94.297 422.253 87.2065C424.797 75.7999 429.112 64.9329 436.743 56.0697C443.448 48.2855 451.078 38.9598 461.791 37.0331C467.725 35.9541 474.43 36.3394 480.365 36.8789C486.762 37.4955 493.313 38.4974 499.016 41.5032C509.652 47.2065 517.282 55.1448 524.064 65.087C527.61 70.2508 530.153 75.2604 532.311 81.1178C534.623 87.5918 537.629 93.7575 539.941 100.309C541.945 106.012 544.334 111.638 546.415 117.341C548.496 123.045 549.729 129.519 550.962 135.684C553.737 149.249 557.59 162.274 559.132 176.147C560.519 188.786 561.752 201.58 563.987 214.143C565.066 220.386 566.531 226.86 568.457 232.948C569.613 236.802 572.08 239.191 576.165 239.345C578.323 239.422 580.403 238.96 582.484 238.574C586.107 237.881 589.113 238.42 592.735 238.96C599.286 239.962 605.452 242.043 611.771 244.047C624.103 247.977 635.895 254.837 645.914 262.852C650.307 266.397 655.163 268.786 659.247 272.794C664.026 277.496 669.19 281.889 673.583 286.975C677.976 292.062 680.904 297.534 684.296 303.006C687.687 308.478 691.309 313.102 694.546 318.343C697.783 323.584 700.172 328.902 703.024 334.143C706.415 340.54 707.802 346.628 709.267 353.719C710.577 360.039 711.348 366.359 712.35 372.756C713.429 379.615 711.733 386.628 711.425 393.565C710.808 406.59 709.035 419.692 703.872 431.792C699.016 443.045 690.847 450.521 682.677 459.307C673.891 468.786 664.103 477.11 654.084 485.28C649.151 489.364 644.296 493.758 638.901 497.303C632.966 501.233 626.107 503.083 619.556 505.704C614.238 507.862 609.382 510.636 603.91 512.563C598.053 514.644 592.427 517.341 586.646 519.576C580.866 521.811 575.779 524.201 570.076 526.05C563.062 528.363 556.126 530.752 549.035 532.91C542.638 534.837 536.087 536.532 529.459 537.534C521.983 538.613 514.507 538.613 506.954 538.844C501.174 539.075 495.548 540.309 489.768 541.233C483.448 542.235 477.051 542.852 470.731 543.854C464.411 544.856 458.091 545.781 451.849 547.091C444.604 548.632 437.359 550.713 429.883 550.713C423.563 550.713 417.629 552.1 411.309 551.946C404.989 551.792 398.746 553.796 392.272 552.794C385.798 551.792 379.71 551.946 373.313 551.946C370.076 551.946 367.224 551.33 364.064 550.867C360.596 550.405 356.974 550.559 353.506 550.559C347.417 550.636 341.56 551.176 335.625 550.02C333.39 549.557 331.232 549.249 328.92 548.709C325.452 547.862 321.983 548.555 318.515 548.016C313.274 547.168 307.879 546.705 302.639 546.166C295.163 545.395 287.841 543.931 280.519 542.621C274.43 541.542 267.725 540 262.253 536.994C260.172 535.838 258.4 534.297 256.319 533.141C253.005 531.368 249.459 530.058 246.145 528.285C236.28 523.122 225.876 516.417 218.245 508.17C208.766 497.996 205.066 485.126 200.75 472.255C196.666 460.154 192.658 447.669 191.733 434.875C191.502 431.715 191.964 428.632 191.579 425.549C191.193 422.698 190.577 420 190.5 417.149C190.192 410.135 190.037 402.813 191.348 395.877C191.887 392.871 192.812 389.865 193.274 386.86C193.737 383.854 193.814 381.002 194.816 378.151C196.743 372.679 199.825 367.361 202.215 362.043C207.147 351.253 215.163 341.927 223.64 333.68C233.043 324.509 242.6 315.877 252.619 307.399C261.791 299.615 272.427 294.837 282.831 288.825C287.147 286.359 283.217 279.653 278.978 282.197C268.034 288.517 256.935 293.68 247.224 302.004C236.82 310.867 226.8 319.808 217.089 329.442C208.226 338.305 200.057 348.17 194.97 359.653C192.735 364.74 189.96 369.673 187.956 374.914C185.644 380.771 185.182 387.784 184.026 393.95C181.482 407.284 183.718 420.617 184.103 433.95C184.488 447.284 188.727 460.309 192.889 472.717C197.282 485.896 200.981 498.228 209.382 509.48C216.319 518.806 226.877 526.127 236.666 532.139C242.138 535.53 248.534 537.457 253.929 540.771C259.324 544.085 264.103 546.474 270.114 548.324C276.588 550.328 283.448 551.021 289.999 552.255C296.55 553.488 303.872 554.336 310.808 554.952C314.199 555.26 317.667 556.108 321.059 556.262C323.602 556.339 325.76 556.262 328.226 556.725C334.315 558.035 340.018 558.729 346.261 558.574C352.504 558.42 359.44 557.958 365.837 559.191C373.39 560.655 381.097 559.037 388.727 560.116C394.585 560.964 399.671 561.118 405.452 560.193C409.305 559.576 412.928 560.193 416.781 559.962C420.635 559.73 424.334 558.652 428.188 558.497C442.138 558.112 455.702 554.104 469.421 551.946C475.741 550.944 482.138 550.174 488.457 549.326C495.856 548.324 503.024 546.783 510.577 546.705C525.066 546.551 539.016 544.239 552.889 540C566.762 535.761 579.247 531.291 592.041 525.973C597.744 523.584 603.294 521.195 609.074 519.191C615.625 516.879 621.637 513.257 628.188 510.867C633.814 508.786 639.286 506.706 644.218 503.16C649.999 498.998 655.394 494.297 660.943 489.75C671.579 481.041 681.29 471.869 690.847 462.081C695.008 457.842 698.939 453.835 702.716 449.21C706.492 444.586 708.881 439.885 711.193 434.567C716.357 422.544 718.207 409.519 719.055 396.494C719.517 389.557 721.059 382.081 720.442 375.145C719.903 368.594 718.823 361.889 717.513 355.492C716.203 349.095 715.278 342.39 712.581 336.301C709.883 330.212 706.723 324.817 703.795 319.114C700.866 313.411 696.473 307.939 692.85 302.312C689.228 296.686 685.991 290.598 681.829 285.203C677.667 279.808 672.812 275.646 668.111 271.021C663.64 266.705 659.556 263.006 654.315 259.692C649.074 256.378 644.373 251.985 638.823 248.748C632.889 245.28 626.8 241.966 620.403 239.345C614.007 236.725 607.61 234.49 601.136 233.025C595.741 231.792 588.958 230.02 583.486 230.867C582.099 231.099 577.089 232.871 576.242 232.1C574.7 230.79 574.392 224.933 573.852 223.006C572.003 215.838 570.847 208.671 569.922 201.272C568.226 187.399 567.147 173.218 564.45 159.499C563.139 152.948 561.136 146.474 559.671 140C558.207 133.526 557.051 126.282 555.124 119.653C551.27 106.474 545.105 93.9888 540.326 81.1178C532.542 60.0003 516.126 36.6477 492.696 31.4839C486.993 30.2508 481.059 29.5571 475.278 29.3259C468.881 29.0947 461.945 28.9406 455.856 31.0986C445.606 34.7209 438.207 43.0446 431.348 51.06C423.486 60.2315 418.477 71.0215 415.548 82.6593C414.084 88.3626 413.236 94.1429 413.313 100.077C413.467 107.707 414.854 115.337 415.008 122.968C415.317 137.303 420.481 150.713 423.178 164.663C425.876 178.613 428.958 193.565 432.658 207.9C434.199 213.912 436.434 220 438.746 225.781C439.825 228.632 440.827 231.407 441.829 234.259C442.754 236.956 444.681 239.576 444.835 242.428L446.762 239.114C442.523 241.272 436.434 240.27 431.81 240.116C426.723 239.962 421.791 239.731 416.858 240.964C414.238 241.58 411.771 242.428 409.074 242.582C406.839 242.736 404.758 242.582 402.6 243.199C400.211 243.892 395.741 247.515 393.351 247.129L396.203 250.829C396.049 243.892 397.359 236.802 396.28 229.865C395.124 222.235 395.895 214.528 394.816 206.898C392.812 191.792 388.958 176.224 384.565 161.657C380.172 147.091 374.546 134.682 368.149 121.657C361.752 108.632 355.124 97.0716 343.949 88.2084C338.4 83.8924 333.467 81.4261 326.685 79.8847C323.756 79.2681 320.904 78.1891 317.899 78.1121C314.508 77.9579 310.962 78.8057 307.725 79.4994C300.943 80.8866 295.394 81.1178 289.459 84.9714C283.833 88.5938 279.286 93.5263 274.739 98.3047C264.565 109.018 255.317 119.962 252.311 134.837C249.305 149.711 252.003 165.665 254.469 180.771C255.933 189.557 257.475 198.42 258.477 207.284C259.479 216.147 259.402 224.856 261.482 233.642C263.563 242.428 265.413 250.675 267.648 259.075C269.883 267.476 273.814 276.108 277.282 284.355C279.132 288.902 286.608 286.898 284.681 282.274L284.218 281.966Z" fill="#231815"/>
<path d="M385.413 375.993C384.411 373.526 383.409 371.137 383.178 368.44C382.947 365.126 383.178 361.657 383.178 358.343C383.178 352.64 384.488 348.709 387.802 344.008C390.577 340 392.966 337.303 397.975 336.918C399.825 336.763 402.214 336.455 404.064 336.686C405.914 336.918 408.226 339.384 409.69 340.771C413.313 344.239 414.16 350.867 415.548 355.492C417.32 361.272 416.858 367.206 417.783 373.141C418.708 379.075 419.247 386.089 417.089 391.561C415.317 395.954 410.615 398.189 406.145 399.191C401.058 400.27 392.966 399.191 389.652 394.798C388.187 392.871 387.879 390.328 387.263 388.016C386.338 384.393 385.027 380.925 384.257 377.303C383.255 372.447 375.856 374.528 376.858 379.384C377.629 383.237 379.093 386.86 380.018 390.713C380.789 393.796 381.636 396.802 383.563 399.422C387.494 404.663 394.738 406.975 401.058 407.361C407.378 407.746 414.392 405.588 419.324 401.503C425.105 396.725 426.107 389.095 426.184 382.004C426.184 378.382 425.875 374.837 425.336 371.214C424.719 367.129 425.027 363.045 424.411 358.96C423.871 355.26 422.561 351.638 421.482 348.093C420.403 344.548 419.324 340.771 417.166 337.688C415.471 335.299 413.081 333.526 410.846 331.677C408.226 329.442 405.837 329.056 402.523 329.21C396.742 329.442 391.27 329.596 386.646 333.526C383.871 335.916 381.713 339.307 379.787 342.39C377.86 345.472 376.318 348.941 375.856 352.64C375.239 357.033 375.625 361.657 375.625 366.05C375.625 370.444 376.473 374.143 378.168 378.151C380.095 382.621 387.494 380.694 385.567 376.07L385.413 375.993Z" fill="#231815"/>
<path d="M386.028 380.385C389.111 378.921 392.579 377.534 395.97 377.225C398.051 377.071 400.132 377.148 402.136 376.763C403.601 376.532 404.988 376.223 406.375 375.992C412.387 375.067 418.784 374.297 423.639 370.289C425.258 368.979 425.026 366.204 423.639 364.817C422.021 363.198 419.785 363.507 418.167 364.817C416.549 366.127 413.774 366.821 411.462 367.36C408.61 367.977 405.758 368.285 402.907 368.825C401.597 369.056 400.286 369.364 398.976 369.441C396.895 369.518 394.891 369.595 392.811 369.904C389.034 370.52 385.412 372.139 382.021 373.757C380.094 374.605 379.631 377.38 380.633 378.998C381.789 380.925 384.024 381.233 385.874 380.385H386.028Z" fill="#231815"/>
<path d="M449.383 362.043C446.301 356.417 446.378 349.943 446.301 343.701C446.301 342.313 446.069 340.926 446.146 339.539C446.224 338.151 446.763 337.381 447.148 336.147C448.073 333.45 447.688 330.367 449.152 327.747C451.464 323.431 458.478 321.504 463.025 321.35C468.42 321.119 473.969 324.047 477.437 328.132C484.836 337.072 485.684 349.095 487.303 360.117C487.765 363.585 487.303 366.668 486.686 370.059C486.069 373.45 485.838 376.379 484.066 379.307C481.599 383.238 476.204 385.627 471.965 386.783C465.723 388.479 457.091 387.092 453.854 380.926C452.543 378.306 451.696 375.223 451.387 372.371C451.233 370.907 451.156 369.365 450.925 367.901C450.925 367.593 450.771 366.282 450.539 365.897C449.769 364.664 449.538 367.747 450.617 365.897C453.314 361.735 446.686 357.882 443.988 362.043C441.985 365.126 443.218 367.361 443.526 370.675C443.911 374.298 444.374 377.766 445.684 381.234C448.459 388.787 454.008 393.103 461.869 394.645C469.73 396.186 477.592 393.797 484.374 389.635C490.617 385.781 493.083 379.693 494.162 372.756C494.856 368.44 495.703 364.433 495.087 360.04C494.47 355.338 494.008 350.56 493.16 345.936C491.927 339.23 489.615 332.448 485.915 326.745C477.669 313.951 461.175 309.943 448.227 318.421C444.836 320.579 442.524 323.431 441.291 327.284C440.674 329.288 440.674 331.292 440.212 333.296C439.75 335.3 438.748 336.841 438.671 339.076C438.362 348.017 438.593 358.113 442.909 366.051C445.299 370.367 451.927 366.514 449.538 362.198L449.383 362.043Z" fill="#231815"/>
<path d="M452.698 366.05C457.784 363.198 463.411 362.196 469.191 361.888C472.274 361.734 475.28 361.271 478.285 360.424C481.291 359.576 484.374 358.574 487.534 358.111C489.615 357.803 490.694 355.183 490.231 353.333C489.615 351.098 487.534 350.327 485.453 350.636C482.293 351.098 479.287 352.1 476.204 352.948C473.122 353.795 470.347 354.027 467.264 354.258C460.79 354.72 454.47 356.108 448.767 359.345C444.451 361.811 448.305 368.439 452.621 365.973L452.698 366.05Z" fill="#231815"/>
<g style="mix-blend-mode:darken">
<path d="M272.275 206.975C279.135 211.214 288.075 209.981 294.241 204.972C298.171 201.735 299.867 197.496 301.408 193.18C303.181 194.413 305.031 195.569 307.034 196.417C312.429 198.806 318.595 200.039 324.453 198.575C329.77 197.264 334.009 193.565 337.323 189.326C338.557 187.708 339.558 186.012 340.252 184.162C340.329 184.162 340.483 184.317 340.56 184.394C344.183 186.32 348.73 187.168 352.738 187.631C360.136 188.555 367.458 186.629 372.699 181.08C384.645 168.517 376.63 150.713 369.539 138.074C361.986 124.663 357.439 109.095 346.264 97.9967C336.013 87.7462 321.832 81.6576 307.651 85.2028C305.724 84.5863 303.72 84.7404 301.716 85.9736C301.485 85.9736 301.254 85.9735 300.869 86.0506C299.79 86.2048 298.634 86.3589 297.555 86.5901C295.705 87.1296 293.855 88.0545 292.16 88.9023C289.154 90.4437 286.148 92.3705 284.144 95.2221C282.14 97.9967 280.599 100.54 278.133 102.929C274.742 106.243 271.119 109.326 267.882 112.794C262.025 119.037 258.171 126.282 256.784 134.76C255.242 143.7 254.703 154.644 256.167 163.661C258.402 177.688 258.479 198.575 272.275 207.053V206.975Z" fill="#F4B3B1"/>
<path d="M535.703 85.1255C529.46 68.7864 519.21 52.3702 503.333 43.8153C495.241 39.4993 485.299 36.7247 476.281 35.4916C471.965 34.875 467.88 35.1833 463.873 35.954C463.179 35.6457 462.408 35.3374 461.561 35.2603C454.547 34.5667 447.919 40.0388 442.986 44.2777C436.821 49.5956 432.428 55.5301 428.805 62.6977C424.412 71.4068 419.942 78.9598 419.171 88.979C418.401 98.69 419.094 109.172 420.019 118.806C421.561 134.914 423.719 155.337 442.293 160.193C450.385 162.274 458.863 160.501 465.645 155.8C469.037 153.411 471.811 150.559 474.277 147.245C474.509 146.937 474.663 146.628 474.894 146.32C476.05 147.245 477.206 148.016 478.439 148.786C483.68 152.023 489.537 153.873 495.703 153.102C500.944 152.409 505.8 150.713 509.037 146.32C510.347 144.47 511.195 142.467 511.888 140.463C512.042 140.617 512.196 140.771 512.428 140.925C516.127 143.7 520.366 145.703 524.99 146.166C532.775 146.937 539.788 143.237 543.487 136.378C552.582 119.345 541.869 100.925 535.78 85.0484L535.703 85.1255Z" fill="#F4B3B1"/>
<path d="M374.701 462.081C369.615 458.228 363.834 455.222 358.593 451.523C352.274 446.975 345.8 443.507 338.17 441.503C322.909 437.418 306.879 437.033 291.31 434.798C283.218 433.642 274.277 431.407 266.108 432.101C256.474 432.871 246.84 434.567 237.206 435.338C223.333 436.494 206.994 441.58 195.973 450.212C193.044 452.524 192.967 455.453 194.355 457.842C194.123 458.536 193.892 459.23 193.892 460.077C193.738 469.634 199.904 480.193 203.834 488.748C208.921 499.846 212.929 508.555 223.102 515.492C233.198 522.428 242.216 529.287 253.776 533.835C254.701 534.143 255.626 534.451 256.551 534.76C257.091 537.072 258.632 539.153 261.407 540C267.418 541.773 272.89 543.546 278.671 546.012C283.218 547.939 286.763 548.941 291.696 547.862C293.16 547.553 294.239 546.783 295.087 545.858C298.709 546.86 302.408 547.862 306.185 548.17C321.445 549.634 336.243 552.409 351.426 554.413C358.362 555.338 365.915 555.183 372.929 554.413C380.944 553.488 388.574 549.865 396.281 547.63C407.071 544.47 413.699 535.299 414.778 524.355C417.553 497.38 394.2 476.802 374.778 462.235L374.701 462.081Z" fill="#F4B3B1"/>
<path d="M550.271 442.659C553.277 437.033 557.208 431.869 560.368 426.243C564.144 419.46 568.537 413.526 574.549 408.516C586.649 398.343 600.984 391.175 614.086 382.543C620.946 378.073 628.036 372.293 635.666 369.364C644.684 365.973 654.086 363.352 663.181 359.961C676.206 355.106 693.162 352.717 706.88 355.799C710.503 356.647 711.813 359.268 711.582 362.042C712.044 362.582 712.584 363.044 712.969 363.815C717.208 372.447 716.129 384.547 716.206 393.95C716.36 406.127 716.437 415.684 710.117 426.32C703.952 436.878 698.711 446.898 690.156 455.915C689.462 456.609 688.768 457.302 688.075 457.919C688.614 460.231 688.075 462.774 685.917 464.701C681.216 468.863 676.977 472.794 672.815 477.495C669.501 481.194 666.726 483.584 661.871 484.74C660.483 485.048 659.096 484.894 657.94 484.354C655.088 486.821 652.16 489.287 648.923 491.214C635.743 498.998 623.489 507.861 610.618 516.108C604.684 519.884 597.824 522.967 591.119 525.202C583.875 527.591 576.244 527.437 568.846 528.747C566.456 529.21 564.375 530.366 561.986 530.751C558.364 531.291 554.433 531.445 550.734 531.214C548.807 531.137 546.11 531.445 544.568 530.212C543.027 528.979 542.718 526.281 542.333 524.509C541.485 520.501 539.173 517.11 538.017 513.256C537.169 510.404 536.476 507.322 535.705 504.393C533.932 497.457 533.932 490.212 534.934 483.198C537.092 468.786 543.412 455.299 550.194 442.582L550.271 442.659Z" fill="#F4B3B1"/>
</g>
<path d="M435.742 558.498C442.909 547.477 449.306 536.995 449.769 523.431C449.923 517.188 449.615 511.408 447.842 505.319C446.994 502.313 445.376 500.078 444.836 496.995C444.065 492.988 443.218 490.367 440.674 487.13C433.198 477.573 419.557 478.652 409.152 482.66C403.911 484.664 399.287 488.749 394.817 491.909C389.422 495.762 384.104 500.001 379.557 504.78C376.474 508.017 374.239 511.793 371.464 515.184C367.302 520.271 362.986 524.279 360.289 530.444C359.133 533.065 358.825 535.454 357.9 538.152C356.821 541.466 354.894 544.471 353.507 547.631C352.582 549.789 351.888 551.947 351.503 554.182C350.655 558.498 348.497 559.731 346.108 563.123C342.794 567.824 338.863 571.677 335.395 576.225C332.235 580.387 313.353 632.41 311.426 637.342" fill="#F4B3B1"/>
<path d="M439.056 560.425C446.147 549.557 452.544 538.305 453.469 525.126C453.931 518.806 453.469 512.178 451.927 506.012C451.311 503.546 450.155 501.311 449.307 498.922C448.228 495.916 447.92 492.833 446.609 489.904C442.139 479.577 431.349 475.184 420.636 476.109C408.382 477.188 399.673 483.507 390.116 490.598C379.095 498.845 371.002 509.095 362.525 519.808C359.056 524.201 356.59 528.748 355.049 534.143C353.97 537.766 352.505 540.925 350.887 544.24C349.268 547.554 348.729 551.33 347.341 554.798C345.106 560.27 339.557 565.28 335.858 569.75C333.931 571.985 332.081 574.143 330.771 576.764C327.92 582.544 325.684 588.71 323.372 594.644C317.977 608.517 312.891 622.544 307.65 636.494C305.877 641.118 313.353 643.122 315.049 638.575C318.979 628.17 322.756 617.688 326.763 607.207C330.771 596.725 333.854 583.931 341.253 575.145C344.721 571.06 347.958 566.976 351.272 562.814C355.126 557.958 355.665 552.101 358.286 546.552C360.675 541.465 361.831 535.993 364.22 530.983C366.995 525.28 371.85 520.887 375.704 515.954C379.249 511.33 382.64 506.86 386.956 503.006C391.966 498.536 397.438 494.606 402.91 490.752C410.771 485.203 422.486 481.195 431.889 485.28C438.517 488.209 439.519 493.527 441.445 499.692C443.449 506.166 445.684 511.638 445.916 518.575C446.378 533.218 440.212 544.779 432.428 556.725C429.731 560.887 436.359 564.74 439.056 560.579V560.425Z" fill="#231815"/>
<path d="M558.748 511.946C559.287 511.946 559.827 511.869 560.366 511.792C562.755 511.638 566.069 510.636 568.382 511.253C571.079 511.946 571.773 514.182 573.237 516.571C576.32 521.426 587.572 528.44 582.794 534.528C579.942 538.074 578.401 542.544 575.472 546.012C573.777 548.016 572.158 550.02 570.463 552.024C568.305 554.644 565.915 556.725 563.603 559.114C560.135 562.659 556.436 566.05 552.505 569.133C550.27 570.829 548.497 572.91 546.185 574.528C545.106 575.299 544.412 576.455 543.488 577.38C542.1 578.767 540.482 580.078 539.017 581.388C537.091 583.16 535.01 584.625 533.16 586.474C531.079 588.478 529.075 590.636 526.84 592.486C524.374 594.567 521.445 595.954 518.902 597.958C515.665 600.578 512.197 602.814 508.728 605.203C503.025 609.21 498.17 614.528 492.081 617.997C485.376 621.85 479.596 627.476 473.276 631.946C470.655 633.796 467.881 635.646 465.106 637.187C461.33 639.268 457.322 640.964 453.622 643.199C449.152 645.973 444.374 648.286 439.75 650.675C434.509 653.372 429.037 655.684 423.796 658.459C420.251 660.309 416.705 662.004 413.237 663.931C408.69 666.474 403.834 668.016 398.979 669.943C395.28 671.407 391.811 673.411 387.958 674.413C383.642 675.492 379.403 676.571 375.087 677.65C366.917 679.808 358.671 681.657 350.27 682.814C346.57 683.276 342.948 684.586 339.249 685.049C335.935 685.511 332.852 686.205 329.461 686.513C326.069 686.821 322.755 687.129 319.441 687.438C316.127 687.746 313.122 687.592 309.885 687.746C307.264 687.823 304.335 687.438 301.715 687.13C300.019 686.975 297.014 687.129 295.472 686.128C294.856 684.509 299.017 680.964 300.251 679.731C301.175 678.729 302.486 678.035 303.565 677.187C304.798 676.262 305.8 675.106 306.956 674.104C309.499 672.024 312.12 670.251 314.509 668.016C316.127 666.474 318.285 664.856 319.441 662.852C317.052 662.39 315.048 663.854 312.813 664.008C311.657 664.085 310.655 663.623 309.499 663.623C307.572 663.623 305.723 663.623 303.796 663.469C300.328 663.314 297.091 662.698 293.7 661.85C290.231 660.925 286.686 660.463 283.218 659.769C280.983 659.307 278.208 659.153 276.127 658.228C272.659 656.686 277.515 653.218 278.902 651.6C281.754 648.286 286.147 646.667 288.998 643.353C290.848 641.195 293.545 640.039 295.703 638.189C297.861 636.339 300.328 635.877 302.563 634.49C307.033 631.715 312.043 629.557 316.898 627.245C318.285 626.629 319.75 626.32 321.137 625.781C322.833 625.01 324.374 623.854 326.147 623.16C327.688 622.544 329.306 622.004 330.848 621.388C332.698 620.617 334.856 620 336.628 619.076C341.792 616.301 346.879 613.758 352.274 611.445C354.74 610.366 357.206 609.288 359.673 608.286C361.137 607.669 362.37 607.13 363.68 606.359C365.684 605.203 367.919 604.894 369.923 603.97C371.156 603.43 372.158 602.505 373.391 601.966C374.624 601.426 376.012 600.964 377.245 600.27C379.557 599.037 381.792 597.804 384.258 596.879C389.807 594.798 395.357 592.717 400.366 589.711C403.603 587.708 407.226 586.397 410.617 584.548C412.081 583.7 413.7 583.16 415.241 582.313C415.935 581.927 416.243 581.388 417.014 581.079C417.784 580.771 418.632 580.617 419.403 580.155C421.792 578.69 424.335 577.457 426.879 576.07C428.189 575.376 429.499 574.682 430.886 574.143C432.582 573.372 433.969 571.985 435.665 571.214C438.516 569.904 441.599 568.748 444.297 567.052C445.607 566.205 446.917 565.357 448.305 564.509C449.769 563.661 451.387 563.199 452.929 562.351C459.095 558.806 465.029 555.183 471.349 551.869C474.355 550.328 477.437 548.941 480.52 547.553C482.293 546.783 484.143 546.32 485.915 545.55C488.15 544.625 488.844 543.16 490.694 541.85C491.542 541.234 492.698 540.848 493.622 540.232C495.472 538.921 497.784 537.688 499.48 536.301C502.871 533.449 505.106 529.21 508.574 526.436C510.193 525.126 512.043 524.124 513.353 522.428C515.048 520.424 519.827 520.116 521.985 518.652C524.143 517.187 525.222 517.881 527.688 518.112C534.162 518.729 537.553 514.952 543.95 514.259C548.883 513.719 553.738 512.178 558.671 511.715L558.748 511.946Z" fill="#2DBBED" stroke="#231815" stroke-width="7.70713" stroke-linecap="round" stroke-linejoin="round"/>
<path d="M583.949 557.342C583.101 555.492 582.022 554.028 580.789 552.409C577.783 548.479 574.007 545.242 571.386 541.003C568.227 535.762 566.531 529.982 562.832 525.049C561.675 523.43 559.749 521.966 558.901 520.194C557.822 518.113 557.051 516.032 555.895 513.951C553.429 509.866 551.964 505.396 549.729 501.157C546.878 495.839 541.945 492.217 538.323 487.438C530.847 477.419 518.824 468.787 506.261 466.783C495.24 465.088 481.753 466.783 476.358 477.65C474.508 481.35 474.2 484.124 474.277 488.132C474.277 491.292 473.198 493.835 473.044 496.918C472.581 503.238 473.429 508.941 474.893 515.03C478.053 528.209 510.038 560.271 519.286 569.596C522.6 572.91 522.986 577.303 525.298 581.465C526.762 584.009 528.304 586.552 529.845 589.018C530.847 590.714 532.003 592.255 533.159 593.72" fill="#F4B3B1"/>
<path d="M587.263 555.415C584.719 550.328 580.557 546.551 577.012 542.235C572.619 536.918 570.846 530.135 567.07 524.432C565.837 522.582 564.295 521.195 562.985 519.422C561.058 516.802 559.748 513.334 558.207 510.405C555.355 504.856 553.351 498.998 549.343 494.143C535.625 477.573 519.748 460.925 496.318 462.39C487.764 462.929 479.055 466.012 474.122 473.488C471.039 478.112 470.577 482.813 470.268 488.131C469.883 494.605 468.496 500.232 469.266 506.86C470.191 514.644 472.349 520.964 476.665 527.438C481.521 534.682 487.224 541.311 493.004 547.862C499.093 554.644 505.413 561.272 511.81 567.746C515.124 571.137 517.667 573.758 519.517 578.228C521.983 584.471 525.606 590.251 529.613 595.569C532.542 599.499 539.247 595.569 536.241 591.715C533.004 587.476 529.922 582.852 527.686 578.074C525.683 573.758 524.527 569.75 521.135 566.205C516.819 561.735 512.426 557.341 508.11 552.871C498.091 542.313 486.839 531.137 479.979 518.189C475.74 510.097 476.203 500.309 477.513 491.6C478.284 486.513 477.513 481.812 480.673 477.341C483.37 473.488 487.764 471.484 492.311 470.559C501.559 468.709 511.347 471.022 519.363 475.8C528.38 481.118 534.238 489.287 541.251 496.84C545.875 501.85 547.879 507.63 550.962 513.565C552.426 516.339 553.66 519.422 555.278 522.12C556.665 524.432 558.669 526.128 560.211 528.363C563.679 533.372 565.297 539.384 568.688 544.316C572.311 549.557 577.397 553.565 580.326 559.345C582.561 563.738 589.189 559.885 586.954 555.492L587.263 555.415Z" fill="#231815"/>
</svg>
