<svg width="930" height="820" viewBox="0 0 930 820" fill="none" xmlns="http://www.w3.org/2000/svg">
<path d="M36.5867 264.163H47.9932C52.2321 264.163 54.313 267.091 54.313 273.026C51.6156 288.209 47.9932 295.839 43.6001 295.839C42.9836 295.839 41.9046 294.529 40.4402 291.985C45.0645 283.816 47.3766 276.648 47.3766 270.482V269.866C47.3766 269.866 45.2957 270.097 42.2899 270.482C37.6657 270.482 35.3535 268.787 35.3535 265.473C35.5077 264.625 35.893 264.163 36.5867 264.163ZM73.9662 301.465C76.5096 301.465 77.7427 306.937 77.7427 317.881C78.5905 317.881 78.9759 319.577 78.9759 322.968L77.7427 323.585H75.1994C72.4248 323.585 66.3362 324.432 56.8564 326.128C52.7716 326.128 50.4595 322.12 49.92 314.105C49.5346 313.334 49.3034 309.943 49.3034 303.931L50.5366 303.315L55.0067 303.931L73.9662 301.388V301.465ZM55.6233 309.712C56.7023 316.494 57.55 319.885 58.1666 319.885C66.7986 319.885 71.6541 318.575 72.656 316.032C72.1165 310.097 71.5 307.168 70.8063 307.168C69.2649 307.168 64.1782 308.016 55.6233 309.712ZM67.6464 260.309C70.0356 260.309 71.7312 265.165 72.656 274.876H80.2861C83.2148 274.876 84.6791 276.34 84.6791 279.269L80.9026 281.195L79.6695 280.579L73.9662 281.812V284.355C73.9662 286.128 74.1974 288.44 74.5828 291.292C73.9662 293.373 72.5019 294.452 70.1897 294.452C68.4942 292.91 67.261 286.745 66.3362 276.109C65.4884 271.022 65.103 267.014 65.103 264.086V260.926C65.103 260.926 66.182 260.694 67.6464 260.309Z" fill="black"/>
<path d="M108.419 271.098C109.806 271.946 110.808 272.409 111.579 272.409V274.952C111.579 275.569 110.731 276.416 109.112 277.418H104.026C100.249 277.418 98.3225 278.497 98.3225 280.578C98.939 282.274 99.5556 283.121 100.249 283.121C104.488 281.888 107.417 281.272 109.112 281.272C111.656 281.888 112.889 283.43 112.889 285.665L110.346 287.592H107.186L105.875 295.761L107.186 296.455H108.419C110.423 296.455 112.581 296.224 114.739 295.761C117.59 295.761 119.671 296.84 121.058 298.921V301.464C120.442 301.464 119.594 301.927 118.515 302.775C117.205 302.775 116.588 302.543 116.588 302.081C111.27 302.929 103.64 303.545 93.8523 304.008C92.465 303.622 90.7695 302.312 88.7656 300.231V298.921C88.9198 298.073 89.3051 297.688 89.9988 297.688H98.2454C99.0932 297.688 99.7097 295.761 100.172 291.985C100.172 290.906 98.4766 289.287 95.0855 286.898C93.0045 284.046 91.9255 281.965 91.9255 280.578C92.2338 275.106 93.3128 272.409 95.0855 272.409L96.3186 273.025C98.6307 272.64 100.326 272.409 101.405 272.409V273.025C103.795 271.715 106.107 271.098 108.342 271.098H108.419ZM104.642 308.478H106.569C112.812 308.478 116.357 311.407 117.282 317.341V318.651C117.282 323.507 112.658 327.129 103.409 329.364C96.2415 327.129 92.6192 323.738 92.6192 319.268C92.6192 313.256 96.6269 309.634 104.642 308.478ZM99.5556 319.191C99.5556 321.041 100.635 322.505 102.716 323.584C107.802 321.734 110.346 320.039 110.346 318.574V314.721C108.419 314.721 107.186 314.49 106.569 314.104C101.945 315.646 99.5556 316.879 99.5556 317.881V319.191Z" fill="black"/>
<path d="M133.232 308.479C135.853 308.479 137.394 310.174 137.702 313.565V314.799C137.702 316.263 136.469 318.19 133.926 320.502V321.118H130.766C127.837 318.883 126.296 316.571 126.296 314.182C126.296 311.099 128.608 309.172 133.232 308.479Z" fill="black"/>
<path d="M151.888 308.479C154.508 308.479 156.049 310.174 156.358 313.565V314.799C156.358 316.263 155.125 318.19 152.581 320.502V321.118H149.421C146.493 318.883 144.951 316.571 144.951 314.182C144.951 311.099 147.263 309.172 151.888 308.479Z" fill="black"/>
<path d="M170.538 308.479C173.158 308.479 174.7 310.174 175.008 313.565V314.799C175.008 316.263 173.775 318.19 171.232 320.502V321.118H168.072C165.143 318.883 163.602 316.571 163.602 314.182C163.602 311.099 165.914 309.172 170.538 308.479Z" fill="black"/>
</svg>
