<svg width="930" height="820" viewBox="0 0 930 820" fill="none" xmlns="http://www.w3.org/2000/svg">
<g clip-path="url(#clip0_33_2)">
<path d="M693.314 642.967H228.034C179.127 642.967 139.479 682.597 139.479 731.484C139.479 780.37 179.127 820 228.034 820H693.314C742.221 820 781.869 780.37 781.869 731.484C781.869 682.597 742.221 642.967 693.314 642.967Z" fill="black" stroke="#231815" stroke-width="7.47591" stroke-miterlimit="10"/>
<path d="M359.363 759.731C356.357 759.731 354.507 757.727 353.583 755.492L345.413 726.744C345.413 726.744 345.182 726.282 344.873 726.282C344.565 726.282 344.411 726.436 344.334 726.667L335.394 755.569C334.546 757.804 332.542 759.731 329.613 759.731C326.685 759.731 324.681 757.727 323.833 755.492L310.191 706.783H318.284L329.151 745.396C329.151 745.704 329.382 745.781 329.69 745.781C329.999 745.781 330.153 745.627 330.23 745.396L340.095 713.18C340.635 711.253 342.561 709.557 344.951 709.557C347.263 709.634 349.189 711.253 349.729 713.257L358.823 745.396C358.823 745.396 359.055 745.781 359.363 745.781C359.671 745.781 359.825 745.627 359.902 745.396L371.694 706.783H379.864L364.989 755.646C364.064 757.881 362.215 759.808 359.209 759.808L359.363 759.731Z" fill="white"/>
<path d="M385.645 706.706H393.506V758.96H385.645V706.706Z" fill="white"/>
<path d="M408.92 706.705C411.309 706.705 413.159 707.939 414.083 709.48L436.588 744.856C436.897 745.395 437.667 745.087 437.667 744.547V706.628H445.529V752.717C445.529 756.108 442.754 758.883 439.44 758.883C437.051 758.883 435.201 757.573 434.276 756.031L411.771 720.655C411.463 720.193 410.692 720.424 410.692 720.964V758.883H402.831V712.717C402.831 709.326 405.606 706.628 408.92 706.628V706.705Z" fill="white"/>
<path d="M461.097 706.705C463.487 706.705 465.336 707.939 466.261 709.48L488.766 744.856C489.074 745.395 489.845 745.087 489.845 744.547V706.628H497.706V752.717C497.706 756.108 494.932 758.883 491.618 758.883C489.228 758.883 487.379 757.573 486.454 756.031L463.949 720.655C463.641 720.193 462.87 720.424 462.87 720.964V758.883H455.009V712.717C455.009 709.326 457.783 706.628 461.097 706.628V706.705Z" fill="white"/>
<path d="M538.4 714.49H516.204C515.587 714.49 515.048 715.029 515.048 715.646V727.669C515.048 728.285 515.587 728.825 516.204 728.825H538.4C540.558 728.825 542.331 730.598 542.331 732.756C542.331 734.914 540.558 736.686 538.4 736.686H516.204C515.587 736.686 515.048 737.226 515.048 737.842V749.865C515.048 750.482 515.587 751.021 516.204 751.021H538.4C540.558 751.021 542.331 752.794 542.331 754.952C542.331 757.11 540.558 758.883 538.4 758.883H513.275C509.961 758.883 507.187 756.108 507.187 752.794V712.717C507.187 709.403 509.961 706.628 513.275 706.628H538.4C540.558 706.628 542.331 708.401 542.331 710.559C542.331 712.717 540.558 714.49 538.4 714.49Z" fill="white"/>
<path d="M553.892 706.937H569.923H570.077C574.779 707.168 578.786 709.018 582.023 712.409C585.26 715.8 586.879 719.885 586.879 724.586C586.879 729.288 585.26 733.372 582.023 736.764C579.326 739.538 576.166 741.311 572.389 742.004L587.11 759.191H576.782L561.137 740.925C560.135 739.769 559.827 737.92 560.752 736.455C561.522 735.145 562.601 734.451 564.22 734.451H569.846C574.856 734.143 579.095 729.827 579.095 724.586C579.095 719.345 574.856 715.029 569.846 714.798H557.746C557.129 714.798 556.59 715.261 556.59 715.877V759.114H548.729V712.101C548.729 709.249 551.118 706.86 553.969 706.86L553.892 706.937Z" fill="white"/>
</g>
<defs>
<clipPath id="clip0_33_2">
<rect width="930" height="820" fill="white"/>
</clipPath>
</defs>
</svg>
