<svg width="115" height="95" viewBox="0 0 115 95" fill="none" xmlns="http://www.w3.org/2000/svg">
<path d="M36.4825 65.9245L36.6125 65.8945C36.7125 65.5445 36.6125 65.1345 36.6325 64.7645C36.6825 63.9245 37.0425 62.9745 37.2925 62.1845C37.6425 61.0545 38.1225 59.7445 38.8725 58.8145C38.3325 58.8145 37.6425 59.1045 37.1225 59.2445C36.6025 59.3845 36.1625 59.5845 35.6825 59.7745C35.4625 59.8645 35.2325 59.8945 35.0125 59.9745C34.7225 60.0745 34.6225 60.2345 34.3825 60.3845C34.1625 60.5245 33.9325 60.5645 33.7225 60.7445C33.4625 60.9645 33.2225 61.1845 32.9625 61.3945C32.5525 61.7245 32.1325 62.1245 31.7825 62.5245C31.3825 62.9745 31.1525 63.7445 30.9525 64.3045C30.8325 64.6445 30.6225 65.4445 30.2325 65.5545C30.0925 65.5945 29.6525 65.4445 29.5025 65.4145C29.0825 65.3145 28.6725 65.1445 28.2325 65.1245C27.4825 65.0845 26.7125 65.1245 25.9625 65.1245C25.5725 65.1245 25.1825 65.1245 24.7925 65.1245C24.1525 65.1245 23.5525 65.2745 22.9325 65.2945C21.2625 65.3345 19.5825 65.1845 17.9225 65.2945C17.5125 65.3145 17.1825 65.4645 16.7425 65.4545C16.3925 65.4545 16.1125 65.5145 15.7825 65.5845C14.6325 65.8045 13.3125 65.8145 12.2125 66.3045C11.7525 66.5145 11.2825 66.5745 10.7725 66.6745C9.29252 66.9645 7.41252 67.0645 6.12252 67.9645C5.69252 68.2545 5.43252 68.4945 5.14252 68.9245C4.82252 69.3945 4.42252 69.8345 4.07252 70.2745C3.47252 71.0245 2.90252 71.7545 2.38252 72.5645C1.89252 73.3245 1.76252 74.4345 1.54252 75.3245C1.12252 77.0545 1.20252 78.6445 1.27252 80.4345C1.31252 81.3845 1.34252 82.4145 1.68252 83.2945C1.88252 83.8045 2.02252 84.3345 2.21252 84.8545C2.35252 85.2545 2.56252 85.5345 2.74252 85.9045C2.95252 86.3345 2.92252 86.8545 3.15252 87.2645C3.33252 87.5845 3.51252 87.9245 3.70252 88.2445C4.06252 88.8345 4.75252 89.3745 5.28252 89.8145C6.36252 90.7145 7.55252 92.0445 8.96252 92.3845C9.44252 92.5045 9.98252 92.5045 10.4725 92.6145C11.4225 92.8145 12.3825 92.9245 13.3425 93.1245C14.9325 93.4645 16.4825 93.7345 18.1125 93.6945C19.4125 93.6645 20.6525 93.8545 21.9425 93.8545C23.1625 93.8545 24.3925 93.8545 25.6125 93.8545C26.8325 93.8545 28.0725 94.0245 29.3325 94.0145C31.1725 94.0045 32.9425 94.2645 34.7625 94.3445C37.7025 94.4745 40.6625 94.2845 43.6025 94.3345C44.2925 94.3345 44.9625 94.4845 45.6525 94.5145C46.1925 94.5445 46.7325 94.5245 47.2725 94.4645C47.3325 94.3745 47.4225 94.3345 47.5325 94.3345C48.8425 94.1945 50.2825 94.3345 51.6025 94.3445C53.2725 94.3545 54.9125 93.9945 56.5725 93.8845C58.5125 93.7545 60.3825 94.1445 62.3125 94.1945C65.6425 94.2845 67.9625 94.3345 70.9025 92.6945C71.1325 92.5645 71.3525 92.3745 71.5825 92.2345C71.9825 92.0045 72.4325 91.8645 72.7925 91.5845C73.4025 91.1245 73.8225 90.3845 74.3625 89.8445C74.8225 89.3845 75.4325 89.0945 75.8825 88.6545C78.1225 86.4645 77.4925 82.8445 77.4925 80.0245C77.4925 78.4545 77.3525 76.6645 76.5725 75.2545C75.8025 73.8645 75.3925 72.2245 74.3325 70.9945C70.5325 66.5745 65.2125 66.7045 59.8225 66.1245C58.8425 66.0345 57.8725 65.9245 56.9025 65.7845C55.4425 65.4245 53.5925 65.5145 52.1325 65.7545C51.0125 65.9445 49.7425 65.7945 48.6025 65.7945C47.3125 65.7945 46.0225 65.7945 44.7325 65.7945C44.1425 65.7945 43.5425 65.8345 42.9525 65.7945C42.5625 65.7745 42.2125 65.6345 41.8125 65.6345C41.4925 65.6345 41.1625 65.6345 40.8425 65.6345C40.1725 65.6345 36.7925 65.3245 36.6325 65.9545" fill="white"/>
<path d="M36.6123 66.3847L36.7423 66.3547C36.8923 66.3247 37.0423 66.1747 37.0723 66.0247C37.1823 65.4547 37.0723 64.8747 37.1723 64.3047C37.2923 63.6947 37.5023 63.0947 37.6923 62.5047C38.0623 61.3447 38.4423 60.1447 39.2023 59.1647C39.4323 58.8747 39.3223 58.3247 38.8623 58.3547C38.0823 58.3947 37.3023 58.6847 36.5623 58.9347C36.2223 59.0547 35.8923 59.2047 35.5423 59.3347C35.1023 59.4947 34.7123 59.5547 34.3323 59.8447C34.0223 60.0747 33.6723 60.1847 33.3723 60.4247C33.1123 60.6347 32.8623 60.8547 32.6123 61.0747C31.9923 61.5947 31.3423 62.1547 30.9823 62.8847C30.7023 63.4647 30.5523 64.0947 30.3023 64.6847C30.1723 65.0047 30.1823 65.0747 29.9723 65.0547C29.5723 65.0147 29.1623 64.8147 28.7623 64.7247C27.9923 64.5547 27.1723 64.6347 26.3923 64.6447C25.4123 64.6647 24.4623 64.6547 23.4823 64.7647C21.6323 64.9747 19.7523 64.6447 17.8923 64.8047C17.2023 64.8647 16.5023 64.9547 15.8223 65.0747C14.9423 65.2347 14.0523 65.3047 13.1823 65.4847C12.3823 65.6547 11.6423 66.0047 10.8323 66.1647C10.0223 66.3247 9.28229 66.4147 8.51229 66.5647C7.11229 66.8347 5.69229 67.3347 4.81229 68.5147C3.84229 69.8147 2.63229 71.0247 1.84229 72.4647C1.50229 73.0747 1.35229 73.7547 1.21229 74.4347C1.02229 75.3147 0.832294 76.1747 0.752294 77.0747C0.622294 78.7147 0.662292 80.4547 0.872292 82.0847C0.972292 82.8547 1.24229 83.5547 1.48229 84.2947C1.76229 85.1647 2.23229 85.9247 2.45229 86.8047C2.84229 88.3647 4.01229 89.3547 5.17229 90.3647C6.26229 91.3047 7.34229 92.4747 8.79229 92.8247C9.59229 93.0147 10.4423 93.0947 11.2623 93.2247C12.2223 93.3847 13.1723 93.5747 14.1223 93.7547C14.9523 93.9147 15.7823 94.0447 16.6223 94.1047C17.6623 94.1847 18.7123 94.1347 19.7523 94.2047C23.4823 94.4447 27.2223 94.2847 30.9523 94.5147C32.7823 94.6247 34.6023 94.8247 36.4323 94.8447C38.4023 94.8647 40.3623 94.7847 42.3323 94.7747C43.2023 94.7747 44.0523 94.8147 44.9223 94.9047C45.7123 94.9847 46.6923 95.0947 47.4623 94.8447C48.1823 94.6147 49.0823 94.7147 49.8523 94.7347C50.8123 94.7647 51.7723 94.8147 52.7423 94.7347C54.5723 94.5947 56.3623 94.2247 58.2123 94.3147C60.0623 94.4047 61.8923 94.6447 63.7523 94.6647C65.1823 94.6847 66.6123 94.6347 68.0123 94.3047C68.7423 94.1347 69.4523 93.8747 70.1423 93.5647C70.9023 93.2147 71.5623 92.7147 72.3123 92.3547C72.9723 92.0347 73.4423 91.6247 73.9023 91.0547C74.4423 90.3947 74.9623 89.9047 75.6423 89.4047C76.7523 88.5847 77.4323 87.3847 77.7423 86.0547C78.0523 84.7247 78.0323 83.3847 77.9823 82.0447C77.9323 80.5747 77.9823 79.0847 77.7723 77.6247C77.5423 76.0547 76.7923 74.7747 76.1723 73.3447C75.5123 71.8347 74.7523 70.5847 73.5123 69.4847C71.3423 67.5647 68.6023 66.6747 65.7823 66.2547C62.6023 65.7747 59.3823 65.6047 56.2023 65.1447C54.5823 64.9147 53.0623 65.2047 51.4523 65.3247C50.5623 65.3847 49.6723 65.3047 48.7823 65.2847C47.8223 65.2747 46.8623 65.2847 45.9023 65.2847C45.0523 65.2847 44.2023 65.3147 43.3623 65.3047C42.9323 65.3047 42.5323 65.2147 42.1023 65.1547C41.6723 65.0947 41.2423 65.1347 40.8123 65.1247C39.9123 65.1147 39.0123 65.0247 38.1123 65.0547C37.4523 65.0747 36.4223 65.0547 36.1423 65.7947C35.9223 66.3647 36.8423 66.6147 37.0623 66.0447C36.9823 66.2447 37.0323 66.1347 37.2623 66.0747C37.4523 66.0247 37.6623 66.0247 37.8523 66.0047C38.3423 65.9747 38.8323 65.9847 39.3223 66.0047C40.2623 66.0347 41.3023 65.9747 42.2223 66.1247C43.8123 66.3847 45.5023 66.2247 47.1123 66.2247C48.7223 66.2247 50.3223 66.4147 51.8823 66.2247C53.4423 66.0347 54.9223 65.8247 56.4423 66.1347C57.9623 66.4447 59.5623 66.5447 61.1223 66.6947C63.7923 66.9447 66.5123 67.1047 69.0623 67.9847C70.3123 68.4147 71.5023 69.0447 72.5223 69.8847C73.7223 70.8747 74.5423 72.0147 75.1723 73.4347C75.7523 74.7547 76.5123 76.0247 76.7723 77.4547C77.0323 78.8847 76.9523 80.2747 77.0023 81.6747C77.0923 84.1747 77.1923 87.1247 74.9023 88.7347C74.3423 89.1247 73.8823 89.5247 73.4523 90.0547C72.9523 90.6647 72.5223 91.1647 71.8023 91.5147C71.1823 91.8247 70.6323 92.2447 70.0123 92.5447C69.3123 92.8947 68.5823 93.1647 67.8223 93.3547C64.4523 94.1847 60.9823 93.3947 57.5823 93.3347C55.6623 93.3047 53.7923 93.7747 51.8823 93.8147C50.9723 93.8347 50.0523 93.7647 49.1423 93.7447C48.4623 93.7347 47.4023 93.5847 46.8623 94.0747L47.2023 93.9347C46.3523 94.0247 45.5223 93.9947 44.6723 93.9047C43.7223 93.7947 42.7723 93.7947 41.8123 93.8047C39.9223 93.8247 38.0423 93.8947 36.1523 93.8647C32.6123 93.8147 29.0823 93.3547 25.5323 93.3347C23.6723 93.3247 21.8123 93.3647 19.9523 93.2447C18.0923 93.1247 16.2123 93.1747 14.3423 92.8147C13.4623 92.6447 12.5923 92.4647 11.7123 92.3247C10.8323 92.1847 9.88229 92.0947 9.00229 91.8847C7.58229 91.5347 6.54229 90.2847 5.45229 89.3847C4.87229 88.9047 4.30229 88.4347 3.91229 87.7847C3.67229 87.3847 3.44229 86.9947 3.32229 86.5447C3.22229 86.1647 3.14229 85.8147 2.96229 85.4647C2.18229 83.9347 1.73229 82.3347 1.66229 80.6247C1.59229 78.9147 1.53229 77.1447 1.91229 75.4347C2.06229 74.7347 2.17229 74.0147 2.42229 73.3447C2.71229 72.5747 3.30229 71.8847 3.81229 71.2347C4.27229 70.6447 4.77229 70.0847 5.21229 69.4947C5.70229 68.8447 6.17229 68.3347 6.93229 67.9947C8.34229 67.3647 9.95229 67.3347 11.4423 67.0047C12.2123 66.8347 12.9123 66.4847 13.6923 66.3447C14.5223 66.1947 15.3723 66.0847 16.2023 65.9547C17.8923 65.6947 19.5823 65.7247 21.2923 65.7547C22.2923 65.7747 23.2423 65.7047 24.2323 65.6147C25.2223 65.5247 26.2423 65.5747 27.2423 65.5647C27.7223 65.5647 28.1923 65.5647 28.6623 65.6847C29.0423 65.7847 29.4123 65.9147 29.8023 65.9847C30.3923 66.0947 30.7623 65.7547 31.0223 65.2447C31.3223 64.6347 31.4423 63.9547 31.7423 63.3447C32.1523 62.5147 32.9923 61.9147 33.6823 61.3347C34.0023 61.0647 34.3623 60.9147 34.7123 60.6847C35.1523 60.3847 35.6523 60.2647 36.1523 60.0747C36.9723 59.7547 37.9223 59.3447 38.8023 59.2947L38.4623 58.4847C37.6823 59.4947 37.2123 60.6747 36.8223 61.8847C36.6223 62.5047 36.4023 63.1147 36.2523 63.7447C36.1823 64.0447 36.1223 64.3647 36.0923 64.6747C36.0623 65.0347 36.1523 65.4147 36.0823 65.7747L36.4123 65.4447L36.2823 65.4747C35.6823 65.5947 35.9323 66.5147 36.5323 66.3947L36.6123 66.3847Z" fill="#231815"/>
<path d="M13.3854 73.0147C13.8297 73.0147 14.0519 73.2369 14.0519 73.6813C14.1067 74.0769 14.1341 74.2991 14.1341 74.3478H14.4674C15.2435 74.3844 15.6315 74.5228 15.6315 74.7633V74.9276C15.6315 75.0372 15.5752 75.092 15.4626 75.092H14.8828C14.828 75.092 14.8006 75.0646 14.8006 75.0098L14.6317 75.092H14.2163L14.2984 76.2562L13.9652 76.5073C13.5238 76.5073 13.3032 75.5927 13.3032 73.7635C13.2484 73.7635 13.221 73.5413 13.221 73.0969L13.3854 73.0147ZM11.1392 73.7635C11.9153 73.9522 12.3033 74.2565 12.3033 74.6765V74.9276C12.1086 75.8133 11.7768 76.2562 11.3081 76.2562C10.5867 75.8422 10.2261 75.3157 10.2261 74.6765C10.2474 74.1226 10.3022 73.8456 10.3904 73.8456L11.1392 73.7635ZM11.1392 74.43L10.9748 74.9276C11.1057 75.2594 11.2168 75.4253 11.3081 75.4253C11.3081 75.2944 11.3903 75.0737 11.5546 74.7633C11.4724 74.5411 11.3903 74.43 11.3081 74.43H11.1392ZM11.5546 77.0917H12.139C12.3612 77.0917 12.5271 77.673 12.6366 78.8356V78.9178H12.9699L13.3854 78.8356V78.9178C13.4554 78.8478 13.8434 78.793 14.5495 78.7535C14.7717 78.9452 14.8828 79.1385 14.8828 79.3333C14.8828 79.4276 14.7443 79.5113 14.4674 79.5844L14.2984 79.5022L12.8055 79.7487H12.4723C11.9731 79.7487 11.7235 79.1948 11.7235 78.0869C11.6109 77.5269 11.5546 77.1951 11.5546 77.0917ZM16.4351 72.5993H16.5218C17.021 72.5993 17.2705 73.1532 17.2705 74.2611C17.2705 74.7146 17.2979 75.159 17.3527 75.5942C17.7697 75.4816 18.1577 75.4253 18.5169 75.4253H18.5991C18.876 75.5379 19.0145 75.7327 19.0145 76.0096C19.0145 76.2044 18.2658 76.3703 16.7683 76.5073C16.4366 76.3216 16.2707 75.0463 16.2707 72.6814L16.4351 72.5993ZM20.3431 72.6814H20.7585C20.8468 72.6814 20.9579 72.7925 21.0918 73.0147C21.2044 74.7496 21.2607 75.7479 21.2607 76.0096C21.0568 76.174 20.862 76.2562 20.6763 76.2562C20.4542 76.1923 20.3431 75.9442 20.3431 75.512L19.5122 75.5942H19.2656C19.1895 75.5942 19.0511 75.4557 18.8502 75.1787V74.8455L19.9276 74.6765C20.025 74.7344 20.1361 74.7633 20.2609 74.7633V74.43C20.2609 74.3174 20.2061 74.2611 20.0965 74.2611C19.6004 74.3189 19.2945 74.3752 19.1789 74.43C18.8471 74.2991 18.6813 74.188 18.6813 74.0967V73.5991C19.1561 73.4865 19.5715 73.4302 19.9276 73.4302C20.0372 73.485 20.1209 73.5124 20.1787 73.5124C20.1787 73.4028 20.2061 73.348 20.2609 73.348L20.1787 72.9325V72.8504C20.197 72.7378 20.2518 72.6814 20.3431 72.6814ZM18.8502 77.256C20.0128 77.256 20.5942 77.6167 20.5942 78.338C20.5942 78.4628 20.6216 78.5724 20.6763 78.6667C20.3446 79.5555 19.9291 79.9998 19.43 79.9998H18.8502C18.7923 79.9998 18.7634 79.9724 18.7634 79.9177L18.5991 79.9998H18.5169C18.5169 79.9085 18.3495 79.77 18.0147 79.5844C17.8503 79.1126 17.7682 78.7519 17.7682 78.5024C17.7682 77.8084 18.0999 77.393 18.7634 77.256H18.8502ZM18.6813 78.5024C18.6813 78.9467 18.7923 79.1689 19.0145 79.1689C19.5137 79.1689 19.7633 78.8356 19.7633 78.1691C19.7633 78.0595 19.6796 78.0047 19.5122 78.0047C18.9582 78.0047 18.6813 78.1706 18.6813 78.5024ZM22.1555 76.5073H22.4888C23.0975 76.6382 23.4019 76.8877 23.4019 77.256V77.5893C23.2649 78.755 22.9317 79.3378 22.4021 79.3378C22.4021 79.1704 22.3199 79.0867 22.1555 79.0867C22.3199 78.6241 22.4021 78.2908 22.4021 78.0869C22.0703 77.8891 21.9044 77.5573 21.9044 77.0917V77.0049C21.9379 76.6732 22.0216 76.5073 22.1555 76.5073ZM31.017 71.8505C31.4431 71.8505 31.7201 72.2949 31.848 73.1836C31.9423 73.5702 32.026 73.7635 32.099 73.7635L32.5145 73.6813C33.0137 73.6813 33.2632 73.8745 33.2632 74.2611V74.3478C33.2632 74.4574 32.8478 74.5959 32.0169 74.7633C32.0169 74.8181 31.9895 74.8455 31.9347 74.8455L32.0169 75.0098V75.5942L32.099 76.0096C31.9043 76.2318 31.711 76.3429 31.5192 76.3429C31.2423 76.1999 31.1038 75.9777 31.1038 75.6764V74.0146C30.9364 73.0284 30.7964 72.4182 30.6838 72.1838C30.7416 71.9616 30.8527 71.8505 31.017 71.8505ZM27.109 72.4349H27.5245C27.6736 72.4349 27.841 72.8504 28.0267 73.6813V75.3431L30.0218 75.092C30.2987 75.1285 30.4372 75.2959 30.4372 75.5942V75.6764C30.0537 75.9381 29.2502 76.1603 28.0267 76.3429H27.6112C27.526 76.3429 27.3875 76.1755 27.1958 75.8407V74.3478C27.1958 73.7848 27.1121 73.2293 26.9447 72.6814V72.5993C26.9629 72.4897 27.0177 72.4349 27.109 72.4349ZM34.5689 72.9325C34.8307 72.9325 35.024 73.5428 35.1488 74.7633H35.2309C36.5123 74.4863 37.2884 74.3478 37.5593 74.3478L37.7282 74.6765C37.7282 75.0661 37.3402 75.2609 36.564 75.2609C36.564 75.4101 36.1486 75.5211 35.3177 75.5942C34.5416 75.5942 34.1535 75.1224 34.1535 74.1789C34.1535 74.1454 34.1246 73.7848 34.0667 73.0969C34.2494 72.9873 34.4168 72.9325 34.5689 72.9325ZM36.564 76.3429V76.4251L36.7284 76.3429C36.7832 76.3429 36.8106 76.3703 36.8106 76.4251L36.9795 76.3429H38.308C38.308 76.419 38.3917 76.5849 38.5591 76.8406L38.1437 77.1738H36.6462C36.1197 77.1738 35.3983 77.2286 34.4822 77.3382C34.1291 77.1951 33.9359 77.0566 33.9024 76.9227V76.5895C35.1685 76.4251 36.0558 76.3429 36.564 76.3429ZM35.6464 77.5071H35.7331C35.8975 77.5071 36.036 78.061 36.1486 79.1689C37.0799 78.892 37.745 78.7535 38.1437 78.7535C38.2228 78.7535 38.305 78.8356 38.3902 79V79.5022L36.2308 79.9998H35.7331C35.3435 79.8324 35.1488 79.4992 35.1488 79V78.1691L35.0666 77.7536C35.2705 77.5893 35.4638 77.5071 35.6464 77.5071ZM44.5125 72.0195C44.7346 72.2538 44.8457 72.4745 44.8457 72.6814L44.7636 73.0969C45.3723 73.5747 45.6766 73.9628 45.6766 74.2611C45.5671 74.2793 45.5123 74.3357 45.5123 74.43C45.8988 74.6765 46.0921 74.8424 46.0921 74.9276H46.1743V74.6765C46.1743 74.5396 46.1195 73.8745 46.0099 72.6814L46.1743 72.5993C46.786 72.5993 47.0919 73.4028 47.0919 75.0098C47.2015 75.9503 47.2563 76.5042 47.2563 76.6716C47.0524 76.839 46.8591 76.9227 46.6765 76.9227C46.3965 76.6579 46.2564 76.3536 46.2564 76.0096V75.512L46.1743 75.3431C46.0647 75.4557 45.5945 75.5394 44.7636 75.5942C44.4805 76.7569 44.2583 77.3382 44.097 77.3382H43.8459C43.7607 77.3382 43.6511 77.2271 43.5172 77.0049C43.5172 76.7279 43.5446 76.3125 43.5994 75.7585L43.1839 75.8407C42.4626 75.8407 42.1019 75.5911 42.1019 75.092V75.0098C42.1202 74.9002 42.175 74.8455 42.2663 74.8455L42.7685 74.9276C42.875 74.8729 42.9572 74.8455 43.015 74.8455C42.9054 74.6172 42.8506 74.4513 42.8506 74.3478C43.0546 73.9217 43.2767 73.5611 43.5172 73.2658V73.1836L43.1017 73.2658C42.7122 73.2658 42.5174 73.071 42.5174 72.6814V72.5171C42.5174 72.368 43.1276 72.2021 44.3481 72.0195H44.5125ZM44.3481 73.8456L43.8459 74.5944V74.7633C44.5429 74.6507 44.9599 74.5944 45.0968 74.5944V74.43C45.0299 74.43 44.7803 74.2352 44.3481 73.8456ZM49.1464 72.266H49.5618C49.8631 72.5156 50.3912 72.7651 51.146 73.0147C51.146 73.1821 51.2845 73.3206 51.5615 73.4302C51.5615 73.7163 51.4778 73.8822 51.3104 73.9278H51.0593C50.5723 73.4834 50.0731 73.2613 49.5618 73.2613C49.364 74.2596 49.1707 74.7587 48.982 74.7587C48.8146 74.7587 48.6487 74.5928 48.4844 74.2611C48.7887 72.931 49.0094 72.266 49.1464 72.266ZM51.9769 75.2609C52.1991 75.3431 52.3102 75.4253 52.3102 75.5074V75.7585C52.3102 75.9046 51.8658 76.0431 50.9771 76.174C50.9771 76.2288 50.9497 76.2562 50.8949 76.2562C50.9497 76.3566 51.0045 76.6351 51.0593 77.0917L50.9771 77.256C51.0319 77.3534 51.0593 77.4645 51.0593 77.5893C51.0258 77.9758 50.9436 78.1691 50.8127 78.1691H50.3973C50.2299 77.8799 50.1462 77.6304 50.1462 77.4204V76.2562H48.5666C48.2652 76.2562 48.0431 76.1177 47.9 75.8407V75.7585C47.9 75.5911 48.8983 75.4801 50.8949 75.4253C50.8949 75.3431 51.2556 75.2883 51.9769 75.2609ZM49.1464 77.3382C49.4812 77.3382 49.6486 77.4493 49.6486 77.6715C49.7033 77.7689 49.7307 77.8799 49.7307 78.0047H49.6486L49.8951 79.42H50.5616C50.6864 79.42 50.7975 79.3926 50.8949 79.3378C50.9923 79.3926 51.1034 79.42 51.2282 79.42H51.3104L51.8126 79.3378C52.1443 79.4139 52.3376 79.5524 52.3924 79.7533V79.8355C52.3924 80.0029 51.56 80.1414 49.8951 80.2509C49.2864 80.2509 48.982 79.8903 48.982 79.1689C48.9272 78.7946 48.8998 78.2117 48.8998 77.4204C49.0064 77.3656 49.0885 77.3382 49.1464 77.3382ZM57.0217 72.5171H57.355C57.6868 72.5171 57.8526 73.625 57.8526 75.8407C57.9074 75.8407 57.9911 76.0081 58.1037 76.3429C57.9637 76.3429 57.8252 76.3977 57.6883 76.5073H57.6061C57.1617 76.2516 56.9396 75.6703 56.9396 74.7633V73.7635L56.8574 73.348H56.9396L56.8574 73.1836V72.6814C56.8726 72.5719 56.9274 72.5171 57.0217 72.5171ZM53.8625 73.348H54.7755C55.2199 73.5884 55.4421 73.8928 55.4421 74.2611C55.4421 75.162 55.1103 75.6885 54.4468 75.8407H54.1957C53.7635 75.8407 53.3755 75.4816 53.0315 74.7633C53.0711 73.9293 53.1822 73.5124 53.3648 73.5124H53.8625V73.348ZM53.7803 74.43V74.6765C53.9111 74.92 54.0496 75.0585 54.1957 75.092C54.5823 74.9459 54.7755 74.5868 54.7755 74.0146C54.666 74.0146 54.6112 73.9872 54.6112 73.9324C54.319 73.9902 54.0968 74.1561 53.9446 74.43H53.7803ZM61.8246 72.7682C62.3237 72.7682 62.5733 73.1273 62.5733 73.8456H62.9887C63.3509 73.8456 63.7101 73.9293 64.0662 74.0967V74.43C64.0662 74.6522 63.5686 74.7633 62.5733 74.7633V75.2609C62.6281 75.2609 62.6555 75.2335 62.6555 75.1787C63.3159 75.1787 63.8425 75.372 64.2351 75.7585C64.2351 76.0355 63.8197 76.174 62.9887 76.174C62.8792 76.1192 62.7955 76.0918 62.7376 76.0918C62.6585 76.591 62.5474 76.8406 62.4044 76.8406H62.1578C61.8809 76.8406 61.7135 76.3688 61.6556 75.4253L61.7424 75.092C61.6846 74.9976 61.6556 74.8881 61.6556 74.7633L61.7424 74.3478C61.7424 74.29 61.7135 74.2611 61.6556 74.2611L61.7424 73.9324C61.7424 73.8958 61.7135 73.5352 61.6556 72.8504L61.8246 72.7682ZM60.1627 73.6813C60.5493 74.0191 60.7426 74.3509 60.7426 74.6765C60.8521 75.1879 60.9069 75.4937 60.9069 75.5942C60.9069 75.9107 60.6025 76.104 59.9938 76.174H59.9116C59.2207 76.174 58.8327 75.7859 58.7475 75.0098C58.9514 74.1241 59.3121 73.6813 59.8295 73.6813H60.1627ZM59.9116 74.5122C59.6895 74.7465 59.5784 74.9687 59.5784 75.1787C59.5966 75.2883 59.6529 75.3431 59.7473 75.3431H59.9116L60.1627 75.1787L60.076 75.0098C60.076 74.955 60.1049 74.9276 60.1627 74.9276C60.0897 74.6507 60.006 74.5122 59.9116 74.5122ZM65.1254 72.1792H65.2897C65.4906 72.1792 65.7402 72.2082 66.0385 72.266C66.145 72.2082 66.2287 72.1792 66.2896 72.1792L66.4539 72.266C66.5087 72.266 66.5361 72.2371 66.5361 72.1792L66.9561 72.266C67.2605 72.266 67.6485 72.2371 68.1203 72.1792C68.3729 72.2888 68.5114 72.3999 68.5357 72.5125L68.2846 73.0969C68.2268 73.0969 68.1446 73.0695 68.0381 73.0147C67.5663 73.0695 67.1768 73.0969 66.8694 73.0969H66.7872C66.6624 73.0969 66.5513 73.0695 66.4539 73.0147C66.3991 73.0147 66.3717 73.0421 66.3717 73.0969L65.7874 73.0147H65.2897C65.2167 73.0147 65.0782 72.8747 64.8743 72.5947V72.4303C64.8743 72.3512 64.958 72.2675 65.1254 72.1792Z" fill="black"/>
<path d="M16.8355 81.9489L17.1688 82.0311C17.2753 81.9763 17.3575 81.9489 17.4153 81.9489C18.0271 82.1711 18.333 82.3659 18.333 82.5333C18.4791 82.5333 18.5901 82.6717 18.6662 82.9487C18.6662 83.2835 18.2219 83.7537 17.3331 84.3594C17.3879 84.4142 17.4442 84.7475 17.5021 85.3593L17.4153 86.108C17.5827 86.108 17.6664 86.1354 17.6664 86.1902C18.0073 86.0775 18.2295 86.0212 18.333 86.0212V86.108L18.4973 86.0212H18.6662C18.721 86.0212 18.7484 86.0502 18.7484 86.108C18.8428 86.0502 19.1745 85.9938 19.7437 85.9391L20.077 86.3545V86.5234C20.0739 86.5995 19.9354 86.7106 19.6615 86.8567C19.3845 86.8567 19.246 86.8004 19.246 86.6878L19.0817 86.77H18.9949L15.9224 87.1032C15.6211 87.1032 15.3989 86.9648 15.2559 86.6878V86.5234C15.2559 86.4321 15.7276 86.321 16.6711 86.1902C16.6711 85.9832 16.7259 85.8173 16.8355 85.6925H16.6711V85.4414C16.6711 85.1645 16.6422 84.749 16.5844 84.1951C16.2222 84.1768 16.0015 83.6503 15.9224 82.6154H16.0046C16.102 82.5606 16.2131 82.5333 16.3379 82.5333C16.3379 82.588 16.3653 82.6154 16.42 82.6154C16.42 82.235 16.5585 82.0128 16.8355 81.9489ZM16.7533 83.0309V83.1952C16.7655 83.4722 16.8203 83.6107 16.9177 83.6107C17.1733 83.6107 17.4792 83.4722 17.8353 83.1952V82.862C17.8353 82.7828 17.7516 82.7007 17.5842 82.6154H17.1688C17.0927 82.6154 16.9542 82.7539 16.7533 83.0309ZM20.8805 82.5333H21.3827C21.5683 82.5333 21.7068 83.0309 21.7981 84.0261H21.9625C22.4342 84.0261 23.183 83.9988 24.2087 83.944L24.4552 84.3594V84.4416C24.4552 84.5299 24.3456 84.641 24.1265 84.7749C23.5939 84.7749 22.8999 84.8312 22.0447 84.9438C21.2685 84.7794 20.8805 84.4462 20.8805 83.944L20.7983 83.6107C20.8531 83.5042 20.8805 83.422 20.8805 83.3642L20.7983 82.7798C20.8531 82.6733 20.8805 82.5911 20.8805 82.5333ZM25.1218 85.4414C25.2892 85.624 25.3729 85.7625 25.3729 85.8569C25.3729 86.1339 25.0959 86.2997 24.5419 86.3545C24.4841 86.3545 24.4552 86.3271 24.4552 86.2723C23.816 86.385 23.4295 86.4413 23.2956 86.4413L23.1267 86.3545C23.0293 86.4123 22.9182 86.4413 22.7934 86.4413L22.2136 86.3545L22.0447 86.4413C21.159 86.3834 20.7161 86.216 20.7161 85.9391V85.7747C20.7709 85.6073 20.9368 85.5236 21.2137 85.5236H21.8803C22.0051 85.5236 22.1162 85.551 22.2136 85.6058C22.311 85.551 22.4221 85.5236 22.5469 85.5236H22.7934C22.9182 85.5236 23.0293 85.551 23.1267 85.6058C23.4797 85.4962 24.1448 85.4414 25.1218 85.4414ZM23.7932 86.5234C24.125 86.6087 24.2908 86.8019 24.2908 87.1032V87.9342C24.0139 88.1016 23.5421 88.2126 22.8756 88.2674C22.5438 88.3983 22.3779 88.5094 22.3779 88.6007H22.4601L24.373 88.3496C24.5952 88.4348 24.7063 88.5185 24.7063 88.6007V89.0162C24.7063 89.1592 23.8754 89.3251 22.2136 89.5138C21.6596 89.5138 21.3827 89.3205 21.3827 88.934C21.4557 88.1031 21.7875 87.6876 22.3779 87.6876V87.6009C21.6566 87.6009 21.2959 87.435 21.2959 87.1032V87.0211C21.4633 86.8719 22.2958 86.7061 23.7932 86.5234ZM30.6642 82.5333L30.9929 82.8665C30.9929 83.0583 30.7996 83.6122 30.4131 84.5283C30.8088 84.8449 31.1968 85.0671 31.5773 85.1949L31.6594 85.3593C31.6047 85.4688 31.5773 85.5525 31.5773 85.6104H30.9929C30.439 85.3029 30.162 85.0534 30.162 84.8616H30.0798C30.0798 84.9621 29.9139 85.2953 29.5822 85.8615V85.9436H29.08L28.9978 85.3593C29.5304 85.0123 29.9185 84.3472 30.162 83.3642V83.0309L29.9976 83.1131H29.9155L29.7465 83.0309V83.1998H29.08C29.08 83.1115 29.0252 83.0004 28.9156 82.8665V82.6976H28.9978C29.3174 82.6976 29.8728 82.6428 30.6642 82.5333ZM32.326 82.7798H32.4082C32.7034 82.7798 32.8693 83.1694 32.9058 83.9485C33.5176 84.0033 33.8235 84.0855 33.8235 84.1951L33.9878 84.1129C34.067 84.1129 34.1507 84.1966 34.2389 84.364V84.6927H33.0747V85.1949C33.0747 85.2497 33.0473 85.2771 32.9926 85.2771C33.0473 85.3836 33.0747 85.4673 33.0747 85.5282C32.9439 85.8599 32.8328 86.0258 32.7415 86.0258C32.6684 86.0258 32.5573 85.8599 32.4082 85.5282V85.026C32.4082 84.7855 32.3534 84.5649 32.2438 84.364C32.2986 84.0627 32.326 83.8131 32.326 83.6153C32.326 83.5666 32.2697 83.3444 32.1571 82.9487C32.1753 82.8361 32.2316 82.7798 32.326 82.7798ZM32.6593 86.108C33.0763 86.108 33.3532 86.6071 33.4902 87.6054C32.6441 88.1046 32.0338 88.3542 31.6594 88.3542L31.5773 88.5185V88.8518C31.9455 88.8518 32.4447 88.797 33.0747 88.6875C33.4613 88.7848 33.6545 88.8959 33.6545 89.0207V89.1851C33.6545 89.3525 33.2117 89.4636 32.326 89.5184V89.4362C32.1099 89.5458 31.8055 89.6005 31.4129 89.6005C31.0233 89.6005 30.8285 89.4073 30.8285 89.0207C30.9046 88.1898 31.0157 87.7744 31.1618 87.7744H31.9927C31.9927 87.607 32.1586 87.4959 32.4904 87.4411L32.6593 87.1078C32.6045 86.9982 32.5771 86.9145 32.5771 86.8567L31.5773 87.0256V86.9389L31.4129 87.0256H30.9107L30.7464 86.4413L32.6593 86.108ZM38.1971 82.1178H38.5304C38.7526 82.2061 38.8637 82.3993 38.8637 82.6976V83.1952C39.515 83.1405 39.9853 83.1131 40.2744 83.1131V82.9487L40.1922 82.1178H40.6899C40.8786 82.1178 41.0171 82.6443 41.1053 83.6974C41.0505 83.7918 41.0231 83.9014 41.0231 84.0261L41.1053 84.4416C41.0505 84.6638 40.8847 84.7749 40.6077 84.7749L40.4433 84.6927C40.3459 84.7475 40.2348 84.7749 40.1101 84.7749L39.9411 84.6927C39.8468 84.7475 39.7372 84.7749 39.6124 84.7749H39.4435C39.3887 84.7749 39.3613 84.7475 39.3613 84.6927L39.197 84.7749H38.9459C38.3919 84.7749 38.115 84.5542 38.115 84.1129V83.7796C38.115 83.7248 38.1424 83.6974 38.1971 83.6974C38.0876 83.457 38.0328 83.0126 38.0328 82.3643V82.2822C38.048 82.1726 38.1028 82.1178 38.1971 82.1178ZM39.4435 83.944V84.0261H40.2744V83.8618L39.4435 83.944ZM41.0231 85.3593V85.4414L41.1921 85.3593H41.9362C41.9362 85.4445 41.9925 85.5556 42.1052 85.6925V85.9391C42.1052 86.0182 42.0215 86.1019 41.8541 86.1902H40.6899V86.4413C40.6899 86.563 40.7188 86.6726 40.7766 86.77C40.7188 86.8674 40.6899 86.9785 40.6899 87.1032C40.6899 87.158 40.7188 87.1854 40.7766 87.1854L40.6899 87.6876C40.6899 87.7363 40.7188 87.957 40.7766 88.3496C40.594 88.4622 40.4266 88.5185 40.2744 88.5185C40.2014 88.5185 40.0629 88.38 39.859 88.1031V86.4413C39.859 86.3286 39.8042 86.2723 39.6946 86.2723H38.4482C38.1439 86.2723 37.9217 86.1065 37.7817 85.7747V85.6925C37.7817 85.6104 37.8654 85.5267 38.0328 85.4414H39.3613C39.7205 85.4414 40.2744 85.414 41.0231 85.3593ZM46.4058 81.2823H46.908C47.2032 81.2823 47.4239 81.7815 47.57 82.7798H48.1543C48.5531 82.7798 48.8026 82.9183 48.9031 83.1952V83.3642C48.8179 83.6411 48.4572 83.7796 47.8211 83.7796H47.6522C47.6522 83.8892 47.6248 83.944 47.57 83.944L47.6522 84.1129C47.6156 84.889 47.4771 85.2771 47.2367 85.2771C47.0023 85.2771 46.7528 85.1097 46.488 84.7749C46.5458 84.2209 46.5747 83.8055 46.5747 83.5285V83.282C46.5747 83.0446 46.491 82.4617 46.3236 81.5334C46.3784 81.4269 46.4058 81.3432 46.4058 81.2823ZM44.9083 81.3691H45.0772C45.3542 81.5334 45.4927 81.7267 45.4927 81.9489C45.4927 82.1832 44.9662 82.4054 43.9131 82.6154V82.6976H44.0774C44.187 82.6428 44.2707 82.6154 44.3285 82.6154V82.6976C44.4472 82.6428 44.6968 82.588 45.0772 82.5333L45.4927 83.0309V83.282C45.4927 83.492 44.9662 83.6579 43.9131 83.7796L43.8309 83.944L43.9131 84.3594C44.3696 84.262 44.674 84.1509 44.8261 84.0261H45.1594C45.2355 84.0322 45.3466 84.1707 45.4927 84.4416V84.8616C45.4927 85.0808 45.0499 85.2466 44.1642 85.3593C43.2754 85.2771 42.8311 84.8327 42.8311 84.0261V83.1952L42.9132 82.6976C42.8037 82.3567 42.7489 82.1345 42.7489 82.0311H42.8311L42.7489 81.8667C42.7489 81.7815 42.86 81.6704 43.0822 81.5334L43.2465 81.6156C44.0105 81.4512 44.5644 81.3691 44.9083 81.3691ZM46.908 85.9391H47.2367C47.5045 85.9391 47.7267 86.4382 47.9032 87.4365H47.8211C47.8211 87.4913 47.8485 87.5187 47.9032 87.5187C47.8332 88.24 47.7222 88.6007 47.57 88.6007H47.1545C46.8775 88.4911 46.7391 88.2963 46.7391 88.0163C46.7391 87.9494 46.7665 87.6724 46.8212 87.1854C46.7665 87.0789 46.7391 86.9967 46.7391 86.9389H46.6569C46.4408 86.9389 45.8305 87.05 44.8261 87.2722C44.4396 87.1596 44.2463 86.9374 44.2463 86.6056C44.2463 86.3286 44.884 86.1339 46.1593 86.0212C46.1593 85.9665 46.4088 85.9391 46.908 85.9391ZM50.6242 81.4512H50.7886C51.0108 81.4512 51.1219 81.9215 51.1219 82.862H51.9528C52.0319 82.862 52.1156 82.9457 52.2039 83.1131V83.282C52.2039 83.5011 51.5099 83.6107 50.122 83.6107C49.7355 83.5011 49.5422 83.3916 49.5422 83.282V83.0309C49.7127 82.9761 50.046 82.9487 50.5421 82.9487L50.4553 82.7798V82.2L50.3731 81.6156L50.6242 81.4512ZM54.1168 81.9489C54.3451 82.025 54.5109 82.1635 54.6144 82.3643V83.1131C54.6327 83.2257 54.6875 83.282 54.7788 83.282H55.7786C55.9186 83.4463 56.0571 83.5285 56.1941 83.5285V83.7796C56.1941 83.9014 55.9719 84.0125 55.5275 84.1129H54.6966C54.6966 84.1677 54.6692 84.1951 54.6144 84.1951L54.6966 84.6105V84.9438C54.6966 85.0382 54.5581 85.1203 54.2812 85.1903C54.0529 85.1142 53.887 84.9758 53.7835 84.7749C53.7287 83.7522 53.7013 82.8939 53.7013 82.2C53.7013 82.0721 53.8398 81.9884 54.1168 81.9489ZM51.2041 83.944C51.4141 84.1114 51.7199 84.4994 52.1217 85.1082C51.8386 85.7169 51.5328 86.0212 51.2041 86.0212C50.4279 85.8569 50.0399 85.3866 50.0399 84.6105C50.0399 84.294 50.4279 84.0718 51.2041 83.944ZM50.7886 84.6105C50.956 85.061 51.0397 85.3106 51.0397 85.3593C51.2041 85.3593 51.2862 85.2482 51.2862 85.026C51.1584 84.6942 51.0488 84.5283 50.9575 84.5283L50.7886 84.6105ZM53.9479 85.8569C54.2796 85.8569 54.4744 86.2176 54.5323 86.9389C54.5323 87.438 54.0331 87.6876 53.0348 87.6876V88.3496H53.1991L54.6966 88.0163C55.141 88.0863 55.3632 88.2811 55.3632 88.6007C55.2658 88.7803 54.6007 88.9736 53.3681 89.1805C52.4793 89.1805 52.035 88.7925 52.035 88.0163C52.035 87.4076 52.1734 87.1032 52.4504 87.1032C53.117 87.018 53.4502 86.9069 53.4502 86.77H52.8659C52.4367 86.77 52.1597 86.6315 52.035 86.3545V86.108C52.3485 86.0075 52.9861 85.9238 53.9479 85.8569ZM62.4944 80.9536H62.7409C63.1427 80.9536 63.3922 82.1452 63.4896 84.5283C63.4348 84.6349 63.4074 84.7186 63.4074 84.7794C63.4622 84.886 63.4896 84.9681 63.4896 85.026H63.4074L63.4896 85.1949C63.4896 85.5267 63.3237 85.6925 62.992 85.6925C62.6602 85.5799 62.4944 85.3577 62.4944 85.026V84.6927C62.4944 84.6379 62.5218 84.6105 62.5765 84.6105L62.4944 84.4462C62.4944 83.6335 62.4107 82.5241 62.2433 81.118L62.4944 80.9536ZM61.3302 81.2869H61.4124C61.6041 81.2869 61.77 81.5913 61.91 82.2L61.8278 82.7798V84.8616C61.8278 85.1599 61.7167 85.3532 61.4945 85.4414H61.3302C60.9954 85.3197 60.828 85.0427 60.828 84.6105V84.1951C60.828 84.1403 60.8569 84.1129 60.9147 84.1129C60.8569 83.9455 60.8006 83.8618 60.7458 83.8618C59.8053 84.017 59.3351 84.2392 59.3351 84.5283C59.3351 85.0062 59.1403 85.5053 58.7507 86.0258H58.6685C58.3703 86.0258 58.1755 85.9147 58.0842 85.6925V85.6104C58.4737 84.2346 58.6685 83.2363 58.6685 82.6154V82.2822H58.5864L58.1663 82.3643V82.2822C58.0598 82.3369 57.9776 82.3643 57.9198 82.3643C57.1985 82.3095 56.8378 82.1163 56.8378 81.7845C56.8378 81.6963 56.9489 81.5852 57.1711 81.4512L57.5865 81.5334C58.1222 81.5334 58.6214 81.4786 59.084 81.3691C59.3975 81.3691 59.5907 81.7845 59.6638 82.6154L59.5816 82.7798C59.6364 82.8894 59.6638 82.9731 59.6638 83.0309C59.609 83.0309 59.5816 83.0583 59.5816 83.1131L59.7505 83.1998C60.5814 83.0933 60.9969 82.8985 60.9969 82.6154L60.828 81.6156C60.8858 81.3965 61.0532 81.2869 61.3302 81.2869Z" fill="black"/>
</svg>
