<svg width="115" height="95" viewBox="0 0 115 95" fill="none" xmlns="http://www.w3.org/2000/svg">
<path d="M70.9524 56.8246C69.7024 58.5946 68.3224 60.3746 67.4624 62.3746C66.7124 64.1146 66.0524 65.8046 65.4224 67.5946C64.5024 70.2146 64.0924 73.1146 63.9124 75.9146C63.8724 76.5046 63.6724 77.3346 64.2024 77.7846C64.4924 78.0346 65.1024 78.0946 65.4724 78.2146C66.0624 78.4046 66.6924 78.2746 67.2924 78.4146C68.2624 78.6346 69.2424 78.8746 70.2024 79.1246C73.1124 79.8946 76.1424 79.9646 79.1424 80.1446L83.0024 80.3846C84.3824 80.4746 85.6624 80.3446 87.0424 80.4246C89.2424 80.5646 91.4424 80.6946 93.6424 80.8346C94.6124 80.8946 95.5124 80.7746 96.4724 80.8046C96.9224 80.8146 97.3024 80.6646 97.7324 80.6646C98.1324 80.6646 98.5724 80.7946 98.9724 80.7646C100.342 80.6646 100.272 79.0046 100.212 77.9446C100.172 77.2346 99.9324 76.5446 99.9124 75.8246C99.8824 74.8446 99.7424 73.8946 99.6024 72.9146C99.5124 72.3046 99.5124 71.6846 99.3924 71.0746C99.2724 70.4646 99.0124 69.8946 98.9124 69.2746C98.7424 68.2646 98.4024 67.5646 97.9724 66.6546C97.6924 66.0546 97.5724 65.3646 97.2624 64.7846C96.9224 64.1446 96.3724 63.6046 95.9924 62.9846C95.6124 62.3446 95.3424 61.6346 94.9724 60.9846C94.5324 60.2146 94.4624 59.3846 93.9024 58.6946C93.4524 58.1446 93.1624 57.4646 92.6624 56.9446C92.0924 56.3546 91.1724 56.1346 90.4824 55.7246" fill="#C8E7EA"/>
<path d="M70.5224 56.5647C69.6324 57.8147 68.7124 59.0447 67.9324 60.3647C67.1524 61.6847 66.6324 63.0147 66.0824 64.3947C64.9124 67.3347 64.0224 70.2447 63.6424 73.3947C63.5524 74.1547 63.4824 74.9147 63.4324 75.6747C63.3924 76.2547 63.2624 76.8647 63.4324 77.4247C63.7724 78.5947 65.3624 78.7647 66.3924 78.8147C67.9624 78.8847 69.4824 79.4847 71.0124 79.8147C72.5424 80.1447 74.2224 80.3247 75.8424 80.4347C79.0524 80.6647 82.2924 80.9247 85.5124 80.8847C88.7324 80.8447 92.0424 81.4247 95.3224 81.3147C96.0524 81.2847 96.7524 81.2647 97.4724 81.1747C98.1924 81.0847 98.8624 81.3847 99.5524 81.1347C100.442 80.8147 100.702 79.8647 100.752 79.0147C100.832 77.6947 100.502 76.3847 100.392 75.0847C100.332 74.3947 100.232 73.7047 100.142 73.0247C100.022 72.1747 100.012 71.3147 99.7824 70.4847C99.5524 69.6547 99.4024 68.8447 99.1324 68.0647C98.8824 67.3447 98.5024 66.6747 98.2524 65.9547C98.0024 65.2347 97.8124 64.6147 97.3924 64.0147C96.9024 63.3247 96.4024 62.7047 96.0224 61.9247C95.6724 61.2047 95.2924 60.5047 95.0124 59.7547C94.7324 59.0047 94.3324 58.4547 93.9024 57.7947C93.5424 57.2347 93.2124 56.6647 92.6624 56.2647C92.0824 55.8347 91.3724 55.6347 90.7424 55.2747C90.1824 54.9547 89.6724 55.8247 90.2424 56.1347C90.7124 56.4047 91.2324 56.5747 91.7124 56.8347C92.3424 57.1747 92.6724 57.6947 93.0424 58.2847C93.3724 58.8047 93.7624 59.2547 93.9824 59.8247C94.2024 60.3947 94.4324 60.9547 94.7124 61.5047C95.0224 62.0947 95.2624 62.7247 95.6224 63.2947C95.9624 63.8347 96.4124 64.2947 96.7424 64.8347C97.0724 65.3747 97.1824 65.9947 97.4224 66.5747C97.6624 67.1847 97.9824 67.7647 98.1924 68.3947C98.4024 69.0247 98.4824 69.6547 98.6724 70.2847C98.9024 71.0447 98.9924 71.7647 99.0724 72.5447C99.1524 73.2647 99.2824 73.9847 99.3524 74.7047C99.4224 75.4247 99.4224 76.0947 99.5524 76.7847C99.7124 77.6647 99.9924 78.9347 99.5824 79.8047C99.3424 80.3147 98.8524 80.2547 98.3724 80.2047C97.6824 80.1247 97.0624 80.2847 96.3724 80.2847C94.8824 80.2847 93.4324 80.3047 91.9524 80.2047C90.4724 80.1047 88.8524 80.0147 87.3124 79.9147C85.7724 79.8147 84.3724 79.9347 82.9024 79.8547C81.4324 79.7747 79.9424 79.6647 78.4524 79.5847C76.9624 79.5047 75.4524 79.4247 73.9524 79.2647C72.4524 79.1047 71.0224 78.7847 69.5724 78.4247C68.9024 78.2547 68.2324 78.0847 67.5524 77.9347C66.8724 77.7847 66.1524 77.8347 65.4724 77.6647C64.8424 77.5047 64.3524 77.4747 64.3624 76.7047C64.3624 76.0547 64.4624 75.3947 64.5224 74.7547C64.6624 73.1147 64.9024 71.4847 65.2824 69.8847C65.6624 68.2847 66.2324 66.7947 66.8124 65.2947C67.3924 63.7947 67.9524 62.3247 68.7524 60.9547C69.5524 59.5847 70.4924 58.3347 71.4024 57.0547C71.7724 56.5247 70.9124 56.0247 70.5424 56.5547L70.5224 56.5647Z" fill="#231815"/>
<path d="M60.6624 33.786C59.2224 33.696 57.3425 33.906 56.1025 33.096C54.1025 31.786 52.8425 29.056 52.3525 26.826C52.1525 25.916 51.8624 24.966 51.8324 24.036C51.8024 22.766 52.2624 21.586 52.6424 20.396C52.9124 19.546 53.0925 18.906 53.6725 18.196C54.3725 17.326 55.0224 16.386 55.8924 15.686C58.2724 13.776 61.3324 13.206 64.3224 13.486C65.2524 13.576 66.3824 13.706 67.2524 14.076C67.7624 14.286 68.1124 14.726 68.5924 14.986C68.8424 15.036 69.0824 15.126 69.3024 15.256C69.4524 15.416 69.6125 15.566 69.7625 15.726C70.1925 16.106 70.6525 16.356 70.9925 16.836C71.5925 17.696 72.0825 18.816 72.2625 19.836C72.4925 21.146 72.6724 22.626 72.5824 23.956C72.5424 24.496 72.5925 25.166 72.4325 25.696C72.3025 25.986 72.1724 26.276 72.0324 26.556C71.9924 26.816 71.9424 27.076 71.8924 27.336C71.6424 28.076 71.0625 28.366 70.6325 28.946C71.0925 28.996 71.6024 28.736 72.0624 28.676C72.5224 28.616 72.9725 28.676 73.4325 28.716C74.4625 28.796 75.4325 28.626 76.4625 28.696C77.7325 28.776 79.8924 28.506 80.8324 29.516C80.3724 29.176 80.2024 28.486 79.8024 28.076C79.1824 27.446 78.7224 26.736 78.3024 25.956C77.1124 23.736 76.3125 21.306 76.0725 18.786C75.9725 17.746 75.8024 16.526 76.0524 15.486C76.2324 14.736 76.7324 14.026 77.0824 13.356C77.8924 11.806 79.7424 10.736 81.3024 10.056C84.3724 8.70601 87.8324 8.92602 91.0524 9.53602C91.7224 9.66602 92.1425 10.006 92.6825 10.386C93.5725 11.016 94.4824 11.536 95.2524 12.326C95.8124 12.896 96.3625 13.526 96.8525 14.146C97.7125 15.216 98.5924 16.306 99.1724 17.566C99.8624 19.056 100.742 20.846 100.702 22.516C100.662 24.116 100.382 25.546 99.6225 26.956C99.0125 28.086 98.2425 29.126 97.2425 29.956C96.7725 30.336 96.3624 30.516 96.9124 31.026C97.1524 31.256 97.5124 31.396 97.7724 31.656C98.0324 31.916 98.3425 32.116 98.6025 32.366C99.6525 33.376 100.602 34.586 101.542 35.686C102.192 36.446 102.392 37.376 102.902 38.206C103.292 38.846 103.552 39.346 103.772 40.056C104.142 41.256 104.512 42.396 104.762 43.636C105.012 44.876 105.482 46.076 105.432 47.296C105.382 48.406 105.432 49.706 105.172 50.786C104.852 52.066 104.082 53.656 103.312 54.706C102.582 55.706 101.652 56.556 100.602 57.206C100.012 57.566 99.3124 57.816 98.6924 58.136C97.8524 58.566 96.9924 58.846 96.0624 59.026C94.3024 59.376 92.5124 59.426 90.7324 59.626C89.9924 59.706 89.2724 59.866 88.5324 59.806C87.8424 59.756 87.1624 59.716 86.4724 59.676C85.1424 59.596 83.8424 59.186 82.5224 59.326C81.1924 59.466 79.8524 59.206 78.5224 59.176C78.0224 59.166 77.5624 59.306 77.0624 59.306C76.5024 59.306 75.9325 59.236 75.3825 59.196C74.0825 59.116 72.7925 59.046 71.4925 58.956C70.8525 58.906 70.2724 59.076 69.6424 59.066C68.9024 59.066 68.1524 58.956 67.4024 58.916C66.5924 58.866 65.8325 58.766 65.0325 58.606C64.2325 58.446 63.4225 58.456 62.6025 58.196C62.2325 58.076 61.8625 57.976 61.4925 57.866C60.9225 57.706 60.3924 57.706 59.8224 57.556C58.7924 57.286 57.7725 56.906 56.7425 56.626C56.3025 56.506 55.8724 56.336 55.4324 56.276C54.9524 56.216 54.4824 56.276 54.0124 56.146C52.8524 55.846 51.8224 55.826 50.7724 55.166C50.2424 54.836 49.6724 54.466 49.2724 53.986C48.6724 53.276 48.3224 52.346 47.8924 51.526C47.4324 50.646 47.4625 49.706 47.2825 48.746C47.1725 48.166 46.9824 47.616 47.0124 47.016C47.0824 45.536 48.1724 44.286 49.5124 43.766C50.9324 43.206 52.5224 42.526 54.0824 42.576C54.8024 42.606 55.4324 42.706 56.1224 42.916C56.3724 42.996 56.6224 43.006 56.8624 43.116C57.1024 43.226 57.3625 43.496 57.6025 43.546C58.3725 43.726 57.8824 43.066 57.8024 42.596C57.6924 41.976 57.8925 41.456 58.0325 40.866C58.1525 40.336 58.0724 39.796 58.1924 39.266C58.3324 38.676 58.5024 38.106 58.6524 37.516C58.8024 36.926 58.9125 36.356 59.2125 35.826C59.3825 35.526 59.6324 35.286 59.8024 34.976C60.0224 34.596 60.0824 34.066 60.3924 33.746" fill="#C8E7EA"/>
<path d="M60.6625 33.2851C59.1225 33.2051 57.3725 33.4552 56.0625 32.4652C54.8525 31.5452 54.0125 30.1352 53.4625 28.7352C53.2025 28.0752 53.0025 27.3852 52.8425 26.6952C52.6225 25.7452 52.3225 24.7951 52.3425 23.8151C52.3625 22.9051 52.6525 22.0252 52.9325 21.1652C53.1925 20.3552 53.3925 19.4952 53.8725 18.7752C54.8225 17.3552 56.0125 16.0352 57.5125 15.2052C59.0125 14.3752 60.6325 14.0052 62.2825 13.9352C63.0925 13.8952 63.9025 13.9352 64.7025 14.0252C65.5625 14.1152 66.5625 14.2152 67.3125 14.6752C67.6225 14.8652 67.8725 15.1352 68.1725 15.3152C68.4725 15.4952 68.8025 15.5252 69.0925 15.7552C69.7525 16.2852 70.4425 16.8452 70.8725 17.5852C71.8925 19.3252 72.1425 21.5152 72.0925 23.4952C72.0825 23.9652 72.0725 24.4452 72.0425 24.9152C72.0025 25.4852 71.7125 25.8752 71.5525 26.4052C71.4025 26.8952 71.4425 27.2952 71.0925 27.7152C70.8325 28.0152 70.5325 28.2652 70.2825 28.5852C70.0225 28.9152 70.1725 29.4352 70.6325 29.4352C71.0925 29.4352 71.5225 29.2752 71.9925 29.1852C72.4625 29.0952 72.9525 29.1852 73.4225 29.2152C74.4325 29.2852 75.4425 29.1552 76.4525 29.1952C77.6825 29.2452 79.5125 28.9252 80.4725 29.8652L81.1825 29.1552C80.7525 28.7852 80.5825 28.2052 80.2125 27.7752C79.7225 27.1952 79.2725 26.6452 78.8925 25.9752C78.1825 24.7252 77.6225 23.3852 77.2125 22.0152C76.8025 20.6452 76.5725 19.1552 76.4625 17.6852C76.4125 16.9952 76.3625 16.2752 76.5325 15.6052C76.7125 14.8852 77.1525 14.2352 77.5125 13.5952C78.7325 11.4152 81.6125 10.1852 83.9625 9.75516C85.3925 9.48516 86.8725 9.49515 88.3225 9.62515C89.0425 9.69515 89.7625 9.79516 90.4825 9.92516C91.2025 10.0552 91.6825 10.2852 92.2625 10.6952C93.4225 11.5052 94.5425 12.2452 95.4925 13.3052C96.4425 14.3652 97.3525 15.4652 98.1125 16.6552C98.8725 17.8452 99.4525 19.1852 99.8725 20.5052C100.292 21.8252 100.272 23.2752 99.9525 24.6552C99.6325 26.0352 98.9725 27.2752 98.1025 28.3452C97.7025 28.8452 97.2425 29.2752 96.7525 29.6852C96.4125 29.9552 96.0725 30.2651 96.1725 30.7551C96.2725 31.2451 96.7225 31.4952 97.0825 31.7452C97.6725 32.1552 98.2225 32.6551 98.7125 33.1751C99.1725 33.6551 99.6125 34.1651 100.042 34.6751C100.522 35.2451 101.082 35.8052 101.462 36.4452C101.782 36.9652 101.982 37.5552 102.262 38.0952C102.592 38.7252 102.982 39.3052 103.212 39.9852C103.692 41.3752 104.032 42.7952 104.372 44.2252C104.542 44.9652 104.782 45.6952 104.882 46.4452C104.982 47.1952 104.912 47.9652 104.882 48.7152C104.842 50.1652 104.522 51.4652 103.872 52.7652C103.292 53.9352 102.532 54.9952 101.552 55.8652C100.572 56.7352 99.2825 57.3252 98.0425 57.8852C96.6625 58.5052 95.1325 58.7152 93.6425 58.8552C92.1525 58.9952 90.6725 59.2152 89.1925 59.3052C87.7125 59.3952 86.1025 59.1452 84.6225 58.9352C83.1425 58.7252 81.6625 58.9151 80.1625 58.7851C79.4825 58.7251 78.7725 58.6252 78.0925 58.6952C77.3225 58.7752 76.6325 58.7952 75.8525 58.7352C74.3325 58.6152 72.7725 58.4452 71.2525 58.4452C70.5625 58.4452 69.8925 58.5852 69.1925 58.5452C68.4325 58.5052 67.6725 58.4452 66.9225 58.3752C66.1725 58.3052 65.4125 58.1451 64.6525 58.0351C63.8925 57.9251 63.1525 57.8352 62.4025 57.6152C61.7625 57.4252 61.1425 57.2852 60.4825 57.1852C59.7425 57.0652 59.0225 56.8152 58.3125 56.5852C57.6025 56.3552 56.9325 56.1552 56.2325 55.9552C55.4725 55.7352 54.7025 55.7852 53.9425 55.6252C52.5225 55.3252 51.2325 55.0552 50.0925 54.0952C49.5925 53.6752 49.2625 53.1351 48.9625 52.5651C48.6425 51.9351 48.2525 51.2752 48.0825 50.5852C47.9225 49.9452 47.9025 49.2852 47.7825 48.6352C47.6425 47.8952 47.4225 47.2052 47.6325 46.4552C48.0125 45.0952 49.1625 44.4652 50.3925 43.9852C51.7625 43.4552 53.1425 42.9852 54.6325 43.1352C55.2525 43.1952 55.9725 43.3352 56.5725 43.5552C57.0725 43.7352 57.4525 44.2252 58.0425 44.0852C58.3825 44.0052 58.5625 43.7252 58.5625 43.3852C58.5625 42.8452 58.2425 42.4552 58.3425 41.8752C58.4525 41.2252 58.6025 40.6352 58.6525 39.9752C58.7025 39.1852 58.9825 38.4351 59.1725 37.6751C59.3525 36.9551 59.5125 36.3052 59.9725 35.6952C60.3325 35.2152 60.4325 34.5752 60.7925 34.1252C61.1925 33.6252 60.4925 32.9152 60.0825 33.4152C59.7125 33.8752 59.6225 34.4352 59.3025 34.9152C58.8525 35.5952 58.5125 36.1652 58.3125 36.9652C58.1225 37.6952 57.9025 38.4152 57.7525 39.1552C57.6825 39.5052 57.6725 39.8452 57.6425 40.1952C57.6125 40.6752 57.4725 41.1252 57.3825 41.5952C57.2925 42.0652 57.2225 42.7552 57.5025 43.1952C57.5225 43.2252 57.5525 43.4052 57.5725 43.4052L57.7725 43.0651C57.6825 43.0251 57.5925 42.9752 57.5225 42.9152C57.2425 42.7352 56.9925 42.6052 56.6625 42.5252C55.2425 42.1452 53.8825 41.9351 52.4325 42.2551C51.6825 42.4151 50.9625 42.6852 50.2525 42.9552C49.6025 43.2052 48.9325 43.4352 48.3625 43.8552C47.4025 44.5452 46.7225 45.5852 46.5825 46.7652C46.5125 47.4152 46.6725 48.0252 46.8025 48.6552C46.9625 49.4452 46.9725 50.2651 47.2025 51.0351C47.3925 51.6651 47.7425 52.2652 48.0325 52.8552C48.3525 53.4952 48.7125 54.1352 49.2425 54.6352C50.3025 55.6252 51.5625 56.1352 52.9625 56.4152C53.6525 56.5552 54.2925 56.6852 54.9925 56.7352C55.8625 56.7952 56.7025 57.1052 57.5225 57.3652C58.2525 57.5952 58.9725 57.8551 59.7225 58.0351C60.4725 58.2151 61.2825 58.3051 62.0525 58.5351C63.5025 58.9651 65.0825 59.1652 66.5925 59.3352C67.3525 59.4152 68.1225 59.4652 68.8825 59.5152C69.6925 59.5752 70.4725 59.4352 71.2725 59.4352C72.9625 59.4352 74.6725 59.6452 76.3625 59.7652C77.1025 59.8152 77.8025 59.6652 78.5425 59.6652C79.3725 59.6652 80.1925 59.7952 81.0125 59.8352C81.8325 59.8752 82.5725 59.7651 83.3525 59.7851C84.1325 59.8051 84.9825 59.9852 85.7925 60.0852C87.3825 60.2852 88.9525 60.3352 90.5325 60.1352C92.1125 59.9352 93.8525 59.8752 95.4925 59.6152C96.9525 59.3852 98.2025 58.8752 99.5325 58.2652C100.862 57.6552 102.032 56.9152 103.022 55.8352C103.942 54.8252 104.642 53.6352 105.162 52.3752C105.682 51.1152 105.882 49.7752 105.922 48.3552C105.942 47.6452 105.982 46.9252 105.882 46.2152C105.762 45.3652 105.502 44.5352 105.312 43.7052C104.972 42.1952 104.612 40.6252 104.012 39.1852C103.742 38.5552 103.362 37.9952 103.062 37.3752C102.762 36.7552 102.532 36.1251 102.132 35.5651C101.252 34.3651 100.202 33.1752 99.1425 32.1252C98.6725 31.6652 98.1525 31.2352 97.6125 30.8552C97.2725 30.6152 97.1525 30.6352 97.4825 30.3752C97.7925 30.1252 98.0925 29.8652 98.3625 29.5752C99.2925 28.6052 100.032 27.4352 100.532 26.1852C101.032 24.9352 101.292 23.4351 101.212 22.0651C101.122 20.5751 100.502 19.1852 99.8825 17.8552C99.2625 16.5252 98.4825 15.3452 97.5625 14.1952C96.6425 13.0452 95.7125 11.9052 94.5325 11.0352C93.4725 10.2452 92.3025 9.24516 90.9725 8.99516C89.5225 8.71516 88.0425 8.54516 86.5625 8.53516C83.7325 8.53516 80.8825 9.29515 78.5725 10.9852C77.4525 11.8152 76.7725 12.8152 76.1125 14.0252C75.3925 15.3452 75.3425 16.6552 75.4925 18.1252C75.7825 21.1652 76.5925 24.1352 78.1825 26.7652C78.5225 27.3352 78.9225 27.8352 79.3625 28.3352C79.8025 28.8352 79.9725 29.4352 80.4625 29.8552C80.9525 30.2752 81.6325 29.6051 81.1725 29.1451C80.0525 28.0451 78.3025 28.2252 76.8625 28.1952C75.8625 28.1752 74.8725 28.2352 73.8825 28.2152C73.3425 28.2152 72.8125 28.1052 72.2725 28.1352C71.7025 28.1652 71.1825 28.4251 70.6125 28.4251L70.9625 29.2752C71.4625 28.6452 72.1625 28.1752 72.3725 27.3452C72.6025 26.4052 73.0025 25.5952 73.0325 24.6052C73.0925 22.5852 73.1025 20.4252 72.3925 18.5052C72.0925 17.6852 71.6825 16.8052 71.0725 16.1652C70.7725 15.8552 70.4025 15.6352 70.0825 15.3452C69.6925 14.9852 69.4625 14.7552 68.9625 14.5652C68.5625 14.4152 68.2825 14.1452 67.9325 13.9052C67.5625 13.6452 67.1325 13.4852 66.7025 13.3652C65.7925 13.1152 64.8225 13.0052 63.8825 12.9452C61.9925 12.8152 60.0425 13.0252 58.2725 13.7252C56.4125 14.4552 55.0225 15.6152 53.8025 17.1752C53.2525 17.8752 52.7425 18.5152 52.4225 19.3552C52.0625 20.2952 51.7425 21.2852 51.5125 22.2652C51.0425 24.2152 51.5525 26.2552 52.1525 28.1352C52.7525 30.0152 53.6425 31.7252 55.0825 32.9652C56.7025 34.3652 58.6225 34.1752 60.6325 34.2752C61.2725 34.3052 61.2725 33.3052 60.6325 33.2752L60.6625 33.2851Z" fill="#231815"/>
<path d="M47.9526 39.4851C47.0426 39.7951 46.5326 40.2451 46.1726 41.1551C45.9926 41.6151 45.6826 42.0851 45.6926 42.5851C45.7026 43.0851 45.9326 43.7451 46.1326 44.1951C46.4226 44.8351 47.1126 45.3651 47.6826 45.7551C48.3226 46.1951 49.5526 46.1551 50.2426 45.8651C52.0126 45.1351 52.9426 43.3951 52.4526 41.5451C52.3426 41.1151 52.2626 40.8251 51.9726 40.4751C51.6526 40.0751 51.3526 39.5051 50.9026 39.2251C50.3026 38.8551 48.5126 38.6851 47.9526 39.2751" fill="#231815"/>
<path d="M47.8224 39.0058C47.0724 39.2658 46.4324 39.6758 46.0124 40.3558C45.7824 40.7258 45.6324 41.1458 45.4524 41.5458C45.2524 42.0158 45.1624 42.4458 45.2424 42.9558C45.3824 43.8558 45.7524 44.7458 46.4124 45.3758C47.0724 46.0058 47.7324 46.4558 48.6124 46.5458C50.2424 46.7258 51.9124 45.7958 52.6424 44.3258C53.0124 43.5858 53.1425 42.7658 53.0325 41.9558C52.9725 41.5258 52.8624 41.0858 52.6824 40.6758C52.5024 40.2658 52.2224 39.9558 51.9724 39.6258C51.7024 39.2558 51.4024 38.8958 50.9824 38.6958C50.6224 38.5258 50.2324 38.4558 49.8324 38.4158C49.0924 38.3358 48.1624 38.3658 47.5924 38.9158C47.1324 39.3658 47.8424 40.0758 48.3024 39.6258C48.6024 39.3358 49.2524 39.3658 49.6624 39.3958C50.1524 39.4358 50.5924 39.5358 50.9224 39.8958C51.3824 40.4058 51.7824 40.9958 51.9524 41.6658C52.1024 42.2758 52.1024 42.8858 51.9024 43.4858C51.5324 44.5958 50.4224 45.4758 49.2524 45.5558C48.9724 45.5758 48.6824 45.5758 48.4124 45.5058C48.0924 45.4358 47.8424 45.2658 47.5824 45.0658C46.9824 44.6158 46.5924 44.1258 46.3624 43.4158C46.2424 43.0558 46.1224 42.6558 46.2224 42.2758C46.3224 41.8958 46.5224 41.5158 46.6924 41.1658C46.9824 40.5458 47.4324 40.1758 48.0724 39.9558C48.6724 39.7458 48.4124 38.7758 47.8024 38.9958L47.8224 39.0058Z" fill="#231815"/>
<path d="M72.0524 36.1854C72.2924 35.7254 72.5424 35.2754 72.8524 34.8554C72.8924 34.8054 72.8024 34.9154 72.8524 34.8554C72.8824 34.8254 72.9024 34.7954 72.9224 34.7654C72.9724 34.7154 73.0124 34.6554 73.0624 34.6054C73.1124 34.5554 73.1624 34.5054 73.2124 34.4654C73.2424 34.4454 73.2624 34.4153 73.2924 34.3953C73.2524 34.4353 73.2324 34.4353 73.2924 34.3953C73.3524 34.3553 73.3924 34.3253 73.4524 34.3053H73.4824C73.4824 34.3053 73.5224 34.2753 73.4524 34.3053C73.4524 34.2953 73.5124 34.2853 73.5224 34.2853C73.5424 34.2853 73.5724 34.2754 73.6024 34.2654C73.6924 34.2354 73.4924 34.2654 73.5924 34.2654C73.6224 34.2654 73.6624 34.2654 73.6824 34.2654C73.7724 34.2654 73.5724 34.2454 73.6824 34.2654L73.3824 34.0353C73.3024 33.8553 73.3824 34.0553 73.4124 34.1153C73.4424 34.1953 73.4824 34.2853 73.5124 34.3653C73.6124 34.5953 73.7024 34.8254 73.8124 35.0454C73.9924 35.4054 74.2324 35.8754 74.6524 35.9854C74.9024 36.0454 75.2024 35.9053 75.2724 35.6353C75.3424 35.3653 75.1924 35.0854 74.9224 35.0154C74.8824 35.0054 75.0424 35.0853 74.9624 35.0253C74.9624 35.0253 75.0624 35.1153 75.0124 35.0653C75.0124 35.0553 74.9924 35.0453 74.9824 35.0353C74.9524 34.9953 74.8724 34.9553 74.9824 35.0353C74.9524 35.0153 74.9324 34.9654 74.9124 34.9354C74.8124 34.7754 74.7224 34.5953 74.6424 34.4253C74.6024 34.3353 74.5624 34.2453 74.5224 34.1453C74.5224 34.1253 74.5024 34.1054 74.4924 34.0754C74.4924 34.0854 74.5324 34.1754 74.4924 34.0954C74.4724 34.0554 74.4624 34.0153 74.4424 33.9753C74.3624 33.7753 74.3024 33.5153 74.1324 33.3853C73.9124 33.2153 73.5624 33.2353 73.3124 33.3053C73.1124 33.3553 72.9224 33.4554 72.7524 33.5754C72.3724 33.8554 72.0724 34.2154 71.8124 34.6054C71.5824 34.9454 71.3924 35.3053 71.2024 35.6753C71.0824 35.9053 71.1324 36.2254 71.3824 36.3554C71.6124 36.4754 71.9424 36.4253 72.0624 36.1753L72.0524 36.1854Z" fill="#231815"/>
<path d="M78.7626 35.9656C79.0626 35.4456 79.3826 35.0556 79.8026 34.6256C79.8926 34.5356 79.9826 34.4456 80.0726 34.3656C80.0026 34.4256 80.1326 34.3356 80.1526 34.3256C80.1026 34.3456 80.0926 34.3556 80.1226 34.3456C80.1626 34.3456 80.1426 34.3456 80.0826 34.3456C80.1426 34.3456 80.1326 34.3456 80.0726 34.3456C80.1026 34.3456 80.1326 34.3656 80.1626 34.3756C80.0926 34.3456 80.2326 34.4256 80.2426 34.4256C80.3226 34.4556 80.1826 34.3656 80.2426 34.4256C80.2726 34.4556 80.3126 34.4856 80.3426 34.5256C80.3626 34.5456 80.4626 34.6756 80.3826 34.5756C80.4026 34.6056 80.4326 34.6456 80.4526 34.6756C80.5126 34.7756 80.5726 34.8756 80.6326 34.9756C80.6826 35.0656 80.7226 35.1656 80.7726 35.2656C80.7926 35.3256 80.7926 35.3156 80.7726 35.2656C80.7826 35.2956 80.7926 35.3256 80.8126 35.3556C80.8326 35.3956 80.8426 35.4456 80.8626 35.4856C81.0026 35.8656 81.1226 36.2656 81.1726 36.6656C81.1926 36.8356 81.3726 36.9756 81.5226 37.0156L81.6926 37.0656C82.3126 37.2356 82.5826 36.2756 81.9626 36.1056L81.7926 36.0556L82.1426 36.4056C82.0426 35.6556 81.7626 34.8456 81.3426 34.2056C81.1026 33.8456 80.7926 33.5056 80.3526 33.3956C79.7726 33.2456 79.3726 33.6456 79.0026 34.0356C78.5726 34.4756 78.1926 34.9556 77.8926 35.4856C77.7626 35.7156 77.8326 36.0356 78.0726 36.1656C78.3126 36.2956 78.6226 36.2256 78.7526 35.9856L78.7626 35.9656Z" fill="#231815"/>
<path d="M72.3725 51.555C72.0725 51.825 71.7225 52.065 71.5125 52.425C71.2825 52.825 71.2525 53.315 71.3325 53.765C71.4925 54.685 72.2625 55.235 73.1625 55.345C74.7425 55.545 76.6225 54.555 77.1325 53.005L76.1525 52.875C76.1525 53.865 77.0425 54.565 77.8925 54.895C78.4425 55.115 79.6025 55.405 79.7525 54.535C79.8725 53.905 78.9025 53.635 78.7925 54.265C78.7925 54.225 78.9425 54.135 78.9425 54.125C78.9425 54.115 78.9125 54.125 78.8825 54.125C78.8325 54.095 78.7025 54.095 78.6425 54.085C78.4725 54.045 78.3025 53.995 78.1425 53.925C77.7325 53.745 77.1625 53.375 77.1625 52.875C77.1625 52.295 76.3525 52.215 76.1825 52.745C75.8525 53.765 74.5525 54.385 73.5425 54.375C73.0325 54.375 72.4825 54.195 72.3425 53.645C72.1725 52.945 72.6325 52.675 73.0925 52.265C73.5525 51.855 72.8625 51.135 72.3825 51.555H72.3725Z" fill="#231815"/>
<path d="M78.2722 63.765C77.2622 63.035 76.1522 62.215 75.0522 61.615C73.5622 60.815 73.1322 62.685 73.0322 63.845C72.9922 64.325 72.9822 64.805 72.9522 65.285C72.9322 65.655 72.7922 66.175 72.8622 66.545C73.0222 67.385 73.8022 66.935 74.3422 66.665C75.0522 66.315 75.7422 65.915 76.4522 65.545C77.1822 65.165 77.7222 64.545 78.4622 64.195" fill="#231815"/>
<path d="M78.5222 63.3344C77.9022 62.8844 77.2822 62.4244 76.6422 62.0044C76.0822 61.6344 75.4622 61.1544 74.8022 60.9844C73.7322 60.7144 73.0622 61.5644 72.7822 62.4844C72.6422 62.9244 72.5822 63.3844 72.5322 63.8444C72.5022 64.2144 72.4822 64.5844 72.4722 64.9444C72.4622 65.3044 72.3922 65.6744 72.3622 66.0344C72.3022 66.6044 72.4522 67.3244 73.0922 67.4844C73.5822 67.6044 74.0822 67.3344 74.5122 67.1244C75.2822 66.7444 76.0422 66.3344 76.7822 65.9144C77.4622 65.5344 78.0022 64.9544 78.7122 64.6144C78.9522 64.4944 79.0222 64.1544 78.8922 63.9344C78.7422 63.6844 78.4522 63.6344 78.2122 63.7544C77.6722 64.0144 77.2322 64.4044 76.7522 64.7544C76.2222 65.1344 75.6222 65.4144 75.0422 65.7244C74.5922 65.9644 74.1322 66.2444 73.6622 66.4344C73.5822 66.4644 73.4922 66.5044 73.4022 66.5144C73.3422 66.5244 73.3322 66.5244 73.3322 66.5144C73.3022 66.4644 73.3822 66.5344 73.3822 66.5444C73.3722 66.4244 73.3422 66.3344 73.3422 66.2044C73.3422 65.9444 73.4122 65.6844 73.4322 65.4244C73.4722 65.0844 73.4722 64.7344 73.4922 64.3844C73.5122 63.9044 73.5422 63.5344 73.6422 63.0944C73.7222 62.7344 73.8122 62.4144 74.0222 62.1244C74.0722 62.0644 74.1322 61.9944 74.2422 61.9344C74.1722 61.9744 74.3222 61.9144 74.3522 61.9044C74.3022 61.9044 74.4922 61.9244 74.4922 61.9244C74.7622 61.9844 75.0022 62.1544 75.2322 62.2844C75.5522 62.4744 75.8622 62.6644 76.1622 62.8744C76.7922 63.2944 77.3922 63.7344 78.0022 64.1744C78.2222 64.3344 78.5622 64.2144 78.6822 63.9944C78.8322 63.7444 78.7222 63.4644 78.5022 63.3144L78.5222 63.3344Z" fill="#231815"/>
<path d="M79.5227 63.8451C80.1327 63.3651 80.8727 63.0851 81.5427 62.7051C82.0027 62.4451 82.8827 61.8951 83.4327 61.9651C83.9127 62.0351 83.9927 62.4051 84.0927 62.8651C84.2927 63.7851 84.2727 64.8551 84.4027 65.8051C84.4627 66.2551 84.6427 66.8451 83.9627 66.7951C83.7527 66.7851 83.1927 66.6051 82.9627 66.5651C82.6327 66.5051 82.4027 66.3851 82.1027 66.2451C80.7327 65.6251 79.2527 65.1151 78.2627 63.9651" fill="#231815"/>
<path d="M79.7726 64.2753C80.2326 63.9253 80.7626 63.6753 81.2826 63.4053C81.7026 63.1953 82.0926 62.9453 82.5126 62.7353C82.7126 62.6353 83.2426 62.3253 83.4526 62.4953C83.5426 62.5753 83.5626 62.7953 83.5926 62.9153C83.6526 63.1753 83.6926 63.4453 83.7226 63.7153C83.7826 64.3253 83.8026 64.9353 83.8726 65.5353C83.8926 65.7553 83.9426 65.9753 83.9626 66.1953C83.9626 66.2353 83.9626 66.3253 83.9626 66.3753C84.0126 66.5353 83.9426 66.4153 83.9626 66.4053C83.9726 66.4053 84.0626 66.2653 84.0526 66.3053C84.0526 66.3053 83.9326 66.2953 83.9626 66.3053C83.8626 66.2853 83.7726 66.2653 83.6826 66.2353C83.4926 66.1853 83.2926 66.1353 83.1026 66.0853C82.5926 65.9653 82.1226 65.7053 81.6426 65.4953C80.5426 65.0153 79.4326 64.5253 78.6226 63.6153C78.1926 63.1353 77.4926 63.8453 77.9126 64.3253C78.7726 65.3053 79.9626 65.8553 81.1326 66.3653C81.7326 66.6253 82.3026 66.9253 82.9426 67.0753C83.4226 67.1853 83.9726 67.4353 84.4526 67.2253C84.9926 66.9953 85.0126 66.4353 84.9326 65.9353C84.8326 65.2953 84.8026 64.6453 84.7526 63.9953C84.7026 63.3453 84.6526 62.6753 84.3826 62.1053C84.1126 61.5353 83.5226 61.3853 82.9526 61.5053C82.3826 61.6253 81.8326 61.9653 81.3226 62.2553C80.6426 62.6453 79.9026 62.9253 79.2826 63.4053C79.0726 63.5653 78.9526 63.8353 79.1026 64.0853C79.2226 64.2953 79.5726 64.4253 79.7826 64.2653L79.7726 64.2753Z" fill="#231815"/>
<path d="M70.4924 71.0259C68.8024 71.6759 67.3024 72.9259 66.9224 74.8059C66.5024 76.8359 67.5224 78.2159 69.1024 79.3159C69.8024 79.7959 70.4524 80.3559 71.2524 80.6659C72.1624 81.0159 73.2824 81.1659 74.2424 81.1859C75.2424 81.2159 76.2224 81.1259 77.2124 81.0759C78.0124 81.0459 78.6924 80.6859 79.4024 80.3659C79.9524 80.1159 80.5624 79.9759 80.9824 79.5059C81.3124 79.1459 81.6124 78.4359 81.7524 77.9559C82.0324 76.9859 81.6224 76.2559 81.3724 75.3559C81.1624 74.5759 80.7624 74.0659 80.1524 73.5159C78.7024 72.2259 76.9224 71.7459 75.1224 71.1559C73.9524 70.7759 72.5124 70.8159 71.2924 70.9159C70.5124 70.9759 69.7824 71.2859 69.0224 71.3659" fill="#C8E7EA"/>
<path d="M70.3624 70.5451C67.9224 71.5151 65.7924 73.8151 66.4324 76.6351C66.7224 77.9251 67.6624 78.8851 68.6924 79.6451C69.3024 80.0951 69.9224 80.5851 70.6024 80.9251C71.3224 81.2851 72.1024 81.4651 72.8924 81.5751C73.6424 81.6751 74.3924 81.7051 75.1524 81.6851C76.0124 81.6551 76.9224 81.6851 77.7624 81.5151C78.5024 81.3751 79.1724 80.9951 79.8624 80.7051C80.4924 80.4451 81.0924 80.2051 81.5024 79.6451C81.8724 79.1351 82.1524 78.4851 82.2724 77.8751C82.4224 77.0951 82.1924 76.3751 81.9624 75.6351C81.7624 74.9851 81.5724 74.3951 81.1424 73.8551C80.6624 73.2451 80.0324 72.7451 79.3724 72.3351C78.6424 71.8851 77.8324 71.5451 77.0224 71.2651C76.2124 70.9851 75.3124 70.6251 74.4224 70.4751C73.5324 70.3251 72.6024 70.3251 71.6924 70.3851C70.7824 70.4451 69.9124 70.7451 69.0024 70.8551C68.3724 70.9351 68.3624 71.9351 69.0024 71.8551C69.6024 71.7751 70.1824 71.6051 70.7724 71.4851C71.4924 71.3451 72.2524 71.3351 72.9824 71.3451C74.3324 71.3751 75.5824 71.8051 76.8424 72.2551C78.1024 72.7051 79.3024 73.2951 80.1924 74.2751C80.6324 74.7551 80.8024 75.2851 80.9924 75.8951C81.2024 76.5651 81.4324 77.1951 81.2224 77.8951C81.0724 78.4151 80.8224 79.0251 80.3724 79.3451C79.9224 79.6651 79.2624 79.8651 78.7324 80.1051C77.4024 80.7051 75.8824 80.6951 74.4424 80.6851C73.1724 80.6751 71.8224 80.5151 70.7124 79.8451C69.7024 79.2451 68.5524 78.4851 67.8824 77.5051C67.1324 76.4251 67.1524 75.0351 67.7524 73.8851C68.3524 72.7351 69.4324 71.9751 70.6024 71.5151C71.1924 71.2851 70.9324 70.3151 70.3324 70.5551L70.3624 70.5451Z" fill="#231815"/>
<path d="M87.2024 71.6448C86.7724 71.1648 85.7524 71.3648 85.2724 71.6148C84.4424 72.0448 83.7524 72.6748 83.2724 73.4748C82.0524 75.4848 81.5824 77.9748 83.0324 79.9748C85.0524 82.7548 89.5324 83.2748 92.5924 82.2848C93.2624 82.0648 93.8324 81.6548 94.2224 81.0748C94.6224 80.4848 95.1824 79.6048 95.3424 78.9348C95.5024 78.2648 95.4424 77.5248 95.3224 76.8548C95.2524 76.4648 95.2324 75.9948 95.0924 75.6148C94.9724 75.2848 94.7324 75.0748 94.5624 74.7748C93.7424 73.3748 92.7624 72.2648 91.1424 71.7148C89.5124 71.1648 87.7024 71.2448 85.9924 71.1348" fill="#C8E7EA"/>
<path d="M87.5523 71.2952C86.5523 70.3652 85.0323 71.0452 84.1323 71.7652C82.9323 72.7152 82.1623 74.2052 81.8123 75.6752C81.1223 78.6052 82.6623 81.2452 85.3623 82.4352C87.6523 83.4452 90.7323 83.6452 93.0623 82.6452C94.3823 82.0852 95.3523 80.5852 95.7623 79.2452C95.9823 78.4952 95.9323 77.7052 95.8223 76.9452C95.6923 76.0752 95.5823 75.4452 95.0923 74.7152C94.1723 73.3452 93.3123 72.1052 91.7323 71.4352C89.9223 70.6652 87.9023 70.7752 85.9823 70.6652C85.3423 70.6252 85.3423 71.6252 85.9823 71.6652C88.6123 71.8152 91.4623 71.6352 93.3123 73.8552C93.6623 74.2852 93.9223 74.7652 94.2323 75.2152C94.4523 75.5452 94.6223 75.7652 94.7123 76.1652C94.7823 76.5052 94.8223 76.8652 94.8723 77.2052C95.0723 78.6352 94.5823 79.9452 93.6323 81.0352C92.9023 81.8752 91.6623 82.0952 90.6123 82.2052C89.5623 82.3152 88.4423 82.2752 87.3923 82.0452C85.2523 81.5752 83.0823 80.2352 82.6923 77.9152C82.4523 76.4752 82.9623 74.9552 83.7123 73.7352C84.0923 73.1252 84.5923 72.6152 85.2123 72.2352C85.6223 71.9852 86.4423 71.6052 86.8623 72.0052C87.3323 72.4452 88.0423 71.7352 87.5723 71.2952H87.5523Z" fill="#231815"/>
</svg>
