<svg width="115" height="95" viewBox="0 0 115 95" fill="none" xmlns="http://www.w3.org/2000/svg">
<path d="M82.5215 84C82.9015 84.35 83.3915 84.35 83.8515 84.53C84.4115 84.74 84.9615 85.16 85.4315 85.52C86.0415 85.98 86.3915 86.27 86.6615 86.99C86.8615 87.55 86.9715 88 86.9715 88.59C86.9715 89.67 87.1915 90.96 86.7615 91.96C86.1715 93.31 85.4615 94.1 83.9415 94.43C83.2915 94.57 82.8915 94.46 82.2615 94.35C81.6315 94.24 80.9615 94.49 80.3815 94.35C79.8415 94.22 79.0815 93.69 78.7715 93.23C78.4615 92.77 78.0815 92.26 77.9315 91.71C77.8415 91.37 77.6315 90.96 77.7015 90.6C77.7815 90.19 77.9015 89.75 78.0215 89.35C78.1315 88.99 78.2215 88.63 78.3715 88.29C78.5415 87.91 78.9115 87.47 78.9515 87.04" fill="#F4B3B1"/>
<path d="M82.1416 84.38C82.7916 84.9 83.6316 84.94 84.3316 85.38C84.9016 85.74 85.6216 86.19 85.9816 86.78C86.4216 87.51 86.4116 88.34 86.4416 89.16C86.4716 89.98 86.5816 90.87 86.2916 91.66C85.8116 92.96 84.7015 94 83.2415 93.95C82.8515 93.94 82.4716 93.81 82.0916 93.78C81.6516 93.75 81.2216 93.85 80.7916 93.84C80.0016 93.82 79.4015 93.2 78.9915 92.58C78.7215 92.17 78.5316 91.78 78.3816 91.32C78.2916 91.04 78.2216 90.84 78.2616 90.55C78.3016 90.31 78.3816 90.06 78.4416 89.83C78.5716 89.36 78.6816 88.85 78.9016 88.42C79.1216 87.99 79.3916 87.64 79.4716 87.17C79.6016 86.49 78.5615 86.2 78.4315 86.88C78.3515 87.34 78.0216 87.7 77.8516 88.13C77.6416 88.64 77.4916 89.19 77.3516 89.72C77.2216 90.22 77.0915 90.69 77.2115 91.21C77.3215 91.68 77.5016 92.18 77.7316 92.61C78.1816 93.43 78.7516 94.17 79.5916 94.61C80.5216 95.1 81.4715 94.76 82.4615 94.93C84.1415 95.22 85.8015 94.6 86.7415 93.14C87.2515 92.35 87.5215 91.5 87.5515 90.56C87.5615 90.07 87.5316 89.57 87.5116 89.08C87.4916 88.59 87.5116 88.06 87.3916 87.55C87.1716 86.54 86.7016 85.81 85.8916 85.19C85.4516 84.85 85.0016 84.5 84.5016 84.23C84.0016 83.96 83.3116 83.95 82.9016 83.61C82.3616 83.18 81.6016 83.94 82.1416 84.37V84.38Z" fill="#231815"/>
<path d="M54.932 72.5995C54.582 72.9595 53.932 73.1495 53.522 73.4895C53.012 73.8995 52.182 74.4995 51.552 74.6995C50.742 74.9595 50.082 75.4695 49.282 75.7695C48.602 76.0195 47.912 76.2395 47.232 76.4795C46.662 76.6795 46.272 76.8595 45.652 76.8795C45.082 76.8895 44.522 77.0295 44.232 77.5495C43.942 78.0695 43.842 78.7595 43.662 79.3295C43.552 79.6695 43.372 80.0195 43.272 80.3495C43.152 80.7295 43.092 80.7195 43.512 80.9895C43.742 81.1395 44.102 81.2395 44.372 81.2995C44.782 81.3895 45.052 81.4895 45.432 81.6495C46.042 81.9095 46.632 82.1995 47.262 82.3995C48.442 82.7895 49.632 83.0795 50.792 83.5095C51.212 83.6695 51.622 83.9195 52.072 84.0095C52.492 84.0995 53.062 84.0095 53.492 84.0095C53.942 84.0095 54.302 84.1695 54.742 84.1895C55.082 84.2095 56.332 83.7495 56.352 84.1795C56.132 84.4095 55.822 84.5195 55.622 84.7595C55.362 85.0595 55.312 85.4195 55.172 85.7695C54.882 86.4895 54.652 87.1495 54.762 87.9395C54.852 88.5895 54.872 89.3195 55.142 89.9195C55.422 90.5595 55.862 91.1695 56.352 91.6695C56.762 92.0895 57.122 92.6895 57.592 93.0095C58.152 93.3995 58.912 93.5495 59.562 93.6395C60.282 93.7395 60.962 94.1295 61.702 94.1595C62.062 94.1795 62.392 94.1295 62.742 94.1895C63.092 94.2495 63.112 94.2195 63.482 94.1395C63.892 94.0495 64.402 94.1795 64.832 94.1595C65.112 94.1495 65.352 94.0395 65.622 93.9895C65.912 93.9395 66.212 94.0095 66.502 93.9595C67.382 93.7995 68.262 93.6095 69.172 93.6195C70.302 93.6195 71.452 93.3595 72.552 93.0895C73.142 92.9395 73.752 92.8495 74.342 92.7095C74.852 92.5895 75.352 92.3495 75.862 92.2195C76.932 91.9395 77.832 91.5195 78.792 90.9495C79.392 90.5895 80.112 90.2895 80.542 89.7195C80.802 89.3795 80.942 88.9595 81.152 88.5895C81.302 88.3295 81.502 88.0995 81.632 87.8395C82.162 86.7095 83.012 85.6395 83.652 84.5395C84.112 83.7395 84.622 82.9395 84.942 82.0595C85.122 81.5695 85.322 80.9995 85.882 80.8395C86.442 80.6795 87.012 80.7095 87.572 80.6495C88.742 80.5195 90.092 80.1595 91.182 79.6595C92.182 79.1995 93.022 78.5995 93.932 78.0095C94.522 77.6295 94.922 77.3295 95.362 76.7595C95.602 76.4495 95.862 76.2595 95.872 75.8395C95.872 75.5095 95.762 75.0695 95.672 74.7495C95.592 74.4695 95.562 74.3395 95.542 74.0495C95.522 73.7895 95.522 73.2995 95.292 73.1195C95.022 72.8995 94.432 73.1495 94.112 73.1595C93.792 73.1695 93.452 73.1595 93.132 73.1595C92.382 73.1595 91.702 73.3395 90.942 73.3395C90.252 73.3395 89.552 73.3395 88.862 73.3395C87.302 73.3395 85.752 73.2295 84.222 72.9995C83.502 72.8895 82.832 72.8195 82.142 72.5795C81.782 72.4495 81.432 72.4195 81.072 72.2795C80.802 72.1695 80.302 71.8395 80.042 72.0995" fill="#F4B3B1"/>
<path d="M54.5418 72.2193C54.1818 72.5393 53.7018 72.6893 53.3118 72.9693C52.9218 73.2493 52.5518 73.5493 52.1418 73.8093C51.7318 74.0693 51.3118 74.1993 50.8818 74.3893C50.3718 74.6093 49.9018 74.9093 49.3918 75.1393C48.7918 75.4093 48.1518 75.5893 47.5318 75.7993C46.9918 75.9793 46.4318 76.2493 45.8618 76.3193C44.9818 76.4293 44.1818 76.4693 43.7218 77.3493C43.5118 77.7493 43.4018 78.1993 43.2918 78.6393C43.1518 79.1793 42.9318 79.6693 42.7518 80.1993C42.4718 81.0193 43.0418 81.4393 43.7818 81.6893C44.2218 81.8393 44.6718 81.9093 45.1118 82.0893C45.6518 82.3093 46.1718 82.5693 46.7118 82.7693C47.8218 83.1893 48.9818 83.4593 50.1118 83.8393C50.6918 84.0393 51.2518 84.3593 51.8418 84.5093C52.4018 84.6493 52.9418 84.5293 53.5018 84.5393C54.0318 84.5493 54.5218 84.7693 55.0618 84.6893C55.2218 84.6693 55.3817 84.6293 55.5517 84.5893C55.6317 84.5693 55.7418 84.5693 55.8218 84.5393H55.9318C56.1318 84.5393 56.1018 84.4793 55.8418 84.3093L55.9818 83.7893C55.5518 84.1693 55.1518 84.3693 54.9118 84.9293C54.6618 85.5093 54.4118 86.1593 54.2818 86.7793C54.0618 87.8893 54.2718 89.3693 54.7718 90.3793C55.0418 90.9293 55.4218 91.4393 55.8318 91.8893C56.2418 92.3393 56.6118 92.8793 57.0818 93.2793C58.0218 94.0793 59.3518 94.0893 60.4818 94.4393C61.1118 94.6393 61.6718 94.6693 62.3218 94.6993C62.5618 94.6993 62.8017 94.7693 63.0517 94.7693C63.3617 94.7693 63.6418 94.6493 63.9518 94.6593C64.2418 94.6593 64.5318 94.7193 64.8318 94.6993C65.1318 94.6793 65.4118 94.5693 65.7018 94.5293C66.0118 94.4893 66.3318 94.5293 66.6418 94.4793C67.0518 94.4193 67.4518 94.3193 67.8518 94.2593C68.5518 94.1493 69.2518 94.1793 69.9618 94.1193C70.6718 94.0593 71.3417 93.9193 72.0217 93.7693C72.7017 93.6193 73.3618 93.4693 74.0318 93.3293C74.7718 93.1793 75.4818 92.8993 76.2018 92.6793C77.4418 92.3093 78.5518 91.6993 79.6718 91.0593C80.1318 90.7993 80.5718 90.5093 80.9118 90.0893C81.3218 89.5793 81.5518 88.9493 81.9018 88.3993C82.2518 87.8493 82.5118 87.2693 82.8618 86.7293C83.2718 86.0893 83.7118 85.4593 84.0918 84.7993C84.4218 84.2393 84.7518 83.6893 85.0418 83.1093C85.2718 82.6393 85.4018 81.8893 85.7718 81.5093C86.1918 81.0793 87.1918 81.2093 87.7518 81.1393C88.3918 81.0593 89.0218 80.9393 89.6418 80.7593C90.9318 80.3993 92.1018 79.8093 93.2318 79.0793C94.2918 78.3893 95.2918 77.7493 96.0518 76.7193C96.3718 76.2793 96.4318 75.8393 96.3518 75.3093C96.2618 74.7293 96.1118 74.1893 96.0418 73.6093C95.9818 73.1093 95.7818 72.6393 95.2518 72.5093C94.9718 72.4393 94.6918 72.4993 94.4118 72.5493C94.0618 72.6093 93.7318 72.5993 93.3818 72.5993C92.5618 72.5993 91.7618 72.7593 90.9518 72.7793C90.1418 72.7993 89.4018 72.7793 88.6218 72.7793C86.8818 72.7693 85.1418 72.6093 83.4218 72.3193C82.7018 72.1993 81.9118 72.0193 81.2318 71.7393C80.7318 71.5393 80.2818 71.2693 79.7718 71.6093C79.1918 71.9893 79.7318 72.9193 80.3118 72.5393C80.4018 72.4793 80.7118 72.6893 80.8018 72.7193C81.0518 72.8293 81.3118 72.8893 81.5718 72.9593C82.2018 73.1193 82.8018 73.3093 83.4518 73.4093C84.7218 73.6093 85.9918 73.7593 87.2718 73.8193C88.5518 73.8793 89.8818 73.9093 91.1818 73.8493C91.7618 73.8193 92.3418 73.6993 92.9218 73.6793C93.5018 73.6593 94.0518 73.7093 94.6218 73.6093C94.9418 73.5493 94.9418 73.5293 94.9918 73.8393C95.0218 74.0393 95.0118 74.2493 95.0518 74.4493C95.1418 74.9393 95.4918 75.5693 95.2418 76.0493C94.7018 77.0593 93.4318 77.6893 92.5118 78.2793C91.4618 78.9493 90.3718 79.4693 89.1618 79.7893C88.6018 79.9393 88.0418 80.0493 87.4618 80.1093C86.8818 80.1693 86.2818 80.1393 85.7318 80.3093C84.7118 80.6293 84.5418 81.7193 84.1218 82.5693C83.5918 83.6593 82.9218 84.6893 82.2518 85.7093C81.6218 86.6693 80.9918 87.6693 80.4818 88.6993C80.2118 89.2393 79.9518 89.6293 79.4418 89.9493C78.9918 90.2393 78.5018 90.4993 78.0318 90.7593C76.9518 91.3493 75.7918 91.6893 74.6318 92.0693C74.0518 92.2593 73.4518 92.3393 72.8518 92.4693C72.1818 92.6093 71.5218 92.7993 70.8418 92.9193C69.6118 93.1493 68.3618 93.0793 67.1218 93.2993C66.5418 93.3993 65.9418 93.3793 65.3718 93.4893C65.0818 93.5493 64.8418 93.6293 64.5418 93.6093C64.2418 93.5893 63.9518 93.5493 63.6618 93.5693C63.3918 93.5893 63.1518 93.6793 62.8818 93.6693C62.5918 93.6693 62.3018 93.6193 62.0118 93.6193C61.3018 93.6193 60.7018 93.3393 60.0318 93.1793C59.4118 93.0293 58.7718 93.0093 58.1918 92.7293C57.6618 92.4793 57.3518 91.9793 56.9818 91.5493C56.5318 91.0193 56.0718 90.5493 55.7518 89.9193C55.4318 89.2893 55.3818 88.6093 55.3118 87.9293C55.2418 87.2493 55.3918 86.6993 55.6218 86.0893C55.7318 85.7993 55.8018 85.4193 55.9818 85.1693C56.1618 84.9193 56.5118 84.7493 56.7418 84.5393C56.8818 84.4093 56.9218 84.1893 56.8818 84.0193C56.7018 83.3293 55.9418 83.4193 55.4018 83.5193C55.0718 83.5793 54.8218 83.6493 54.4818 83.5993C53.9718 83.5093 53.5218 83.4493 53.0018 83.4793C51.9118 83.5393 50.9818 82.9693 49.9618 82.6393C48.9418 82.3093 47.8217 82.0493 46.8017 81.6393C46.3017 81.4393 45.8218 81.1993 45.3218 80.9993C44.8918 80.8293 44.4118 80.7893 43.9918 80.5993C43.9018 80.5593 43.7418 80.4193 43.6518 80.4093C43.8218 80.4393 43.6118 80.6693 43.7818 80.5393C43.8818 80.4693 43.9818 79.9993 44.0418 79.8593C44.2418 79.3693 44.3418 78.8593 44.4918 78.3493C44.6318 77.8893 44.7818 77.5293 45.2918 77.4293C45.7618 77.3393 46.2218 77.3593 46.6918 77.2193C47.7418 76.8993 48.8418 76.5493 49.8418 76.0993C50.3618 75.8693 50.8418 75.5593 51.3618 75.3293C51.8518 75.1193 52.3118 74.9593 52.7718 74.6693C53.1818 74.4093 53.5418 74.0993 53.9318 73.8293C54.3918 73.5193 54.8917 73.3393 55.3017 72.9693C55.8117 72.4993 55.0518 71.7393 54.5418 72.2093V72.2193Z" fill="#231815"/>
<path d="M51.0118 47.319C50.8018 47.139 50.6819 46.449 50.6419 46.179C50.5919 45.799 50.6919 45.429 50.6119 45.039C50.5019 44.509 50.4718 44.089 50.4718 43.539C50.4718 41.899 50.5718 40.289 50.8118 38.689C50.9118 38.039 50.9518 37.379 51.0918 36.729C51.2618 35.939 51.5618 35.399 51.9018 34.689C52.2718 33.909 52.4118 33.129 52.8718 32.389C53.2818 31.739 53.9418 31.179 54.5618 30.729C55.7118 29.889 57.3418 29.259 58.6918 29.979C60.2018 30.779 61.3619 32.089 62.1419 33.609C62.9519 35.199 63.4818 36.839 63.7918 38.599C63.9418 39.439 64.0119 40.249 64.0119 41.089C64.0119 41.929 64.1018 42.809 63.8818 43.639C63.8018 43.959 63.7118 44.299 63.5518 44.589C63.4518 44.759 63.0118 45.159 63.1218 45.379C63.3618 45.869 65.0518 45.389 65.4418 45.319C66.8118 45.059 68.4719 45.159 69.7319 45.799C69.7319 45.249 69.4418 44.679 69.3718 44.129C69.3218 43.739 69.3718 43.349 69.3418 42.959C69.2818 42.329 69.2118 41.719 69.1818 41.089C69.1518 40.199 68.9519 39.309 68.8319 38.429C68.7119 37.549 68.8218 36.679 68.8218 35.839C68.8218 35.069 68.9218 34.359 69.0218 33.599C69.1518 32.579 69.6218 31.799 69.9618 30.859C70.1918 30.219 70.4019 29.589 70.7019 28.989C71.0119 28.369 71.7818 27.969 72.3818 27.669C73.7318 26.999 75.4118 27.149 76.8418 27.399C77.5518 27.529 78.2618 28.269 78.7618 28.769C79.0218 29.029 79.2718 29.299 79.5618 29.529C79.9218 29.819 80.1318 30.119 80.4418 30.459C80.9418 31.009 81.2918 31.539 81.6518 32.199C82.0318 32.909 82.2118 33.609 82.5518 34.339C82.8918 35.069 82.8818 35.779 83.0318 36.519C83.2318 37.479 83.2618 38.339 83.2618 39.309C83.2618 40.339 83.3319 41.349 83.0819 42.349C82.8519 43.279 82.7218 44.259 82.5518 45.199C82.4018 45.999 82.2318 46.739 81.9718 47.519C81.7718 48.129 81.3519 48.689 81.1719 49.299C81.3319 49.559 81.9319 49.609 82.2019 49.699C82.5519 49.819 82.9018 49.889 83.2618 49.959C84.0618 50.119 84.7718 50.339 85.5218 50.669C87.3218 51.459 88.8118 52.529 90.2118 53.929C91.3718 55.099 92.7118 56.329 93.3718 57.869C93.7018 58.649 93.7318 59.519 93.9418 60.319C94.2118 61.339 94.0818 62.209 93.9418 63.219C93.8418 63.869 93.7118 64.489 93.5018 65.129C93.3818 65.499 93.1918 65.829 93.0518 66.199C92.9118 66.569 92.8619 66.929 92.6719 67.259C92.4719 67.599 92.1419 67.909 91.8919 68.229C91.5919 68.619 91.3218 69.069 90.9318 69.379C90.6418 69.609 90.3318 69.819 90.0418 70.059C89.5718 70.439 89.1219 71.029 88.6119 71.329C88.3319 71.489 87.9818 71.509 87.6918 71.659C87.2718 71.879 87.0118 72.109 86.5518 72.249C85.6718 72.529 84.8118 72.829 83.9318 73.089C83.1418 73.329 82.3018 73.559 81.4818 73.649C81.1118 73.689 80.7418 73.649 80.3718 73.699C79.8318 73.789 79.3618 73.839 78.8118 73.839C76.9718 73.839 75.1418 73.839 73.3018 73.839C72.5718 73.839 71.9018 73.669 71.1918 73.659C70.4018 73.639 69.6018 73.659 68.8118 73.659C67.0718 73.659 65.3219 73.729 63.5819 73.659C63.1519 73.639 62.7618 73.499 62.3418 73.469C61.8418 73.429 61.3218 73.469 60.8218 73.469C59.7418 73.469 58.5918 73.589 57.5418 73.379C56.7618 73.229 55.9518 73.239 55.1618 73.119C54.3718 72.999 53.5718 72.859 52.7718 72.749C51.0618 72.529 49.5618 71.859 48.0118 71.159C47.2318 70.809 46.3619 70.539 45.6419 70.089C44.9219 69.639 44.2318 69.349 43.5018 68.979C43.0818 68.769 42.9518 68.449 42.6218 68.119C42.2918 67.789 42.0218 67.549 41.7318 67.189C41.0318 66.329 40.2618 65.529 39.5818 64.659C38.2218 62.909 38.2518 60.569 38.5518 58.509C38.7118 57.439 39.0918 56.539 39.4618 55.529C39.6818 54.919 39.7518 54.349 40.0918 53.769C40.4318 53.189 40.7418 52.679 41.0618 52.139C41.4518 51.489 41.7718 50.629 42.4818 50.279C43.2718 49.879 44.0718 49.479 44.8818 49.149C46.5818 48.469 48.4518 48.179 50.1318 47.479" fill="white"/>
<path d="M51.3917 46.9399C51.0117 46.4999 51.2216 45.5599 51.1516 45.0499C51.0516 44.2099 51.0016 43.4099 51.0316 42.5699C51.0816 40.8199 51.2516 39.0499 51.5316 37.3199C51.6416 36.6199 51.8816 35.9899 52.1916 35.3399C52.5816 34.5399 52.8016 33.6399 53.2216 32.8599C53.9016 31.6299 55.4217 30.5399 56.7917 30.2599C58.3117 29.9499 59.6416 31.1099 60.5616 32.1899C61.5816 33.3899 62.2216 34.8999 62.6916 36.3799C63.2016 37.9899 63.4416 39.6199 63.4616 41.3099C63.4716 42.1099 63.5116 42.8999 63.3016 43.6799C63.2016 44.0299 63.0816 44.2899 62.8716 44.5699C62.7116 44.7799 62.5616 45.0099 62.5616 45.2799C62.5616 46.4699 64.3416 46.0999 65.0216 45.9499C66.5016 45.6399 68.0417 45.5799 69.4517 46.2499C69.7917 46.4099 70.2917 46.2299 70.2617 45.7799C70.2117 45.0499 69.8916 44.3799 69.8716 43.6399C69.8516 42.7799 69.7616 41.9299 69.7116 41.0599C69.6616 40.2799 69.5317 39.5099 69.4217 38.7399C69.3117 37.9699 69.3216 37.2299 69.3416 36.4599C69.3916 34.8599 69.4717 33.3699 70.1117 31.8799C70.3817 31.2299 70.6017 30.5699 70.8617 29.9199C71.1717 29.1299 71.5117 28.7099 72.2617 28.3099C73.5817 27.5999 75.0516 27.5999 76.5016 27.8599C77.1816 27.9799 77.6516 28.3999 78.1316 28.8799C78.6116 29.3599 79.1716 29.8199 79.6316 30.3299C81.7616 32.6999 82.6717 35.7699 82.7017 38.9199C82.7117 39.8399 82.7817 40.7999 82.6417 41.7099C82.5117 42.5599 82.2917 43.3999 82.1417 44.2599C81.9917 45.1199 81.8516 45.9099 81.6216 46.7199C81.3816 47.5699 80.9016 48.2999 80.6316 49.1299C80.5716 49.3199 80.6416 49.5199 80.7716 49.6499C81.1716 50.0899 81.9117 50.1699 82.4517 50.3099C83.3017 50.5299 84.1417 50.6699 84.9517 50.9899C86.4517 51.5899 87.8416 52.4899 89.0516 53.5599C90.2616 54.6299 91.4416 55.7499 92.3016 57.0499C92.7416 57.7199 93.0116 58.4099 93.1516 59.1999C93.3116 60.0799 93.5716 60.9499 93.5216 61.8599C93.4416 63.5699 92.9116 65.1799 92.2716 66.7499C92.1216 67.1099 91.8517 67.3699 91.6117 67.6699C91.3717 67.9699 91.1617 68.2899 90.9217 68.5799C90.4017 69.1999 89.6517 69.6099 89.0717 70.1799C88.8017 70.4499 88.5416 70.7399 88.1916 70.8899C87.8616 71.0299 87.5416 71.0999 87.2216 71.2699C86.4616 71.6899 85.6817 71.9399 84.8617 72.2099C84.0417 72.4799 83.2616 72.7299 82.4416 72.9199C81.5416 73.1299 80.6116 73.1499 79.6916 73.2499C77.8316 73.4499 75.8817 73.2999 74.0117 73.2999C73.1417 73.2999 72.2917 73.1799 71.4217 73.1299C70.4717 73.0699 69.5217 73.1199 68.5717 73.1299C66.7817 73.1299 64.8617 73.3699 63.1017 73.0699C61.4717 72.7899 59.8216 73.0999 58.1816 72.9499C56.2816 72.7799 54.3516 72.5199 52.4716 72.1899C50.7916 71.8999 49.3116 71.1399 47.7516 70.4899C46.9716 70.1699 46.2616 69.8299 45.5316 69.4199C44.8016 69.0099 43.8917 68.7799 43.3517 68.1699C42.2117 66.8699 40.9417 65.6599 39.9317 64.2499C38.9217 62.8399 38.8216 60.9899 39.0016 59.2899C39.1016 58.3299 39.3416 57.4399 39.6716 56.5399C40.0016 55.6399 40.2017 54.6799 40.6817 53.8599C41.1317 53.0899 41.5716 52.2999 42.0316 51.5399C42.5516 50.6899 43.5116 50.3599 44.3916 49.9599C46.2916 49.0999 48.3617 48.7899 50.2917 48.0099C50.9217 47.7499 50.6516 46.7099 50.0016 46.9699C48.2216 47.6899 46.3016 47.9899 44.5216 48.7299C43.6716 49.0799 42.6717 49.4499 41.9317 50.0099C41.3617 50.4299 41.0616 51.0699 40.7216 51.6699C40.2816 52.4499 39.7217 53.1999 39.3817 54.0299C39.0417 54.8599 38.8116 55.7299 38.5216 56.5599C37.9616 58.1599 37.7217 59.9399 37.9017 61.6199C38.0817 63.2999 38.8317 64.6599 39.9617 65.9699C40.5917 66.6899 41.1816 67.4599 41.8616 68.1399C42.4816 68.7599 42.9216 69.3099 43.7216 69.6999C44.5216 70.0899 45.3016 70.5899 46.1216 70.9699C46.9416 71.3499 47.8017 71.6799 48.6417 72.0499C49.4817 72.4199 50.2716 72.7399 51.1216 72.9799C52.0816 73.2499 53.0816 73.3499 54.0616 73.4999C55.0416 73.6499 56.0216 73.7299 57.0016 73.8499C57.9216 73.9699 58.7917 74.0699 59.7317 74.0399C60.6717 74.0099 61.5917 73.8999 62.4817 74.0299C63.4117 74.1599 64.3016 74.2299 65.2516 74.2299C67.2716 74.2299 69.3016 74.0999 71.3116 74.1999C72.3016 74.2499 73.2617 74.3799 74.2617 74.3799C75.2617 74.3799 76.2516 74.3799 77.2516 74.3799C78.1916 74.3799 79.1316 74.4199 80.0616 74.2899C81.0416 74.1599 81.9916 74.1499 82.9616 73.9099C83.9316 73.6699 84.7917 73.3799 85.7017 73.0799C86.1117 72.9399 86.5316 72.8299 86.9316 72.6699C87.2916 72.5199 87.5917 72.2799 87.9517 72.1199C88.3117 71.9599 88.6816 71.9099 89.0216 71.6899C89.3616 71.4699 89.6417 71.1699 89.9217 70.8899C90.5417 70.2699 91.3217 69.8499 91.8617 69.1599C92.3317 68.5499 92.9716 67.9499 93.2716 67.2299C93.4216 66.8599 93.5016 66.4799 93.6616 66.1099C93.8316 65.7299 93.9917 65.3499 94.1117 64.9499C94.3617 64.0999 94.5016 63.1999 94.5916 62.3199C94.6916 61.3899 94.5216 60.5699 94.3416 59.6699C94.1616 58.7699 94.0417 57.9499 93.6117 57.1399C93.2217 56.4099 92.7016 55.7499 92.1516 55.1399C89.8616 52.6099 87.1316 50.2699 83.7216 49.4999C83.2916 49.3999 82.8616 49.3199 82.4416 49.1999C82.1916 49.1299 81.7217 49.1099 81.5417 48.9099L81.6816 49.4299C81.9416 48.6299 82.4017 47.9399 82.6417 47.1299C82.8817 46.3199 83.0416 45.4299 83.1916 44.5699C83.3416 43.7099 83.5416 42.8799 83.6916 42.0199C83.8416 41.1599 83.8017 40.2899 83.7917 39.4199C83.7817 38.5499 83.7616 37.6899 83.6316 36.8399C83.5016 35.9899 83.4016 35.0199 83.0616 34.1899C82.7616 33.4299 82.4917 32.6499 82.1117 31.9199C81.7317 31.1899 81.2316 30.5499 80.6916 29.9299C80.2116 29.3799 79.6617 28.9099 79.1417 28.3899C78.6217 27.8699 78.1116 27.3299 77.4416 27.0299C76.8316 26.7599 76.0817 26.7199 75.4217 26.6699C74.6217 26.6099 73.7917 26.6399 73.0117 26.8499C72.3617 27.0299 71.7217 27.3499 71.1717 27.7299C70.5317 28.1799 70.2016 28.7299 69.9116 29.4399C69.3016 30.9299 68.6317 32.4299 68.4217 34.0399C68.1817 35.9699 68.2116 37.8499 68.5016 39.7599C68.6616 40.7999 68.7416 41.8899 68.8016 42.9399C68.8316 43.3799 68.7817 43.8199 68.8517 44.2599C68.9317 44.7799 69.1616 45.2599 69.1916 45.7899L70.0016 45.3199C68.5716 44.6399 66.9417 44.4899 65.3917 44.7699C64.9517 44.8499 64.5316 44.9799 64.0916 45.0299C63.9716 45.0399 63.8217 45.0299 63.7017 45.0499H63.5817C63.4217 44.9899 63.4416 45.0899 63.6516 45.3399C63.7816 45.3399 64.0917 44.7099 64.1317 44.6099C64.4517 43.8699 64.5616 43.0499 64.5616 42.2499C64.5616 41.2599 64.5616 40.2499 64.4316 39.2699C64.2216 37.5699 63.7517 35.8999 63.0717 34.3299C61.9517 31.7499 59.4516 28.3599 56.2116 29.2899C54.7916 29.6999 53.3517 30.7399 52.5117 31.9499C52.0517 32.6099 51.8616 33.3899 51.5616 34.1199C51.2216 34.9499 50.7717 35.7099 50.5717 36.5899C50.3717 37.4699 50.2917 38.4799 50.1717 39.4099C50.0317 40.5399 49.9616 41.6699 49.9416 42.8099C49.9216 43.7999 50.0916 44.7599 50.0916 45.7299C50.0916 46.3999 50.1716 47.1699 50.6216 47.6999C51.0716 48.2299 51.8317 47.4599 51.3817 46.9399H51.3917Z" fill="#231815"/>
<path d="M61.9817 53.2903C62.0817 53.1103 62.1817 52.9303 62.3017 52.7503C62.3517 52.6703 62.4017 52.6003 62.4517 52.5203C62.5017 52.4503 62.4517 52.5203 62.4817 52.4703C62.5117 52.4303 62.5417 52.4003 62.5717 52.3603C62.7917 52.1103 63.0117 51.8403 63.2617 51.6103C63.2817 51.5903 63.3617 51.5303 63.2817 51.5903C63.3117 51.5703 63.3417 51.5503 63.3717 51.5303C63.4417 51.5103 63.4317 51.4903 63.3717 51.5303C63.3917 51.5303 63.5017 51.5103 63.4017 51.5203C63.4817 51.5203 63.5717 51.5203 63.6517 51.5203C63.5317 51.5103 63.6917 51.5303 63.7017 51.5403C63.7417 51.5503 63.7817 51.5603 63.8217 51.5803C63.8817 51.6003 63.7617 51.5503 63.8517 51.5903C63.8917 51.6103 63.9417 51.6403 63.9817 51.6603C64.0117 51.6803 64.0417 51.6903 64.0617 51.7103C64.0617 51.7103 64.1917 51.8103 64.1117 51.7503C64.2517 51.8703 64.3817 52.0103 64.5017 52.1503C64.6817 52.3703 65.0817 52.3503 65.2617 52.1503C65.4817 51.9103 65.4517 51.6203 65.2617 51.3903C64.9617 51.0103 64.5717 50.7103 64.1217 50.5503C63.6717 50.3903 63.1317 50.3903 62.7417 50.6603C62.4017 50.9003 62.1617 51.2303 61.8717 51.5203C61.5217 51.8803 61.2817 52.3103 61.0317 52.7403C60.8917 52.9803 60.9617 53.3403 61.2217 53.4803C61.4817 53.6203 61.8117 53.5503 61.9617 53.2903H61.9817Z" fill="#231815"/>
<path d="M68.1915 51.88C68.4215 51.73 68.6316 51.56 68.8616 51.42C68.9216 51.38 68.9815 51.35 69.0415 51.32C69.0715 51.3 69.1015 51.29 69.1315 51.27C69.0815 51.29 69.0816 51.29 69.1416 51.27C69.2016 51.25 69.2716 51.23 69.3316 51.22C69.2116 51.24 69.4115 51.22 69.4315 51.22C69.3215 51.22 69.5015 51.24 69.5315 51.25C69.5915 51.27 69.5815 51.27 69.5115 51.24C69.5315 51.25 69.5515 51.26 69.5715 51.28C69.5615 51.28 69.4715 51.2 69.5615 51.28C69.6015 51.32 69.5915 51.31 69.5415 51.25C69.5515 51.27 69.5716 51.29 69.5816 51.31C69.7116 51.53 69.8615 51.75 70.0515 51.93C70.1315 52.01 70.2215 52.07 70.3015 52.15C70.3415 52.19 70.3816 52.23 70.4216 52.27C70.3416 52.17 70.4615 52.34 70.4715 52.36C70.4415 52.3 70.4715 52.38 70.4815 52.39C70.4815 52.42 70.4915 52.44 70.5015 52.47C70.5215 52.56 70.5315 52.65 70.5515 52.73C70.6215 53.15 70.6915 53.76 71.1915 53.89C71.4615 53.96 71.7915 53.8 71.8515 53.51C71.9115 53.22 71.7715 52.92 71.4715 52.85C71.5715 52.88 71.6615 52.95 71.7115 53.03C71.6515 52.94 71.7215 53.07 71.7115 53.07C71.6915 53.07 71.6515 52.88 71.6515 52.85C71.6115 52.7 71.5915 52.54 71.5715 52.39C71.5015 51.99 71.3515 51.64 71.0515 51.36C70.9915 51.3 70.9316 51.25 70.8616 51.2C70.8316 51.17 70.8015 51.14 70.7715 51.11C70.7515 51.09 70.6615 50.99 70.7115 51.06C70.5915 50.9 70.5015 50.72 70.3815 50.56C70.0715 50.17 69.5015 50.09 69.0415 50.18C68.5115 50.29 68.1116 50.66 67.6716 50.95C67.4316 51.1 67.3115 51.44 67.4815 51.69C67.6315 51.93 67.9615 52.05 68.2215 51.88H68.1915Z" fill="#231815"/>
<path d="M62.2417 67.4798C62.0517 68.1398 61.7817 68.8498 62.1517 69.4998C62.4517 70.0398 62.9717 70.2598 63.5717 70.2998C64.0817 70.3298 64.5817 70.2998 65.0117 69.9898C65.2517 69.8098 65.5317 69.6798 65.7617 69.4898C65.8817 69.3898 65.9717 69.2798 66.0517 69.1498C66.1017 69.0798 66.1317 68.9398 66.2017 68.8898L65.4117 68.5698C65.8017 69.6498 66.9017 70.3498 68.0517 70.3298C69.0717 70.3098 70.0617 69.6898 69.8717 68.5598C69.8217 68.2698 69.4717 68.1098 69.2117 68.1798C68.9117 68.2598 68.7817 68.5598 68.8317 68.8398C68.8617 68.9898 68.7417 69.0698 68.5817 69.1398C68.3817 69.2298 68.1417 69.2598 67.9217 69.2398C67.3217 69.1998 66.6617 68.8598 66.4517 68.2798C66.3417 67.9798 65.9617 67.7398 65.6617 67.9598C65.4617 68.0998 65.3317 68.2598 65.2017 68.4598C65.0717 68.6598 65.0117 68.6798 64.8017 68.8098C64.5017 68.9898 64.3617 69.2098 64.0317 69.2198C63.7717 69.2298 63.3617 69.2798 63.1617 69.0698C62.8517 68.7398 63.1817 68.1198 63.2817 67.7598C63.4817 67.0898 62.4417 66.8098 62.2417 67.4698V67.4798Z" fill="#231815"/>
<path d="M44.9613 76.3396C44.2913 75.6496 43.6313 75.3996 42.6713 75.4396C41.8013 75.4796 40.5313 76.0196 39.9713 76.7196C39.2313 77.6596 39.1113 79.0796 39.4813 80.1696C39.8513 81.2596 40.5113 81.7496 41.5013 82.1096C43.0313 82.6796 45.5813 81.7496 46.1913 80.1696C46.6713 78.9296 46.2414 77.4396 45.3214 76.5196" fill="#F4B3B1"/>
<path d="M45.3416 75.9593C44.7316 75.3393 44.0016 74.9693 43.1216 74.9093C42.2416 74.8493 41.4416 75.0993 40.7016 75.4793C39.9216 75.8893 39.3516 76.4893 39.0216 77.3193C38.6916 78.1493 38.6516 79.0893 38.8516 79.9493C39.2116 81.5093 40.5216 82.6293 42.1116 82.7993C43.5216 82.9593 45.1616 82.3693 46.1016 81.2993C47.4216 79.7993 47.0116 77.4993 45.6916 76.1393C45.2116 75.6393 44.4416 76.3993 44.9316 76.8993C45.7816 77.7693 46.2116 79.2893 45.4716 80.3593C44.8816 81.2093 43.7116 81.6793 42.7016 81.7293C41.6216 81.7793 40.5016 81.2293 40.0616 80.2093C39.5816 79.0993 39.7216 77.4693 40.7516 76.7093C41.2816 76.3093 42.0016 76.0193 42.6616 75.9793C43.4316 75.9393 44.0316 76.1693 44.5716 76.7193C45.0616 77.2093 45.8216 76.4493 45.3316 75.9593H45.3416Z" fill="#231815"/>
<path d="M95.8717 71.3614C95.1417 71.4614 94.2417 71.9014 93.7217 72.4114C93.3717 72.7614 93.2617 73.4114 93.0617 73.8614C92.8517 74.3314 92.8317 74.6014 92.8417 75.1414C92.8517 75.6814 92.7617 76.0814 93.0217 76.5214C93.2917 76.9914 93.6417 77.2114 94.1017 77.5114C95.0017 78.0914 95.9717 78.4814 97.0317 78.4814C97.4317 78.4814 97.8417 78.5514 98.1917 78.3214C98.3817 78.1914 98.5217 77.9614 98.7117 77.8214C98.9617 77.6314 99.2117 77.4914 99.4317 77.2514C100.182 76.4314 100.742 75.3314 100.682 74.2214C100.622 73.1814 99.7717 72.4314 98.9417 71.9014C97.9117 71.2414 97.0517 71.1914 95.8717 71.1914" fill="#F4B3B1"/>
<path d="M95.7317 70.8406C94.8817 70.9806 93.9416 71.4006 93.3516 72.0306C93.0916 72.3106 92.9316 72.6506 92.8116 73.0106C92.6916 73.3706 92.5016 73.7606 92.4016 74.1406C92.3016 74.5206 92.3216 74.9306 92.3116 75.3306C92.3116 75.7706 92.2917 76.2006 92.4817 76.6206C92.8317 77.4206 93.6616 77.9206 94.4116 78.3106C95.2416 78.7506 96.1116 78.9906 97.0416 79.0206C97.4916 79.0306 97.9616 79.0706 98.3716 78.8406C98.5616 78.7406 98.7016 78.6006 98.8516 78.4506C99.0316 78.2606 99.2216 78.1306 99.4316 77.9706C100.802 76.9406 101.762 74.7306 100.942 73.1106C100.512 72.2706 99.6517 71.6106 98.8317 71.1906C97.9017 70.7206 96.9117 70.6406 95.8917 70.6406C95.2017 70.6406 95.2017 71.7206 95.8917 71.7206C96.5817 71.7206 97.2516 71.7306 97.9016 71.9606C98.5516 72.1906 99.1217 72.5906 99.5817 73.0706C100.632 74.1706 100.052 75.7506 99.1616 76.7606C98.9216 77.0306 98.6316 77.2006 98.3516 77.4306C98.0616 77.6706 97.9416 77.9406 97.5316 77.9506C96.8016 77.9706 96.1017 77.8806 95.4217 77.6006C94.8417 77.3606 94.1717 77.0006 93.7317 76.5506C93.2917 76.1006 93.3716 75.3306 93.4116 74.7206C93.4316 74.3906 93.5716 74.1106 93.6816 73.8106C93.7916 73.5106 93.8616 73.1506 94.0516 72.8806C94.4616 72.3006 95.3616 71.9806 96.0316 71.8706C96.7016 71.7606 96.4216 70.7206 95.7416 70.8306L95.7317 70.8406Z" fill="#231815"/>
<path d="M56.8015 84.46C57.5015 84.07 58.1315 83.39 58.9415 83.29C59.2615 83.25 59.5616 83.34 59.8616 83.49C60.2216 83.67 60.5215 83.88 60.7715 84.2C60.9515 84.43 61.3415 84.39 61.5315 84.2C61.7515 83.98 61.7115 83.67 61.5315 83.44C60.9615 82.72 59.8715 82.13 58.9415 82.22C58.4215 82.27 57.9316 82.45 57.4816 82.73C57.0616 82.99 56.6815 83.3 56.2415 83.54C55.6315 83.88 56.1815 84.81 56.7815 84.47L56.8015 84.46Z" fill="#231815"/>
<g style="mix-blend-mode:darken">
<path d="M93.0018 62.18C92.9218 62.15 92.8318 62.15 92.7418 62.14C92.5218 61.96 92.2618 61.82 91.9118 61.76C90.7318 61.55 89.5618 61.93 88.4218 62.2C87.0718 62.52 85.7518 62.94 84.4318 63.36C83.1918 63.75 81.9418 64.12 80.8018 64.76C79.7018 65.37 78.8018 66.24 78.0518 67.25C77.3418 68.21 76.8118 69.3 76.3318 70.38C75.8918 71.38 75.4718 72.47 75.7318 73.58C75.7718 73.75 75.9318 73.92 76.1118 73.96C76.6718 74.08 77.1018 73.96 77.6418 73.84C78.2418 73.71 78.8618 73.81 79.4718 73.73C80.1018 73.65 80.7418 73.6 81.3618 73.49C81.9918 73.38 82.6018 73.14 83.2218 72.96C83.5018 72.88 83.7718 72.78 84.0518 72.69C85.5418 72.32 86.9918 71.78 88.3418 71.04C88.4318 71 88.5218 70.96 88.6218 70.92C89.0618 70.73 89.4918 70.53 89.7718 70.13C89.7718 70.12 89.7918 70.1 89.7918 70.09C90.3118 69.65 90.7418 69.14 91.1318 68.52C91.7318 67.56 92.5718 66.7 93.0318 65.67C93.2018 65.3 93.3218 64.86 93.3918 64.42C93.4318 64.31 93.4818 64.21 93.5118 64.1C93.6918 63.44 93.7918 62.5 93.0018 62.2V62.18Z" fill="#F4B3B1"/>
<path d="M54.4119 68.1804C54.1719 66.7304 53.3519 65.1704 52.4419 64.0304C51.5719 62.9404 50.4318 62.0804 49.1518 61.5404C48.3118 61.1904 47.4519 60.9004 46.6019 60.5904C45.7519 60.2904 44.9019 59.8004 44.0119 59.6204C42.4819 59.3104 40.7019 59.5804 39.3219 60.3304C39.2819 60.3304 39.2519 60.3204 39.2119 60.3304L39.0119 60.3504C38.7719 60.3804 38.5619 60.5004 38.4919 60.7504C38.0819 62.1304 39.0818 63.3804 39.7018 64.5304C40.4318 65.8804 41.3318 67.3204 42.5618 68.2704C43.7818 69.2204 45.1819 70.0904 46.6119 70.6804C47.3619 70.9904 48.1419 71.2504 48.9119 71.5104C49.6619 71.7604 50.4119 71.9104 51.1719 72.1204C52.1119 72.3904 53.8318 73.7504 54.5918 72.3904C54.8718 71.8904 54.7119 71.0804 54.6719 70.5404C54.6119 69.7704 54.5419 68.9604 54.4119 68.2004V68.1804Z" fill="#F4B3B1"/>
<path d="M62.122 34.3892C61.672 33.5992 61.532 32.6892 60.962 31.9592C60.122 30.8992 58.782 30.3092 57.432 30.2092C57.282 30.0092 57.022 29.8792 56.732 29.9992C55.862 30.3792 54.822 30.6692 54.152 31.3792C53.892 31.6492 53.702 31.9692 53.472 32.2592C53.172 32.6192 52.842 32.9392 52.582 33.3392C51.582 34.8292 51.332 36.6692 51.042 38.3892C50.922 39.1092 50.682 39.8492 51.092 40.5192C51.492 41.1792 52.122 41.5592 52.902 41.4692C53.702 41.3692 54.452 40.8392 54.842 40.1492C54.902 40.0392 54.992 39.9192 55.042 39.8092C55.132 40.0992 55.532 40.4492 55.712 40.5792C56.352 41.0492 57.352 41.2592 58.102 40.9792C58.682 40.7692 59.052 40.2992 59.362 39.7892C59.722 40.1092 60.012 40.5092 60.522 40.6692C61.192 40.8792 62.002 40.7892 62.612 40.4392C64.082 39.5792 63.752 37.7792 63.212 36.4592C62.912 35.7192 62.512 35.0792 62.112 34.3892H62.122Z" fill="#F4B3B1"/>
<path d="M77.782 39.6497C78.002 39.4997 78.202 39.3497 78.372 39.1397C78.482 39.0097 78.592 38.8097 78.722 38.6597C79.422 39.5997 80.162 40.6297 81.522 40.2197C82.962 39.7797 82.952 38.0697 82.962 36.8497C82.962 35.9897 82.912 35.1297 82.562 34.3397C82.192 33.5097 81.622 32.7597 81.132 31.9997C80.672 31.2797 80.282 30.4797 79.662 29.8797C79.072 29.3097 78.412 28.7697 77.752 28.2797C76.832 27.5997 75.702 27.2497 74.612 27.3697C74.502 27.2897 74.362 27.2697 74.192 27.3397C73.352 27.6897 72.512 27.7197 71.772 28.3297C71.142 28.8497 70.692 29.5997 70.362 30.3397C70.012 31.1297 69.792 31.9597 69.582 32.7897C69.342 33.6997 69.032 34.6097 68.902 35.5397C68.682 37.1097 69.222 39.0397 70.952 39.4497C71.672 39.6197 72.342 39.4397 72.972 39.0897C73.282 38.9197 73.572 38.7197 73.772 38.4197C73.842 38.3097 73.902 38.1497 73.982 38.0197C74.502 38.8397 75.042 39.7397 76.002 40.0697C76.632 40.2897 77.272 39.9997 77.802 39.6497H77.782Z" fill="#F4B3B1"/>
</g>
</svg>
