<svg width="115" height="95" viewBox="0 0 115 95" fill="none" xmlns="http://www.w3.org/2000/svg">
<path d="M3.50146 88.971C7.10146 88.871 10.9015 89.931 14.4815 89.441C16.8215 89.121 19.1115 88.551 21.4915 88.451C25.2315 88.301 28.7415 89.121 32.4415 89.101C36.1415 89.081 39.4715 89.301 42.9715 89.271C44.1615 89.261 45.3815 89.191 46.5715 89.091C47.9315 88.981 49.0815 88.331 50.4815 88.211C52.2115 88.061 53.9015 88.281 55.6115 88.531C57.8315 88.861 60.1115 88.871 62.3415 89.011C66.6115 89.281 70.8315 88.911 75.0915 89.091C77.6315 89.191 80.3015 89.291 82.8415 89.001C84.9215 88.761 86.9415 88.611 89.0415 88.671C90.4615 88.711 91.7215 89.221 93.0915 89.361C96.9515 89.741 100.971 89.371 104.831 89.121C107.521 88.941 110.301 90.021 112.911 89.021" stroke="black" stroke-width="1.25" stroke-linecap="round" stroke-linejoin="round"/>
</svg>
