<svg width="1080" height="1921" viewBox="0 0 1080 1921" fill="none" xmlns="http://www.w3.org/2000/svg">
<path d="M1080 1920.08L1080 0L0 0L0 1920.08H1080Z" fill="#F9DADB"/>
<mask id="mask0_45_205" style="mask-type:luminance" maskUnits="userSpaceOnUse" x="0" y="0" width="1080" height="1921">
<path d="M1080 1920.08L1080 0L0 0L0 1920.08H1080Z" fill="white"/>
</mask>
<g mask="url(#mask0_45_205)">
<path d="M1251.64 892.792C1250.4 877.686 1248.86 862.888 1246.55 847.936C1243.16 825.586 1243.24 802.927 1240.23 780.499C1235.68 746.125 1229.83 712.06 1229.29 677.378C1228.9 655.489 1225.13 634.064 1225.43 612.176C1225.66 594.218 1224.59 578.187 1221.89 560.384C1219.34 543.967 1219.11 527.32 1216.49 510.981C1214.41 497.802 1210.64 485.008 1208.02 471.906C1203.7 450.557 1202.31 428.669 1198 407.628C1195.61 395.836 1194.22 383.659 1192.68 371.482C1194.22 359.305 1195.61 347.127 1198 335.336C1202.31 314.218 1203.7 292.33 1208.02 271.058C1210.64 257.956 1214.41 245.162 1216.49 231.983C1219.04 215.644 1219.34 198.997 1221.89 182.58C1224.59 164.777 1225.66 148.746 1225.43 130.789C1225.2 108.9 1228.98 87.3974 1229.29 65.5863C1229.83 30.9042 1235.76 -3.16126 1240.23 -37.535C1243.16 -59.9628 1243.08 -82.6217 1246.55 -104.972C1248.86 -120.001 1250.4 -134.722 1251.64 -149.828C1254.1 -180.04 1262.27 -209.558 1265.13 -239.693C1270.13 -293.489 1272.83 -346.437 1273.29 -400.541C1273.45 -416.263 1270.06 -431.215 1269.67 -447.092C1269.44 -458.267 1264.59 -470.213 1262.27 -481.388C1258.88 -497.727 1255.18 -515.146 1254.95 -531.716C1254.8 -541.581 1251.02 -550.598 1246.71 -559.461C1243.16 -566.706 1241.62 -572.332 1232.83 -574.182C1221.89 -576.494 1215.26 -568.479 1205.39 -566.783C1183.35 -563.007 1174.87 -590.444 1164.16 -603.855C1144.97 -627.67 1112.37 -643.315 1082.24 -629.442C1073.83 -625.589 1066.05 -621.658 1058.42 -616.802C1055.65 -615.03 1049.33 -609.866 1045.63 -610.251C1040.15 -610.791 1034.68 -621.735 1031.21 -625.512C1023.82 -633.45 1017.03 -639.77 1005.78 -640.695C991.676 -641.774 982.428 -638.382 971.175 -629.519C963.468 -623.431 959.229 -617.727 956.378 -608.325C954.605 -602.621 955.838 -589.365 950.366 -586.128C939.191 -590.752 933.95 -605.088 924.624 -612.101C915.53 -618.96 898.574 -624.355 888.093 -620.117C876.455 -615.415 862.89 -606.09 861.657 -592.91C860.809 -583.277 868.439 -556.224 850.944 -565.242C845.549 -568.016 841.773 -572.718 836.224 -575.415C832.37 -577.265 829.133 -577.419 825.202 -578.806C821.349 -580.194 818.112 -583.431 814.258 -584.587C807.784 -586.591 798.844 -585.897 792.139 -585.512C779.653 -584.818 763.237 -580.81 759.538 -567.246C757.457 -559.616 758.382 -549.057 759.384 -541.273C760.463 -533.334 764.779 -525.473 762.389 -517.381C755.145 -517.535 750.289 -524.086 743.661 -526.013C736.262 -528.171 727.63 -526.013 720.771 -523.084C707.977 -517.458 699.345 -507.515 696.725 -493.72C694.952 -484.163 697.187 -474.837 700.27 -465.82C701.503 -462.352 707.052 -453.103 702.659 -450.637C697.65 -447.785 675.376 -463.354 670.675 -465.203C659.885 -469.519 645.704 -474.144 634.066 -470.83C626.127 -468.595 621.272 -464.356 619.499 -456.494C617.804 -449.018 623.507 -439.693 621.734 -433.219C618.96 -422.968 603.237 -434.067 595.53 -436.456C584.432 -439.924 575.954 -442.39 564.008 -442.159C548.285 -441.774 538.806 -435.762 535.646 -420.04C534.49 -414.259 534.104 -407.477 534.721 -401.62C535.337 -395.685 538.96 -389.751 538.883 -383.816C538.729 -372.41 525.01 -380.502 515.916 -379.808C498.189 -378.421 490.097 -369.866 486.012 -353.604C484.162 -346.282 483.469 -344.047 485.164 -337.188C486.243 -332.949 486.628 -330.406 486.937 -325.936C487.63 -314.221 499.885 -301.196 498.112 -289.481C496.648 -279.385 474.374 -285.165 464.894 -279.77C454.259 -273.758 444.702 -260.425 440.925 -248.941C434.991 -230.753 440 -208.171 447.399 -191.138C449.095 -187.207 456.417 -179.809 453.796 -175.724C451.176 -171.639 441.619 -173.951 437.457 -173.874C421.272 -173.72 413.334 -164.086 408.709 -149.057C405.01 -137.111 409.711 -126.321 413.565 -114.837C415.415 -109.211 419.731 -99.8086 415.106 -95.1073C411.792 -91.7932 403.392 -92.1786 398.69 -91.0996C388.748 -88.7874 381.426 -87.7855 373.025 -81.1574C360.848 -71.6005 365.627 -57.8048 373.025 -46.0129C380.501 -34.1439 386.359 -21.5813 395.916 -11.485C400.309 -6.8607 408.247 -0.463757 405.087 6.54973C403.7 9.70965 393.989 14.7963 390.752 16.4148C376.571 23.3512 361.85 28.8233 352.602 42.8503C344.74 54.7192 346.205 64.2761 352.37 76.068C355.299 81.6942 356.686 87.7057 359.153 93.409C361.696 99.3435 368.478 105.895 365.472 112.677C362.004 120.384 345.511 121.232 338.266 125.933C327.553 132.869 315.299 142.812 318.459 156.684C321.773 171.251 332.101 182.195 340.27 193.602C351.523 209.324 334.104 214.796 323.315 222.966C313.064 230.75 304.124 245.548 302.968 258.958C302.505 264.584 304.355 271.366 306.975 277.995C306.744 287.089 311.754 294.488 318.69 300.808C321.234 305.047 324.008 309.208 327.091 312.908C329.557 315.837 336.417 320.075 336.108 324.237C335.646 330.326 325.627 332.407 322.081 337.108C319.923 339.96 318.305 344.892 316.918 348.129C313.912 354.989 312.833 364.006 314.451 371.559C312.833 379.189 313.912 388.129 316.918 394.989C318.382 398.226 320 403.158 322.081 406.01C325.627 410.711 335.646 412.792 336.108 418.881C336.417 422.966 329.557 427.282 327.091 430.21C324.008 433.833 321.234 438.072 318.69 442.31C311.831 448.553 306.744 456.029 306.975 465.124C304.355 471.752 302.505 478.534 302.968 484.16C304.047 497.571 313.064 512.445 323.315 520.152C334.104 528.322 351.523 533.794 340.27 549.517C332.101 560.923 321.773 571.867 318.459 586.434C315.299 600.306 327.553 610.172 338.266 617.185C345.511 621.886 362.004 622.734 365.472 630.441C368.478 637.147 361.696 643.698 359.153 649.709C356.686 655.49 355.299 661.501 352.37 667.05C346.205 678.842 344.74 688.399 352.602 700.268C361.85 714.295 376.571 719.767 390.752 726.703C393.989 728.322 403.623 733.409 405.087 736.568C408.17 743.582 400.232 749.979 395.916 754.603C386.359 764.699 380.501 777.262 373.025 789.131C365.627 800.923 360.848 814.719 373.025 824.275C381.426 830.904 388.671 831.829 398.69 834.218C403.392 835.297 411.792 834.911 415.106 838.225C419.731 842.927 415.415 852.329 413.565 857.956C409.711 869.439 405.01 880.229 408.709 892.175C413.334 907.281 421.272 916.838 437.457 916.992C441.619 916.992 451.176 914.68 453.796 918.842C456.417 922.927 449.095 930.326 447.399 934.256C440 951.289 434.991 973.948 440.925 992.06C444.702 1003.47 454.259 1016.8 464.894 1022.89C474.374 1028.28 496.648 1022.5 498.112 1032.6C499.808 1044.31 487.63 1057.34 486.937 1069.05C486.706 1073.52 486.243 1076.07 485.164 1080.31C483.469 1087.09 484.162 1089.32 486.012 1096.72C490.097 1112.98 498.189 1121.54 515.916 1122.93C525.01 1123.62 538.729 1115.53 538.883 1126.93C538.883 1132.79 535.337 1138.8 534.721 1144.74C534.104 1150.6 534.49 1157.38 535.646 1163.16C538.806 1178.88 548.285 1184.97 564.008 1185.28C575.954 1185.59 584.432 1183.04 595.53 1179.57C603.237 1177.18 618.883 1166.09 621.734 1176.34C623.507 1182.81 617.881 1192.14 619.499 1199.61C621.272 1207.4 626.127 1211.71 634.066 1213.95C645.704 1217.18 659.885 1212.64 670.675 1208.32C675.376 1206.39 697.65 1190.9 702.659 1193.76C707.052 1196.22 701.426 1205.47 700.27 1208.94C697.187 1217.88 694.952 1227.28 696.725 1236.84C699.345 1250.63 707.977 1260.65 720.771 1266.2C727.63 1269.21 736.262 1271.29 743.661 1269.13C750.289 1267.2 755.145 1260.73 762.389 1260.5C764.779 1268.59 760.463 1276.45 759.384 1284.39C758.382 1292.1 757.457 1302.73 759.538 1310.36C763.237 1323.93 779.576 1328.01 792.139 1328.63C798.844 1329.02 807.784 1329.71 814.258 1327.7C818.112 1326.55 821.349 1323.31 825.202 1321.92C829.133 1320.54 832.37 1320.38 836.224 1318.53C841.773 1315.84 845.549 1311.13 850.944 1308.36C868.439 1299.42 860.809 1326.47 861.657 1336.03C862.89 1349.21 876.455 1358.46 888.093 1363.23C898.574 1367.55 915.607 1362.08 924.624 1355.22C933.95 1348.21 939.191 1333.87 950.366 1329.25C955.838 1332.48 954.605 1345.74 956.378 1351.44C959.229 1360.85 963.468 1366.55 971.175 1372.64C982.428 1381.5 991.676 1384.89 1005.78 1383.81C1017.03 1382.96 1023.82 1376.65 1031.21 1368.63C1034.68 1364.85 1040.15 1353.99 1045.63 1353.37C1049.4 1352.98 1055.72 1358.23 1058.42 1359.92C1066.13 1364.78 1073.91 1368.71 1082.24 1372.56C1112.37 1386.43 1144.97 1370.79 1164.16 1346.97C1174.87 1333.64 1183.35 1306.12 1205.39 1309.9C1215.34 1311.6 1221.89 1319.61 1232.83 1317.3C1241.62 1315.45 1243.16 1309.82 1246.71 1302.58C1251.02 1293.72 1254.87 1284.7 1254.95 1274.83C1255.18 1258.26 1258.88 1240.85 1262.27 1224.51C1264.59 1213.33 1269.44 1201.39 1269.67 1190.21C1270.06 1174.26 1273.45 1159.38 1273.29 1143.66C1272.83 1089.55 1270.13 1036.61 1265.13 982.811C1262.35 952.599 1254.18 923.158 1251.64 892.946V892.792Z" fill="#F3BACD"/>
<path d="M1254.49 892.792C1253.18 877.532 1251.41 862.349 1249.25 847.166C1246.55 828.36 1246.01 809.324 1244.16 790.441C1240.85 756.53 1234.07 723.081 1232.45 688.939C1231.68 672.291 1230.75 655.721 1229.44 639.073C1228.13 622.426 1228.75 605.085 1227.67 588.052C1226.59 571.02 1223.74 555.682 1222.35 539.497C1220.96 523.312 1219.19 508.052 1215.57 492.407C1208.17 460.654 1203.85 428.284 1198.77 396.145C1197.38 387.59 1195.3 378.264 1195.68 369.632C1196.07 360.23 1198 350.673 1199.69 341.424C1202.62 325.162 1204.93 308.977 1207.24 292.638C1209.56 276.299 1213.72 259.883 1217.19 243.467C1220.42 228.361 1221.35 213.101 1222.89 197.764C1224.51 180.962 1227.44 164.469 1228.05 147.59C1228.67 130.712 1228.52 114.681 1229.98 98.1104C1233.06 63.1972 1233.99 28.438 1238.77 -6.32111C1243.55 -41.0802 1245.24 -75.454 1250.1 -109.828C1252.25 -125.011 1253.41 -140.271 1255.03 -155.531C1256.88 -173.489 1260.58 -191.215 1263.66 -209.018C1269.29 -241.774 1271.21 -275.223 1273.14 -308.363C1275.07 -341.504 1278.15 -377.496 1275.76 -411.408C1274.76 -425.666 1273.99 -440.695 1271.75 -454.799C1269.36 -470.059 1264.2 -484.933 1261.43 -500.116C1258.65 -515.3 1259.88 -533.334 1254.49 -548.517C1251.48 -556.918 1247.71 -569.095 1240 -574.336C1231.44 -580.116 1222.12 -576.802 1213.72 -572.872C1199.69 -566.475 1189.6 -571.022 1180.96 -583.122C1175.41 -590.906 1171.33 -599.693 1165.16 -607.091C1157.15 -616.725 1147.05 -624.895 1135.72 -630.367C1111.14 -642.236 1088.55 -637.072 1065.59 -624.509C1060.89 -621.966 1055.8 -617.111 1050.87 -615.338C1041.93 -612.101 1039.23 -619.885 1034.68 -625.666C1028.67 -633.296 1020.42 -640.54 1010.71 -642.775C990.366 -647.477 966.32 -635.839 956.686 -617.265C954.759 -613.488 953.372 -609.404 952.678 -605.242C951.83 -599.847 952.755 -591.985 948.131 -588.055L951.599 -588.517C938.728 -594.837 934.027 -610.174 921.541 -617.342C911.214 -623.276 897.881 -626.745 886.397 -622.506C875.607 -618.498 863.507 -610.02 859.73 -598.691C856.647 -589.519 861.965 -579.654 859.268 -570.791C856.339 -561.311 847.168 -571.33 842.543 -574.567C835.838 -579.192 828.131 -580.579 820.963 -584.124C808.786 -590.213 794.528 -589.673 781.272 -586.899C770.482 -584.664 759.769 -579.037 756.532 -567.785C754.528 -561.003 754.99 -553.45 755.607 -546.59C756.455 -537.188 761.079 -527.4 759.306 -517.92L762.081 -520.078C755.684 -520.926 751.214 -526.012 745.357 -528.093C740.193 -529.943 734.644 -529.789 729.326 -528.71C718.459 -526.475 708.054 -520.463 701.349 -511.6C694.258 -502.274 691.869 -490.406 693.565 -478.922C694.412 -473.296 696.031 -467.824 698.112 -462.583C698.728 -461.041 702.351 -454.259 700.501 -452.949C699.422 -452.178 694.335 -455.03 693.411 -455.415C674.991 -463.97 658.651 -477.612 636.763 -474.221C628.902 -472.987 621.58 -469.211 618.112 -461.812C616.108 -457.65 615.877 -453.488 616.493 -449.018C616.879 -446.244 617.804 -443.623 618.266 -440.926C618.497 -439.539 619.499 -434.991 618.729 -433.835C616.185 -430.213 613.719 -432.217 611.021 -432.756C606.782 -433.681 602.698 -436.533 598.613 -438.151C592.447 -440.618 585.665 -442.39 579.114 -443.623C569.249 -445.396 557.765 -446.09 548.362 -441.928C540.424 -438.46 535.492 -431.523 533.257 -423.276C529.942 -411.022 532.178 -400.695 535.029 -388.749C537.65 -377.882 528.478 -381.196 521.773 -382.043C517.611 -382.583 513.603 -382.429 509.442 -381.658C500.655 -379.962 493.102 -375.338 488.401 -367.631C477.149 -349.134 481.465 -325.936 490.174 -307.438C493.102 -301.196 499.191 -290.329 490.713 -286.475C486.243 -284.471 479.153 -285.473 474.374 -284.934C464.74 -283.932 457.727 -279.23 451.253 -271.986C433.218 -251.716 432.447 -225.512 440.54 -200.695C442.081 -195.916 443.777 -191.292 446.32 -186.899C446.86 -185.974 447.939 -184.972 448.324 -183.893C449.018 -181.812 449.403 -177.342 446.166 -175.955C444.316 -175.184 440.309 -176.494 438.305 -176.494C429.519 -176.649 421.118 -173.72 415.106 -167.246C408.324 -159.847 404.085 -148.286 404.471 -138.267C404.702 -132.178 406.551 -126.321 408.401 -120.618C410.636 -113.913 417.727 -101.581 410.405 -95.5696C407.862 -93.4886 396.686 -93.3345 393.141 -92.5638C387.592 -91.2536 382.043 -89.8663 377.033 -87.0917C368.093 -82.1592 361.85 -74.375 362.852 -63.8162C363.931 -51.7161 372.563 -40.9261 378.497 -30.8298C381.812 -25.2036 385.28 -19.5773 389.365 -14.4136C391.368 -11.9473 393.449 -9.63515 395.684 -7.32302C399.384 -3.39238 403.546 3.62111 399.692 8.16832C396.84 11.4824 390.675 13.5633 386.744 15.4901C380.578 18.4188 374.336 21.1933 368.478 24.7386C359.23 30.4419 350.598 38.3032 346.513 48.6307C341.426 61.7328 347.977 71.9833 352.602 84.0064C354.914 89.8638 356.686 95.49 359.923 100.962C362.313 105.047 362.775 111.752 359.307 115.143C357.149 117.301 351.831 118.149 348.979 119.074C331.869 124.392 310.906 138.65 316.07 159.305C319.307 172.253 328.324 182.349 335.954 192.908C340.424 199.151 342.891 205.008 336.494 210.789C332.101 214.719 326.551 217.185 321.85 220.731C313.218 227.282 306.667 236.685 302.891 246.781C298.112 259.883 301.657 270.365 304.586 283.39C307.207 294.95 316.609 304.893 323.931 313.756C325.395 315.528 328.555 317.455 329.557 319.459C332.332 324.546 329.866 328.014 325.704 330.711C321.773 333.255 319.461 335.49 317.38 339.729C311.446 351.598 311.523 361.155 311.137 373.871C310.752 384.97 312.37 395.374 318.074 405.239C320.463 409.324 323.237 410.403 326.783 413.409C330.328 416.415 332.024 419.652 329.557 424.122C328.247 426.511 324.548 428.977 322.775 431.212C315.222 440.923 306.821 449.709 304.278 461.964C301.426 475.297 298.189 484.931 303.507 498.187C307.515 508.129 314.066 517.147 322.775 523.467C327.168 526.704 332.409 529.093 336.494 532.792C343.97 539.575 339.191 546.434 334.182 553.062C326.706 562.927 318.228 573.332 315.684 585.817C311.368 607.243 334.567 619.651 351.368 625.201C353.758 625.971 357.534 626.588 359.307 628.361C362.775 631.752 362.235 638.457 359.923 642.542C356.224 648.939 354.22 655.798 351.291 662.58C346.667 673.524 341.889 683.389 346.667 695.181C351.214 706.28 360.771 714.449 370.944 720.229C376.031 723.081 381.426 725.47 386.667 728.014C390.135 729.709 399.384 732.792 401.079 736.337C402.004 738.264 399.615 746.203 398.536 747.744C397.765 748.823 396.532 749.825 395.607 750.75C393.449 753.062 391.291 755.297 389.287 757.84C384.817 763.466 381.195 769.555 377.573 775.721C371.638 785.74 363.006 796.684 362.698 808.861C362.39 819.343 369.403 826.588 378.343 831.135C383.507 833.755 389.056 835.066 394.605 836.299C396.686 836.761 398.69 837.224 400.848 837.532C406.629 838.457 409.557 837.224 412.178 843.004C415.183 849.863 410.713 857.108 408.401 864.044C406.089 870.981 404.085 877.917 404.471 885.162C404.933 894.333 409.403 904.892 415.877 911.52C422.351 918.148 430.598 920.229 439.23 919.921C441.002 919.921 444.548 918.688 446.166 919.382C453.642 922.542 448.247 927.089 446.32 930.326C443.546 935.104 441.696 940.422 440.077 945.663C432.293 970.634 433.758 996.684 452.332 1016.49C459.422 1024.04 466.436 1027.67 476.609 1028.51C480.848 1028.82 486.86 1028.05 490.713 1029.82C499.653 1033.91 492.64 1045.62 489.557 1052.1C481.002 1070.36 477.303 1094.18 489.018 1111.98C494.104 1119.61 501.889 1123.77 510.829 1125.24C514.528 1125.86 518.073 1125.93 521.773 1125.47C524.239 1125.16 526.86 1124.08 529.326 1124.08C535.877 1124.08 536.031 1127.86 534.567 1133.64C529.942 1150.98 528.632 1177.03 548.748 1185.51C558.613 1189.67 570.482 1188.82 580.655 1186.74C586.744 1185.51 592.91 1183.81 598.613 1181.58C602.929 1179.88 607.399 1176.49 612.023 1175.8C622.736 1174.18 617.418 1186.13 616.493 1192.37C615.8 1196.92 616.185 1201.31 618.266 1205.55C622.043 1213.18 630.135 1216.88 638.305 1217.72C660.347 1220.19 675.761 1206.55 694.412 1198.3C695.106 1197.99 699.653 1195.6 700.578 1196.3C702.428 1197.61 698.806 1204.39 698.189 1205.93C696.031 1211.33 694.412 1216.95 693.565 1222.66C691.946 1234.53 694.644 1246.63 702.197 1256.03C708.902 1264.28 718.921 1269.9 729.326 1272.06C734.104 1273.06 739.422 1273.37 744.2 1271.91C750.674 1269.98 755.299 1264.28 762.158 1263.43L759.384 1261.27C761.156 1270.75 756.532 1280.46 755.684 1289.94C755.068 1296.8 754.605 1304.43 756.609 1311.13C759.923 1322.39 770.559 1328.01 781.349 1330.25C794.605 1333.02 808.863 1333.49 821.041 1327.47C828.208 1323.93 835.915 1322.46 842.62 1317.92C847.322 1314.68 856.416 1304.66 859.345 1314.14C862.042 1323 856.802 1332.87 859.807 1342.04C863.584 1353.45 875.684 1361.92 886.474 1365.86C897.958 1370.09 911.291 1366.63 921.619 1360.69C934.104 1353.52 938.805 1338.19 951.676 1331.87L948.208 1331.4C952.678 1335.18 951.907 1342.58 952.678 1347.82C953.295 1352.29 954.682 1356.61 956.763 1360.61C961.541 1369.86 970.482 1377.18 979.576 1381.96C999.46 1392.37 1020.5 1386.43 1034.22 1369.55C1036.84 1366.32 1039.08 1360.61 1042.7 1358.46C1049.02 1354.76 1057.65 1363.23 1062.66 1366.09C1073.37 1372.25 1085.01 1378.42 1097.34 1380.19C1121.23 1383.58 1144.82 1371.94 1161 1354.91C1173.33 1341.96 1182.97 1309.05 1205.01 1313.06C1215.65 1314.99 1223.43 1323.08 1234.84 1319.84C1244.47 1317.15 1247.71 1307.44 1251.41 1299.19C1257.57 1285.32 1257.19 1272.14 1259.11 1257.42C1261.19 1241.39 1264.82 1225.66 1268.98 1210.09C1272.75 1195.99 1272.83 1181.58 1274.45 1167.09C1276.3 1150.75 1276.07 1134.64 1275.68 1118.23C1274.84 1080.31 1272.91 1042.46 1269.83 1004.62C1266.74 966.78 1257.8 930.557 1254.49 893.1C1254.18 889.401 1248.4 889.401 1248.71 893.1C1251.56 924.622 1259.65 955.374 1262.5 986.896C1265.36 1018.42 1267.44 1049.48 1268.75 1080.85C1270.06 1112.21 1271.37 1141.89 1268.05 1172.33C1266.51 1186.43 1265.66 1199.84 1261.97 1213.64C1258.27 1227.44 1255.26 1242.39 1253.33 1256.95C1252.25 1265.05 1252.72 1273.45 1251.25 1281.39C1249.79 1289.32 1246.32 1296.49 1242.93 1303.5C1240.46 1308.59 1238.15 1313.29 1231.91 1314.53C1224.05 1316.14 1218.03 1311.06 1211.1 1308.59C1193.99 1302.43 1181.97 1313.6 1173.26 1327.17C1160 1347.82 1145.59 1366.39 1120.54 1372.95C1105.28 1376.95 1091.25 1374.02 1077.3 1367.17C1068.13 1362.7 1059.34 1354.76 1049.87 1351.44C1041.23 1348.44 1036.61 1356.14 1032.06 1362.31C1023.2 1374.49 1012.1 1382.35 996.455 1380.88C980.809 1379.42 965.087 1367.86 959.846 1353.29C956.84 1345.12 959.538 1333.25 952.216 1327.09C951.137 1326.16 949.981 1326.01 948.748 1326.63C937.572 1332.1 933.333 1343.58 924.393 1351.44C911.83 1362.54 894.027 1364.55 879.923 1355.84C866.821 1347.74 863.892 1338.57 864.894 1324.31C865.279 1318.69 866.667 1309.21 861.426 1305.05C855.337 1300.34 847.245 1306.74 842.543 1310.29C835.838 1315.37 829.364 1316.45 822.12 1319.84C816.879 1322.31 814.258 1324.85 807.938 1325.7C804.162 1326.24 800.231 1325.93 796.455 1325.7C781.426 1325.01 763.237 1322.23 761.233 1304.12C759.538 1288.86 767.63 1274.22 764.856 1259.42C764.624 1258.34 763.237 1257.11 762.081 1257.26C757.842 1257.8 754.682 1259.11 751.06 1261.35C742.736 1266.28 735.569 1268.05 725.935 1264.81C709.518 1259.27 698.189 1245.32 698.806 1227.59C699.114 1219.88 701.503 1212.48 704.432 1205.47C705.665 1202.54 707.438 1198.92 706.821 1195.6C705.588 1189.59 700.347 1189.75 695.569 1191.29C675.992 1197.69 662.351 1213.64 639.846 1211.79C631.291 1211.1 622.428 1206.39 621.888 1196.84C621.503 1190.6 625.202 1184.66 624.74 1178.34C624.355 1172.41 620.809 1168.71 614.798 1169.02C605.781 1169.48 596.763 1176.03 588.131 1178.5C576.108 1181.96 558.382 1185.74 547.206 1177.8C536.031 1169.86 535.415 1149.98 539.191 1137.8C541.041 1131.79 544.432 1121.85 536.802 1118.38C529.172 1114.91 518.998 1120.69 510.983 1119.15C497.418 1116.53 491.33 1106.74 488.247 1094.1C485.164 1081.46 489.788 1064.74 495.183 1053.41C498.266 1046.86 503.738 1036.84 500.116 1029.44C497.341 1023.74 489.865 1023.35 484.393 1022.89C479.384 1022.43 473.835 1022.89 468.979 1021.27C461.426 1018.73 455.338 1011.56 450.944 1005.24C441.465 991.752 439.615 975.875 442.467 959.998C443.623 953.447 445.472 946.973 447.785 940.73C449.943 935.104 454.027 930.557 456.108 925.085C458.497 918.688 455.569 914.372 448.941 913.447C444.702 912.831 440.309 914.064 436.07 913.91C428.594 913.601 422.043 910.364 417.573 904.276C406.937 889.786 411.022 873.987 416.339 858.495C418.652 851.867 423.199 841.617 416.802 835.759C414.027 833.139 410.02 832.676 406.397 832.137C400 831.135 393.603 830.21 387.361 828.283C377.804 825.278 367.939 818.881 368.632 807.705C369.095 800.152 373.565 793.678 377.341 787.436C385.126 774.565 392.602 762.85 402.621 751.598C407.476 746.125 411.33 738.958 405.781 732.638C400.232 726.318 389.21 722.696 381.657 718.996C368.555 712.6 353.141 703.274 350.598 687.474C349.21 678.765 353.526 671.906 356.84 664.199C360.155 656.492 362.544 649.786 366.243 642.773C369.557 636.53 370.482 629.825 364.702 624.815C357.149 618.264 345.665 618.495 337.419 612.946C331.792 609.17 325.781 604.391 322.698 598.226C318.382 589.594 323.083 579.575 327.553 572.022C336.185 557.609 357.534 541.347 338.343 526.627C328.016 518.688 317.92 513.524 311.523 501.347C307.746 494.257 305.203 486.472 306.282 478.38C306.821 474.526 308.209 471.135 309.21 467.436C310.289 463.428 310.212 459.112 312.062 455.259C314.991 449.17 320.463 444.546 324.239 438.919C328.016 433.293 333.488 429.671 337.033 424.353C341.272 417.879 337.419 413.101 331.792 409.324C317.688 399.921 317.534 386.357 317.38 371.02C317.303 363.544 316.609 357.301 319.307 350.056C322.313 341.81 326.012 337.725 332.871 332.869C338.266 329.016 341.041 324.16 336.879 318.226C333.257 313.062 327.939 309.363 324.316 303.968C320.155 297.802 313.681 292.561 311.368 285.316C306.282 269.902 303.893 255.027 312.37 240.23C318.921 228.746 328.787 223.814 338.729 216.106C357.997 201.078 335.106 184.199 326.86 169.633C322.775 162.311 318.767 152.908 322.775 144.739C326.089 138.033 333.411 132.099 339.808 128.477C347.592 124.083 358.305 124.161 365.087 117.918C371.099 112.446 369.172 105.278 365.627 98.9582C362.081 92.6384 359.769 85.6249 356.84 78.7655C353.295 70.2877 348.363 62.5035 351.06 52.9467C355.222 37.9949 370.02 29.5941 382.968 23.3513C390.212 19.8831 401.234 16.3378 406.397 9.70972C411.561 3.08159 406.474 -4.47136 401.696 -9.71221C391.445 -20.8875 384.278 -33.0648 376.417 -45.9357C372.948 -51.7161 369.095 -57.8047 368.632 -64.7411C367.939 -76.4559 378.729 -82.8528 388.748 -85.7045C396.455 -87.8624 411.022 -86.9376 417.033 -93.0263C423.43 -99.5002 418.035 -110.367 415.646 -117.304C410.328 -132.795 407.168 -149.134 418.652 -162.776C427.592 -173.412 437.765 -168.787 449.249 -170.56C455.954 -171.562 458.497 -176.263 455.954 -182.506C453.719 -187.901 449.865 -192.294 447.785 -197.843C445.087 -205.011 443.083 -212.487 442.004 -220.117C439.769 -235.839 442.39 -250.791 451.792 -263.739C456.031 -269.596 461.966 -276.07 468.979 -278.46C474.22 -280.155 480.077 -279.693 485.549 -280.155C491.021 -280.618 497.727 -281.388 500.27 -287.015C503.815 -294.799 497.727 -305.126 494.567 -311.986C489.172 -323.623 485.395 -340.425 488.709 -352.988C492.023 -365.55 499.422 -375.03 513.449 -376.725C520.617 -377.573 530.482 -372.332 537.187 -375.801C545.048 -379.808 540.424 -390.444 538.729 -396.533C535.415 -408.633 536.108 -428.209 548.131 -435.608C560.154 -443.007 577.341 -438.922 589.75 -435.3C597.842 -432.91 606.628 -426.436 615.183 -426.205C621.657 -426.051 624.74 -430.675 624.663 -436.841C624.586 -443.007 621.503 -448.248 621.811 -454.105C622.428 -464.51 632.293 -468.671 641.31 -469.134C652.64 -469.75 665.048 -465.203 674.759 -459.577C681.696 -455.492 689.095 -450.097 697.033 -448.093C701.657 -446.937 705.973 -447.939 706.821 -453.257C707.283 -456.494 705.588 -459.885 704.432 -462.737C701.272 -470.29 698.728 -478.305 698.728 -486.629C698.728 -503.585 710.289 -516.841 725.935 -522.082C734.875 -525.088 742.042 -523.932 749.981 -519.307C754.143 -516.918 757.303 -515.145 762.158 -514.529C763.314 -514.375 764.701 -515.531 764.933 -516.687C767.553 -530.637 760.231 -544.587 761.002 -558.922C762.081 -577.958 778.805 -582.043 794.913 -582.891C804.778 -583.431 811.869 -582.197 820.732 -577.727C827.746 -574.182 834.836 -573.334 841.387 -568.402C846.32 -564.702 854.952 -557.226 861.426 -562.236C866.513 -566.167 865.356 -575.03 864.971 -580.502C864.663 -584.741 863.892 -589.057 864.432 -593.296C865.511 -601.696 871.985 -607.862 878.767 -612.255C892.794 -621.35 909.287 -620.193 922.62 -609.866C932.64 -602.159 936.956 -589.519 948.67 -583.739C949.904 -583.122 951.137 -583.276 952.139 -584.201C958.844 -589.904 956.84 -600.078 958.844 -607.708C962.389 -620.964 975.029 -631.985 987.823 -636.224C1003.16 -641.311 1017.26 -636.456 1027.82 -624.741C1032.45 -619.654 1036.84 -608.864 1044.55 -607.708C1052.25 -606.552 1061.97 -616.186 1068.29 -619.654C1082 -627.13 1095.95 -633.373 1111.91 -631.523C1139.81 -628.363 1158 -608.479 1171.95 -586.128C1181.58 -570.714 1194.3 -558.537 1213.41 -566.629C1219.34 -569.172 1224.97 -572.872 1231.83 -571.562C1239.31 -570.174 1241.93 -562.621 1244.78 -556.533C1252.1 -540.656 1251.56 -524.702 1254.18 -507.747C1256.49 -492.795 1260.04 -478.305 1263.81 -463.739C1267.82 -448.248 1268.13 -431.138 1269.52 -415.107C1272.45 -382.66 1269.36 -348.826 1267.67 -316.302C1265.97 -283.778 1264.2 -247.939 1258.65 -214.413C1255.95 -198.228 1252.64 -182.121 1250.4 -165.859C1248.4 -151.292 1247.63 -136.572 1245.86 -121.928C1241.7 -87.7854 1239.54 -53.4887 1234.76 -19.4232C1230.37 12.0989 1227.67 43.2357 1225.97 75.0662C1225.05 91.7135 1222.74 108.207 1222.5 124.854C1222.27 141.502 1222.12 157.918 1219.96 174.565C1217.96 189.902 1216.65 205.162 1214.95 220.5C1213.1 237.378 1208.4 253.563 1205.09 270.211C1201.93 285.856 1200.39 301.81 1198 317.609C1195.76 332.561 1192.68 347.282 1190.83 362.311C1189.06 376.338 1191.83 390.827 1194.45 404.777C1197.46 421.039 1199.61 437.378 1202 453.717C1204.39 470.056 1208.32 485.239 1211.64 501.039C1214.95 516.839 1215.8 534.257 1217.73 550.904C1219.65 567.551 1222.04 582.811 1222.43 599.073C1222.81 615.336 1222.97 630.827 1224.43 646.781C1227.28 678.919 1227.9 710.827 1232.22 742.888C1234.53 760.075 1237.38 777.262 1238.92 794.526C1240.46 811.79 1240.92 827.667 1243.16 844.083C1245.39 860.499 1247.48 876.53 1248.86 892.946C1249.17 896.646 1254.95 896.646 1254.64 892.946L1254.49 892.792Z" fill="#F09BBA"/>
<path d="M1073.22 530.781C1065.66 522.149 1059.34 510.358 1054.8 500.03C1051.64 493.017 1049.71 487.313 1045.47 480.223C1038.69 468.97 1032.68 458.489 1025.36 447.853C1017.03 435.675 1010.17 421.88 1002 409.394C996.378 400.839 990.366 393.826 983.044 386.581C978.497 382.111 972.331 371.09 966.859 369.625C969.557 382.728 973.256 396.138 973.102 409.394C972.948 422.265 976.493 433.44 977.033 446.003C977.418 454.25 978.343 458.334 979.884 466.119C981.811 475.83 980.039 485.464 981.58 495.252C984.355 512.284 985.896 525.001 979.961 542.111C976.956 550.82 972.023 558.604 969.017 567.39C966.012 576.176 965.472 584.654 961.541 592.67C953.449 609.086 949.518 624.885 944.971 642.766C936.956 674.057 932.023 706.812 926.32 738.643C913.064 743.19 898.42 729.009 887.399 724.307C880.077 721.147 874.913 720.377 867.977 715.907C860.347 710.974 854.798 704.885 848.247 698.72C837.457 688.392 824.046 683.537 810.328 678.142C793.989 671.745 777.495 662.959 760.309 659.028C751.754 667.737 779.653 691.398 783.892 696.099C793.834 706.889 800.386 719.837 809.48 731.398C821.118 746.273 834.682 759.76 846.705 774.404C856.185 785.887 865.896 797.217 875.684 808.084C893.873 828.431 911.753 844.461 911.368 873.671C911.06 901.263 911.291 928.931 911.291 956.523C911.291 964.153 910.983 971.937 911.291 979.567C911.676 989.432 914.451 998.604 915.145 1008.47C916.84 1033.05 922.929 1057.02 922.775 1081.69C922.621 1103.04 930.482 1122.46 930.559 1143.34C930.559 1153.67 932.717 1164 934.258 1174.17C936.57 1189.12 941.657 1205.39 941.965 1220.49C921.619 1215.25 906.204 1200.99 888.17 1191.51C870.135 1182.03 852.409 1173.94 833.834 1166.54C825.28 1163.15 815.877 1160.53 807.63 1156.6C799.384 1152.67 792.755 1144.89 784.201 1140.49C768.478 1132.4 752.987 1122.69 735.954 1117.6C738.883 1128.16 750.366 1136.64 757.996 1144.19C767.939 1154.06 778.035 1163.69 788.054 1173.32C806.012 1190.51 824.586 1207.16 842.312 1224.58C855.723 1237.76 870.212 1247.7 885.241 1258.95C893.873 1265.42 900.655 1271.59 908.362 1279.07C920 1290.4 922.081 1296.79 922.775 1312.98C923.314 1326.08 926.782 1338.1 926.705 1351.51C926.705 1364.38 926.705 1377.18 926.705 1390.05C926.705 1401.61 927.245 1413.17 926.859 1424.73C926.397 1437.91 922.698 1449.7 922.852 1463.04C923.16 1483.84 919.538 1504.04 918.998 1524.92C918.767 1532.25 917.688 1537.25 915.145 1544.04C911.368 1554.29 911.137 1563.54 911.368 1574.48C911.599 1586.73 907.9 1592.13 904.355 1603C901.272 1612.48 900.732 1623.81 898.805 1633.59C896.802 1643.61 898.035 1658.18 893.642 1666.73C888.555 1676.68 886.397 1686.93 883.391 1698.1C877.765 1718.68 875.838 1738.87 868.825 1759.07C861.426 1780.41 858.189 1802.61 854.027 1824.81C850.328 1844.61 841.156 1863.88 837.996 1883.92C836.455 1893.63 834.759 1902.11 832.216 1911.9C830.135 1919.91 824.894 1933.79 830.983 1940.95C837.071 1948.2 852.794 1944.58 861.195 1944.58C872.216 1944.58 883.083 1946.43 893.796 1948.97C899.73 1950.43 905.434 1953.82 911.291 1955.29C919.075 1957.22 926.628 1957.14 934.412 1959.14C939.576 1960.53 944.663 1958.83 949.75 1959.84C955.299 1960.84 959.075 1963.61 964.933 1964.08C970.096 1964.54 975.568 1963.38 980.732 1963.61C990.058 1964.08 998.227 1967.47 1007.63 1967.7C1016.03 1967.93 1021.81 1969.01 1029.9 1970.7C1048.4 1974.56 1067.98 1969.08 1086.47 1973.48C1097.34 1976.1 1108.44 1975.71 1119.61 1975.56C1137.8 1975.33 1134.64 1964.08 1134.72 1948.28C1134.72 1934.87 1130.87 1922.84 1130.87 1909.2C1130.87 1888.62 1134.8 1869.66 1134.72 1849.32C1134.64 1822.26 1134.87 1795.29 1134.72 1768.24C1134.64 1748.66 1141.04 1729.24 1138.81 1709.82C1136.49 1690.01 1130.64 1671.51 1131.02 1651.32C1131.25 1636.83 1126.78 1623.96 1127.01 1609.7C1127.17 1597.06 1128.02 1584.19 1126.32 1571.63C1121.39 1534.33 1112.6 1495.94 1111.6 1458.41C1110.91 1431.59 1112.06 1404.85 1106.97 1378.49C1101.66 1350.82 1100.73 1321.61 1097.11 1293.25C1093.56 1265.35 1096.72 1237.14 1092.02 1209.32C1088.02 1185.27 1088.55 1161.61 1088.55 1136.95C1088.55 1124.92 1088.02 1112.75 1088.4 1100.72C1088.86 1087.93 1092.49 1076.83 1092.41 1063.65C1092.1 1009.16 1092.41 954.596 1092.41 900.107V831.436C1092.41 823.729 1092.41 816.099 1092.41 808.392C1092.41 797.371 1089.48 788.431 1088.32 777.564C1086.17 757.371 1088.55 735.329 1088.55 714.982V604.462C1088.55 583.113 1094.8 547.66 1076.99 531.167" fill="#C9A997"/>
<path d="M1075.3 528.704C1063.97 515.216 1058.65 499.263 1050.79 483.848C1042.47 467.509 1031.37 452.712 1021.89 437.066C1013.33 422.962 1005.86 408.165 995.222 395.525C989.981 389.282 984.2 383.81 979.191 377.413C975.877 373.174 972.717 369.012 967.63 366.931C965.395 366.007 963.699 368.55 964.085 370.477C966.243 380.573 968.863 390.669 969.865 400.92C970.713 409.706 970.559 418.492 971.869 427.278C973.179 436.064 973.796 445.082 974.875 454.022C976.108 463.502 978.035 472.519 978.035 482.153C978.035 501.421 984.046 519.301 978.189 538.415C975.491 547.355 970.559 555.371 967.245 564.08C963.931 572.789 963.006 582.5 959.152 591.209C944.123 625.274 936.956 662.268 930.482 698.8C928.709 708.819 927.014 718.839 925.241 728.935C924.547 732.943 925.241 736.796 920.385 736.642C915.145 736.488 910.058 733.868 905.588 731.401C900.039 728.241 894.798 724.465 889.018 721.844C880.848 718.145 872.833 716.141 865.511 710.592C858.189 705.043 852.254 697.721 844.856 692.095C837.919 686.777 830.058 683.078 821.966 679.686C802.081 671.44 782.12 661.498 761.156 656.257C760.231 656.026 758.998 656.257 758.305 657.027C751.831 664.889 760.077 675.062 765.318 681.151C774.181 691.71 784.432 700.033 792.293 711.517C804.856 729.86 818.189 746.276 832.987 762.846C847.784 779.417 861.966 797.143 877.071 813.79C889.48 827.355 903.045 841.151 907.206 859.725C909.673 870.515 908.516 881.844 908.439 892.788C908.439 905.505 908.439 918.299 908.439 931.016C908.439 953.289 907.206 975.563 910.906 997.605C912.678 1008.55 913.295 1019.65 914.836 1030.59C916.609 1043.46 918.767 1056.33 919.615 1069.36C920.386 1081.38 920.308 1093.17 922.389 1105.12C924.624 1117.84 927.399 1130.32 927.861 1143.27C928.786 1169.4 938.266 1194.37 939.268 1220.34L942.967 1217.57C924.779 1212.56 910.366 1200.61 894.335 1191.36C877.148 1181.42 858.728 1173.4 840.385 1165.85C831.599 1162.23 822.505 1159.53 813.719 1155.83C804.393 1151.98 797.688 1145.04 789.287 1139.72C773.334 1129.63 755.068 1120.3 736.956 1114.52C734.875 1113.91 732.717 1115.99 733.411 1118.07C736.108 1126.16 741.657 1132.25 747.746 1138.03C755.607 1145.5 763.314 1153.06 771.176 1160.61C788.131 1176.95 805.395 1192.98 822.505 1209.09C839.615 1225.2 855.877 1240.3 874.528 1254.1C883.468 1260.65 892.177 1267.35 900.27 1274.91C907.129 1281.23 914.913 1287.93 917.919 1297.03C920.694 1305.74 920 1315.45 921.233 1324.46C922.852 1336.64 924.008 1348.43 924.008 1360.76C924.008 1386.35 926.474 1412.94 922.698 1438.3C919.384 1460.65 919.306 1483.39 917.457 1505.89C916.532 1516.53 917.226 1527.7 914.22 1538.03C910.906 1549.44 908.594 1559.15 908.594 1571.09C908.594 1581.5 905.973 1589.51 902.659 1599.15C898.96 1609.86 898.035 1621.27 896.262 1632.36C894.952 1640.69 895.183 1649.24 893.565 1657.57C891.715 1667.2 886.32 1676.37 883.7 1686.01C877.534 1708.82 874.374 1732.48 867.206 1754.98C860.039 1777.49 856.031 1800.46 851.484 1823.65C846.937 1846.85 838.382 1867.28 834.297 1889.86C832.601 1899.42 830.135 1908.74 827.669 1918.14C825.973 1924.62 824.124 1932.4 826.975 1938.8C832.601 1951.9 850.559 1947.2 861.58 1947.05C873.295 1946.89 886.089 1948.66 897.187 1952.52C901.811 1954.14 906.127 1956.45 910.906 1957.68C917.457 1959.45 924.47 1959.69 931.098 1960.92C940.193 1962.54 948.902 1962 957.842 1964.93C967.861 1968.16 978.189 1965.31 988.439 1967.16C997.611 1968.78 1006.4 1969.78 1015.65 1970.78C1026.28 1971.94 1036.3 1974.71 1047.09 1974.79C1059.11 1974.79 1071.29 1973.33 1083.24 1975.41C1094.57 1977.41 1105.28 1978.41 1116.84 1978.18C1129.25 1977.95 1137.5 1974.41 1138.03 1960.92C1138.88 1940.26 1133.33 1920.23 1134.34 1899.65C1134.87 1888.7 1136.26 1877.84 1137.19 1866.97C1138.19 1854.71 1137.96 1842.46 1137.96 1830.21C1137.96 1806.62 1136.57 1782.5 1138.34 1759.07C1139.19 1747.35 1141.73 1735.79 1142.35 1724C1142.97 1712.9 1141.12 1702.04 1139.19 1691.09C1137.26 1680.15 1134.8 1668.43 1134.34 1656.87C1133.95 1646.08 1133.1 1635.83 1131.56 1625.12C1130.02 1614.41 1130.56 1602.92 1130.56 1591.67C1130.56 1579.34 1129.09 1567.39 1127.24 1555.29C1123.55 1531.02 1118.92 1506.89 1116.45 1482.46C1113.99 1458.03 1114.99 1435.29 1113.91 1411.71C1112.83 1388.13 1107.28 1363.15 1104.89 1338.72C1102.5 1314.29 1099.34 1291.55 1098.57 1267.97C1098.19 1256.56 1098.27 1245.16 1097.73 1233.67C1097.11 1220.26 1094.57 1207.16 1093.26 1193.83C1090.94 1170.71 1091.95 1147.51 1091.64 1124.31C1091.48 1112.67 1091.02 1101.03 1092.64 1089.47C1094.26 1077.91 1095.65 1067.82 1095.57 1056.64C1095.41 1030.98 1095.49 1005.31 1095.57 979.648C1095.65 930.553 1095.72 881.459 1095.72 832.365C1095.72 821.343 1096.49 810.091 1095.18 799.147C1093.87 788.203 1091.25 776.796 1090.87 765.236C1090.1 742.114 1091.87 718.839 1091.87 695.717V619.879C1091.87 602.461 1093.41 584.966 1092.87 567.625C1092.41 553.521 1089.87 538.877 1079.46 528.55C1076.84 525.929 1072.76 530.014 1075.38 532.635C1087.71 544.889 1087.55 564.311 1087.01 580.496C1086.4 600.072 1086.09 619.494 1086.09 639.07C1086.09 662.654 1086.09 686.16 1086.09 709.744C1086.09 732.095 1083.47 754.677 1085.86 776.95C1087.01 787.278 1089.71 797.297 1089.94 807.779C1090.17 819.571 1089.94 831.44 1089.94 843.309C1089.94 867.355 1089.94 891.478 1089.94 915.524C1089.94 963.617 1089.94 1011.71 1089.94 1059.8C1089.94 1070.59 1088.02 1080.84 1086.71 1091.48C1085.24 1103.35 1085.86 1115.37 1086.01 1127.32C1086.32 1149.98 1085.4 1172.71 1087.78 1195.29C1088.94 1206.01 1090.94 1216.64 1091.71 1227.43C1092.56 1239.84 1092.49 1252.33 1092.79 1264.81C1093.41 1288.47 1096.72 1312.06 1098.88 1335.64C1101.04 1359.22 1106.28 1382.11 1107.82 1405.54C1109.36 1428.97 1108.13 1450.71 1109.9 1473.29C1111.68 1495.87 1115.61 1518.92 1119.31 1541.57C1121.23 1553.29 1123.47 1565.16 1124.39 1577.03C1125.32 1588.9 1124.16 1600.38 1124.47 1612.09C1124.78 1622.27 1127.24 1632.21 1128.17 1642.31C1129.09 1652.4 1128.63 1662.34 1130.1 1672.36C1131.64 1683.08 1134.03 1693.56 1135.65 1704.27C1137.65 1717.6 1136.26 1730.4 1134.41 1743.65C1131.33 1766.16 1132.33 1788.82 1132.25 1811.48C1132.18 1834.14 1132.25 1858.26 1130.1 1881.77C1129.09 1892.17 1128.02 1902.73 1128.55 1913.13C1129.09 1923.54 1131.79 1934.33 1132.18 1945.04C1132.41 1951.28 1133.72 1959.84 1131.71 1966.01C1128.71 1975.33 1112.22 1972.63 1104.74 1972.4C1093.95 1972.09 1083.55 1968.93 1072.76 1968.55C1061.35 1968.09 1049.94 1969.63 1038.61 1968.7C1029.21 1967.93 1020.12 1965.23 1010.64 1964.62C1000.69 1964 991.06 1960.92 981.041 1960.46C975.26 1960.23 969.403 1961.69 963.622 1960.61C960 1959.92 956.686 1958.14 953.064 1957.22C948.594 1956.06 944.355 1956.68 939.807 1956.53C934.258 1956.29 928.632 1954.75 923.083 1953.98C911.908 1952.52 902.659 1947.66 891.869 1945.12C881.079 1942.58 870.52 1940.96 859.885 1941.34C852.948 1941.57 844.393 1943.89 837.688 1941.34C826.975 1937.1 832.293 1923.15 834.528 1914.91C840.077 1894.41 842.775 1873.6 849.249 1853.33C856.339 1831.21 859.499 1808.7 864.509 1786.04C866.975 1775.02 870.443 1764.46 873.68 1753.67C877.149 1742.27 879.229 1730.55 881.619 1718.92C883.7 1708.82 886.243 1698.88 888.863 1688.86C891.484 1678.84 896.262 1670.67 898.651 1661.27C900.578 1653.48 900.193 1645.31 901.195 1637.37C902.659 1626.12 903.892 1614.18 907.283 1603.31C909.75 1595.37 913.449 1588.05 914.22 1579.65C915.299 1567.39 914.22 1556.37 918.15 1544.35C921.079 1535.49 921.85 1527.55 922.312 1518.22C922.929 1506.35 924.316 1494.56 925.241 1482.69C926.012 1471.98 925.472 1461.27 926.705 1450.63C928.093 1438.61 930.097 1427.05 930.097 1414.79C930.097 1402.54 929.788 1391.59 929.788 1379.96C929.788 1367.39 930.482 1354.52 929.326 1341.96C928.324 1331.25 926.397 1320.76 925.703 1310.05C925.241 1303.12 924.47 1296.18 921.233 1289.94C913.68 1275.37 897.341 1263.81 884.47 1254.25C865.588 1240.15 848.247 1225.43 831.06 1209.17C813.873 1192.9 796.532 1176.95 779.499 1160.53C771.946 1153.29 764.625 1145.81 756.994 1138.65C750.058 1132.09 742.043 1125.77 738.96 1116.37L735.415 1119.92C745.511 1123.15 754.991 1127.62 764.316 1132.63C772.717 1137.1 781.811 1141.11 789.519 1146.74C796.609 1151.9 802.698 1157.22 810.867 1160.69C820.039 1164.54 829.596 1167.39 838.844 1171.25C857.804 1179.03 877.148 1187.43 894.721 1198.14C909.904 1207.39 924.085 1218.18 941.503 1223.04C943.276 1223.5 945.202 1222.11 945.202 1220.26C944.663 1206.16 940.964 1192.67 938.343 1178.88C935.414 1163.23 934.798 1147.66 933.025 1131.94C931.407 1117.91 927.476 1104.27 926.32 1090.17C925.164 1076.06 925.164 1061.57 923.16 1047.16C919.075 1017.49 914.297 987.817 914.451 957.759C914.528 941.883 914.451 926.006 914.451 910.129C914.451 895.178 915.915 879.532 914.143 864.657C911.522 842.923 897.187 826.893 883.006 811.324C863.276 789.744 844.702 767.085 825.28 745.197C815.26 733.868 806.705 721.999 798.305 709.59C793.218 702.114 787.823 695.332 781.349 689.089C775.414 683.386 769.095 677.374 764.779 670.284C763.391 668.049 760.848 663.733 762.775 662.345C764.008 661.498 770.944 664.812 772.64 665.428C776.802 666.893 780.809 668.511 784.817 670.207C799.538 676.372 814.952 681.844 829.21 688.935C842.389 695.486 850.944 706.43 862.428 715.139C872.832 723.078 885.858 725.852 896.956 732.634C906.204 738.261 916.224 744.272 927.322 741.189C928.247 740.958 929.172 740.11 929.326 739.185C934.104 712.596 938.266 685.929 944.123 659.571C946.821 647.317 949.904 635.062 953.372 622.962C956.84 610.862 961.85 600.765 966.089 589.59C968.093 584.195 969.017 578.569 970.482 573.02C972.177 566.623 974.952 560.766 977.726 554.831C982.582 544.504 986.358 533.945 986.975 522.461C987.669 510.207 984.278 498.492 983.892 486.392C983.738 480.534 984.046 474.754 983.353 468.974C982.659 463.193 980.964 457.413 980.424 451.479C977.572 423.656 975.491 396.218 969.711 368.781L966.166 372.326C972.177 374.793 975.8 382.654 979.962 387.355C985.588 393.675 991.522 399.301 996.532 406.238C1006.32 419.879 1013.64 435.217 1023.04 449.244C1032.45 463.27 1042.08 477.452 1048.71 492.712C1054.95 506.893 1061.19 520.766 1071.29 532.712C1073.68 535.563 1077.76 531.478 1075.38 528.627L1075.3 528.704Z" fill="#A17C6B"/>
<path d="M989.903 665.817C989.903 661.193 989.902 656.492 991.059 652.099C991.675 649.787 992.446 647.86 993.833 645.933C994.758 644.623 996.299 643.236 997.61 642.465C998.612 641.925 998.612 641.848 999.613 641.617C999.845 641.617 1000.15 641.463 1000.38 641.463C1001 641.463 1000.54 641.463 1000.38 641.463C1000.92 641.463 1001.39 641.463 1001.93 641.463C1001.31 641.463 1002.39 641.617 1002.54 641.617C1002.77 641.617 1002.93 641.771 1003.16 641.848C1002.7 641.694 1003.16 641.848 1003.24 641.848C1004.24 642.465 1004.55 642.619 1005.39 643.544C1007.94 646.318 1008.25 650.018 1008.32 653.794C1008.48 658.65 1007.78 663.428 1007.78 668.284C1007.78 672.446 1014.26 672.446 1014.26 668.284C1014.26 658.727 1017.03 647.243 1010.17 639.305C1006.86 635.451 1001.54 633.91 996.762 635.76C991.521 637.764 987.745 642.311 985.664 647.397C983.351 653.178 983.351 659.729 983.274 665.895C983.274 670.056 989.748 670.056 989.748 665.895L989.903 665.817Z" fill="#231F20"/>
<path d="M1027.44 666.663C1027.2 666.124 1027.05 665.893 1026.97 665.584C1026.97 665.43 1026.9 665.353 1026.82 665.199C1026.74 664.891 1026.82 664.737 1026.82 665.122C1026.82 665.045 1026.74 665.97 1026.82 665.584C1026.82 665.353 1027.05 665.122 1026.66 665.816C1026.66 665.662 1026.82 665.507 1026.82 665.43C1027.74 663.426 1028.13 661.423 1028.59 659.265C1029.05 657.107 1029.75 655.103 1030.44 653.099C1030.67 652.251 1030.98 651.557 1031.29 650.864C1031.75 650.016 1032.06 649.477 1032.45 649.168C1032.45 649.168 1032.98 648.783 1033.29 648.706C1033.29 648.706 1033.83 648.475 1033.45 648.629C1033.6 648.629 1033.76 648.475 1033.91 648.475C1034.83 648.243 1035.07 648.166 1036.22 648.32C1036.76 648.32 1035.84 648.243 1036.38 648.32C1036.53 648.32 1036.68 648.321 1036.92 648.475C1037.53 648.629 1037.38 648.629 1037.76 648.783C1037.92 648.86 1038.07 648.937 1038.23 649.014C1038.69 649.322 1037.92 648.706 1038.23 649.014C1038.3 649.091 1038.46 649.245 1038.53 649.322C1039.15 649.939 1038.38 649.091 1038.69 649.477C1039.23 650.324 1039.3 650.479 1039.54 651.172C1039.77 652.02 1040 652.868 1040.15 653.716C1040.15 654.101 1040.31 654.563 1040.38 654.949C1040.38 654.64 1040.46 655.719 1040.46 655.874C1040.54 656.798 1040.61 657.646 1040.77 658.571C1041 660.729 1041.62 662.81 1042 664.968C1042.16 665.97 1042.08 667.357 1042.08 668.513C1042.08 670.055 1042.08 671.596 1042.08 673.215C1042.08 677.376 1048.55 677.376 1048.55 673.215C1048.55 670.132 1048.78 666.895 1048.32 663.812C1048.17 662.733 1047.78 661.654 1047.55 660.498C1047.4 659.958 1047.32 659.419 1047.24 658.879C1047.24 658.802 1047.17 658.263 1047.24 658.879C1047.24 658.571 1047.17 658.263 1047.17 657.954C1046.7 653.561 1046.47 648.629 1043.47 645.083C1040.23 641.23 1034.29 640.845 1029.98 643.003C1025.35 645.392 1024.28 651.018 1022.81 655.488C1022.35 656.953 1022.12 658.494 1021.81 659.958C1021.66 660.652 1021.5 661.268 1021.19 661.962C1020.96 662.579 1021.5 661.346 1021.19 662.116C1021.19 662.27 1021.04 662.425 1020.96 662.656C1019.73 665.353 1020.58 667.434 1021.73 670.055C1022.43 671.673 1024.82 672.058 1026.2 671.211C1027.82 670.286 1028.13 668.359 1027.36 666.741L1027.44 666.663Z" fill="#231F20"/>
<path d="M1006.24 716.067C1003.16 715.759 1001.85 721.385 1001.39 723.389C1000.62 726.78 1000.15 729.246 1000.15 732.868C1000.15 737.261 999.767 741.346 1001.08 745.431C1001.62 747.127 1002.39 748.822 1002.7 750.595C1002.93 752.136 1002.46 753.678 1002.93 755.219C1004.39 760.845 1004.55 767.011 1007.47 772.252C1010.02 776.799 1013.02 781.577 1018.57 783.119C1022.89 784.275 1024.74 782.348 1027.05 779.111C1032.45 771.635 1031.98 760.075 1031.98 751.134C1031.98 744.892 1032.21 738.957 1030.83 733.023C1029.44 727.088 1028.28 719.612 1024.51 714.603C1022.5 711.905 1016.26 710.364 1013.02 711.057C1010.87 711.52 1004.31 713.524 1003.85 715.913" fill="white"/>
<path d="M1006.24 712.829C1000.61 712.983 998.919 719.225 997.994 723.773C996.453 730.863 995.913 739.341 997.994 746.354C998.688 748.667 999.381 750.516 999.536 752.983C999.613 754.909 999.921 756.605 1000.31 758.455C1001.15 762.308 1001.54 766.239 1002.93 770.015C1005.01 775.796 1008.94 782.193 1014.56 785.121C1028.98 792.674 1034.53 773.098 1035.14 762.539C1036.07 747.819 1035.91 731.634 1029.98 717.915C1027.2 711.518 1022.04 707.896 1014.87 707.896C1010.02 707.896 1002.54 710.362 1000.77 715.218C999.304 719.148 1005.62 720.844 1007.01 716.913C1007.24 716.22 1010.63 715.295 1011.4 715.064C1012.95 714.524 1014.41 714.216 1016.11 714.447C1021.58 715.064 1023.58 718.609 1025.12 723.541C1026.66 728.474 1028.13 734.254 1028.59 739.572C1029.05 744.89 1028.82 750.516 1028.82 755.988C1028.82 761.152 1028.67 766.393 1027.28 771.403C1026.2 775.025 1023.74 781.576 1019.03 779.958C1014.33 778.339 1011.33 773.175 1009.55 768.936C1007.55 764.081 1006.24 757.607 1006.16 752.366C1006.09 749.129 1004.78 746.432 1004.08 743.349C1003.31 739.958 1003.54 736.335 1003.62 732.867C1003.62 729.861 1004.08 726.933 1004.85 724.004C1005.01 723.31 1005.93 719.303 1006.55 719.303C1010.71 719.225 1010.71 712.674 1006.55 712.829H1006.24Z" fill="#231F20"/>
<path d="M-94.6434 2118.46C-47.3988 2127.01 -6.78222 2133.56 42.6204 2132.71C68.9788 2132.25 145.356 2129.17 138.728 2085.7C152.755 2105.74 161.618 2108.36 187.437 2116.07C252.331 2135.41 410.636 2140.42 423.044 2090.17C432.447 2118.61 489.557 2129.32 507.822 2131.25C558.073 2136.57 609.094 2129.09 659.19 2124.24C692.639 2121 705.741 2100.04 729.865 2077.84C783.815 2118.15 923.005 2135.18 975.876 2089.32C1035.3 2143.81 1144.05 2119.07 1186.51 2053.79C1181.12 2002.77 1175.49 1958.76 1170.4 1907.67C1164.32 1847.09 1155.61 1817.26 1169.25 1758.15C1070.13 1770.79 911.984 1753.37 812.177 1758.15C688.4 1764.01 621.657 1751.52 497.88 1756.14C408.092 1759.54 319.46 1759.07 229.826 1766.01C105.279 1775.64 -18.7283 1781.19 -143.507 1783.12C-104.663 1850.48 -116.3 1940.81 -116.146 2015.03C-116.146 2040.15 -110.905 2099.96 -94.5664 2118.38L-94.6434 2118.46Z" fill="#BED78A" stroke="#B2C874" stroke-width="6.85934" stroke-miterlimit="10"/>
<path d="M85.088 1523.24C94.2594 1536.73 114.76 1550.83 131.254 1540.43C135.261 1537.96 137.959 1533.8 141.35 1530.64C145.974 1526.4 150.521 1524.93 155.608 1521.62C163.701 1516.23 165.011 1505.51 169.866 1497.19C180.348 1506.36 195.993 1513.91 210.406 1509.37C222.737 1505.44 221.581 1494.11 226.976 1484.93C232.834 1474.92 240.926 1483.7 249.635 1487.63C263.893 1494.03 282.159 1497.34 295.338 1486.09C309.596 1473.91 299.886 1455.26 303.97 1440C312.063 1445.94 320.078 1453.95 330.252 1456.11C342.891 1458.81 354.76 1451.79 361.543 1441.93C368.71 1431.45 373.566 1417.34 374.182 1404.78C374.413 1399.39 374.799 1393.68 373.334 1388.44C372.024 1383.66 369.173 1381.12 371.022 1375.65C381.658 1371.33 390.444 1382.82 401.08 1375.42C413.797 1366.48 414.028 1353.91 416.186 1339.81C419.5 1317.77 414.336 1297.81 402.082 1278.92C420.425 1286.17 441.697 1286.24 454.259 1267.67C458.806 1260.97 462.737 1249.33 464.278 1241.47C465.589 1234.68 463.97 1227.82 465.203 1221.12C474.683 1218.65 485.011 1222.43 494.49 1220.89C502.12 1219.66 512.756 1213.03 518.228 1207.17C529.481 1195.07 524.702 1175.19 524.009 1160.23C535.261 1159.93 546.513 1171.02 558.305 1166.32C567.631 1162.62 576.88 1147.05 579.115 1138.27C581.735 1127.79 576.88 1118.62 573.411 1109.14C571.022 1102.66 570.02 1095.88 565.935 1090.1C561.234 1083.39 553.527 1079.69 549.673 1072.37C552.987 1069.14 556.687 1069.83 560.463 1067.52C564.779 1064.82 566.244 1060.58 569.249 1056.65C573.026 1051.72 574.876 1051.02 576.109 1045.09C576.725 1042.08 575.955 1038.92 576.648 1035.76C581.041 1015.88 576.417 1002.08 564.009 985.59C558.537 978.345 559.076 977.035 566.398 970.022C574.105 962.623 582.66 954.376 587.438 944.665C591.369 936.727 593.681 927.864 591.369 919.463C590.059 914.607 587.284 908.904 583.739 905.205C579.654 900.966 573.257 899.887 570.097 894.723C576.648 880.002 585.203 868.056 586.976 851.64C587.824 843.394 587.747 834.53 580.887 828.673C574.028 822.816 562.082 827.363 559.384 817.575C558.228 813.413 561.003 810.099 561.696 806.322C562.544 801.544 562.544 797.151 562.544 792.218C562.544 784.974 563.469 777.267 559.461 770.793C557.612 767.787 554.837 765.089 551.831 763.239C547.438 760.542 540.81 761.929 537.419 757.999C532.024 751.679 540.964 738.268 538.498 729.714C534.259 714.993 516.302 698.577 502.043 694.415C487.785 690.253 471.677 699.502 468.44 679.617C465.589 661.968 471.446 644.01 462.968 627.286C455.03 611.64 437.072 607.941 421.427 614.261C419.192 608.172 427.824 599.155 428.209 592.064C428.826 579.193 427.515 569.405 421.35 558.153C417.188 550.523 411.947 544.203 404.317 539.733C394.529 533.953 387.593 537.113 378.113 534.492C375.647 527.093 377.805 519.078 375.184 511.371C371.408 500.35 366.86 491.718 358.228 484.165C350.675 477.459 340.502 470.6 330.483 467.98C323.778 466.207 319.616 467.825 313.835 470.831C310.444 472.604 303.508 480.542 300.348 480.928C293.874 481.621 282.005 464.974 277.612 461.043C267.67 452.026 258.19 444.704 246.938 437.305C240.232 432.835 234.298 428.519 226.976 424.743C218.961 420.658 214.722 421.737 206.167 423.972C196.841 426.438 190.83 426.13 185.82 434.762C180.579 443.856 181.658 446.554 172.41 440.851C165.165 436.38 159.847 435.918 152.063 433.298C141.196 429.675 133.412 422.431 121.774 419.579C97.9588 413.721 75.1458 408.404 50.7912 412.874C19.4233 418.577 -8.24532 429.752 -35.7598 445.783C-44.6229 450.947 -55.1817 455.879 -62.4264 463.278C-72.0603 473.143 -70.673 482.7 -73.6788 494.723C-75.2202 500.735 -78.9196 505.744 -80.6152 511.91C-82.0796 517.536 -83.8522 523.086 -85.779 528.635C-90.0179 541.197 -92.0218 554.299 -93.2549 567.556C-94.8734 584.897 -95.4129 602.546 -97.3397 619.81C-99.4206 638.23 -99.1123 655.725 -99.806 674.299C-100.577 694.877 -103.428 714.839 -103.351 735.571C-103.274 762.854 -103.351 790.214 -103.351 817.498C-103.351 858.808 -105.432 900.735 -100.731 941.814C-98.4187 961.929 -99.9601 981.968 -97.3397 1002.08C-94.2568 1026.44 -96.569 1051.64 -99.1894 1075.92C-103.505 1115.3 -99.9601 1157 -99.9601 1196.61C-99.9601 1216.42 -101.27 1236.61 -99.1894 1256.26C-97.1085 1275.92 -98.1104 1295.42 -96.3378 1314.99C-93.7173 1344.36 -87.3975 1375.03 -78.9197 1403.32C-75.1432 1415.8 -70.1335 1429.6 -60.4996 1438.77C-53.1008 1445.78 -43.8522 1451.79 -35.7598 1458.04C-25.3551 1466.13 -16.1837 1473.76 -4.23761 1479.54C7.86257 1485.4 18.8067 1495.57 31.9859 1499.04C45.4733 1502.58 57.2652 1506.59 70.0591 1513.22C79.693 1518.23 90.3288 1526.94 101.812 1526.71" fill="#F3BACD"/>
<path d="M82.544 1524.7C92.7174 1539.03 112.448 1552.98 130.405 1544.2C135.261 1541.81 138.267 1537.72 142.043 1533.95C146.59 1529.4 152.525 1527.4 157.611 1523.7C165.858 1517.69 167.554 1507.13 172.255 1498.65L167.708 1499.27C178.421 1508.36 192.293 1515.53 206.706 1513.22C212.486 1512.29 217.804 1509.82 221.272 1505.05C224.509 1500.5 225.588 1494.95 227.746 1489.86C229.365 1486.01 231.677 1482.39 236.378 1484.01C239.769 1485.16 242.775 1487.55 245.935 1489.25C252.255 1492.56 259.268 1494.87 266.282 1495.95C278.922 1497.88 293.257 1495.03 301.195 1484.16C310.598 1471.37 303.276 1455.18 306.744 1440.92L302.505 1442.62C311.831 1449.56 320.694 1458.26 332.871 1459.5C343.97 1460.65 354.683 1455.1 361.696 1446.7C369.172 1437.76 373.873 1425.74 376.031 1414.41C377.187 1407.94 377.727 1401.15 377.264 1394.6C377.11 1391.75 376.648 1388.98 375.723 1386.28C374.567 1382.81 372.871 1380.5 373.873 1376.57L371.869 1378.57C377.881 1376.49 382.968 1379.34 388.825 1380.5C393.758 1381.5 398.382 1380.81 402.621 1378.03C411.792 1372.02 415.723 1362.16 417.496 1351.67C419.499 1339.42 421.041 1327.09 419.268 1314.68C417.264 1301.27 411.947 1288.86 404.702 1277.53L401.465 1281.77C417.11 1287.78 435.684 1289.09 449.326 1277.69C456.417 1271.75 460.578 1263.43 463.661 1254.95C465.28 1250.48 466.667 1245.93 467.438 1241.23C468.44 1234.83 467.284 1228.36 468.209 1221.89L466.205 1223.89C476.84 1221.58 487.785 1226.05 498.343 1222.97C506.436 1220.58 514.76 1215.41 520.54 1209.17C532.717 1195.84 528.016 1176.34 527.168 1160.15L524.239 1163.08C536.571 1163.31 547.361 1174.18 560 1168.78C569.943 1164.55 577.11 1152.75 580.81 1143.04C586.128 1129.09 579.037 1117.07 575.029 1103.89C573.025 1097.49 571.176 1091.33 566.783 1086.09C562.39 1080.85 556.07 1077.07 552.447 1070.83L551.985 1074.3C554.914 1071.91 558.998 1071.83 562.158 1069.9C564.856 1068.28 566.783 1065.82 568.555 1063.27C571.638 1058.65 576.417 1054.1 578.343 1048.78C579.422 1045.7 579.422 1042.7 579.499 1039.46C579.654 1035.22 580.887 1031.06 581.195 1026.74C581.734 1020.11 581.195 1013.41 579.191 1007.01C577.187 1000.62 574.104 994.835 570.482 989.286C568.632 986.434 565.087 983.274 564.008 979.96C562.775 976.261 566.86 973.64 569.249 971.251C580.424 960.461 591.754 948.746 594.682 932.87C596.147 924.7 594.682 916.762 590.598 909.44C588.979 906.434 586.898 903.583 584.201 901.425C580.501 898.496 575.569 897.031 572.794 893.101V896.03C579.114 882.234 587.592 869.132 589.75 853.872C591.368 842.465 590.289 827.744 577.496 823.351C573.18 821.887 564.548 822.581 562.698 817.494C561.311 813.795 564.085 809.633 564.779 805.933C565.549 801.694 565.549 797.378 565.549 793.139C565.627 780.191 565.241 764.006 550.135 759.151C547.284 758.226 543.738 758.534 541.118 756.993C537.727 754.989 538.652 750.596 539.268 747.359C540.347 741.887 542.505 736.338 541.734 730.712C540.039 718.766 529.172 707.667 520.077 700.654C510.212 693.101 500.424 690.018 488.17 690.018C483.237 690.018 477.149 690.481 473.912 686.01C469.519 679.999 470.521 669.825 470.675 662.735C470.983 646.781 471.677 628.13 458.729 616.492C448.324 607.167 433.449 606.473 420.887 611.328L424.432 613.332C423.276 608.939 427.207 603.852 428.902 599.999C430.598 596.145 431.291 592.985 431.368 588.901C431.6 578.496 429.904 568.554 425.357 559.151C421.272 550.75 415.338 543.043 407.399 537.957C398.305 532.176 388.979 533.949 379.037 531.483L381.041 533.486C379.037 526.55 380.347 519.305 378.729 512.292C377.342 506.511 374.644 500.577 371.638 495.49C365.395 484.7 355.145 476.299 344.355 470.365C333.565 464.431 322.621 461.579 311.831 468.515C308.286 470.75 305.742 474.296 302.274 476.531C298.112 479.228 294.259 474.296 291.407 471.367C284.317 464.122 278.151 456.878 270.29 450.404C259.885 441.849 248.71 434.142 237.303 426.897C232.062 423.583 226.282 419.806 220.039 418.959C214.567 418.265 209.326 420.038 204.085 421.271C199.461 422.427 194.529 423.12 190.444 425.664C186.359 428.207 183.816 432.677 181.503 436.993C181.118 437.764 180.193 440.384 179.191 440.616C177.342 441.001 173.103 437.379 171.561 436.531C165.704 433.448 159.307 432.292 153.141 430.211C147.361 428.207 142.12 424.97 136.725 422.118C130.251 418.727 123.7 416.646 116.61 414.951C102.428 411.56 87.939 408.477 73.2955 408.091C58.6519 407.706 44.702 410.481 30.7521 414.18C3.2377 421.579 -21.5022 434.296 -46.165 448.169C-56.3384 453.949 -66.9742 460.654 -71.4443 472.061C-73.294 476.839 -73.9106 482.003 -74.8355 487.012C-76.1457 494.411 -79.2285 500.269 -81.926 507.205C-92.9472 535.798 -95.8759 565.24 -97.8798 595.529C-98.9588 611.482 -100.963 627.359 -101.579 643.39C-102.196 659.421 -102.196 675.375 -103.429 691.405C-104.662 707.436 -105.972 723.467 -105.895 739.575C-105.818 755.683 -105.895 772.022 -105.895 788.284C-105.895 819.729 -106.589 851.174 -106.358 882.619C-106.126 914.064 -102.581 947.051 -101.502 979.344C-100.963 995.529 -98.4193 1011.48 -98.4193 1027.74C-98.4193 1044.01 -100.115 1059.65 -101.733 1075.53C-104.97 1106.36 -103.737 1137.42 -102.889 1168.32C-102.042 1199.23 -103.506 1231.06 -101.117 1262.43C-99.8836 1278.38 -100.346 1294.33 -99.19 1310.21C-98.111 1325.16 -95.953 1340.04 -93.2555 1354.68C-90.558 1369.32 -87.1669 1383.51 -83.0821 1397.69C-79.6139 1409.94 -75.7603 1422.73 -68.2844 1433.22C-60.8085 1443.7 -48.7854 1451.02 -38.3808 1458.96C-27.1284 1467.51 -16.3384 1475.84 -3.77578 1482.39C7.55369 1488.32 17.4959 1497.03 29.8273 1500.88C43.4689 1505.2 56.8793 1508.82 69.6731 1515.68C80.1548 1521.31 89.7887 1528.94 102.197 1529.17C105.897 1529.17 105.897 1523.47 102.197 1523.39C89.018 1523.16 77.9197 1513.06 66.4361 1507.67C54.9525 1502.27 42.0045 1499.19 29.7502 1494.8C17.4959 1490.4 7.24542 1481.69 -4.16113 1475.76C-16.1072 1469.59 -26.2806 1460.88 -36.9935 1452.79C-47.7064 1444.7 -60.0378 1436.92 -66.9742 1424.35C-73.4482 1412.56 -76.8393 1399 -80.2305 1386.13C-87.8605 1357.07 -93.0243 1327.24 -94.0262 1297.19C-94.5657 1281.93 -95.0281 1266.82 -96.3383 1251.64C-97.6486 1236.45 -97.032 1221.73 -96.8008 1206.78C-96.3383 1176.57 -98.2651 1146.36 -98.0339 1116.14C-97.8027 1085.93 -92.4077 1055.8 -92.5618 1025.51C-92.6389 1010.02 -95.1052 994.758 -95.6447 979.344C-96.1842 963.929 -96.8778 948.361 -98.3422 932.792C-101.117 902.349 -100.577 871.675 -100.269 841.155C-99.9607 810.635 -100.038 779.421 -100.038 748.515C-100.038 717.61 -96.8008 687.166 -96.1071 656.415C-95.7988 641.155 -94.5657 626.049 -93.2555 610.866C-91.9453 595.683 -91.3287 580.346 -89.7873 565.163C-88.2459 549.98 -84.4694 535.567 -79.9222 520.847C-77.7642 513.91 -75.452 507.513 -72.6004 500.808C-70.2883 495.336 -69.4405 489.787 -68.4385 484.007C-67.4366 478.226 -65.9723 472.523 -62.2728 467.668C-58.111 462.273 -52.2536 458.496 -46.3962 455.105C-34.8355 448.323 -23.1207 441.695 -11.0205 435.991C14.336 423.891 43.8543 413.409 72.2935 414.026C87.4766 414.334 102.428 417.648 117.149 421.194C123.931 422.812 129.943 425.124 136.031 428.515C141.118 431.29 146.128 434.064 151.6 435.914C157.997 438.072 164.471 439.228 170.328 442.619C173.18 444.238 176.956 447.244 180.579 446.396C183.507 445.702 184.895 443.005 186.205 440.538C189.056 435.375 191.292 430.982 197.226 428.978C202.313 427.282 208.093 425.972 213.334 425.047C220.733 423.66 226.59 427.128 232.756 430.905C244.625 438.226 256.263 446.242 266.975 455.105C274.606 461.425 280.54 468.438 287.399 475.452C291.715 479.845 297.958 486.088 304.432 482.157C308.132 479.922 310.829 476.377 314.374 473.91C320.463 469.671 326.706 469.209 333.565 471.675C346.128 476.145 358.844 485.702 365.935 497.032C369.403 502.504 372.409 509.055 373.565 515.452C374.721 521.849 373.796 528.554 375.646 535.028C375.954 535.953 376.725 536.8 377.65 537.032C386.898 539.344 396.224 537.494 404.625 542.889C413.025 548.284 418.96 557.224 422.428 566.473C425.511 574.642 427.669 586.357 424.894 594.912C422.736 601.463 417.11 607.398 418.96 614.72C419.345 616.107 421.041 617.263 422.505 616.723C431.6 613.255 441.927 612.484 450.636 617.417C461.426 623.583 464.74 636.299 465.126 647.86C465.665 661.502 459.422 690.712 478.459 694.874C485.858 696.492 493.565 694.642 500.964 696.569C510.598 699.113 519.23 706.126 525.858 713.371C529.172 716.993 532.101 720.924 534.181 725.317C536.648 730.403 536.494 734.488 535.26 739.883C533.796 746.203 530.713 754.758 536.185 760.076C538.883 762.696 542.428 763.082 545.973 763.775C552.679 765.163 557.765 770.326 559.384 777.032C560.694 782.427 560 788.361 560 793.833C560 797.07 560 800.307 559.461 803.467C558.921 806.627 557.688 809.17 556.995 812.176C555.299 819.575 560.232 824.97 567.091 826.665C570.559 827.513 574.567 827.513 577.804 829.286C583.507 832.446 584.971 839.382 584.894 845.394C584.817 857.34 580.347 868.053 575.106 878.534C572.871 883.005 569.326 888.014 568.093 892.87C567.168 896.569 570.713 899.267 573.565 901.193C577.958 904.122 581.966 905.895 584.971 910.519C589.056 916.993 590.752 924.546 589.21 932.022C586.667 944.276 578.652 953.91 570.02 962.465C564.625 967.783 554.76 974.026 559.307 982.658C562.004 987.744 566.166 992.137 569.018 997.147C571.869 1002.16 573.95 1007.24 575.029 1012.79C576.185 1018.73 576.108 1024.97 575.029 1030.9C574.104 1036.38 574.952 1043.62 572.178 1048.4C569.788 1052.56 566.089 1056.72 563.314 1060.65C559.461 1066.05 552.987 1065.97 548.131 1069.9C547.129 1070.67 547.052 1072.37 547.669 1073.37C550.289 1077.84 553.912 1081.23 557.765 1084.7C562.852 1089.32 566.166 1093.95 568.324 1100.58C572.178 1112.45 580.116 1126.01 576.339 1138.73C573.719 1147.51 566.551 1160 557.457 1163.31C546.667 1167.24 535.415 1157.15 524.548 1156.99C523.006 1156.99 521.542 1158.38 521.619 1159.92C522.39 1174.72 527.476 1194.06 515.607 1205.86C509.827 1211.64 501.272 1216.95 493.025 1217.88C483.546 1218.96 474.297 1215.95 464.894 1218.03C464.047 1218.19 462.968 1219.11 462.891 1220.04C461.503 1229.59 462.891 1238.69 460.039 1248.01C457.573 1256.34 454.182 1264.89 447.939 1271.14C435.839 1283.16 418.035 1281.46 403.392 1275.84C401.002 1274.91 398.844 1278.07 400.155 1280.08C410.482 1296.26 416.185 1314.37 414.567 1333.72C413.873 1341.81 412.948 1350.75 410.405 1358.53C407.862 1366.32 401.079 1375.8 391.908 1374.64C385.203 1373.79 379.268 1370.17 372.332 1372.02C365.395 1373.87 368.478 1381.73 370.251 1386.36C373.642 1395.22 372.332 1406.86 370.251 1415.95C368.17 1425.05 364.239 1434.76 358.151 1442.16C352.062 1449.56 341.735 1455.1 331.638 1452.95C321.542 1450.79 313.912 1443.08 306.051 1437.15C304.586 1436.07 302.197 1437.15 301.812 1438.84C298.343 1453.25 306.744 1472.68 293.873 1483.7C279.23 1496.18 258.421 1488.71 243.854 1480.46C239.076 1477.76 233.45 1475.3 228.517 1478.92C223.276 1482.77 221.966 1490.4 219.731 1496.11C211.561 1516.84 184.355 1504.82 172.409 1494.64C171.022 1493.49 168.864 1493.49 167.862 1495.26C164.008 1502.27 162.467 1511.52 156.532 1517.15C152.833 1520.69 147.669 1522.39 143.507 1525.24C139.962 1527.71 137.342 1530.87 134.413 1533.95C119.692 1549.29 97.9583 1535.18 88.1702 1521.31C86.0122 1518.3 81.0026 1521.15 83.1606 1524.24L82.544 1524.7Z" fill="#F09BBA"/>
<path d="M-5.70383 908.051C0.153582 918.07 4.62371 928.09 8.47728 938.957C13.2557 952.29 19.7297 963.542 23.6603 977.184C30.2114 999.766 42.3116 1019.73 48.0148 1042.46C53.4098 1063.97 61.8106 1085.08 68.8241 1106.2C71.0591 1112.98 75.6834 1119 77.6872 1125.78C79.3057 1131.33 78.6892 1137.18 80.693 1142.73C83.1593 1149.59 85.009 1160.15 88.7855 1166.01C102.042 1158.3 111.83 1148.28 124.315 1139.96C132.793 1134.33 141.656 1130.32 149.132 1123.16C154.913 1117.61 159.152 1112.21 165.934 1107.97C180.038 1099.11 192.523 1089.86 205.317 1079.38C218.111 1068.9 230.211 1056.64 245.548 1050.09C246.396 1053.79 236.839 1065.35 234.296 1069.44C228.439 1078.69 219.421 1082.39 212.562 1090.25C206.011 1097.8 201.464 1106.97 194.527 1114.45C187.128 1122.54 181.04 1131.48 173.101 1139.26C157.071 1154.91 142.119 1171.87 128.554 1189.67C119.075 1202.15 92.7932 1220.5 95.5678 1237.45C96.9551 1246.09 98.1882 1253.18 98.3424 1261.96C98.4194 1269.59 101.348 1275.91 101.888 1283.31C103.044 1298.88 100.886 1314.76 101.656 1330.32C102.042 1337.72 104.739 1344.43 105.202 1351.75C105.664 1358.84 105.125 1366.16 105.125 1373.25C105.125 1379.11 101.425 1408.01 107.976 1411.33C125.394 1405.08 144.046 1390.98 159.537 1381.35C171.637 1373.87 183.737 1366.39 196.608 1360.23C201.849 1357.76 207.321 1356.07 212.331 1353.21C218.496 1349.75 223.352 1344.58 229.672 1341.35C243.082 1334.56 257.032 1328.09 269.749 1319.84C276.993 1315.14 285.703 1313.14 292.716 1308.13C299.807 1303.12 302.735 1297.72 311.676 1295.8C304.585 1308.67 288.169 1317.53 278.458 1328.24C265.818 1342.19 251.637 1353.91 237.918 1366.93C227.051 1377.26 213.949 1386.59 202.466 1396.37C188.67 1408.09 176.03 1420.96 162.157 1432.6C152.909 1440.31 140.115 1446.62 132.562 1455.95C128.092 1461.5 124.701 1464.81 119.306 1470.13C113.911 1475.45 108.978 1481.38 108.207 1489.25C107.437 1497.03 109.441 1505.2 108.593 1513.06C107.976 1519.3 105.202 1524.93 104.893 1531.25C104.2 1545.28 105.664 1559.46 105.125 1573.56C104.893 1580.5 102.196 1586.2 101.425 1592.91C100.732 1599.3 101.579 1606.47 101.579 1612.94C101.579 1620.57 101.888 1628.2 101.733 1635.83C101.425 1646.16 98.2653 1655.64 98.1882 1666.05C97.8029 1700.88 89.9416 1737.8 95.6448 1772.79C98.1882 1788.13 99.2672 1803.62 101.965 1818.72C104.123 1830.83 108.67 1842.69 111.29 1854.72C114.065 1867.51 117.302 1879.92 118.304 1892.79C118.92 1899.96 120.308 1907.66 122.157 1914.68C122.851 1917.22 124.315 1919.15 124.855 1921.77C125.857 1926.47 124.007 1931.56 124.932 1936.18C127.475 1948.51 130.943 1960.92 131.945 1973.87C132.485 1981.27 134.412 1987.36 135.414 1994.6C136.493 2002.54 135.568 2009.32 137.649 2017.18C142.196 2034.06 146.974 2044 128.4 2051.09C115.683 2055.95 103.506 2059.57 90.2499 2062.73C76.9936 2065.89 63.352 2069.82 50.2499 2071.29C37.3019 2072.75 23.1208 2071.06 10.0958 2071.13C-4.1624 2071.21 -51.0988 2068.98 -64.7404 2066.12C-70.2125 2064.97 -82.0814 2067.05 -86.0891 2064.12C-92.409 2059.5 -89.7886 2048.09 -89.7115 2041.23C-89.5573 2027.82 -92.1778 2015.1 -92.8714 2001.69C-94.1816 1977.65 -101.503 1953.83 -103.507 1929.71C-105.588 1905.04 -74.3743 1880 -77.2259 1855.49C-78.9986 1840.46 -80.54 1826.05 -80.0005 1810.86C-79.3839 1793.45 -76.3011 1776.57 -76.3782 1759.07C-76.6864 1713.75 -76.4552 1668.44 -76.4552 1623.12C-76.4552 1595.37 -75.2992 1568.47 -72.2934 1540.96C-69.3647 1514.68 -67.9774 1488.01 -63.8926 1462.04C-58.5747 1428.36 -55.7231 1394.14 -51.33 1360.38C-47.0911 1327.63 -46.2433 1296.41 -46.2433 1263.35C-46.2433 1253.56 -46.2433 1243.7 -46.3204 1233.91C-46.4745 1217.03 -43.0063 1200.84 -42.7751 1184.04C-42.4668 1163.31 -39.5381 1143.43 -39.5381 1122.54C-39.5381 1112.68 -39.5381 1102.89 -39.5381 1093.02C-39.6152 1082.23 -37.303 1072.52 -36.147 1061.96C-35.145 1052.87 -33.0641 1044.39 -32.6788 1035.22C-32.2163 1023.27 -33.2183 1011.25 -32.91 999.303C-32.6017 989.438 -29.5959 980.036 -29.2876 970.248C-28.9793 960.228 -28.4398 952.29 -26.8213 942.502C-24.5092 928.552 -28.6711 914.679 -22.7366 901.5" fill="#C9A997"/>
<path d="M-8.16941 909.438C0.924998 925.315 6.62828 942.656 13.95 959.38C21.2718 976.105 26.2044 993.523 33.372 1010.17C36.9943 1018.65 40.6167 1027.2 43.3142 1035.99C46.0117 1044.78 48.3238 1054.33 51.2525 1063.43C54.1812 1072.52 57.4953 1081.85 60.7323 1091.02C63.661 1099.26 66.0502 1107.82 70.0579 1115.6C72.8325 1121 75.2987 1125.93 76.0695 1132.02C76.609 1136.49 77.1485 1140.57 78.5357 1144.89C80.9249 1152.44 82.3122 1160.54 86.397 1167.47C87.1677 1168.78 89.0174 1169.32 90.3276 1168.47C104.432 1160.07 116.146 1148.28 130.173 1139.73C136.879 1135.64 143.815 1131.79 149.75 1126.55C155.684 1121.31 160.694 1114.91 167.476 1110.44C181.272 1101.27 194.682 1091.87 207.476 1081.38C220.27 1070.9 231.908 1059.26 247.091 1052.48L242.775 1050.02C243.006 1053.1 239.692 1056.88 237.996 1059.26C235.992 1062.19 233.911 1065.04 231.907 1067.9C225.356 1077.15 215.029 1082.39 208.092 1091.25C204.624 1095.64 201.696 1100.42 198.459 1105.04C194.682 1110.36 190.135 1115.14 185.973 1120.23C177.958 1130.02 169.249 1138.88 160.54 1147.97C144.74 1164.47 131.715 1183.5 115.53 1199.53C109.133 1205.93 102.505 1212.33 97.6494 1220.04C92.7939 1227.74 92.2544 1233.91 93.5646 1242.39C94.5666 1248.94 95.1831 1255.33 95.5685 1261.96C95.8768 1267.51 97.2641 1272.75 98.3431 1278.22C100.963 1291.56 98.9596 1305.66 98.7284 1319.15C98.6513 1325.16 98.6513 1331.09 99.6533 1337.03C100.809 1343.43 102.428 1349.51 102.505 1356.07C102.659 1364.7 102.351 1373.25 101.734 1381.88C101.349 1387.59 98.0348 1417.88 110.443 1413.56C132.023 1406.09 150.751 1390.05 170.096 1378.34C182.351 1370.86 194.836 1364.39 208.015 1358.61C214.258 1355.91 219.268 1352.06 224.74 1348.05C230.212 1344.04 236.686 1341.19 242.775 1338.19C255.723 1331.71 267.823 1323.31 281.002 1317.53C286.628 1315.06 292.1 1312.6 296.956 1308.74C302.042 1304.66 305.973 1300.42 312.524 1298.8L309.287 1294.56C301.195 1308.44 285.78 1316.45 274.99 1328.01C262.042 1341.88 247.63 1354.45 233.68 1367.24C219.73 1380.04 204.008 1391.13 189.904 1403.93C175.8 1416.72 162.466 1429.59 146.821 1440.38C140.578 1444.7 134.721 1449.17 129.865 1454.95C124.393 1461.5 117.842 1466.97 112.447 1473.6C107.823 1479.23 105.357 1485.47 105.202 1492.79C105.125 1497.49 105.742 1502.19 105.896 1506.89C106.05 1512.37 104.971 1517.38 103.661 1522.62C98.8825 1541.73 105.588 1561.85 101.272 1580.96C99.422 1589.28 98.266 1596.68 98.5743 1605.24C98.9596 1615.1 99.2679 1625.12 98.9596 1634.99C98.6513 1644.85 95.9538 1654.33 95.4143 1664.12C94.8748 1673.91 94.7207 1683.62 93.95 1693.33C92.4086 1712.67 90.2506 1732.02 90.8671 1751.44C91.4837 1770.86 94.9519 1789.9 97.5723 1808.94C100.193 1827.97 106.744 1847.16 110.983 1866.35C113.064 1875.91 114.759 1885.39 115.761 1895.1C116.609 1903.27 117.996 1911.44 120.848 1919.15C122.929 1924.77 121.619 1928.78 121.927 1934.49C122.235 1938.88 123.622 1943.27 124.547 1947.59C126.782 1957.53 128.247 1967.32 129.48 1977.49C130.636 1986.89 132.794 1995.83 133.256 2005.31C133.642 2013.1 135.568 2020.11 137.495 2027.59C138.728 2032.29 140.27 2038.07 137.264 2042.39C132.948 2048.71 122.543 2050.71 115.761 2052.94C97.7265 2058.96 78.767 2063.66 60.1157 2067.28C42.5435 2070.67 24.8171 2068.82 7.01362 2068.59C-15.7995 2068.36 -39.5374 2067.9 -61.9651 2064.04C-67.6684 2063.04 -73.1405 2063.5 -78.8437 2063.19C-82.6973 2062.96 -85.4719 2062.19 -86.6279 2058.11C-87.7069 2054.64 -87.1674 2050.55 -86.9362 2047.01C-86.3196 2038.15 -87.0133 2029.44 -88.0152 2020.65C-89.0942 2010.79 -89.6337 2000.84 -90.7898 1991.06C-93.179 1971.33 -98.4198 1951.98 -100.27 1932.17C-101.657 1917.22 -93.3331 1904.58 -86.1655 1892.1C-79.5374 1880.61 -72.8322 1868.36 -74.2965 1854.64C-76.4545 1834.37 -77.6877 1814.64 -75.7609 1794.22C-71.9073 1753.52 -73.6029 1712.6 -73.5258 1671.75C-73.4487 1630.9 -74.1424 1589.9 -70.1347 1549.21C-68.1308 1528.86 -66.3582 1508.44 -64.2002 1488.01C-62.0422 1467.59 -58.6511 1448.32 -56.1848 1428.44C-51.2522 1387.97 -45.4719 1347.28 -43.9305 1306.51C-43.1598 1286.55 -43.1598 1266.51 -43.2368 1246.47C-43.2368 1236.45 -43.391 1226.59 -42.4661 1216.57C-41.5413 1206.55 -40.231 1197.15 -39.8457 1187.43C-39.075 1167.7 -36.9941 1147.97 -36.5316 1128.24C-36.3004 1118.46 -36.3775 1108.67 -36.4546 1098.8C-36.5316 1088.94 -35.4526 1079.07 -33.9883 1069.05C-32.7551 1060.27 -31.2908 1051.4 -30.2118 1042.54C-29.0557 1032.68 -29.5952 1022.73 -29.8264 1012.79C-30.0576 1002.85 -29.2869 992.675 -27.5914 982.425C-26.2041 973.716 -26.2041 965.007 -25.4334 956.22C-24.6627 947.434 -22.89 939.496 -22.89 930.941C-22.89 921.076 -23.5066 911.519 -19.653 902.193C-18.2657 898.725 -23.8149 897.261 -25.2021 900.652C-28.6704 909.053 -28.8245 917.839 -28.6704 926.779C-28.5162 936.413 -30.2118 945.662 -31.0596 955.295C-31.9074 964.929 -31.9844 974.409 -33.6029 983.966C-35.2214 993.523 -35.6838 1003 -35.5297 1012.79C-35.3756 1022.58 -34.759 1033.06 -36.0692 1043.16C-37.3023 1052.64 -38.6896 1062.12 -40.154 1071.6C-43.0827 1091.17 -41.6954 1110.67 -42.312 1130.4C-43.5451 1170.25 -48.9401 1209.94 -48.9401 1249.78C-48.9401 1270.52 -48.9401 1291.25 -49.865 1311.98C-50.7898 1332.71 -53.179 1353.29 -55.6453 1373.95C-58.1116 1394.6 -60.1154 1414.72 -62.7358 1435.06C-65.3563 1455.41 -68.8245 1476.22 -70.7513 1496.95C-74.759 1538.65 -79.0749 1580.19 -79.152 1622.12C-79.2291 1664.04 -79.3832 1705.89 -79.152 1747.74C-79.152 1757.99 -79.152 1768.24 -79.9998 1778.49C-80.8476 1788.74 -82.2349 1799.38 -82.6202 1809.94C-83.0056 1820.5 -82.5432 1830.05 -81.5412 1840.07C-80.7705 1848.4 -78.6125 1857.18 -80.4622 1865.58C-83.6992 1880.15 -93.7956 1892.4 -100.115 1905.66C-102.967 1911.52 -105.356 1917.76 -105.973 1924.24C-106.821 1932.4 -104.894 1941.19 -103.507 1949.28C-101.888 1959.15 -99.8071 1968.86 -98.1886 1978.72C-96.3389 1989.36 -95.7223 2000.07 -94.6433 2010.79C-93.6414 2020.65 -92.1771 2030.44 -92.1771 2040.38C-92.1771 2046.7 -93.7185 2053.41 -92.0229 2059.57C-88.4006 2072.52 -73.2946 2067.97 -63.2753 2069.51C-52.1 2071.29 -40.6935 2072.06 -29.364 2072.75C-17.495 2073.52 -5.54899 2074.06 6.39705 2074.29C23.1215 2074.52 40.0772 2076.3 56.6475 2073.68C75.7612 2070.67 95.1831 2065.51 113.68 2059.73C124.085 2056.49 141.734 2053.02 144.74 2040.3C145.896 2035.37 144.509 2029.98 143.276 2025.2C141.041 2016.72 139.73 2008.86 139.191 2000.07C138.651 1990.21 136.031 1980.65 134.952 1970.86C134.027 1961.77 131.946 1952.83 129.942 1943.89C128.863 1938.96 127.784 1934.33 128.17 1929.24C128.478 1925.08 128.247 1921.69 126.782 1917.84C123.083 1908.13 122.235 1897.95 121.002 1887.7C118.613 1868.82 113.526 1850.32 108.362 1831.98C102.89 1812.48 101.811 1792.21 98.8055 1772.25C95.7997 1752.29 96.8787 1731.25 98.5743 1710.82C100.27 1690.4 100.116 1669.82 103.43 1649.78C104.971 1640.23 105.125 1630.82 104.971 1621.19C104.817 1611.56 103.43 1601.38 104.894 1591.98C105.511 1587.82 106.975 1583.81 107.669 1579.65C108.516 1574.79 108.516 1569.86 108.439 1565.01C108.439 1554.99 107.669 1544.97 107.977 1534.95C108.285 1524.93 112.216 1516.61 111.908 1506.97C111.599 1496.41 109.595 1486.62 116.686 1477.76C122.004 1471.13 128.632 1465.66 134.104 1459.11C139.576 1452.56 146.59 1447.7 153.68 1442.85C169.017 1432.37 182.042 1419.03 195.761 1406.62C209.48 1394.22 226.05 1382.5 240.231 1369.25C254.412 1355.99 268.439 1343.19 281.85 1329.4C292.408 1318.46 306.59 1311.06 314.451 1297.57C315.761 1295.33 313.603 1292.71 311.214 1293.33C301.426 1295.8 295.954 1303.89 287.322 1308.51C282.389 1311.21 276.994 1312.98 271.985 1315.6C266.358 1318.61 261.04 1322.31 255.491 1325.31C244.778 1331.17 232.755 1335.56 222.736 1342.66C218.266 1345.89 214.104 1349.44 209.171 1351.98C203.468 1354.91 197.303 1356.99 191.522 1359.84C170.482 1370.4 151.445 1384.04 131.561 1396.37C126.782 1399.3 122.004 1402.15 116.994 1404.62C115.222 1405.55 110.983 1408.63 109.133 1408.09C108.902 1408.09 109.904 1409.01 108.979 1408.17C108.516 1407.78 108.285 1406.16 108.131 1405.62C106.281 1398.76 107.206 1390.75 107.669 1383.66C108.131 1375.87 108.439 1368.17 108.516 1360.38C108.671 1348.59 104.817 1337.57 104.663 1325.85C104.432 1312.75 105.896 1299.73 105.279 1286.62C105.048 1281.23 103.969 1276.22 102.813 1270.98C101.349 1264.58 101.58 1258.11 100.886 1251.63C100.347 1246.47 99.0367 1241.38 98.6513 1236.22C98.343 1231.67 100.116 1227.43 102.505 1223.58C107.36 1215.64 114.374 1209.09 120.925 1202.62C136.493 1187.13 148.902 1168.78 164.085 1152.91C173.565 1142.96 182.813 1133.33 191.599 1122.77C195.684 1117.84 200 1113.21 203.699 1108.05C207.63 1102.58 211.021 1096.64 215.568 1091.71C219.345 1087.55 223.969 1084.47 228.208 1080.84C232.139 1077.45 235.144 1073.75 238.15 1069.52C241.773 1064.35 249.403 1056.95 248.863 1050.17C248.709 1047.86 246.551 1046.78 244.547 1047.7C230.366 1054.02 219.037 1064.58 207.399 1074.45C193.911 1085.85 179.653 1095.95 164.933 1105.66C158.844 1109.67 154.066 1114.83 148.902 1119.92C142.813 1125.93 135.646 1130.02 128.401 1134.41C114.066 1143.12 102.12 1155.14 87.7072 1163.7L91.6379 1164.7C87.8614 1158.22 86.6282 1150.59 84.3161 1143.5C81.6957 1135.33 82.081 1126.86 78.3816 1118.99C74.2968 1110.29 70.7515 1101.89 67.5916 1092.79C64.4317 1083.7 61.1176 1074.45 58.0348 1065.2C52.3315 1047.86 48.2467 1030.36 41.1562 1013.48C37.5338 1004.85 33.6803 996.297 30.4433 987.511C27.2063 978.725 24.9712 970.247 21.4259 961.847C13.6418 943.349 7.01363 924.005 -3.00563 906.587C-4.85534 903.35 -9.86497 906.278 -8.01526 909.515L-8.16941 909.438Z" fill="#A17C6B"/>
<path d="M23.7382 1205.01C23.7382 1205.01 23.4299 1204.62 23.7382 1205.08C23.7382 1205.01 23.5841 1204.93 23.5841 1204.78C23.4299 1204.47 23.6611 1205.01 23.6611 1205.01C23.6611 1204.85 23.6611 1204.7 23.5841 1204.54C23.7382 1205.01 23.5841 1204.7 23.5841 1204.39C23.5841 1204.24 23.5841 1204.08 23.5841 1203.93C23.5841 1204.31 23.5841 1204.16 23.5841 1203.93C23.8153 1202.77 24.2006 1201.69 24.586 1200.61C24.9713 1199.53 25.2796 1198.46 25.665 1197.38C25.8191 1196.84 25.9733 1196.37 26.1274 1195.84C26.2045 1195.6 26.2815 1195.3 26.4357 1195.06C26.4357 1194.99 26.5128 1194.83 26.5898 1194.76C26.821 1194.06 26.3586 1195.06 26.5898 1194.76C26.821 1194.37 27.0523 1193.91 27.2835 1193.45C27.3605 1193.29 27.4376 1193.21 27.5147 1193.06C27.5147 1193.06 27.1293 1193.45 27.3605 1193.21C27.5147 1193.06 27.823 1192.75 27.9771 1192.6C28.2083 1192.29 27.5918 1192.83 27.9 1192.6C27.9771 1192.6 28.0542 1192.44 28.2083 1192.44C28.2854 1192.44 28.979 1191.98 28.6708 1192.14C28.3625 1192.29 29.1332 1191.98 29.2873 1191.98C29.4415 1191.98 29.5185 1191.98 29.6727 1191.9C29.6727 1191.9 30.2893 1191.83 29.981 1191.9C29.6727 1191.9 30.5205 1191.9 30.6746 1191.9C30.9829 1191.9 31.3682 1191.9 31.6765 1191.9C31.8307 1191.9 32.0619 1191.9 32.216 1192.06C32.3702 1192.06 32.5243 1192.14 32.6014 1192.21C32.9867 1192.37 32.139 1191.9 32.7555 1192.29C32.9097 1192.37 33.3721 1192.75 33.0638 1192.44C33.4492 1192.75 33.218 1192.6 33.0638 1192.44L33.218 1192.75C33.218 1192.75 33.218 1192.83 33.218 1192.6C33.218 1192.75 33.3721 1192.91 33.3721 1193.06C33.5262 1193.37 33.6033 1193.75 33.7575 1194.06C34.4511 1195.76 35.453 1196.99 36.3779 1198.53C37.3798 1200.15 37.8422 1201.85 39.0754 1203.31C40.1544 1204.54 42.2353 1204.39 43.3143 1203.31C44.5474 1202.08 44.3933 1200.31 43.3143 1199.07C43.5455 1199.38 43.3143 1198.99 43.2372 1198.92C43.1601 1198.76 43.006 1198.53 42.9289 1198.38C42.6977 1197.99 42.5436 1197.61 42.3894 1197.3C42.0041 1196.53 41.6958 1195.68 41.1563 1194.99C40.6939 1194.29 40.2314 1193.68 39.769 1192.98C39.3066 1192.29 39.3837 1192.06 38.9983 1191.21C38.3047 1189.36 37.1486 1187.74 35.2989 1186.89C33.6033 1186.12 31.6765 1185.74 29.7497 1185.97C26.2815 1186.28 23.4299 1187.97 21.7343 1191.06C20.4241 1193.52 19.8846 1196.3 18.8827 1198.92C17.6496 1202.23 16.4164 1206.47 19.4222 1209.25C20.5783 1210.32 22.505 1210.4 23.6611 1209.25C24.8172 1208.09 24.8172 1206.16 23.6611 1205.01H23.7382Z" fill="#231F20"/>
<path d="M56.03 1193.98L55.7988 1193.75C56.03 1193.75 56.1842 1194.29 55.9529 1193.98C55.7988 1193.68 56.03 1193.98 56.03 1194.21L55.9529 1193.91V1193.6C55.9529 1193.6 55.9529 1194.37 55.9529 1193.83C55.9529 1193.6 55.9529 1193.37 55.9529 1193.06C55.9529 1192.9 55.9529 1192.83 55.9529 1192.67C55.9529 1192.13 55.9529 1192.83 55.9529 1192.9C55.9529 1192.9 56.1071 1192.21 56.1071 1192.13C56.1842 1191.59 56.3383 1191.05 56.4924 1190.59C56.7237 1189.67 56.9549 1188.82 57.2632 1187.97C57.3402 1187.59 57.0319 1188.51 57.2632 1188.13C57.2632 1188.05 57.3402 1187.89 57.4173 1187.74C57.5714 1187.51 57.6485 1187.28 57.8027 1187.05C57.9568 1186.82 58.0339 1186.66 58.188 1186.43C58.188 1186.43 58.3422 1186.12 58.4192 1186.12C58.188 1186.43 58.1109 1186.51 58.2651 1186.35C58.2651 1186.35 58.4192 1186.2 58.4192 1186.12C58.5734 1185.97 58.7275 1185.81 58.8817 1185.66C58.9587 1185.58 59.1129 1185.51 59.1899 1185.43C59.4212 1185.12 58.7275 1185.74 59.0358 1185.58C59.1899 1185.51 59.4982 1185.35 59.6524 1185.2C59.8836 1185.04 59.4212 1185.35 59.3441 1185.35C59.4212 1185.35 59.7294 1185.2 59.8836 1185.2C59.9607 1185.2 60.1919 1185.2 60.1919 1185.2C60.1148 1185.2 59.4212 1185.2 59.9607 1185.2H60.346C60.346 1185.2 59.7294 1185.04 60.0377 1185.2C60.1148 1185.2 60.9626 1185.43 60.5001 1185.27C60.1148 1185.12 60.5002 1185.27 60.6543 1185.27C60.8084 1185.35 60.9626 1185.51 61.1167 1185.58C61.5021 1185.81 60.9626 1185.43 60.8855 1185.43L61.1167 1185.66C61.2709 1185.81 61.5021 1185.97 61.6562 1186.2C61.8104 1186.35 61.9645 1186.58 62.1187 1186.74C62.1187 1186.82 62.4269 1187.2 62.1957 1186.82C61.9645 1186.43 62.2728 1186.97 62.3499 1187.05C62.6581 1187.51 62.9664 1187.97 63.2747 1188.51C63.4289 1188.74 63.5059 1188.97 63.6601 1189.28C63.8913 1189.67 63.583 1189.13 63.6601 1189.13C63.6601 1189.13 63.8142 1189.51 63.8142 1189.59C64.2766 1190.9 64.3537 1192.37 64.662 1193.75C65.0474 1195.37 65.5098 1197.07 65.741 1198.68C65.9722 1200.23 67.9761 1201.23 69.4404 1200.77C71.136 1200.23 71.8296 1198.76 71.5213 1197.07C71.2131 1195.37 70.8277 1193.68 70.3653 1191.98C70.057 1190.59 69.9799 1189.05 69.4404 1187.66C68.3614 1184.81 66.5117 1181.96 63.9684 1180.34C60.9626 1178.42 57.3402 1179.19 54.7969 1181.5C52.716 1183.42 51.7911 1185.97 51.0975 1188.59C50.2497 1191.75 49.4019 1195.68 52.0994 1198.22C53.2555 1199.3 55.1822 1199.46 56.3383 1198.22C57.4173 1197.07 57.5714 1195.14 56.3383 1193.98H56.03Z" fill="#231F20"/>
<path d="M53.9494 1236.84C50.7895 1232.91 46.1652 1244.16 45.2403 1246.17C44.3926 1248.09 44.3926 1250.25 43.776 1252.18C43.1594 1254.11 42.2346 1255.88 42.0034 1258.04C41.8492 1259.81 42.2346 1261.43 41.8492 1263.2C41.4639 1264.97 41.0014 1266.28 41.2326 1268.29C41.618 1271.14 42.3887 1273.91 43.0823 1276.76C44.4696 1282.54 46.3964 1289.79 53.7953 1287.55C56.8781 1286.63 57.1864 1285.63 59.0361 1282.85C60.8858 1280.08 63.1209 1278 64.1228 1274.99C65.9725 1269.52 66.6662 1263.74 66.6662 1258.04C66.6662 1256.11 66.8203 1254.03 66.6662 1252.1C66.512 1249.64 65.3559 1246.94 64.9706 1244.47C64.4311 1241 62.2731 1239.85 59.8839 1237.69C58.2654 1236.22 56.801 1234.61 54.7972 1235.99" fill="white"/>
<path d="M56.0302 1234.76C50.1728 1228.44 44.6236 1240.08 42.851 1244.31C41.8491 1246.63 41.6179 1249.02 40.9242 1251.4C40.0764 1254.33 38.9974 1256.65 38.9974 1259.81C38.9974 1262.66 37.9955 1265.43 38.3038 1268.36C38.6121 1271.67 39.614 1274.99 40.3847 1278.23C41.3096 1281.93 42.3886 1286.01 45.3173 1288.71C48.5543 1291.71 53.4868 1291.64 57.1862 1289.56C59.0359 1288.55 60.1149 1286.86 61.1939 1285.16C62.8124 1282.77 64.8163 1280.61 66.1265 1278.07C68.824 1272.75 69.5176 1265.97 69.6718 1260.11C69.7489 1256.72 70.0571 1253.18 69.3635 1249.79C69.0552 1248.01 68.4386 1246.4 68.0533 1244.62C67.745 1243.16 67.5138 1241.77 66.666 1240.38C65.4329 1238.23 63.2749 1236.76 61.4252 1235.14C58.8818 1232.99 56.4926 1231.83 53.3327 1233.52C49.9415 1235.3 52.9473 1240.46 56.3385 1238.69C56.6467 1238.53 59.5754 1241.39 59.9608 1241.69C61.5022 1243.08 61.8876 1244.16 62.35 1246.16C62.8124 1248.17 63.5832 1250.17 63.8144 1252.18C64.0456 1254.56 63.8144 1257.11 63.8144 1259.57C63.7373 1264.2 63.1207 1268.9 61.7334 1273.37C60.5774 1276.99 57.7257 1280.23 55.4136 1283.24C54.1034 1284.93 51.1747 1285.86 49.402 1284.31C47.5523 1282.62 46.9358 1279.54 46.3192 1277.22C45.8568 1275.3 45.3173 1273.37 44.9319 1271.37C44.3153 1268.67 44.3153 1266.74 44.7778 1264.12C45.1631 1262.12 44.7778 1260.04 45.0861 1258.03C45.3943 1255.88 46.5504 1253.95 47.0128 1251.87C47.6294 1248.86 48.4001 1246.4 49.7874 1243.7C50.404 1242.46 51.0205 1241.23 51.8683 1240.15C51.9454 1240 52.8702 1239.15 52.8702 1239.15C53.1015 1239.92 50.9435 1238.23 51.8683 1239.15C54.4888 1242 58.6506 1237.76 56.1072 1234.91L56.0302 1234.76Z" fill="#231F20"/>
</g>
</svg>
