<svg width="1080" height="331" viewBox="0 0 1080 331" fill="none" xmlns="http://www.w3.org/2000/svg">
<mask id="mask0_35_982" style="mask-type:luminance" maskUnits="userSpaceOnUse" x="0" y="0" width="1080" height="331">
<path d="M1080 330.999V0L0.00012207 0V330.999L1080 330.999Z" fill="white"/>
</mask>
<g mask="url(#mask0_35_982)">
<path d="M-94.6451 286.762C-47.4004 294.946 -6.78385 301.214 42.6188 300.403C68.9772 299.961 145.355 297.011 138.727 255.424C152.754 274.595 161.617 277.102 187.436 284.476C252.33 302.984 410.634 307.777 423.043 259.7C432.445 286.909 489.555 297.159 507.821 299.002C558.072 304.09 609.093 296.937 659.189 292.292C692.638 289.195 705.74 269.139 729.863 247.903C783.813 286.467 923.004 302.763 975.875 258.889C1035.3 311.021 1144.04 287.352 1186.51 224.897C1181.12 176.083 1175.49 133.979 1170.4 85.0921C1164.31 27.1351 1155.61 -1.40095 1169.25 -57.9569C1070.13 -45.8641 911.983 -62.5286 812.176 -57.9569C688.399 -52.3529 621.655 -64.2983 497.879 -59.8741C408.091 -56.6297 319.459 -57.0721 229.825 -50.4358C105.278 -41.145 -18.7299 -35.8359 -143.508 -33.9925C-104.664 30.4533 -116.302 116.873 -116.148 187.881C-116.148 211.919 -110.907 269.139 -94.568 286.762H-94.6451Z" fill="#FFF799" stroke="black" stroke-width="5.39499" stroke-linecap="round" stroke-linejoin="round"/>
<path d="M239.613 140.836C240.769 140.836 241.925 140.762 243.081 140.541C244.314 140.319 244.7 140.762 244.854 141.794C245.162 143.269 246.164 148.504 247.86 157.5L248.322 157.647C248.939 156.173 250.018 154.256 250.48 152.633C251.02 151.085 252.484 145.85 252.946 144.375C253.332 143.343 253.948 141.868 254.873 139.877C255.027 139.508 255.413 139.287 255.875 139.287C258.727 139.14 260.962 139.066 262.58 139.066C262.966 139.066 263.659 139.729 263.659 140.098C264.892 145.776 265.971 152.928 267.821 157.721C268.361 156.32 269.44 154.477 269.825 153.002C270.21 151.822 271.135 148.725 272.523 143.785C272.908 142.458 273.062 140.467 273.756 139.656C274.835 138.55 277.763 139.213 279.69 139.213C282.079 139.213 285.393 138.771 286.858 139.803C287.089 139.951 287.012 140.688 286.704 142.163C285.239 148.725 284.006 154.108 282.927 158.385C282.619 159.565 281.309 164.284 281 165.39C279.767 170.035 278.996 172.911 278.842 173.943C278.38 176.45 277.147 177.925 275.22 178.441C273.679 178.81 271.135 179.4 267.513 180.137C266.973 180.358 266.28 180.137 265.894 180.063C265.509 180.063 264.815 179.473 264.584 179.252C263.813 178.515 263.197 177.409 262.58 176.598C262.503 176.45 261.733 175.197 260.268 172.911H259.806C258.804 176.671 258.264 178.81 258.187 179.252C258.033 180.063 257.802 180.506 256.877 180.432C256.029 180.432 255.259 180.58 254.565 180.801C252.484 181.538 250.557 181.612 247.628 181.391C246.164 181.317 245.085 181.243 244.469 181.243C243.158 181.243 242.002 181.317 241 181.464C239.305 181.759 238.226 181.022 237.686 179.179C236.761 176.082 236.145 173.87 235.837 172.321C233.602 162.072 231.906 154.108 230.827 148.43C230.442 146.661 230.519 143.859 230.365 141.868C231.135 141.057 232.214 140.467 233.756 140.467C235.837 140.467 237.532 140.909 239.613 140.909V140.836Z" fill="black"/>
<path d="M314.141 143.195C313.91 141.13 313.987 141.204 315.914 141.056C317.301 140.909 319.845 140.762 323.621 140.54C325.702 140.393 325.625 141.794 325.856 143.563C325.933 144.227 326.01 144.817 326.01 145.186C326.01 147.324 326.242 154.624 326.242 156.762C326.242 157.942 326.704 163.62 326.704 165.021C326.704 167.602 326.396 170.846 325.933 174.68C325.856 175.934 325.008 177.187 324.854 178.293L313.139 178.81L313.679 166.791C312.06 166.348 310.365 166.274 308.592 166.569C306.743 166.864 305.664 167.233 304.045 167.823C303.737 167.97 303.506 168.56 303.506 168.929V172.911C303.506 174.607 303.506 175.934 303.506 176.966C303.506 179.105 303.12 179.326 300.962 179.326C299.806 179.326 295.876 179.842 294.719 179.842C292.947 179.916 291.405 179.916 290.095 179.842C289.633 179.842 288.939 179.105 288.862 178.662C288.323 173.427 288.168 167.675 288.323 162.219C288.4 160.302 288.862 153.887 288.939 151.896C289.016 149.094 289.093 145.923 289.093 142.384C289.093 141.499 289.556 141.056 290.481 140.909C293.563 140.614 295.49 140.393 296.184 140.393C298.265 140.467 301.039 140.835 303.043 140.909C303.043 142.015 303.351 147.25 303.66 156.689C308.515 156.246 307.822 156.172 310.673 156.172C312.446 156.172 314.064 156.689 314.064 154.771C314.064 154.403 314.064 151.232 314.064 150.863C314.064 150.2 314.064 147.766 314.218 143.416C314.218 143.342 314.218 143.121 314.218 143.047L314.141 143.195Z" fill="black"/>
<path d="M366.935 181.243C365.316 181.243 363.775 181.243 362.31 181.391C361.231 181.538 360.923 181.243 360.692 180.432C359.613 176.819 359.228 173.796 359.459 171.363C359.459 171.363 359.382 170.773 359.228 169.741C354.218 169.446 351.366 169.298 350.596 169.224C349.748 169.224 348.977 169.077 348.129 168.856C346.434 168.487 345.432 169.372 345.124 170.552C344.661 172.395 342.888 178.884 342.426 180.801C342.349 181.096 341.887 181.907 341.501 181.907C338.418 182.055 335.335 182.202 332.176 182.202C331.097 182.202 330.557 181.538 330.865 180.432C333.023 171.068 336.106 157.5 338.033 151.306C339.42 147.03 340.114 143.269 342.195 140.32C342.657 139.656 343.351 139.287 344.199 139.214C349.054 138.992 353.37 138.697 357.07 138.476C360.461 138.255 361.848 139.214 362.85 141.573C364.314 145.113 365.47 148.283 366.318 150.938C366.549 151.675 367.474 154.92 369.016 160.597L372.176 172.174C372.484 173.354 373.794 178.294 374.102 179.548C374.256 179.99 374.565 180.506 374.719 180.949C374.719 181.096 374.796 181.17 374.796 181.243C374.796 181.317 374.796 181.317 374.642 181.317C373.255 181.317 368.399 181.17 366.935 181.17V181.243ZM348.052 159.491C348.052 160.45 348.438 160.892 349.44 160.892C353.293 160.892 355.682 160.892 356.453 160.892C357.455 160.892 357.84 160.523 357.686 159.565C357.147 155.288 356.838 152.929 356.838 152.486C356.838 152.265 356.453 151.823 356.145 151.823C355.22 151.823 352.754 151.823 348.746 151.823C348.361 156.468 348.129 159.049 348.052 159.565V159.491Z" fill="black"/>
<path d="M372.946 158.09C372.792 155.361 372.715 153.96 372.715 153.813C372.638 151.453 372.329 142.826 372.329 140.54C372.329 138.697 373.177 137.812 375.027 137.886C376.954 137.886 383.736 138.328 385.74 138.402C388.129 138.402 397.686 138.402 399.998 138.476C401.694 138.476 404.083 138.771 407.166 139.213C408.707 139.434 409.169 139.877 409.092 141.499C409.092 142.384 408.784 145.554 408.707 146.366C408.707 146.366 408.553 153.813 408.553 154.255C408.553 154.403 408.399 155.583 408.168 157.868C403.697 158.163 401.308 158.385 400.923 158.385C399.15 158.532 398.688 158.827 398.919 160.597C399.613 165.021 399.304 169.224 398.919 173.796C398.765 175.86 398.611 177.261 398.611 178.072V180.948L383.042 182.718C383.273 174.091 383.505 165.611 383.736 157.279L373.177 158.016L372.946 158.09Z" fill="black"/>
<path d="M417.031 148.062C414.95 148.136 414.256 147.472 414.102 145.629C414.025 143.933 414.102 142.016 414.487 139.951C414.487 139.435 415.566 138.476 416.183 138.476C419.805 138.255 423.273 138.255 426.433 138.476C427.204 138.476 428.36 138.919 429.901 139.656C430.287 139.803 430.518 140.32 430.672 141.131C430.672 141.131 430.672 141.794 430.672 142.9C431.057 145.997 430.903 149.537 430.133 153.518C429.901 154.551 429.516 154.993 428.36 155.141C424.275 155.878 423.504 155.141 423.813 151.38C423.813 151.159 423.813 150.938 423.813 150.643C423.813 149.463 423.813 147.767 422.425 147.767C421.424 147.767 417.878 148.062 416.876 148.062H417.031Z" fill="black"/>
<path d="M467.127 141.5C466.973 143.564 466.896 144.744 466.896 145.26C466.819 147.103 465.971 147.767 464.429 148.431C462.58 149.316 460.576 149.537 457.955 149.684C456.645 149.758 455.643 149.832 455.027 149.979C453.485 149.979 452.098 150.348 451.713 151.38C451.559 151.823 451.559 152.118 451.713 152.191C451.867 152.413 452.946 153.371 453.1 153.519C453.485 153.814 454.179 154.33 454.641 154.625C456.029 155.436 462.117 158.385 463.505 159.27C466.125 160.892 468.206 163.768 467.898 167.676C467.512 172.174 465.971 175.418 463.35 177.483C459.959 180.064 455.643 181.391 450.248 181.465C449.169 181.465 445.932 181.612 440.769 181.907C439.921 181.907 436.838 182.128 436.144 182.202C435.374 182.202 434.911 181.907 434.757 181.022C434.757 180.506 434.372 179.031 433.832 176.598C433.524 175.492 433.37 174.46 433.832 173.501C434.217 172.616 434.449 172.174 435.297 171.584C436.992 170.404 439.304 169.224 442.002 168.93C442.772 168.93 445.701 168.708 446.472 168.635C448.013 168.487 449.246 167.823 450.248 166.717C451.173 165.685 450.248 164.21 449.246 163.842C443.851 161.777 440.923 160.745 440.537 160.597C439.15 160.007 437.609 159.196 435.836 158.164C435.219 157.795 434.834 157.205 434.757 156.542C434.295 153.519 434.603 150.643 435.682 147.988C437.146 144.301 439.767 141.647 443.62 139.951C446.626 138.55 449.555 138.034 452.406 138.255H464.815C466.433 138.255 467.435 139.804 467.358 141.426L467.127 141.5Z" fill="black"/>
<path d="M492.792 137.223H498.187C500.962 137.223 502.812 137.223 503.659 137.223C505.278 137.149 505.663 137.813 506.049 139.066C507.051 142.753 508.207 146.883 509.517 151.381L509.671 151.97C509.979 153.003 510.21 154.256 510.596 155.215C511.289 153.593 512.291 150.569 513.447 146.071C514.604 141.574 515.528 138.772 516.068 137.518C521.386 137.518 524.392 137.444 525.239 137.444C526.781 137.444 530.634 136.854 531.251 137.887C531.482 138.255 531.328 138.698 530.943 139.435C530.249 140.762 527.32 148.505 526.55 149.832C524.777 153.15 522.927 156.468 521.155 159.786C520.846 160.303 520.615 160.745 520.307 161.04C519.228 162.146 518.688 163.695 518.842 165.759C518.997 168.192 518.92 179.253 519.074 181.76C515.991 182.571 509.054 182.645 505.355 182.276L502.503 182.055C502.195 177.852 501.733 168.561 501.964 163.547C502.426 159.049 500.577 156.468 498.804 153.593C496.954 150.717 496.8 150.274 494.873 146.145C493.178 142.458 492.869 141.868 491.482 139.583C491.097 138.919 490.789 138.329 490.48 137.887C491.174 137.739 492.022 137.371 492.792 137.371V137.223Z" fill="black"/>
<path d="M556.761 138.328C561.077 138.033 564.006 139.582 566.241 141.941C567.551 143.416 568.399 145.186 568.784 147.324C569.94 153.518 569.863 158.827 568.553 163.325C567.474 167.085 566.318 170.846 565.239 174.607C564.006 178.957 560.769 181.317 555.682 181.685C552.445 181.907 549.979 182.718 546.665 182.201C542.888 181.612 539.96 180.506 536.954 179.178C535.181 178.441 534.41 176.745 533.948 174.754C532.561 169.74 532.253 164.8 532.946 159.859C533.717 154.55 536.106 149.167 540.114 143.563C541.039 142.236 543.197 141.13 544.584 140.245C546.434 138.844 548.977 138.402 552.137 138.771C555.066 138.476 556.684 138.402 556.838 138.402L556.761 138.328ZM549.671 165.168C549.825 165.684 550.827 166.348 551.52 166.348C552.214 166.348 553.062 165.611 553.293 165.168C553.755 164.357 553.987 163.472 553.91 162.44C553.91 161.113 553.524 156.541 553.447 155.214C553.447 154.403 552.676 153.739 551.906 154.329C550.133 155.066 549.902 155.951 549.594 157.721C549.439 158.532 549.131 160.523 549.054 161.26C549.208 162.44 549.362 164.21 549.748 165.168H549.671Z" fill="black"/>
<path d="M608.554 138.402C609.093 138.402 609.633 138.402 610.172 138.549C611.174 138.771 612.639 138.771 614.565 138.549C615.876 138.402 616.569 138.992 616.723 140.245C617.109 143.858 617.032 145.186 616.723 148.946C616.569 150.642 616.492 151.896 616.492 152.78C616.338 158.458 616.338 162.735 614.951 167.454C614.257 170.182 614.18 170.477 613.178 172.837C611.791 176.155 609.248 178.146 605.779 179.547C605.394 179.694 603.853 180.21 601.001 181.169C597.456 182.349 593.294 182.423 588.592 181.39C584.199 180.505 581.039 177.703 579.19 173.132C578.034 170.182 576.878 164.652 576.569 161.186C576.107 155.951 575.953 152.707 575.567 145.186V144.817C575.567 142.457 576.261 140.688 577.571 140.688C577.957 140.688 587.359 140.688 587.822 140.688C587.822 140.688 588.747 140.761 590.442 140.983C590.288 143.49 589.826 146.882 589.98 149.536C589.98 152.412 590.365 155.066 591.059 157.352C591.367 158.384 592.215 159.785 593.679 161.555C594.835 163.03 597.533 163.325 599.228 162.145C601.695 160.449 602.928 158.237 602.851 155.435C602.851 155.435 602.465 145.407 602.234 139.287C604.238 138.918 606.165 138.328 608.477 138.328L608.554 138.402Z" fill="black"/>
<path d="M622.427 139.287C628.593 137.001 631.368 137.149 638.689 136.78C641.387 136.633 643.545 136.559 645.009 136.633C649.942 136.706 653.718 138.624 656.339 142.31C661.271 149.168 656.339 157.721 651.791 161.703C651.791 161.703 651.098 162.146 650.019 163.03L650.25 163.399C652.562 164.063 653.795 164.431 653.949 164.431C655.799 164.874 656.955 166.349 657.341 168.782C657.803 172.247 658.188 177.188 658.574 180.801C658.574 181.538 658.265 181.981 657.418 182.054C652.1 182.718 648.863 183.16 647.63 183.382C646.319 183.603 645.934 183.087 645.78 182.054C645.703 181.243 645.24 177.851 645.086 177.114C644.855 175.271 643.776 174.386 641.849 174.386H637.919C636.3 174.386 635.684 174.902 635.606 176.377C635.606 176.672 635.452 178.958 635.221 183.087C635.144 183.087 635.067 183.16 634.99 183.16C633.063 183.308 626.204 183.898 624.354 183.972C623.275 184.119 622.813 183.013 622.813 181.907C622.813 181.612 622.813 179.916 622.813 176.893V162.588C622.813 160.818 622.813 150.053 622.813 148.136C622.813 146.808 623.044 142.31 623.044 140.983C623.044 140.393 622.658 139.73 622.504 139.213L622.427 139.287ZM641.618 156.689C642.697 156.468 643.545 156.32 644.161 155.73C645.549 154.329 645.857 152.56 645.009 150.421C644.161 148.209 640.77 146.882 637.225 147.472C635.683 147.767 635.144 147.841 633.68 148.209C632.986 148.431 632.678 148.799 632.755 149.463C632.755 150.421 633.14 153.74 633.217 154.698C633.217 154.846 633.371 156.025 633.757 158.311C638.998 157.205 639.922 156.984 641.618 156.615V156.689Z" fill="black"/>
<path d="M687.397 138.034C694.641 137.739 699.42 137.665 701.655 137.739C705.894 137.886 709.516 138.771 712.368 140.467C713.138 140.91 714.217 141.942 714.68 142.606C714.988 142.974 716.221 144.891 716.452 145.26C719.612 149.758 720.537 154.403 717.686 158.901C716.607 160.524 715.296 161.63 713.832 162.22C709.285 163.989 705.046 165.095 701.115 165.611C699.959 165.759 699.574 166.275 699.728 167.529C699.959 169.962 700.653 178.958 700.884 181.465C701.038 182.792 700.422 183.087 699.188 183.161C696.491 183.161 694.102 183.161 692.175 183.161C690.788 183.161 686.934 183.013 680.537 182.718C680.152 182.35 680.845 180.949 680.845 180.359C681.385 170.699 681.308 169.519 681.539 158.459C681.693 150.348 682.002 144.818 682.002 139.435C682.002 139.435 686.857 138.181 687.551 138.181L687.397 138.034ZM700.884 155.067C702.503 154.182 702.888 153.519 704.198 151.896C705.046 150.864 704.352 149.906 703.119 149.832C701.424 149.758 699.497 149.832 697.262 149.979C696.799 149.979 696.183 150.643 696.106 151.085C696.106 151.38 696.106 152.634 696.106 154.846C697.955 155.436 699.343 155.878 700.884 155.067Z" fill="black"/>
<path d="M746.434 172.394L751.367 172.173V173.5C751.521 176.892 751.598 178.883 751.598 179.547C751.598 180.579 751.212 180.8 750.211 180.874C739.189 181.39 738.804 181.39 729.401 182.127C729.016 182.127 728.168 182.275 726.704 182.57C725.856 182.717 725.394 182.422 725.316 181.685C724.931 179.399 724.623 176.597 724.623 174.975C724.623 173.5 725.008 173.132 726.395 173.058C726.704 173.058 728.091 172.984 730.557 172.837C730.789 166.643 731.02 159.49 731.328 151.379H724.623C724.16 146.513 723.852 143.858 723.852 143.416C723.775 142.531 723.698 141.499 723.698 140.171C723.698 139.139 724.237 138.623 725.316 138.549C732.099 138.254 736.415 138.107 738.264 138.107C739.96 138.107 743.505 138.254 748.9 138.549C749.131 138.549 749.748 138.992 749.748 139.286C749.902 140.614 750.519 146.439 750.596 147.766C750.673 148.651 750.288 149.167 749.363 149.388C749.286 149.388 748.284 149.61 746.434 150.052V172.32V172.394Z" fill="black"/>
<path d="M791.29 177.483C790.365 179.99 788.13 180.949 785.355 181.908C782.658 182.866 780.5 183.309 778.804 183.309C776.8 183.309 774.565 182.94 772.099 182.129C768.554 180.875 765.317 179.548 762.234 178C758.534 176.156 756.299 171.658 755.991 166.939C755.606 161.188 756.993 154.773 760.23 147.62C760.538 146.883 761.309 146.072 761.694 145.408C764.006 141.942 767.243 139.73 771.482 138.624C775.028 137.739 778.727 137.371 782.581 137.444C785.972 137.592 789.209 138.551 792.214 140.394C792.446 140.541 792.985 141.131 792.754 141.574C791.829 145.039 790.827 148.505 789.748 151.897C789.748 152.192 788.9 152.487 788.515 152.413C786.896 152.266 781.116 151.528 779.575 151.381C775.259 150.865 772.715 151.454 771.097 153.961C768.168 158.459 768.631 162.367 771.791 166.349C772.561 167.234 773.949 168.119 775.105 168.34C777.031 168.709 778.958 169.077 781.887 168.561C783.891 168.266 785.278 168.119 785.972 168.119C788.13 168.119 790.056 168.266 791.675 168.414C791.983 168.414 792.446 169.004 792.523 169.299C792.523 169.372 792.523 169.962 792.523 171.068H792.908C792.446 173.059 791.906 175.714 791.29 177.483Z" fill="black"/>
<path d="M802.156 138.623C805.701 138.328 808.784 138.401 811.25 138.918C811.636 138.918 812.484 138.991 813.871 138.918C814.642 138.918 814.95 139.213 814.95 139.95V153.075L815.335 153.296C815.875 152.78 816.723 152.043 817.262 151.453C818.881 149.388 821.732 145.775 825.894 140.392C825.894 140.392 826.279 139.876 826.819 138.991L839.536 148.282C837.455 150.052 834.526 152.633 832.368 154.255C830.441 155.803 829.208 157.352 827.667 159.564C826.819 160.817 826.202 161.628 825.817 162.071C825.586 162.366 825.971 163.103 826.125 163.177C828.283 165.242 831.058 166.937 834.603 168.191C834.757 168.191 836.376 168.781 839.459 169.813C839.459 170.182 839.381 170.698 839.304 171.583C839.304 171.583 839.15 171.583 839.15 171.509C837.224 175.122 837.763 173.869 836.299 177.556C835.682 179.104 835.143 180.358 834.757 181.169C833.986 182.865 833.987 182.865 831.906 182.348C830.364 182.054 828.283 181.316 825.663 180.136C819.959 177.556 821.886 178.514 815.952 176.376C815.952 179.03 815.952 180.431 815.952 180.652C815.952 181.685 815.489 182.201 814.41 182.275C810.942 182.57 807.859 182.496 805.239 182.127C804.468 182.053 803.158 182.127 801.231 182.422C799.15 182.717 798.302 182.053 798.302 180.136C798.38 171.878 798.534 166.643 798.611 164.43C798.765 162.366 799.844 153.665 799.998 151.748C800.152 150.052 800.46 146.218 800.923 140.245V137.885C800.923 137.885 801.694 138.401 802.002 138.401L802.156 138.623Z" fill="black"/>
<path d="M867.822 166.495C866.897 167.011 866.974 168.265 866.82 169.813C866.589 172.246 866.435 173.795 863.968 173.942C861.81 174.016 860.192 174.09 859.113 174.164C856.338 174.164 856.492 174.237 856.569 171.657C856.569 170.919 856.492 168.412 856.569 167.675C856.569 166.2 856.724 164.725 856.955 163.251C856.955 162.882 857.34 162.513 857.803 162.145C859.652 160.67 860.962 159.785 861.579 159.416C862.581 158.9 863.275 158.015 863.66 156.762C864.585 153.812 863.429 151.453 861.656 150.273C860.577 149.536 859.498 149.241 858.342 149.314C857.032 149.388 856.107 149.241 854.951 149.388C853.487 149.609 851.791 150.642 852.099 152.116C852.176 152.338 852.562 154.034 852.639 154.328C852.793 155.066 852.562 155.508 851.791 155.656C851.174 155.729 847.167 156.467 846.473 156.541C845.471 156.541 844.855 155.951 844.623 155.14C843.93 151.895 843.236 148.282 844.469 145.038C845.317 142.678 847.013 140.908 849.402 139.655C852.408 138.18 855.182 137.517 857.803 137.59C860.038 137.59 861.81 137.738 863.043 137.811C864.431 137.885 864.662 138.254 865.818 138.844C867.128 139.507 867.051 139.434 868.207 140.171C869.209 140.761 869.517 141.056 870.211 141.867C870.519 142.236 870.828 142.604 870.982 142.973C872.061 144.816 872.831 146.955 873.525 149.241C873.91 150.863 873.911 153.37 874.219 155.14C874.373 159.932 872.292 163.767 867.899 166.495H867.822ZM858.727 176.744C859.267 176.744 861.271 176.449 861.81 176.376C862.966 176.376 864.277 176.302 864.97 176.818C865.201 176.966 865.278 177.187 865.278 177.261C865.433 178.809 865.433 180.136 865.278 181.169C865.278 181.611 864.662 182.275 864.2 182.348C862.196 182.643 860.423 182.865 858.805 182.938C857.648 182.938 856.955 182.348 856.955 181.169C856.955 181.095 856.955 180.21 856.724 178.588C856.724 176.671 856.724 176.744 858.727 176.671V176.744Z" fill="black"/>
<path d="M234.759 136.265C235.915 136.265 237.071 136.191 238.227 135.97C239.46 135.749 239.845 136.191 239.999 137.224C240.308 138.698 241.31 143.934 243.005 152.929L243.468 153.077C244.084 151.602 245.163 149.685 245.626 148.063C246.165 146.514 247.629 141.279 248.092 139.804C248.477 138.772 249.094 137.297 250.019 135.306C250.173 134.938 250.558 134.716 251.021 134.716C253.872 134.569 256.107 134.495 257.726 134.495C258.111 134.495 258.805 135.159 258.805 135.528C260.038 141.205 261.117 148.358 262.967 153.151C263.506 151.75 264.585 149.906 264.97 148.431C265.356 147.252 266.281 144.155 267.668 139.214C268.053 137.887 268.207 135.896 268.901 135.085C269.98 133.979 272.909 134.643 274.836 134.643C277.225 134.643 280.539 134.2 282.003 135.233C282.234 135.38 282.157 136.117 281.849 137.592C280.385 144.155 279.152 149.538 278.073 153.814C277.764 154.994 276.454 159.713 276.146 160.819C274.913 165.465 274.142 168.34 273.988 169.373C273.525 171.88 272.292 173.354 270.365 173.871C268.824 174.239 266.281 174.829 262.658 175.567C262.119 175.788 261.425 175.567 261.04 175.493C260.654 175.493 259.961 174.903 259.73 174.682C258.959 173.944 258.342 172.838 257.726 172.027C257.649 171.88 256.878 170.626 255.414 168.34H254.951C253.949 172.101 253.41 174.239 253.333 174.682C253.179 175.493 252.947 175.935 252.023 175.862C251.175 175.862 250.404 176.009 249.71 176.23C247.629 176.968 245.703 177.041 242.774 176.82C241.31 176.746 240.231 176.673 239.614 176.673C238.304 176.673 237.148 176.746 236.146 176.894C234.45 177.189 233.371 176.451 232.832 174.608C231.907 171.511 231.29 169.299 230.982 167.75C228.747 157.501 227.051 149.538 225.972 143.86C225.587 142.09 225.664 139.288 225.51 137.297C226.281 136.486 227.36 135.896 228.901 135.896C230.982 135.896 232.678 136.339 234.759 136.339V136.265Z" fill="#B6DFE5" stroke="black" stroke-width="3.62235" stroke-miterlimit="10"/>
<path d="M309.21 138.551C308.979 136.486 309.056 136.56 310.982 136.412C312.37 136.265 314.913 136.117 318.69 135.896C320.77 135.749 320.693 137.15 320.925 138.919C321.002 139.583 321.079 140.173 321.079 140.541C321.079 142.68 321.31 149.98 321.31 152.118C321.31 153.298 321.772 158.976 321.772 160.377C321.772 162.957 321.464 166.202 321.002 170.036C320.925 171.29 320.077 172.543 319.923 173.649L308.208 174.165L308.747 162.146C307.129 161.704 305.433 161.63 303.661 161.925C301.811 162.22 300.732 162.589 299.113 163.179C298.805 163.326 298.574 163.916 298.574 164.285V168.266C298.574 169.962 298.574 171.29 298.574 172.322C298.574 174.46 298.189 174.681 296.031 174.681C294.874 174.681 290.944 175.198 289.788 175.198C288.015 175.271 286.474 175.271 285.164 175.198C284.701 175.198 284.007 174.46 283.93 174.018C283.391 168.783 283.237 163.031 283.391 157.575C283.468 155.657 283.93 149.242 284.007 147.251C284.085 144.449 284.162 141.279 284.162 137.739C284.162 136.855 284.624 136.412 285.549 136.265C288.632 135.97 290.559 135.749 291.252 135.749C293.333 135.822 296.108 136.191 298.111 136.265C298.111 137.371 298.42 142.606 298.728 152.044C303.584 151.602 302.89 151.528 305.742 151.528C307.514 151.528 309.133 152.044 309.133 150.127C309.133 149.758 309.133 146.588 309.133 146.219C309.133 145.556 309.133 143.122 309.287 138.772C309.287 138.698 309.287 138.477 309.287 138.403L309.21 138.551Z" fill="#B6DFE5" stroke="black" stroke-width="3.62235" stroke-miterlimit="10"/>
<path d="M362.003 176.599C360.384 176.599 358.843 176.599 357.379 176.747C356.3 176.894 355.991 176.599 355.76 175.788C354.681 172.175 354.296 169.152 354.527 166.718C354.527 166.718 354.45 166.129 354.296 165.096C349.286 164.801 346.434 164.654 345.664 164.58C344.816 164.58 344.045 164.433 343.197 164.211C341.502 163.843 340.5 164.728 340.192 165.907C339.729 167.751 337.957 174.24 337.494 176.157C337.417 176.452 336.955 177.263 336.569 177.263C333.486 177.41 330.404 177.558 327.244 177.558C326.165 177.558 325.625 176.894 325.933 175.788C328.091 166.424 331.174 152.856 333.101 146.662C334.488 142.385 335.182 138.625 337.263 135.675C337.725 135.012 338.419 134.643 339.267 134.569C344.122 134.348 348.438 134.053 352.138 133.832C355.529 133.611 356.916 134.569 357.918 136.929C359.382 140.468 360.538 143.639 361.386 146.293C361.617 147.031 362.542 150.275 364.084 155.953L367.244 167.53C367.552 168.709 368.862 173.65 369.17 174.903C369.325 175.346 369.633 175.862 369.787 176.304C369.787 176.452 369.864 176.525 369.864 176.599C369.864 176.673 369.864 176.673 369.71 176.673C368.323 176.673 363.467 176.525 362.003 176.525V176.599ZM343.12 154.921C343.12 155.879 343.506 156.322 344.508 156.322C348.361 156.322 350.75 156.322 351.521 156.322C352.523 156.322 352.908 155.953 352.754 154.994C352.215 150.718 351.906 148.358 351.906 147.916C351.906 147.694 351.521 147.252 351.213 147.252C350.288 147.252 347.822 147.252 343.814 147.252C343.429 151.897 343.197 154.478 343.12 154.994V154.921Z" fill="#B6DFE5" stroke="black" stroke-width="3.62235" stroke-miterlimit="10"/>
<path d="M368.091 153.445C367.937 150.717 367.86 149.316 367.86 149.169C367.783 146.809 367.475 138.182 367.475 135.896C367.475 134.053 368.323 133.168 370.172 133.242C372.099 133.242 378.881 133.684 380.885 133.758C383.274 133.758 392.831 133.758 395.143 133.831C396.839 133.831 399.228 134.126 402.311 134.569C403.852 134.79 404.315 135.232 404.238 136.855C404.238 137.739 403.93 140.91 403.853 141.721C403.853 141.721 403.698 149.169 403.698 149.611C403.698 149.759 403.544 150.938 403.313 153.224C398.843 153.519 396.454 153.74 396.068 153.74C394.296 153.888 393.833 154.183 394.064 155.952C394.758 160.377 394.45 164.58 394.064 169.151C393.91 171.216 393.756 172.617 393.756 173.428V176.304L378.188 178.073C378.419 169.446 378.65 160.967 378.881 152.634L368.323 153.372L368.091 153.445Z" fill="#B6DFE5" stroke="black" stroke-width="3.62235" stroke-miterlimit="10"/>
<path d="M412.099 143.491C410.018 143.565 409.324 142.901 409.17 141.058C409.093 139.362 409.17 137.445 409.555 135.38C409.555 134.864 410.635 133.905 411.251 133.905C414.873 133.684 418.342 133.684 421.502 133.905C422.272 133.905 423.428 134.348 424.97 135.085C425.355 135.233 425.586 135.749 425.74 136.56C425.74 136.56 425.74 137.224 425.74 138.33C426.126 141.427 425.972 144.966 425.201 148.948C424.97 149.98 424.584 150.422 423.428 150.57C419.344 151.307 418.573 150.57 418.881 146.809C418.881 146.588 418.881 146.367 418.881 146.072C418.881 144.892 418.881 143.196 417.494 143.196C416.492 143.196 412.947 143.491 411.945 143.491H412.099Z" fill="#B6DFE5" stroke="black" stroke-width="3.62235" stroke-miterlimit="10"/>
<path d="M462.195 136.855C462.041 138.92 461.964 140.099 461.964 140.616C461.887 142.459 461.039 143.123 459.498 143.786C457.648 144.671 455.644 144.892 453.024 145.04C451.714 145.113 450.712 145.187 450.095 145.335C448.554 145.335 447.166 145.703 446.781 146.736C446.627 147.178 446.627 147.473 446.781 147.547C446.935 147.768 448.014 148.727 448.168 148.874C448.554 149.169 449.247 149.685 449.71 149.98C451.097 150.791 457.186 153.741 458.573 154.625C461.193 156.248 463.274 159.123 462.966 163.031C462.581 167.529 461.039 170.774 458.419 172.838C455.028 175.419 450.712 176.746 445.317 176.82C444.238 176.82 441.001 176.968 435.837 177.263C434.989 177.263 431.906 177.484 431.213 177.558C430.442 177.558 429.98 177.263 429.825 176.378C429.825 175.862 429.44 174.387 428.9 171.954C428.592 170.848 428.438 169.815 428.9 168.857C429.286 167.972 429.517 167.529 430.365 166.94C432.06 165.76 434.373 164.58 437.07 164.285C437.841 164.285 440.769 164.064 441.54 163.99C443.082 163.843 444.315 163.179 445.317 162.073C446.242 161.041 445.317 159.566 444.315 159.197C438.92 157.133 435.991 156.1 435.606 155.953C434.218 155.363 432.677 154.552 430.904 153.519C430.288 153.151 429.902 152.561 429.825 151.897C429.363 148.874 429.671 145.998 430.75 143.344C432.215 139.657 434.835 137.002 438.689 135.307C441.694 133.906 444.623 133.389 447.475 133.611H459.883C461.502 133.611 462.504 135.159 462.426 136.781L462.195 136.855Z" fill="#B6DFE5" stroke="black" stroke-width="3.62235" stroke-miterlimit="10"/>
<path d="M487.861 132.579H493.255C496.03 132.579 497.88 132.579 498.728 132.579C500.346 132.505 500.731 133.169 501.117 134.422C502.119 138.109 503.275 142.238 504.585 146.736L504.739 147.326C505.047 148.358 505.279 149.612 505.664 150.571C506.358 148.948 507.36 145.925 508.516 141.427C509.672 136.929 510.597 134.127 511.136 132.874C516.454 132.874 519.46 132.8 520.308 132.8C521.849 132.8 525.702 132.21 526.319 133.242C526.55 133.611 526.396 134.054 526.011 134.791C525.317 136.118 522.388 143.86 521.618 145.188C519.845 148.506 517.995 151.824 516.223 155.142C515.914 155.658 515.683 156.101 515.375 156.396C514.296 157.502 513.756 159.05 513.911 161.115C514.065 163.548 513.988 174.609 514.142 177.116C511.059 177.927 504.123 178.001 500.423 177.632L497.571 177.411C497.263 173.208 496.801 163.917 497.032 158.903C497.494 154.405 495.645 151.824 493.872 148.948C492.022 146.073 491.868 145.63 489.941 141.501C488.246 137.814 487.938 137.224 486.55 134.938C486.165 134.275 485.857 133.685 485.548 133.242C486.242 133.095 487.09 132.726 487.861 132.726V132.579Z" fill="#B6DFE5" stroke="black" stroke-width="3.62235" stroke-miterlimit="10"/>
<path d="M551.83 133.758C556.145 133.463 559.074 135.011 561.309 137.371C562.62 138.845 563.467 140.615 563.853 142.753C565.009 148.947 564.932 154.256 563.621 158.754C562.542 162.515 561.386 166.275 560.307 170.036C559.074 174.386 555.837 176.746 550.751 177.115C547.514 177.336 545.047 178.147 541.733 177.631C537.957 177.041 535.028 175.935 532.022 174.608C530.25 173.87 529.479 172.174 529.016 170.184C527.629 165.169 527.321 160.229 528.015 155.289C528.785 149.98 531.174 144.597 535.182 138.993C536.107 137.666 538.265 136.56 539.652 135.675C541.502 134.274 544.045 133.831 547.205 134.2C550.134 133.905 551.752 133.831 551.907 133.831L551.83 133.758ZM544.816 160.524C544.97 161.04 545.972 161.704 546.666 161.704C547.359 161.704 548.207 160.966 548.438 160.524C548.901 159.713 549.132 158.828 549.055 157.796C549.055 156.468 548.67 151.897 548.593 150.57C548.593 149.758 547.822 149.095 547.051 149.685C545.278 150.422 545.047 151.307 544.739 153.077C544.585 153.888 544.277 155.879 544.199 156.616C544.354 157.796 544.508 159.565 544.893 160.524H544.816Z" fill="#B6DFE5" stroke="black" stroke-width="3.62235" stroke-miterlimit="10"/>
<path d="M603.699 133.758C604.239 133.758 604.778 133.758 605.318 133.905C606.32 134.126 607.784 134.126 609.711 133.905C611.021 133.758 611.715 134.347 611.869 135.601C612.254 139.214 612.177 140.541 611.869 144.302C611.715 145.998 611.638 147.251 611.638 148.136C611.484 153.814 611.484 158.091 610.096 162.81C609.403 165.538 609.326 165.833 608.324 168.193C606.936 171.511 604.393 173.502 600.925 174.903C600.539 175.05 598.998 175.566 596.146 176.525C592.601 177.705 588.439 177.778 583.738 176.746C579.345 175.861 576.185 173.059 574.335 168.488C573.179 165.538 572.023 160.008 571.715 156.542C571.252 151.307 571.098 148.062 570.713 140.541V140.173C570.713 137.813 571.406 136.043 572.717 136.043C573.102 136.043 582.505 136.043 582.967 136.043C582.967 136.043 583.892 136.117 585.588 136.338C585.434 138.845 584.971 142.237 585.125 144.892C585.125 147.768 585.511 150.422 586.204 152.708C586.512 153.74 587.36 155.141 588.825 156.911C589.981 158.386 592.678 158.681 594.374 157.501C596.84 155.805 598.073 153.593 597.996 150.791C597.996 150.791 597.611 140.763 597.38 134.642C599.383 134.274 601.31 133.684 603.622 133.684L603.699 133.758Z" fill="#B6DFE5" stroke="black" stroke-width="3.62235" stroke-miterlimit="10"/>
<path d="M617.495 134.643C623.661 132.357 626.436 132.504 633.757 132.136C636.455 131.988 638.613 131.914 640.077 131.988C645.01 132.062 648.786 133.979 651.407 137.666C656.339 144.523 651.407 153.077 646.86 157.059C646.86 157.059 646.166 157.501 645.087 158.386L645.318 158.755C647.63 159.418 648.863 159.787 649.017 159.787C650.867 160.229 652.023 161.704 652.409 164.137C652.871 167.603 653.256 172.543 653.642 176.156C653.642 176.894 653.334 177.336 652.486 177.41C647.168 178.074 643.931 178.516 642.698 178.737C641.387 178.958 641.002 178.442 640.848 177.41C640.771 176.599 640.308 173.207 640.154 172.47C639.923 170.626 638.844 169.741 636.917 169.741H632.987C631.368 169.741 630.752 170.257 630.675 171.732C630.675 172.027 630.52 174.313 630.289 178.442C630.212 178.442 630.135 178.516 630.058 178.516C628.131 178.663 621.272 179.253 619.422 179.327C618.343 179.475 617.881 178.368 617.881 177.262C617.881 176.967 617.881 175.272 617.881 172.248V157.943C617.881 156.174 617.881 145.408 617.881 143.491C617.881 142.164 618.112 137.666 618.112 136.339C618.112 135.749 617.727 135.085 617.572 134.569L617.495 134.643ZM636.686 152.045C637.765 151.823 638.613 151.676 639.229 151.086C640.617 149.685 640.925 147.915 640.077 145.777C639.229 143.565 635.838 142.238 632.293 142.827C630.752 143.122 630.212 143.196 628.748 143.565C628.054 143.786 627.746 144.155 627.823 144.818C627.823 145.777 628.208 149.095 628.285 150.054C628.285 150.201 628.439 151.381 628.825 153.667C634.066 152.561 634.991 152.339 636.686 151.971V152.045Z" fill="#B6DFE5" stroke="black" stroke-width="3.62235" stroke-miterlimit="10"/>
<path d="M682.465 133.39C689.709 133.095 694.488 133.021 696.723 133.095C700.962 133.242 704.584 134.127 707.436 135.823C708.206 136.265 709.285 137.298 709.748 137.961C710.056 138.33 711.289 140.247 711.521 140.616C714.68 145.114 715.605 149.759 712.754 154.257C711.675 155.879 710.364 156.985 708.9 157.575C704.353 159.345 700.114 160.451 696.183 160.967C695.027 161.115 694.642 161.631 694.796 162.884C695.027 165.318 695.721 174.313 695.952 176.821C696.106 178.148 695.49 178.443 694.257 178.516C691.559 178.516 689.17 178.516 687.243 178.516C685.856 178.516 682.002 178.369 675.605 178.074C675.22 177.705 675.914 176.304 675.914 175.714C676.453 166.055 676.376 164.875 676.607 153.815C676.761 145.704 677.07 140.173 677.07 134.791C677.07 134.791 681.925 133.537 682.619 133.537L682.465 133.39ZM696.029 150.497C697.648 149.612 698.033 148.948 699.343 147.326C700.191 146.294 699.497 145.335 698.264 145.261C696.569 145.188 694.642 145.261 692.407 145.409C691.944 145.409 691.328 146.072 691.251 146.515C691.251 146.81 691.251 148.063 691.251 150.275C693.101 150.865 694.488 151.308 696.029 150.497Z" fill="#B6DFE5" stroke="black" stroke-width="3.62235" stroke-miterlimit="10"/>
<path d="M741.58 167.75L746.512 167.529V168.856C746.666 172.248 746.743 174.239 746.743 174.902C746.743 175.935 746.358 176.156 745.356 176.23C734.335 176.746 733.949 176.746 724.547 177.483C724.161 177.483 723.314 177.631 721.849 177.926C721.001 178.073 720.539 177.778 720.462 177.041C720.077 174.755 719.768 171.953 719.768 170.331C719.768 168.856 720.154 168.487 721.541 168.414C721.849 168.414 723.237 168.34 725.703 168.192C725.934 161.998 726.165 154.846 726.474 146.735H719.768C719.306 141.868 718.998 139.214 718.998 138.771C718.921 137.887 718.844 136.854 718.844 135.527C718.844 134.495 719.383 133.979 720.462 133.905C727.244 133.61 731.56 133.462 733.41 133.462C735.106 133.462 738.651 133.61 744.046 133.905C744.277 133.905 744.894 134.347 744.894 134.642C745.048 135.969 745.664 141.795 745.741 143.122C745.818 144.007 745.433 144.523 744.508 144.744C744.431 144.744 743.429 144.965 741.58 145.408V167.676V167.75Z" fill="#B6DFE5" stroke="black" stroke-width="3.62235" stroke-miterlimit="10"/>
<path d="M786.435 172.911C785.51 175.418 783.275 176.377 780.501 177.335C777.803 178.294 775.645 178.736 773.95 178.736C771.946 178.736 769.711 178.368 767.244 177.557C763.699 176.303 760.462 174.976 757.379 173.427C753.68 171.584 751.445 167.086 751.136 162.367C750.751 156.615 752.138 150.2 755.375 143.048C755.684 142.31 756.454 141.499 756.84 140.836C759.152 137.37 762.389 135.158 766.628 134.052C770.173 133.167 773.873 132.798 777.726 132.872C781.117 133.02 784.354 133.978 787.36 135.822C787.591 135.969 788.131 136.559 787.899 137.001C786.975 140.467 785.973 143.933 784.894 147.325C784.894 147.62 784.046 147.914 783.661 147.841C782.042 147.693 776.262 146.956 774.72 146.808C770.404 146.292 767.861 146.882 766.242 149.389C763.314 153.887 763.776 157.795 766.936 161.777C767.707 162.662 769.094 163.547 770.25 163.768C772.177 164.137 774.104 164.505 777.032 163.989C779.036 163.694 780.424 163.547 781.117 163.547C783.275 163.547 785.202 163.694 786.821 163.842C787.129 163.842 787.591 164.431 787.668 164.726C787.668 164.8 787.668 165.39 787.668 166.496H788.054C787.591 168.487 787.052 171.141 786.435 172.911Z" fill="#B6DFE5" stroke="black" stroke-width="3.62235" stroke-miterlimit="10"/>
<path d="M797.224 133.978C800.769 133.683 803.852 133.757 806.319 134.273C806.704 134.273 807.552 134.347 808.939 134.273C809.71 134.273 810.018 134.568 810.018 135.306V148.431L810.403 148.652C810.943 148.136 811.791 147.398 812.33 146.809C813.949 144.744 816.8 141.131 820.962 135.748C820.962 135.748 821.347 135.232 821.887 134.347L834.604 143.638C832.523 145.408 829.594 147.988 827.436 149.61C825.509 151.159 824.276 152.707 822.735 154.92C821.887 156.173 821.27 156.984 820.885 157.427C820.654 157.722 821.039 158.459 821.193 158.533C823.351 160.597 826.126 162.293 829.671 163.547C829.825 163.547 831.444 164.137 834.527 165.169C834.527 165.538 834.45 166.054 834.373 166.939C834.373 166.939 834.218 166.939 834.218 166.865C832.292 170.478 832.831 169.224 831.367 172.911C830.75 174.46 830.211 175.713 829.825 176.524C829.055 178.22 829.055 178.22 826.974 177.704C825.432 177.409 823.351 176.672 820.731 175.492C815.028 172.911 816.954 173.87 811.02 171.731C811.02 174.386 811.02 175.787 811.02 176.008C811.02 177.041 810.557 177.557 809.478 177.63C806.01 177.925 802.927 177.852 800.307 177.483C799.536 177.409 798.226 177.483 796.299 177.778C794.218 178.073 793.371 177.409 793.371 175.492C793.448 167.234 793.602 161.998 793.679 159.786C793.833 157.722 794.912 149.021 795.066 147.103C795.22 145.407 795.529 141.573 795.991 135.601V133.241C795.991 133.241 796.762 133.757 797.07 133.757L797.224 133.978Z" fill="#B6DFE5" stroke="black" stroke-width="3.62235" stroke-miterlimit="10"/>
<path d="M862.89 161.924C861.965 162.441 862.042 163.694 861.888 165.243C861.657 167.676 861.502 169.224 859.036 169.372C856.878 169.446 855.26 169.519 854.181 169.593C851.406 169.593 851.56 169.667 851.637 167.086C851.637 166.349 851.56 163.842 851.637 163.104C851.637 161.629 851.791 160.155 852.023 158.68C852.023 158.311 852.408 157.943 852.87 157.574C854.72 156.099 856.03 155.214 856.647 154.846C857.649 154.33 858.342 153.445 858.728 152.191C859.653 149.242 858.497 146.882 856.724 145.702C855.645 144.965 854.566 144.67 853.41 144.744C852.1 144.818 851.175 144.67 850.019 144.818C848.554 145.039 846.859 146.071 847.167 147.546C847.244 147.767 847.63 149.463 847.707 149.758C847.861 150.495 847.63 150.938 846.859 151.085C846.242 151.159 842.235 151.896 841.541 151.97C840.539 151.97 839.922 151.38 839.691 150.569C838.998 147.325 838.304 143.711 839.537 140.467C840.385 138.108 842.08 136.338 844.47 135.084C847.475 133.61 850.25 132.946 852.87 133.02C855.106 133.02 856.878 133.167 858.111 133.241C859.499 133.315 859.73 133.683 860.886 134.273C862.196 134.937 862.119 134.863 863.275 135.6C864.277 136.19 864.585 136.485 865.279 137.296C865.587 137.665 865.895 138.034 866.05 138.402C867.129 140.246 867.899 142.384 868.593 144.67C868.978 146.292 868.978 148.799 869.287 150.569C869.441 155.362 867.36 159.196 862.967 161.924H862.89ZM853.872 172.1C854.412 172.1 856.416 171.805 856.955 171.731C858.111 171.731 859.422 171.658 860.115 172.174C860.346 172.321 860.423 172.542 860.423 172.616C860.578 174.165 860.578 175.492 860.423 176.524C860.423 176.967 859.807 177.63 859.344 177.704C857.341 177.999 855.568 178.22 853.949 178.294C852.793 178.294 852.1 177.704 852.1 176.524C852.1 176.451 852.1 175.566 851.868 173.943C851.868 172.026 851.868 172.1 853.872 172.026V172.1Z" fill="#B6DFE5" stroke="black" stroke-width="3.62235" stroke-miterlimit="10"/>
<path d="M393.487 74.4571C393.487 76.6441 392.915 78.6803 391.772 80.5657C390.628 82.4386 388.975 84.016 386.813 85.2981C384.664 86.5675 382.137 87.4097 379.234 87.8245L377.348 83.9594C379.85 83.6452 382.005 82.9979 383.815 82.0175C385.625 81.0371 386.983 79.887 387.888 78.5672C388.805 77.2349 389.264 75.8648 389.264 74.4571V72.7791H393.487V74.4571ZM394.317 74.4571C394.317 75.8648 394.782 77.2349 395.712 78.5672C396.655 79.887 398.025 81.0371 399.822 82.0175C401.632 82.9979 403.794 83.6452 406.308 83.9594L404.441 87.8245C401.513 87.4097 398.967 86.5675 396.806 85.2981C394.656 84.016 393.003 82.4386 391.847 80.5657C390.691 78.6929 390.112 76.6567 390.112 74.4571V72.7791H394.317V74.4571ZM394.072 106.094H389.302V93.4806H394.072V106.094ZM407.439 94.3668H376.142V90.4263H407.439V94.3668ZM428.235 75.0604C428.222 78.9066 427.77 82.3569 426.877 85.4112C425.985 88.4655 424.37 91.3124 422.032 93.952C419.707 96.5915 416.476 98.9357 412.341 100.984L409.815 97.2514C413.284 95.542 416.024 93.6377 418.035 91.5387C420.046 89.4396 421.473 87.1143 422.315 84.5628C423.157 82.0112 423.578 79.0511 423.578 75.6826V75.0604H428.235ZM425.954 78.9254H411.851V75.0604H425.954V78.9254ZM410.663 88.3524L410.06 84.2611L423.408 83.4881V87.2023L410.663 88.3524ZM438.341 106.094H433.457V71.7421H438.341V106.094ZM470.826 90.9542H446.58V87.1269H470.826V90.9542ZM474.257 102.21H442.884V98.2695H474.257V102.21ZM460.871 99.5327H456.139V88.8803H460.871V99.5327ZM470.581 78.0205H451.387V88.8614H446.58V74.212H470.581V78.0205ZM494.978 75.0604C494.965 78.9066 494.513 82.3569 493.62 85.4112C492.728 88.4655 491.113 91.3124 488.775 93.952C486.449 96.5915 483.219 98.9357 479.084 100.984L476.557 97.2514C480.026 95.542 482.767 93.6377 484.778 91.5387C486.789 89.4396 488.215 87.1143 489.057 84.5628C489.9 82.0112 490.321 79.0511 490.321 75.6826V75.0604H494.978ZM492.696 78.9254H478.594V75.0604H492.696V78.9254ZM477.406 88.3524L476.802 84.2611L490.151 83.4881V87.2023L477.406 88.3524ZM505.083 106.094H500.2V71.7421H505.083V106.094ZM520.468 97.949L526.728 91.7084L520.468 85.5054L523.918 82.0363L530.159 88.2581L536.381 82.0363L539.831 85.5054L533.59 91.7084L539.831 97.949L536.381 101.362L530.159 95.1586L523.918 101.362L520.468 97.949ZM577.614 81.1125H569.375V77.3229H577.614V81.1125ZM577.331 88.2393H569.13V84.3742H577.331V88.2393ZM581.63 91.5764H576.841V71.8175H581.63V91.5764ZM570.676 74.0989C570.676 77.2035 570.085 79.9498 568.904 82.338C567.735 84.7136 565.981 86.7372 563.643 88.4089C561.305 90.0681 558.389 91.369 554.895 92.3117L553.01 88.5221C555.863 87.7679 558.22 86.7938 560.08 85.5997C561.953 84.4056 563.329 83.0419 564.209 81.5084C565.101 79.9624 565.548 78.2718 565.548 76.4367V74.0989H570.676ZM568.885 77.9828H554.839V74.0989H568.885V77.9828ZM570.186 91.9912C572.498 91.9912 574.541 92.2803 576.313 92.8585C578.085 93.4241 579.455 94.2285 580.423 95.2717C581.391 96.315 581.875 97.5405 581.875 98.9483C581.875 100.356 581.391 101.582 580.423 102.625C579.455 103.681 578.085 104.498 576.313 105.076C574.541 105.654 572.498 105.943 570.186 105.943C567.86 105.943 565.812 105.654 564.039 105.076C562.267 104.498 560.897 103.681 559.929 102.625C558.961 101.582 558.477 100.356 558.477 98.9483C558.477 97.5405 558.961 96.315 559.929 95.2717C560.897 94.2285 562.261 93.4241 564.02 92.8585C565.793 92.2803 567.848 91.9912 570.186 91.9912ZM570.186 95.7431C568.74 95.7431 567.496 95.8625 566.453 96.1013C565.422 96.3401 564.63 96.7046 564.077 97.1948C563.537 97.6725 563.273 98.2569 563.285 98.9483C563.273 99.6396 563.537 100.224 564.077 100.702C564.63 101.179 565.422 101.538 566.453 101.776C567.496 102.015 568.74 102.135 570.186 102.135C571.619 102.135 572.85 102.015 573.881 101.776C574.912 101.538 575.697 101.179 576.238 100.702C576.791 100.224 577.067 99.6396 577.067 98.9483C577.067 98.2569 576.791 97.6725 576.238 97.1948C575.697 96.7046 574.912 96.3401 573.881 96.1013C572.85 95.8625 571.619 95.7431 570.186 95.7431ZM604.066 96.271H599.296V91.0108H604.066V96.271ZM617.396 91.9535H586.098V88.145H617.396V91.9535ZM613.568 106.094H608.78V98.722H589.549V94.8758H613.568V106.094ZM594.828 75.7391H608.591V72.6094H613.38V85.9014H590.076V72.6094H594.828V75.7391ZM608.591 82.1118V79.2837H594.828V82.1118H608.591ZM645.205 82.9979H637.136V79.0951H645.205V82.9979ZM631.329 77.6245C631.316 80.0127 630.964 82.2186 630.273 84.2422C629.582 86.2533 628.526 88.013 627.105 89.5213C625.685 91.0171 623.925 92.1483 621.826 92.915L619.225 89.1065C621.072 88.5032 622.612 87.6234 623.844 86.467C625.076 85.2981 625.981 83.9657 626.559 82.47C627.149 80.9617 627.445 79.3465 627.445 77.6245V73.8915H631.329V77.6245ZM632.29 77.6622C632.29 79.2083 632.573 80.6789 633.139 82.074C633.717 83.4567 634.584 84.701 635.741 85.8071C636.909 86.9132 638.38 87.7616 640.152 88.3524L637.532 92.0854C635.533 91.3439 633.855 90.2629 632.498 88.8426C631.153 87.4097 630.141 85.7443 629.462 83.8463C628.796 81.9484 628.463 79.887 628.463 77.6622V73.8915H632.29V77.6622ZM648.373 97.1571H643.584V71.8175H648.373V97.1571ZM649.108 105.509H625.522V101.626H649.108V105.509ZM630.386 103.737H625.522V94.4987H630.386V103.737ZM669.225 78.1901H654.406V74.2685H669.225V78.1901ZM663.531 90.8222H658.742V82.1872H663.531V90.8222ZM672.072 76.6441C672.059 78.4164 672.009 80.0504 671.921 81.5461C671.833 83.0419 671.626 84.6822 671.299 86.467L666.548 86.0522C666.887 84.2548 667.101 82.6837 667.189 81.3387C667.289 79.9938 667.352 78.4478 667.377 76.7007V76.399V74.2685H672.072V76.399V76.6441ZM680.462 97.4399H675.522V71.7421H680.462V97.4399ZM684.629 86.2596H678.52V82.2437H684.629V86.2596ZM681.537 105.509H657.422V101.626H681.537V105.509ZM662.249 102.851H657.422V95.1586H662.249V102.851ZM652.37 88.9746C656.48 88.9746 660.282 88.9054 663.776 88.7672C667.283 88.6289 670.589 88.3335 673.693 87.881L673.92 91.3501C670.74 91.9409 667.402 92.3305 663.908 92.5191C660.414 92.7076 656.706 92.8019 652.784 92.8019L652.37 88.9746ZM697.393 73.1939C699.115 73.1939 700.667 73.5018 702.05 74.1177C703.432 74.721 704.507 75.582 705.274 76.7007C706.053 77.8068 706.443 79.07 706.443 80.4903C706.443 81.8981 706.053 83.155 705.274 84.2611C704.507 85.3672 703.432 86.2345 702.05 86.8629C700.667 87.4788 699.115 87.7868 697.393 87.7868C695.671 87.7868 694.125 87.4788 692.755 86.8629C691.385 86.2345 690.31 85.3672 689.531 84.2611C688.751 83.155 688.362 81.8981 688.362 80.4903C688.362 79.07 688.751 77.8068 689.531 76.7007C690.31 75.582 691.378 74.721 692.736 74.1177C694.106 73.5018 695.658 73.1939 697.393 73.1939ZM697.393 77.0589C696.538 77.0589 695.778 77.1909 695.111 77.4548C694.458 77.7188 693.942 78.1147 693.565 78.6426C693.201 79.158 693.019 79.7739 693.019 80.4903C693.019 81.1942 693.201 81.7975 693.565 82.3003C693.942 82.8031 694.458 83.1927 695.111 83.4692C695.778 83.7332 696.538 83.8652 697.393 83.8652C698.273 83.8652 699.052 83.7332 699.731 83.4692C700.409 83.1927 700.937 82.8031 701.314 82.3003C701.691 81.7975 701.88 81.1942 701.88 80.4903C701.88 79.7739 701.691 79.158 701.314 78.6426C700.937 78.1147 700.409 77.7188 699.731 77.4548C699.052 77.1909 698.273 77.0589 697.393 77.0589ZM700.013 105.095H695.187V91.237H700.013V105.095ZM715.115 106.075H710.326V71.8175H715.115V106.075ZM686.269 89.8607C690.266 89.8607 694.118 89.779 697.826 89.6156C701.547 89.4522 705.035 89.1254 708.29 88.6352L708.592 92.1609C706.417 92.6008 704.155 92.9339 701.804 93.1601C699.454 93.3738 697.242 93.5246 695.168 93.6126C693.107 93.7006 690.731 93.7634 688.041 93.8011C687.815 93.7886 687.62 93.7886 687.457 93.8011C687.293 93.8011 687.098 93.8011 686.872 93.8011L686.269 89.8607Z" fill="black"/>
</g>
</svg>
