<svg width="119" height="88" viewBox="0 0 119 88" fill="none" xmlns="http://www.w3.org/2000/svg">
<path d="M113.993 65.1545C107.442 61.5321 103.049 55.1352 97.5001 50.4338C94.8797 48.1988 92.8759 44.8077 90.7179 41.9561C89.3306 40.0293 89.0994 38.2566 87.9433 36.1757C86.8643 34.2489 85.4 33.0928 84.4751 31.166C81.9318 25.6169 79.0801 20.5302 74.3017 16.3683C69.8316 12.5148 64.1283 8.81544 58.5021 6.81159C49.4848 3.72874 39.7738 1.10829 30.1399 3.65164C19.427 6.4262 9.25358 14.6728 5.7083 25.4628C5.09173 27.3125 4.24396 29.1622 4.01274 31.089C3.70446 33.247 2.70253 36.1757 2.7796 38.2567C2.7796 39.5669 3.55031 40.4146 3.78152 41.5707C4.01274 43.035 3.78153 44.1911 4.01274 45.5784C4.3981 48.2759 5.40002 51.2817 6.55609 53.7479C11.0262 63.1506 20.2748 69.6246 29.215 74.1718C34.0705 76.6381 39.3114 78.4107 44.5522 80.1063C48.9453 81.5706 53.9549 82.8809 58.425 83.2662C63.3576 83.6516 68.136 84.2682 73.1456 84.3452C78.7718 84.3452 85.5541 83.1892 91.0262 81.8019C95.9587 80.5687 100.66 78.3336 105.13 76.0986C107.674 74.7883 109.138 74.0177 110.756 71.8597C112.375 69.7017 114.995 68.0061 115.072 65.0774" fill="#F2A0B1"/>
<path d="M115.459 62.6902C110.911 59.9927 107.443 56.2162 103.821 52.4397C99.7361 48.2779 95.1889 44.4244 92.4143 39.1064C87.6359 30.0891 83.2428 19.9927 75.1504 13.2875C58.6571 -0.354072 32.8383 -5.82616 14.9577 8.20081C7.32768 14.2124 3.01169 22.3819 1.0849 31.7846C0.622477 33.8655 -0.0711591 36.1777 0.00591215 38.3357C0.0829834 40.3395 0.930764 42.3434 1.16198 44.3472C1.62441 49.2027 3.01169 53.7499 5.55504 57.9117C10.6417 66.3896 19.1196 72.4011 27.8286 76.7171C37.2313 81.4185 48.0213 85.1179 58.503 86.1969C71.528 87.5071 84.3219 87.7383 96.7303 83.1911C104.9 80.1853 116.769 75.0986 118.002 65.1564C118.464 61.457 112.684 61.5341 112.222 65.1564C111.836 68.3164 106.827 72.0158 104.36 73.4031C99.9673 75.7923 95.266 77.8732 90.3334 79.1063C80.2371 81.7267 70.6032 81.5726 60.2756 80.5707C50.7188 79.6458 40.8537 76.563 32.1446 72.4012C24.2834 68.7017 16.1909 63.538 11.2583 56.1391C1.3932 41.3414 6.40283 19.9927 21.3546 10.59C30.8344 4.57844 41.239 4.65559 51.7978 7.66137C61.5858 10.4359 71.451 15.4455 77.3854 24.0004C82.8575 31.9388 86.2486 41.0332 92.1831 48.7404C94.9577 52.3627 98.58 55.2914 101.817 58.6055C105.054 61.9195 108.445 65.1565 112.607 67.6228C115.844 69.4725 118.696 64.5399 115.536 62.6131L115.459 62.6902Z" fill="#F27C93"/>
</svg>
